<?xml version="1.0" encoding="utf-8"?>
<!-- Generator: Adobe Illustrator 16.0.3, SVG Export Plug-In . SVG Version: 6.00 Build 0)  -->
<!DOCTYPE svg PUBLIC "-//W3C//DTD SVG 1.1//EN" "http://www.w3.org/Graphics/SVG/1.1/DTD/svg11.dtd" [
	<!ENTITY ns_flows "http://ns.adobe.com/Flows/1.0/">
	<!ENTITY ns_extend "http://ns.adobe.com/Extensibility/1.0/">
	<!ENTITY ns_ai "http://ns.adobe.com/AdobeIllustrator/10.0/">
	<!ENTITY ns_graphs "http://ns.adobe.com/Graphs/1.0/">
]>
<svg version="1.1" id="Layer_1" xmlns:x="&ns_extend;" xmlns:i="&ns_ai;" xmlns:graph="&ns_graphs;"
	 xmlns="http://www.w3.org/2000/svg" xmlns:xlink="http://www.w3.org/1999/xlink" xmlns:a="http://ns.adobe.com/AdobeSVGViewerExtensions/3.0/"
	 x="0px" y="0px" width="80px" height="80px" viewBox="0 0 80 80" enable-background="new 0 0 80 80" xml:space="preserve">
<path fill="#F7296E" d="M77.367188,29.698242C77.759766,29.472168,78.000977,29.052734,78,28.598633V18.46582
	c0.000977-0.453125-0.240234-0.872559-0.632813-1.099121L68.5,12.300293c-0.388672-0.223145-0.867188-0.223145-1.256836,0
	l-8.866211,5.066406c-0.396484,0.223633-0.642578,0.643066-0.643555,1.099121v3.018066l-7.599609-3.799805V8.33252
	C50.134766,7.879395,49.892578,7.458984,49.5,7.233887l-8.866211-5.067383c-0.38916-0.222656-0.868164-0.222656-1.256836,0
	l-8.868164,5.067383c-0.395508,0.223145-0.641113,0.643066-0.64209,1.098633v9.351563l-7.600098,3.799805V18.46582
	c0.001465-0.453125-0.240234-0.872559-0.633301-1.099121l-8.866699-5.066406c-0.388672-0.223145-0.866211-0.223145-1.257813,0
	l-8.865234,5.066406C2.246582,17.590332,2.000977,18.009766,2,18.46582v10.132813
	c-0.001465,0.448242,0.236816,0.861816,0.619141,1.090332c0.024414,0.016602,0.047852,0.034668,0.07373,0.049805l8.803223,5.067383
	c0.38623,0.222656,0.861816,0.222656,1.248047,0l6.868652-3.954102l2.020508-1.153809
	c0.393066-0.226074,0.634766-0.645508,0.633301-1.099609V24.31543l8.827148-4.414063l7.639648,4.365234v4.864258L30.5,33.833496
	c-0.393066,0.226074-0.633301,0.64502-0.633301,1.099121v9.110352l-0.038574-0.060547l-9.20459,5.742188l-0.708984-0.40625
	c0.011719-0.007813,0.023438-0.016602,0.036133-0.025391l-7.194336-4.110352c-0.388672-0.222656-0.867676-0.222656-1.256348,0
	L2.633301,50.25C2.240234,50.477539,2,50.896484,2,51.347656v0.051758v0.131836v10.000977
	c-0.001465,0.452148,0.241699,0.873047,0.633301,1.099609L11.5,67.699219c0.388672,0.22168,0.866211,0.22168,1.256348,0
	l8.208984-4.6875l8.901367,5.557617v3.097656c0,0.452148,0.240234,0.870117,0.633301,1.098633l8.866699,5.067383
	c0.388672,0.222656,0.867676,0.222656,1.256348,0l8.867188-5.067383c0.396484-0.225586,0.641602-0.643555,0.643555-1.098633
	v-3.097656v-2.982422v-4.054688c0.000977-0.452148-0.241211-0.87207-0.633789-1.099609l-1.74707-0.99707
	c0.00293-0.001953,0.005859-0.003906,0.007813-0.004883l-7.160156-4.203125C40.212402,55,39.736328,55,39.350098,55.227539
	l-8.827148,5.180664c-0.082031,0.047852-0.15625,0.108398-0.225098,0.173828c-0.27002,0.238281-0.431152,0.582031-0.431152,0.950195
	v4.054688l-7.600098-4.756836v-9.057617l8.598145-5.362305l7.868652,4.516602l0,0l0,0l0.616699,0.353516
	c0.38623,0.223633,0.862305,0.223633,1.250488,0l7.160156-4.110352c-0.001953-0.00293-0.005859-0.004883-0.008789-0.005859
	l1.235352-0.707031l8.746094,5.457031v0.405273V60.8125v0.716797c0,0.452148,0.236328,0.870117,0.62207,1.09375l7.006836,4.054688
	c-0.007813-0.021484-0.012695-0.042969-0.020508-0.064453l1.896484,1.081055c0.388672,0.222656,0.868164,0.222656,1.256836,0
	l8.866211-5.066406C77.754883,62.402344,77.999023,61.984375,78,61.532227V51.399414
	c0.000977-0.454102-0.240234-0.873047-0.632813-1.099609l-8.233398-4.702148V34.400391L77.367188,29.698242z M10.866699,31.486816
	l-6.334473-3.62207v-7.21582l6.334473,3.617676V31.486816z M12.133301,22.07373l-6.313965-3.60791l6.313965-3.606934
	l6.313965,3.606934L12.133301,22.07373z M19.73291,27.868652l-6.333008,3.618164v-7.220215l6.333008-3.617676V27.868652z
	 M10.866699,64.420898l-6.334473-3.624023v-7.21582l6.334473,3.620117V64.420898z M12.133301,55.006836l-6.313965-3.607422
	l6.313965-3.607422l6.313965,3.607422L12.133301,55.006836z M19.73291,60.796875l-6.333008,3.620117v-7.219727l6.333008-3.620117
	V60.796875z M47.599609,70.931641l-6.333008,3.619141v-7.22168l6.333008-3.618164V70.931641z M33.800293,61.467773L40,57.925781
	l4.587891,2.621094l1.117188,0.655273c0.00293-0.003906,0.006836-0.006836,0.010742-0.010742l0.597656,0.34082L40,65.145508
	l-6.3125-3.611328L33.800293,61.467773z M32.400391,63.71582l6.333008,3.617188v7.22168l-6.333008-3.623047V63.71582z
	 M75.466797,27.864746l-6.333008,3.618652v-7.219727l6.333008-3.619141V27.864746z M60.266602,20.648926l6.333008,3.617676v7.220215
	l-6.333008-3.62207V20.648926z M40,4.724609l6.313477,3.60791L40,11.94043l-6.313965-3.60791L40,4.724609z M47.599609,10.515625
	v7.219727l-6.333008,3.618652v-7.219727L47.599609,10.515625z M32.400391,17.731445v-7.21582l6.333008,3.618652v7.219727
	L32.400391,17.731445z M38.733398,43.117188c-0.005371,0.001953-0.009277,0.00293-0.01416,0.00293v4.825195l-6.318848-3.615234
	v-7.214355l6.333008,3.617676V43.117188z M40,38.540039l-6.313965-3.607422L40,31.325684l6.313477,3.606934L40,38.540039z
	 M47.599609,44.333008l-6.333008,3.620117v-7.219727l6.333008-3.617676V44.333008z M50.133789,44.098633v-9.166016
	c0.000977-0.454102-0.241211-0.873047-0.633789-1.099121l-8.233398-4.702637v-4.864258l7.639648-4.365234l8.827148,4.414063
	v4.283203c0,0.454102,0.240234,0.873535,0.632813,1.099609l8.233398,4.702148v11.197266l-7.34082,4.193359L50.133789,44.098633z
	 M66.599609,64.420898l-6.333008-3.624023v-7.21582l6.333008,3.620117V64.420898z M75.466797,60.796875l-6.333008,3.620117
	v-7.219727l6.333008-3.620117V60.796875z M74.181641,51.399414l-6.314453,3.607422l-6.31543-3.607422l6.31543-3.607422
	L74.181641,51.399414z M67.867188,22.07373l-6.31543-3.60791l6.31543-3.606934l6.314453,3.606934L67.867188,22.07373z"/>
</svg>
