<svg xmlns="http://www.w3.org/2000/svg" xmlns:xlink="http://www.w3.org/1999/xlink" width="288.917" height="288.917" viewBox="0 0 288.917 288.917"><defs><linearGradient id="a" x1="0.5" x2="0.5" y2="1" gradientUnits="objectBoundingBox"><stop offset="0" stop-color="#f7296d"/><stop offset="1" stop-color="#f7296d" stop-opacity="0"/></linearGradient></defs><g transform="translate(-9032.92 -1536.204)"><g transform="translate(9032.92 1536.204)" opacity="0.82"><path d="M11578.119-3936.95a144.458,144.458,0,0,1-144.457,144.458,144.459,144.459,0,0,1-144.46-144.458q0-6.666.594-13.184a143.666,143.666,0,0,1,9.129-39.029,144.515,144.515,0,0,1,134.737-92.246,144.511,144.511,0,0,1,134.734,92.248,143.685,143.685,0,0,1,9.13,39.027Q11578.115-3943.621,11578.119-3936.95Z" transform="translate(-11289.202 4081.409)" fill="url(#a)"/><g transform="translate(17.138 9.609)" opacity="0.53"><path d="M11397.67-4056.06c-.948,1.181-1.808.5-1.887.136a2.445,2.445,0,0,1-.007-.562c-.455-.216-.593.437-.989.414a.193.193,0,0,1,.041-.072.846.846,0,0,0,.054-.071.656.656,0,0,0,.056-.071.749.749,0,0,1,.053-.069l.052-.071a.709.709,0,0,1,.056-.068c.016-.024.033-.046.051-.07s.035-.045.051-.068c-.429-.16-.739.194-1.115.263.242-.4.116-.433-.38-.328s-.621.078-.746.031a4.505,4.505,0,0,1,.459-.831c.689-.062.689-.062.765.012.508-.278.508-.278.541-.275a.771.771,0,0,0,.008-.083c-.062-.057-.152-.061-.215-.12.036-.092.081-.133.34-.342-.522.278-.617.236-.723.054a.422.422,0,0,0-.449-.21c.028-.034.057-.067.086-.1s.061-.067.088-.1.058-.068.089-.1.057-.067.085-.1.061-.068.089-.1.058-.067.086-.1.059-.066.091-.1.057-.067.088-.1c.49-.024.49-.024.646-.255.058.14.133.178.7.2.939.028,1.048.205.541.9.346-.148.729-.144,1.082-.257.051.569.787.678.842,1.245-.138.131-.324.205-.46.339a.285.285,0,0,0-.078.186c.007.282.242.56.011.845" transform="translate(-11314.607 4070.056)" fill="#fff"/><path d="M11402.312-4056.727a1.922,1.922,0,0,0-.5.841,3.3,3.3,0,0,1-1.175.265,1.868,1.868,0,0,0-.979.287c-.159-.052-.184-.061-.212-.3s-.07-.237-.238-.274a.463.463,0,0,1,.432-.282c-.322-.163-.617-.748.568-1.792,1.4.306,1.45.318,1.365.834.575-.249.718-.05.866.28-.039.042-.091.1-.131.138" transform="translate(-11315.105 4069.933)" fill="#fff"/><path d="M11388.75-4056.916a4.267,4.267,0,0,1-2.262.188,6.18,6.18,0,0,0-1.141-.093,9.351,9.351,0,0,1,3.223-1.01c.63.053.64.316.434.815-.08.029-.178.073-.254.1" transform="translate(-11314.001 4069.921)" fill="#fff"/><path d="M11387.7-4056.066a1.013,1.013,0,0,1-1.006.407c.288.293-.529,1-.539,1l-1.922.27c-.514-.019-.578-.239-.606-.482.032-.036.065-.069.1-.106s.064-.069.1-.105.063-.071.094-.107.065-.069.1-.1l.1-.1c.029-.036.064-.071.095-.106s.068-.072.1-.107.066-.071.1-.105a7.143,7.143,0,0,1,3.071-.5c.12,0,.237.006.356.011-.039.043-.088.1-.127.14" transform="translate(-11313.863 4069.793)" fill="#fff"/><path d="M11379.325-4048.811a.488.488,0,0,1-.336.127.284.284,0,0,1-.283-.3c.788-.094.664.12.645.146a.164.164,0,0,1-.025.03m7.031-1.294a5.806,5.806,0,0,0,.473-.715c-.167-.294-.857-.566-1.68.126-.134-.233-.564-.251-.5-.617l.93-1.78-.344.055a6.817,6.817,0,0,0-2.433,1.38c.084.216.575.189.446.466-.027.06-.131.151-.466.232a.709.709,0,0,0-.469.357c.424.076.539.228.469.625l-.253,0-.247-.006-.25-.007c-.085,0-.167,0-.25-.005l-.248,0-.246-.006c-.08,0-.161,0-.245-.006l-.244-.005c.354-.876.6-1.805-.979-1.712.155-.353.448-1.009-1.055-.408-.558.222-1.658.782-1.663.786l-2.566,2.09c.47.489.47.489.922.342a4.393,4.393,0,0,1-.367.308c1.873.071,1.873.071,2.729-.712-.418.471-.418.471-.291.94a1.453,1.453,0,0,0-1.4.6c.227,1.114,1.582.7,3.964-.132a9.744,9.744,0,0,1,1.8-.517,6.753,6.753,0,0,1,.844.116c.624.012,1.248-.049,1.873-.063.555-.6,1.229-1.082,1.748-1.717" transform="translate(-11313.14 4069.544)" fill="#fff"/><path d="M11391.522-4050.728a.28.28,0,0,1-.115.092c-.071.028-.149.026-.225.047a.264.264,0,0,1,.122-.1,1.759,1.759,0,0,1,.227-.047l-.009.012m1.624-.582a.292.292,0,0,1-.157.047c-.334-.024-.42-.58-.05-.892.027-.022.062-.048.088-.066a.662.662,0,0,0-.073.386c.031.188.178.325.214.508,0,.007-.018.012-.021.016m1.9,1.875a.277.277,0,0,0,.042-.047l.992-2.48a.509.509,0,0,0-.314-.668c-.54.281-1.259.524-1.148.228a.985.985,0,0,1,.166-.237,1.847,1.847,0,0,0-.892-.108,10.587,10.587,0,0,0-1.939.667c-.448.289-.538.856-.936,1.183.532-2.1-1.228-1.53-1.25-1.517a1.608,1.608,0,0,0-.271.525,2.043,2.043,0,0,1-.559.96l.075,0h.15c.025,0,.05,0,.076,0h.076l.076,0h.075l.08,0c-.112.466-.215.906.23,1.149a13.5,13.5,0,0,0,2.068.1,9.487,9.487,0,0,0-.738,1.384,9.253,9.253,0,0,0,2.7-.118c.109-.039.294-.066.352-.167.166-.285.118-.634.283-.919.207-.043.412.261.605.051" transform="translate(-11314.286 4069.517)" fill="#fff"/><path d="M11398.643-4047.531a2.571,2.571,0,0,1-1.624.318,3.09,3.09,0,0,1-1.648-.955,1.6,1.6,0,0,1,.705-.631c.424-.259.424-.28.429-.443a3.373,3.373,0,0,1,1.681-.6c1.694.123.564,2.215.458,2.314" transform="translate(-11314.799 4069.285)" fill="#fff"/><path d="M11391.343-4040.839a2.59,2.59,0,0,1-2.412,1.223c-1.27,1.147-1.562.583-1.975-.514-.341-.907-.672-1.5-1.87-.88.419-.607.448-.725.254-1.044a.5.5,0,0,1-.1-.445c.135-.367.135-.367,1.719-1.292-.2.411-.735,1.5.853,1.155.168-.332.24-.435.409-.483.033-.338.037-.382-.43-.578-.426-.178-.36-.331-.184-.736a1.859,1.859,0,0,0,1.143-.793c.5.075,1.508-.534,1.517.178.153-.2.567-.726,2.252-.778h.086c-.2.4-.188.46.107.656a.323.323,0,0,1,.192.3,5.38,5.38,0,0,1-2.016,1.443c-.008.029-.012.069-.02.1.144.17.369.051.53.156,0,.024.009.057.012.081.749-.575.749-.575.952-.483a20.027,20.027,0,0,1-1.022,2.734" transform="translate(-11313.98 4068.965)" fill="#fff"/><path d="M11403.216-4015.86c-.493.745-1.672,1.694-2.74,1.075a1.408,1.408,0,0,1,.5-1.059,1.628,1.628,0,0,0,.383-.524,1.6,1.6,0,0,0,1.115-.014,1.731,1.731,0,0,1,.44-.1.415.415,0,0,1,.3.623" transform="translate(-11315.206 4066.627)" fill="#fff"/><path d="M11407.265-4015.01l-.018.1c0,.033-.012.066-.016.1s-.013.065-.018.1-.012.066-.016.1-.012.066-.021.1-.009.066-.013.1-.015.066-.02.1-.011.066-.017.1-.012.066-.016.1-.012.066-.019.1-.012.067-.016.1-.013.066-.02.1-.009.066-.014.1a.561.561,0,0,0-.018.1c-.007.033-.012.066-.016.1-.3.237-.673.073-1.288-.2-.11-.433.076-.658.46-.924.2-.136.261-.188.132-.267.023-.163.085-.211.286-.22.226,0,.45.106.679.016,0,.034-.011.067-.017.1" transform="translate(-11315.622 4066.519)" fill="#fff"/><path d="M11527.754-4015.106c.351.775.276,1.05.24,1.182-.5-.158-.738-.631-1.046-1.566l.017,0h0c.24,0,.424.23.68.162l.1.224" transform="translate(-11325.282 4066.548)" fill="#fff"/><path d="M11523.276-4009.157c.139.456.019,1.136-.486,1.2h-.008l0,0h-.01c-.161-.223-.455-.319-.566-.588a.55.55,0,0,1,.072-.58c.118-.135.285-.222.378-.382a.491.491,0,0,0,.041-.33,1.032,1.032,0,0,1,.581.675" transform="translate(-11324.902 4066.097)" fill="#fff"/><path d="M11523.019-4006.666c.047.253-.166.289-.374.152a.619.619,0,0,1-.28-.56.3.3,0,0,1,.086-.022c.286,0,.29.384.561.4l.008.032" transform="translate(-11324.919 4065.879)" fill="#fff"/><path d="M11522.908-3996.72c.124.438-.109.51-.293.526-.027,0-.057,0-.084,0a.486.486,0,0,0,.027-.3c-.02-.247-.036-.458.3-.381.017.051.035.1.047.154m4.568-2.811a.729.729,0,0,1,.136-.044,2.735,2.735,0,0,0-2.409-2.174,2.769,2.769,0,0,1-1.575-.8c.044.085.1.2.139.285.266.678.154.766-.387.732-.374-.023-.454,0-.579.108.222.545.034,1.185.4,1.7-.214.249-.214.249-1.684.326h-.019c-.036,0-.082.005-.118.009.129.34.142.383.1.566a.585.585,0,0,0-.017.34c.062.323.376.51.45.827.115.5-.11,1.01.088,1.5.157.391.65.064.841.384-.092.329.048.683-.111,1-.006.007-.1.184-.46.131.5,1.782,1.124,2.085,2.781,1.355.9-.4,1.355-.57,1.749-.092-.479-1.649,1.225-1.185,1.241-1.178a7.744,7.744,0,0,0-1.225-4.309c.439.067.388-.5.662-.666" transform="translate(-11324.839 4065.517)" fill="#fff"/><path d="M11529.847-3999.573c.141.469-.1.906-.741.789-.363-.87-.277-1.283.275-1.334.119-.007.119-.007.216.1a1.288,1.288,0,0,1,.25.442" transform="translate(-11325.439 4065.323)" fill="#fff"/><path d="M11558.868-3967.21c.166.864.252,1.74.386,2.609-.612-.076-1.063,1.233-1.484.61,0,0-.073-.208-.326-1.4a14.863,14.863,0,0,0-.954-3.288c.627.618,1.036-.289,1.052-.329-.282-.538-.7-1-.946-1.56a3.767,3.767,0,0,1-.372-1.411c.03-.141.235-.232.355-.287.4-.177.434-.257.35-.724.952.744.8,2.947.8,2.97-.006.084-.073.2-.035.279a17.071,17.071,0,0,1,.957,1.7,7.327,7.327,0,0,1,.217.833" transform="translate(-11327.616 4063.162)" fill="#fff"/><path d="M11409.842-3914.8c-1.944.615-3.973.125-5.938.44.027-.645.679-.928.864-1.483-2.9-.594-5.147-2.85-8.156-3.16-.023-.348-.262-.64-.26-1-1.8-.192-2.84,1.968-4.729,1.51.66-1.857,1.939-2.6,4.723-2.739a8.065,8.065,0,0,1,5.289,1.693.4.4,0,0,0,.2.052c.394.024.2-.684.584-.59.095.023.129.032.523.467.616.68,1.15,1.17,1.947.8,1.108,2.147,4.069,1.845,5.245,3.906-.09.031-.206.076-.3.1" transform="translate(-11314.501 4059.037)" fill="#fff"/><path d="M11418.251-3910.754c0,.074,0,.244-.054.255-.062-.007-.143-.276-.143-.279a.831.831,0,0,1,.1-.267c.053-.047.092.116.1.291m3.268-.045c0,.074,0,.244-.052.256-.064-.007-.142-.274-.142-.28a.807.807,0,0,1,.1-.267c.055-.047.093.112.095.291m1.13-.576a2.011,2.011,0,0,0-.454-1.421c-1.942-.125-3.271-1.977-5.3-1.844a1.431,1.431,0,0,0-1.057.7c-1.759-.778-2.175-.963-2.318.282.3.187.733.163.907.556.163.374-.33.737-.335.737-.071.024-.071.024-.766-.316a5.12,5.12,0,0,1,.361,1.063,1.666,1.666,0,0,1-.292.655,1.962,1.962,0,0,0,2.536-.522c-.022.629.471,1.1.531,1.7.59-.238,1.246-.262,1.829-.52.427-.182.427-.182.471-.487.285.085.44.372.712.478.049-.676.263-.711.776-.639.47.069.666.024.828-.364,0,.04,0,.083,0,.125s0,.08.007.123,0,.08,0,.122,0,.08,0,.123,0,.077,0,.121,0,.08.006.12,0,.081,0,.123,0,.078,0,.121c1.233-.075,1.233-.075,1.4-.021a6.247,6.247,0,0,0,.138-1.021" transform="translate(-11316.23 4058.513)" fill="#fff"/><path d="M11447.316-4039.023a2.269,2.269,0,0,1-.247.281,1.012,1.012,0,0,1,.247-.285v0" transform="translate(-11318.92 4068.424)" fill="#fff"/><path d="M11448-4038.228a.116.116,0,0,1-.065.1,1.6,1.6,0,0,1-.255.064.127.127,0,0,1,.064-.125,1.168,1.168,0,0,1,.256-.058s0,.011,0,.014m28.622-1.9c.032.089.1.354.057.37-.054-.011-.2-.345-.2-.351s.007-.133.04-.151.062.036.1.132m3.55-1.156c.021.05.064.163.033.171s-.164-.187-.166-.188-.033-.166-.008-.19.1.091.141.207m3.538-1.89c.02.048.015.083-.012.1-.06.046-.136.035-.2.061-.009-.024-.033-.077,0-.109.06-.051.138-.039.2-.071,0,0,0,.01.007.014m-.876-.851a2.76,2.76,0,0,1-.373-.262c.023,0,.373.26.373.262m-5.175-2.806c-.03.325-.238.365-.431.378-.326.01-.653-.054-.982-.043a2.116,2.116,0,0,1,1.419-.4c0,.02,0,.043-.006.062m1.1.066a.93.93,0,0,1,.048.15c-.187.042-.3-.063-.276-.12.01-.018.041-.026.061-.032-.162-.186-.668-.415-.675-.221a.559.559,0,0,0,.108.249c-.183-.052-.228-.294-.435-.309-.129-.324.012-.33.688-.355a.708.708,0,0,0,.233.332.773.773,0,0,1,.247.308m1.609-2.816c.023.043.021.076,0,.1-.051.044-.124.032-.184.056-.019-.036-.032-.076,0-.107.05-.048.12-.036.179-.06a.038.038,0,0,1,0,.015m-13.231-18.141c-.027.14-.187.148-.38.145-.365-.008-.438.051-.472.2a2.032,2.032,0,0,1,.461.571.487.487,0,0,0-.187-.072.06.06,0,0,0-.051.031.163.163,0,0,1-.141.074.469.469,0,0,1-.108-.009.8.8,0,0,0-.274-.3.85.85,0,0,1-.276-.265,1.161,1.161,0,0,0,.5-.193,1.259,1.259,0,0,1,.931-.224.284.284,0,0,1,0,.051m9.1,1c-.877-1.51-2.593-.666-3.772-1.327.073.073.172.171.248.245-1.072.623-1.072.623-1.28,1.132-.508-.135-1.035-.025-1.545-.137-.3.226-.3.226-.633.787a4.052,4.052,0,0,0-1.74-1.765,1,1,0,0,1,.2-.561c-.465-.64-1.294-.712-1.863-1.188-.051.086-.114.2-.161.286-.454,0-.9-.086-1.353-.1a4.568,4.568,0,0,0-.483-.481c-.086-.047-.1-.045-.122-.045l-.057,0-.052,0-.058,0a.486.486,0,0,0-.055,0l-.055,0a.317.317,0,0,0-.054,0,.575.575,0,0,0-.059,0c-.2-.122-.2-.122-4.172-1.1a.178.178,0,0,0,.01.054c.016.1.037.228.054.325-3.593.25-3.593.25-4.277.534a3.63,3.63,0,0,1-.551-.425c-.192.359-.192.359-.859.583a6.4,6.4,0,0,0,.414.493,9.466,9.466,0,0,0-5.582.563c0,.13,0,.3-.006.433l.689.059a1.129,1.129,0,0,0-.084.609,3.36,3.36,0,0,1,.6.314c-.072.054-.17.128-.24.184.162.1.371.241.526.353-1.638.079-3.058-.857-4.651-.979-.043.115-.1.267-.141.38.1.181.231.425.332.607-1,.077-1.867-.561-2.862-.482-3,.238-3.5.607-4.093,1.035l-.173-.293c-.451.248-.952.361-1.416.563-.023.459.114.909.086,1.369a35.829,35.829,0,0,0-5.813,2.023c.442.978.442.978.466,1.008a4.094,4.094,0,0,0,1.52.02c0,.852,0,1.031-.775,1.479-.975.56-2.171.241-3.15.783-.026.135-.061.314-.086.448-.782.416-.782.416-.968,1.068.77-.024,1.309.74,2.108.6a6.507,6.507,0,0,1,.764,1.461c-1.6-.141-3.114-.272-3.22,1.049a3.031,3.031,0,0,1,.644.094c.026.1.06.234.085.334l-.383-.025a1.965,1.965,0,0,0-.215.573,1.694,1.694,0,0,1-.574-.121c-.033.1-.077.222-.109.318l.247.232c-.01.151-.025.351-.038.5,2.682.855,2.682.855,3.854.094.28.518.317.527.686.594.715-.514,1.81-.09,2.388-.948,1.178.514,2.686.207,3.577,1.424.06-.077.139-.18.2-.257a5.836,5.836,0,0,1,1.217.385c-.132.553.336.987.31,1.518.806-.01.962.243,1.144.536a3.864,3.864,0,0,0-.242.549c.052.076.119.175.168.25a3.281,3.281,0,0,1,.63-.041,2.015,2.015,0,0,1-.448.471c.033.1.075.221.108.314.3.051.6.016.9.041a4.254,4.254,0,0,0-.427.5,4.012,4.012,0,0,1,.586.173c.151.506.151.506.994,1.231h-.3a5.277,5.277,0,0,0,.154.707c-.164.1-.379.249-.534.364,0,.106.012.247.017.352.169.079.395.187.563.267a12.354,12.354,0,0,1-.31,2.1c.535.6,1.529,1.73,3.2.261.186.311.112.683.238,1.008,1.473.065,1.473.065,1.476.524-2.928.046-2.928.046-3.211.2.312.769.312.769.553,1.016-.622.225-.731.266-.724,1.755a3.25,3.25,0,0,0,4.215.249,10.291,10.291,0,0,0-.267-1.043,2.552,2.552,0,0,0,.607.168c-.045.232-.045.232.532,1.2-.177.524-.064,1.106-.346,1.606a14.829,14.829,0,0,1-1.618-.158c-2.194,3.141-1,4.494-.605,4.938-.342.231-.342.231-.429,1.686a1.168,1.168,0,0,1,.69.352l3.05,5.459.4.063c.1.359.125.734.255,1.087,1.3.051,1.315.975,1.1,1.741.8.357,1.253,1.175,2.055,1.534v0c-.294,1.309,1.585,1.228,1.6,2.358,2.412-.648,4.091-.05,5.3,1.878-.014-.086-.029-.205-.041-.293.323-.154.323-.154.95-.122.237.641.237.641,2.115-.3-.208-2.068.725-4.136,0-6.2.337-.078.683-.118,1.023-.185a4.515,4.515,0,0,1,1.336-2.248c-.418-.976.068-2.125-.592-3.055.806-.339,1.177-1.257,2.052-1.5a2.367,2.367,0,0,1,1.836.412,1.96,1.96,0,0,1,.108-.708c1.268-.26,2.114-1.344,3.34-1.685,1.929-3.531,1.929-3.531,2.031-3.581a4.884,4.884,0,0,1,.048-.917c4.623.469,7.587-2.324,9.751-4.363a.95.95,0,0,0,.442.34,5.31,5.31,0,0,0-.232-1.573c-1.757.29-3.437-.727-5.2-.275a5.638,5.638,0,0,0,.984-.566,5.03,5.03,0,0,0-.2-.751c.1-.026.235-.064.334-.09a8.386,8.386,0,0,1,1.822,1.441l.157-.006c1.854-.119,1.854-.119,2.3-.005.06-.108.136-.25.192-.358-.05-.114-.05-.114-.655-1.213l.266-.167c-.335-.686-1.071-.909-1.606-1.361l.184-.256c-.283-.231-.283-.231-3.426-1.269.046.078.111.182.156.26-.533.172-.542.168-.939-.052l.307-.03a1.091,1.091,0,0,0-.262-.654,11.329,11.329,0,0,1,2.473.73c.016-.086.037-.2.054-.286l.193-.064h.017a4.315,4.315,0,0,0-1.056-1.426,10.229,10.229,0,0,1-1.883-.062c-.294-.357-.488-.781-.816-1.114.043-.082.1-.19.14-.271,3.811.407,3.811.407,4.48.2-.364-.945-.407-.964-1.113-1.311a3.79,3.79,0,0,1,1.224-.471c.183-1.018.183-1.018-.2-1.4-.062,0-.063,0-.065.005a4.444,4.444,0,0,1-1.105-.068c-1.185-2.318-1.185-2.318-2.007-3.148-1.863.138-1.863.138-2.363-.177.073-.048.174-.111.245-.159-.3-.934-2-1.3-1.4-2.532.091-.018.208-.042.3-.061-.121-.377-.226-.7-1.062-1.075.276-.76-.424-1.261-.52-1.923.032,0,.064,0,.1,0l.1,0c.033,0,.066,0,.1-.006l.1,0c.03,0,.063,0,.094,0l.1-.006.1,0,.1,0a1.634,1.634,0,0,1-.4-.581l.212-.356c-.2-.528-.2-.528-.713-.539-.062-.095-.146-.22-.207-.315.023-.089.053-.206.074-.3a4.762,4.762,0,0,0,.753.046c.174-.459.174-.459-.148-1.141l.283-.095a5.618,5.618,0,0,0,.008-.678c-.17-.108-.393-.255-.555-.37.455-.3.494-.27.9-.012a3.185,3.185,0,0,1-.111-1.019,2.263,2.263,0,0,0,.621-.555,3.175,3.175,0,0,0-.127-.493" transform="translate(-11317.339 4070.968)" fill="#fff"/><path d="M11380.651-4054.4c-.5.456-.761.436-.877.428a5.409,5.409,0,0,1-.88,1.165,1.5,1.5,0,0,1-.255.085c-.217.083-.523.237-1.006.479-.538.271-1.148.578-1.212.391-.058-.167.365-.677.647-1.014-1.092.919-2.436,1.461-3.565,2.325,0-.129-.167-.18-.149-.316s.067-.2.241-.457c-.322.107-.468.434-.746.594.288-.565.025-.651-1.076-.35.373-.355.572-.847.949-1.2a.208.208,0,0,0-.029.095.585.585,0,0,0,.448-.163v-.066c1.54-.313,2.746-1.342,4.169-1.906.888-.354,1.329-.449,1.743-.129.379-.167.627-.58,1.1-.575.246.028.246.028.631.483-.04.039-.092.092-.13.13" transform="translate(-11312.919 4069.697)" fill="#fff"/><path d="M11425.2-3812.88c.018.048,0,.05-.011.052a.436.436,0,0,1-.167-.106c.01-.147.1-.05.122-.03a.245.245,0,0,1,.056.084m.292-1.064c.011.022.036.093.013.1s-.1-.1-.1-.1-.009-.1.012-.107.055.05.078.113m-3.938-1.8c.017.045-.031.073-.122.075-.117,0-.2-.05-.119-.125a.9.9,0,0,1,.094-.063c.041.021.131.066.147.113m-11.086-93.1a.2.2,0,0,1-.149.161,3.024,3.024,0,0,1-.521.057.209.209,0,0,1,.153-.19,2.293,2.293,0,0,1,.52-.054c0,.007,0,.017,0,.026m-71.816-35.744c-.648-.381-.931-1.175-1.663-1.465.2-.534.2-.534.082-2.225h.021c.187.023.252.089.382.306.142.239.268.385.673.224a6.55,6.55,0,0,0,.115,1.332c.127.645.393,1.254.524,1.9-.04-.022-.095-.048-.135-.072m83.512-41.269c0,.067-.009.225-.06.236-.062-.008-.121-.254-.121-.255a.805.805,0,0,1,.1-.252c.055-.042.083.108.078.271m-1.5-2.223a2.3,2.3,0,0,1-1.155.035c-1.265-.134-1.731-.085-2.088.217-.209-1.08,2.642-1.166,2.763-1.169h.092c-.283.362-.192.555.421.891-.01.008-.021.02-.032.028m-97.885-27.381-.022.038c-.008.013-.014.026-.022.039s-.016.025-.022.038a.326.326,0,0,1-.022.038.286.286,0,0,0-.021.04l-.023.036a.317.317,0,0,0-.021.038c-.009.013-.017.025-.023.038s-.015.025-.021.038-.016.025-.022.038-.015.023-.021.036a.36.36,0,0,1-.021.037c-.009.014-.015.025-.021.038l-.021.039a.269.269,0,0,0-.023.038c-.09-.058-.2.1-.266.18-.014-.039-.011-.072.044-.222.075-.207.111-.326-.1-.208a.926.926,0,0,1,.678-.356c-.007.012-.014.026-.022.04m28.632-11.441a.323.323,0,0,1-.176.133,1.345,1.345,0,0,1-.3.018.354.354,0,0,1,.173-.141,1.518,1.518,0,0,1,.315-.03l-.016.021m12.925-5.277a.757.757,0,0,1-.7.29c-.267-.017-.344.037-.4.466a2.974,2.974,0,0,0-1.969-.24c.177-.327.5-.544.651-.888.05.186.141.249.391.266a3.788,3.788,0,0,0,.768-.108c.75-.152,1.105-.173,1.362.085-.034.04-.074.093-.105.129m2.179-.517c-.224.345-.558.309-.88.245-.557-.114-.781-.084-1.015.328,0-.5.394-.528,1.087-.536a1.616,1.616,0,0,0,.869-.148,1.141,1.141,0,0,1-.062.112m7.732.391c-.154.242-.449.388-.492.709a.778.778,0,0,0-.138-.21c-.016-.015-.035-.037-.051-.053a1.353,1.353,0,0,0-.622-.355.734.734,0,0,0-.23-.015c-.092.014-.169.07-.261.086-.182.028-.057-.174.063-.368.146-.248.247-.41.027-.366a.419.419,0,0,1,.22-.033c.283.006.565.05.846.056a1.528,1.528,0,0,0,.83-.172,5.3,5.3,0,0,1-.442.689,1.527,1.527,0,0,0,.185-.157c.078.044.141.079.066.189m-12.088-1.31c-.036.055-.076.107-.114.16-.136-.188-.173-.43-.341-.6a.6.6,0,0,0-.4-.144h-.015c.562-.345,1.123-.174,1,.3a1.182,1.182,0,0,1-.126.278m13.718-1.668a.71.71,0,0,1-.162.182c-.13.108-.276.195-.409.3-.167-.038-.066-.145.182-.365a1.3,1.3,0,0,0,.318-.336c.084.048.121.092.086.193l-.015.026m29.037-.4c-.02.076-.091.224-.172.232-.057,0-.079-.08-.093-.156.217-.258.267-.232.273-.164a.281.281,0,0,1-.009.088m-41.994-3.919a.288.288,0,0,1-.12.1,2.069,2.069,0,0,1-.228.051.338.338,0,0,1,.135-.115,1.39,1.39,0,0,1,.224-.05l-.011.014m.6-.153a.316.316,0,0,1-.122.1,1.368,1.368,0,0,1-.221.043.31.31,0,0,1,.128-.111,1.6,1.6,0,0,1,.227-.049.064.064,0,0,1-.012.015m42.224-2.623a.226.226,0,0,1-.171.152,3.707,3.707,0,0,1-.5,0c.124-.281.327-.375.7-.332a.638.638,0,0,1-.022.177m-41.218-.735c-.281.271-.447.3-.559.3h-.016a.854.854,0,0,1,.579-.32h.016l-.021.018m32.83.557c-.021.053-.065.143-.129.149s-.086-.153-.09-.281c.235-.223.264-.112.264-.054a.449.449,0,0,1-.045.186m.43-.762c-.017.047-.062.155-.1.163s-.014-.186-.014-.186a.84.84,0,0,1,.136-.176c.024-.017.031.007.02.066a.925.925,0,0,1-.043.133m-21.661-.426,0,0c-.054-.015-.126-.418-.128-.421a.174.174,0,0,1,.041-.052c.094-.043.122.4.1.461l-.007.009m96.32,167.11c.438-1.444.438-1.444-.442-4.758-4.814-1.323-8.516-6.337-14.354-4.257a5.323,5.323,0,0,0-1.669-1.966c-1.12.054-1.12.026-1.12,0s0-.055,0-.083,0-.055,0-.081,0-.054,0-.082,0-.055,0-.081a.759.759,0,0,0,0-.08c0-.029,0-.057,0-.083a.756.756,0,0,0,.007-.083c-1.244-.02-2.466-.345-3.714-.264a7.078,7.078,0,0,0-2.223-1.448c-.255-.723-.594-1.687-.846-2.413-.327-.153-.759-.361-1.083-.517-.29-2.068-1.625-3.78-2.006-5.814-8.278-1.031-8.278-1.031-14.9-6.13-.27.24-.629.558-.9.8a3.849,3.849,0,0,0-1.236-2.135h-.021l-.008,0h-.025c.106-.364.25-.852.357-1.215-.336-.121-.787-.284-1.123-.4-.22.281-.51.659-.73.941-.562-.532-.562-.532-3.912-1.8a4.867,4.867,0,0,1-1.851,1.763c-1.39-.684-2.156-1.061-5.026-.473-.157-.421-.366-.986-.524-1.411-3.574-1.355-3.574-1.355-12.7.527-1.662,3.333-1.662,3.333-2.309,4.177l-11.595-4.163a5.948,5.948,0,0,1,2.381-1.3c.119-.378.28-.88.4-1.255-.758-.309-1.757-.744-2.5-1.087.244-1.816,1.742-2.96,2.452-4.529-2.037-1.242-2.037-1.242-10.211-1.548.375-.229.874-.53,1.251-.759.041-.378.093-.884.132-1.262-.327-.217-.763-.506-1.093-.721a12.128,12.128,0,0,1-.189-2.73c-.017-.99.019-.99.055-.99h.674c.037,0,.077,0,.114,0,.551-2.374.551-2.374-6-4.619-3.579,3.425-13.1,12.52-12.358-3.751.026-.533,1.238-7.891,1.245-7.9,3.756-2.69,8.26-.156,12.176-1.716.89-.311.89-.4.89-.5s0-.185,0-.277v-.558c0-.094,0-.187,0-.279v-.557c0-.092,0-.184,0-.277,2.6-.376,4.982,1.769,7.648.659,3.4,2.363,1.042,8.74,6.449,9.575,1.221-2,1.777-2.918.125-7.86-2.506-7.482,2.809-10.848,7.705-12.354,3.811-8.718,3.811-8.718,4.529-12.762,2.188-.58,4.169-1.744,6.395-2.213.188-.365.439-.851.631-1.214-.179-.44-.216-.439-.255-.439l-.113,0h-.112c-.038,0-.076,0-.114,0l-.112,0c-.041,0-.079,0-.115,0h-.113l-.113,0c.027-2.124.034-2.629,4.376-4.742v.086c0,.029,0,.057,0,.086a.864.864,0,0,1,0,.087v.086c0,.03,0,.057,0,.086s0,.058,0,.086v.088a.828.828,0,0,0,0,.084,6.03,6.03,0,0,0,2.264-.966c.3,2.719.3,2.719,10.794-1.819h-.028c1.478-1.189,1.478-1.189,1.767-3.491a7.389,7.389,0,0,0-2.3-1.281c-2.416,1.666-2.416,1.666-5.885.418-.164-.358-.388-.836-.552-1.194.75-1.133,1.941-1.834,2.822-2.838a15.969,15.969,0,0,0,2.448-.2c-.015-.381-.034-.891-.051-1.274l.928-.809a6.669,6.669,0,0,0,2.29.572c1.28-1.829,1.359-1.862,3.417-2.724-.112.338-.26.79-.369,1.129,3.023-.837,3.023-.837,5.148-4.545-1.713-1.148-1.36-3.971-3.757-4.569l-12.3-15.11c-2.173,1.008-2.76,3.607-4.818,4.73-.608-.442-1.418-1.034-2.022-1.481l.475-1.133c-.236-.31-.55-.723-.785-1.033.085-.356.2-.828.287-1.183-.053-.044-6.345-4.4-7.484-4.528-.22-.319-.516-.745-.734-1.064-.185.315-.426.735-.606,1.05-4.931.181-5.564.2-5.143,3.862l-1.026.614a14.681,14.681,0,0,0,.185,2.423h.023c-.311,1.331-1,2.55-1.177,3.918,2.63,1.439,2.627,3.019,2.625,3.033a6.35,6.35,0,0,1-.391,1.391c-1,2.11-3.895,1.894-4.929,3.961-.956,1.918,1.3,3.78.1,5.7l-1.33-.112c-.306-2.5-1.388-4.855-1.379-7.412-9.491-.711-9.12-4.4-8.759-7.963-.768-.049-1.791-.121-2.557-.181-1.366,2.651-1.366,2.651-2.8,3.294-.085-3.145-.085-3.145-1.971-4.537,7.337-7.175,7.337-7.175,7.566-7.265.012-.051.024-.1.039-.151s.026-.1.041-.148.026-.1.04-.149.023-.1.038-.147.026-.1.04-.147.026-.1.041-.15.025-.1.04-.147.025-.1.038-.149c1.745-1.115,3.747-1.773,5.422-3.009-.121.39-.282.909-.4,1.3.345.1.8.231,1.146.332-.012.364-.029.852-.041,1.217,2.676-.493,3.209-1.444,3.766-2.95.538.59,1.256,1.373,1.8,1.96.4.015.928.033,1.33.05.084-.362.2-.842.283-1.2-.358-.071-.837-.166-1.2-.235-.346-1.438-.346-1.438-2.361-2.581a3.846,3.846,0,0,0,.946-2.12c1.254-.814,2.338-1.849,3.562-2.7-.122-.807-.309-1.879-.464-2.68l1.1-.55a3.648,3.648,0,0,0-.376-2.257c.347-.121.812-.281,1.154-.4,1.468.753,3.33.029,4.679,1.226l1.267-.155-.545.833h.021l1.087.5c-2.234,2.213-2.234,2.213-2.407,2.757,1.309.583,1.309.583,4.692-1.1.278.258.65.6.93.859-.144.3-.144.3-2.882,3.355.031.36.077.84.11,1.2-2.648.663-2.648.663-3.937.551a10.812,10.812,0,0,0-1.657,2.08c.139.331.323.773.461,1.1l.632-.155h.016c-.057.355-.134.829-.19,1.185a4.612,4.612,0,0,1,1.969-1.428c.078.358.186.835.264,1.194,4.673,1.1,9.213,8.421,13.947,3.591-.408-.617-.981-1.419-1.432-2.007,2.483.722,2.483.722,3.5.525.185-.707.383-1.662.5-2.383a3.534,3.534,0,0,1-1.057-2.073c-2.361-.873-2.332-1.757-2.293-3.095.369-.036.86-.085,1.232-.12,2.108,2.2,2.108,2.2,2.8,2.456.31-.156.31-.156,3.637-3.2-.351-.642-.851-1.478-1.253-2.087l-1.326.365c-.017-.376-.035-.876-.05-1.252-.413-.168-.413-.168-5.1-3.507.36-.059.844-.137,1.205-.195-1.052-3.534-1.052-3.534-6.722-5.271.063-.353.143-.823.206-1.175-4.581-.18-7.5-4.642-12.157-4.629-.21-.289-.491-.673-.7-.962h-.572c-6.073,2.2-6.073,2.2-8.261,7.221l1.3.024c.268.147.229.147.192.147h-.8c-.068.4-.161.927-.23,1.323,1.059.811,1.9,1.874,3.036,2.591-.008.392-.017.918-.026,1.311l-.99.872c-.358.2-.4.2-.442.2h-.861a4.106,4.106,0,0,0-1.257-2.438l-.55-.047a3.641,3.641,0,0,1-1.2-4.333l-.96-.72c-.223-3.453,3.576-3.373,5.166-5.253.316-.421.313-.421.312-.421h-.033c-6.073-.821-6.073-.821-11.661,9.046-2.077.517-3.609,2.087-5.564,2.827l.538,1.059c-.119.332-.278.778-.4,1.112-.368,0-.856-.011-1.227-.018-.093-.388-.216-.9-.31-1.293a8.187,8.187,0,0,0,1.067-2.387c.87.061.9.01.919-.042s.049-.1.076-.153.05-.1.073-.153.05-.1.075-.153l.076-.154c.024-.051.051-.1.075-.153s.049-.1.076-.153.049-.1.07-.15a20.242,20.242,0,0,1-2.511-1.973c2.068-4.957,2.068-4.957,3.166-6.158-.288-.228-.673-.529-.963-.756-1.2.22-2.113,1.132-3.307,1.363-.739,1.126-1.152,2.431-1.98,3.5a18.5,18.5,0,0,0,.35-2.622l-1.148-.436c-.214.31-.5.724-.716,1.036-.228-.287-.529-.671-.757-.959h-1.216c.2-.8.2-.8.2-.8h0l-1.191-.1a4.02,4.02,0,0,0,.018-2.286c-1.29-.017-2.219-.029-2.813-.938-2.11.238-2.11.238-8.42,5.87a5.58,5.58,0,0,1-.065,2.627c.86-.158.86-.158,6.294-3.24-.5.625-1.194,1.432-1.729,2.026.273.247.644.577.92.824l-1.24.8c.187.343.435.8.618,1.143,1.243-.026,2.48-.174,3.725-.19-1.629.875-3.561.651-5.222,1.413.015.411.036.958.048,1.369-2.006-.031-3.408-2.056-5.543-1.664l-.854-.849c-.251.259-.589.6-.842.861a6.326,6.326,0,0,1,1.1-2.579c-2.886.328-10.052,3.217-10.095,3.243-.2-.312-.462-.728-.657-1.04-1.934-.233-2.777-1.2-4.816-3.542.037-.395.087-.92.122-1.315a13.214,13.214,0,0,0-1.985,1.3c-.3-.167-.3-.167-.3-.167h0c-8.374,6.376-8.374,6.376-10.163,10.524-.663.393-.625.347-.589.3l.111-.138c.036-.045.072-.091.111-.137s.072-.091.109-.135.073-.092.109-.136l.108-.136c.038-.046.075-.091.11-.135s.073-.09.11-.135c-1.6.825-3.6,1.853-5.607,6.774.226-.287.528-.67.755-.956.01.408.023.952.035,1.36-2.759,1.87-2.759,1.87-8.116,12.358l1.151.414c-.146.26-.146.26-6.446,8.024,1.908-.838,4.52-1.987,10.133-10.2-.053.355-.124.827-.178,1.183a8.945,8.945,0,0,0,4.412-2.274c.236.3.554.7.792,1,3.717.148,3.249,5.04,3.24,5.089-.744,4.33,1.141,9.1,1.161,9.145-.159.443-.159.443-.287,8.829,3.286,3.242,1.3,10.014,1.058,10.419-.061.1-6.083,10.626,1.126,25.374-.18.306-.421.715-.6,1.021l.812.971c.731.024,1.707.08,2.438.142,2.027,2.967,2.658,6.657,4.977,9.47a4.454,4.454,0,0,0-.668,2.4c3.574,3.256,3.574,3.256,3.673,5.678.462.351.462.351,3.767,3.839l.949-.72a3.55,3.55,0,0,0-2.043-3.054c-.437-2.626-2.074-4.885-2.341-7.562,2.782,4.268,6.269,8.045,8.866,12.444,0,.084.008.166.011.25s.007.165.012.249.007.164.011.249.009.165.014.247.009.165.012.249.009.165.013.247.009.167.012.25.011.164.015.249c2.4,7.046,12.263,5.895,14.567,13.047.351-.164.817-.385,1.167-.548.148-.58.194-.58.236-.58h.271c.045,0,.088,0,.133,0s.088,0,.13,0h.268c.043,0,.086,0,.132,0,.162.324.374.757.533,1.083,5.222.3,8.477,6.282,14.293,4.873,1.5,1.587,2.35,3.657,3.889,5.219-.066.385-.154.9-.22,1.286,1.857.057,2.3.072,5.567,2.25.293-.264.684-.621.977-.886a5.143,5.143,0,0,0,3.432,1.6,10.656,10.656,0,0,0,.774-2.317c.391.02.91.048,1.3.069,1.712,2.4,2.62,3.86,2.952,8.229-2.326,2.149-2.326,2.149-2.456,3.6-.057.041-5.585,3.934-.968,7.446-.786.716-2.1,1.922-.906,5.1a2.33,2.33,0,0,0,.913.879,12.508,12.508,0,0,1,2.441,2.141l17.883,21.228c-.059,26.567-.059,26.567,1.7,29.224.135-.389.316-.909.454-1.3.743,1.83.743,1.83-.6,4.737l.98.792c-.381,2.863,2.458,6.061,5.3,7.381.671.419.694.419.718.419h.077l.073,0h.074a.551.551,0,0,0,.073,0h.078a.7.7,0,0,0,.073,0h.073c2.419,1.338,3.441.783,4.623.14a12.548,12.548,0,0,1-4.025-3.815c.818-1,1.091-2.361,2.136-3.218-.01-.05-.019-.1-.031-.154s-.021-.1-.033-.156-.021-.1-.033-.154-.021-.107-.034-.159-.019-.1-.031-.157-.021-.105-.03-.157a1.52,1.52,0,0,1-.033-.158c-.012-.052-.021-.1-.034-.156-.408-.131-.958-.3-1.369-.431-.069-.355-.167-.827-.24-1.185.407-.158.943-.371,1.343-.532.261-2.094.261-2.094,1.619-3.117a6.5,6.5,0,0,1-1.793-1.584,26.188,26.188,0,0,0,2.66-.045c.2-.805.5-1.867.76-2.654,4.781-.09,5.313-1.508,5.882-3.009a8.7,8.7,0,0,1-.828-2.5c7.71.824,12.248-9.587,12.3-9.694,2.184-5.114,8.313-5.087,11.605-8.76,3.569-3.978,4.82-12.535,4.872-13.617h.039c.353-.073.825-.168,1.177-.241,1.714-3.143,5.262-4.944,6.355-8.542" transform="translate(-11307.824 4069.097)" fill="#fff"/><path d="M11316.254-4006.1c-.02.022-.25.293-.282.325a2.952,2.952,0,0,1,.282-.329v0" transform="translate(-11308.473 4065.8)" fill="#fff"/><path d="M11404.743-4053.087a.221.221,0,0,1-.1.088,1.938,1.938,0,0,1-.229.045.2.2,0,0,1,.109-.1,1.262,1.262,0,0,1,.226-.044s0,.01-.008.014m6.09-.153a.173.173,0,0,1-.091.087,1.6,1.6,0,0,1-.224.049.159.159,0,0,1,.1-.1,1.2,1.2,0,0,1,.223-.046l-.006.014m-.57-5.525a.212.212,0,0,1-.092.079,1.676,1.676,0,0,1-.207.044.191.191,0,0,1,.1-.094,1.116,1.116,0,0,1,.208-.041l-.009.011m1.674-.54c-.017.03-.071.134-.1.141s.013-.153.015-.155a1.1,1.1,0,0,1,.126-.146c.019-.014.025-.01.023.012a.634.634,0,0,1-.062.148m.52.153c-.11.1-.147.109-.165.112-.13-.02.182-.628.3-.818.146.076.113.172-.016.359-.109.155-.162.24-.082.311a.272.272,0,0,1-.035.036m8.618.073c-.108.188-.239.032-.325-.07-.121-.149-.184-.215-.221-.088-.038-.034-.07-.066-.073-.2a3.831,3.831,0,0,1,.058-.47c.1-.017.427-.071.551.108a.432.432,0,0,1,.067.236,2.162,2.162,0,0,1-.057.481m4.773-2.573a.128.128,0,0,1-.068.08,1.2,1.2,0,0,1-.193.04.126.126,0,0,1,.065-.083,1.224,1.224,0,0,1,.2-.048l0,.011m-21.535.023c-.054.07-.078.072-.087.074-.051-.007-.009-.157-.009-.157s.022-.021.033-.029.025-.023.037-.033c.078-.061.117-.066.111-.017a.449.449,0,0,1-.086.163m12.563-.887a12.262,12.262,0,0,0-1.5.3c-.122.291-.13.412-.032.515-.184.042-.31-.056-.5-.2a1.093,1.093,0,0,0-.917-.306,8.226,8.226,0,0,0,1.552-.637c-.177.211-.156.242,0,.245h.015c.145,0,.175.018.113.136.148-.093.341-.109.458-.253.071.076.19.1.662.151a1.014,1.014,0,0,1,.177.027.121.121,0,0,1-.029.022m1.564-.465a2.184,2.184,0,0,1-1.028.421.415.415,0,0,1-.189-.038.891.891,0,0,1,.275-.139l.039-.012c.19-.052.385-.069.573-.118a1.035,1.035,0,0,0,.286-.116.321.321,0,0,1,.048-.019l0,.006-.009.013m.919-.393a.636.636,0,0,1-.17.12c-.126.07-.168.1-.187.145-.168-.074-.1-.13.089-.236.117-.065.164-.095.186-.143.047.02.125.054.083.114m-11.788-.708a.3.3,0,0,1-.1.075,1.6,1.6,0,0,1-.187.034.254.254,0,0,1,.095-.076,1.831,1.831,0,0,1,.2-.043l-.009.011m.41,0a.3.3,0,0,1-.1.073,1.383,1.383,0,0,1-.191.035.261.261,0,0,1,.1-.077,1.634,1.634,0,0,1,.2-.043.032.032,0,0,0-.009.012m22.8-.986a.438.438,0,0,1-.286.123c-.153-.006-.172-.077-.131-.114s.149-.071.438-.027l-.021.019m4.041-1.872a1.345,1.345,0,0,0,.035-.19c-.2-.206-.2-.206-1.351-.215-.25-.449-.25-.449-.226-.667-.945.076-1.9-.114-2.843.046.054-.022.127-.054.18-.077a16.374,16.374,0,0,0-3.671-.456,3.7,3.7,0,0,0-1.686.5c-.665-.606-4.352-.223-5.043.263a.657.657,0,0,0-.915.326l-.078.018c-.817-.112-.736.919-1.3,1.153-.017-.018-1.67-1.584-2.382-.249-.619-.125-.957.407-1.435.606-.01-.068-.02-.16-.029-.229-.61-.408-1.876.432-1.928.468-.867-.335-2.071.46-2.419.712.441.406.864-.161,1.3-.019a1.1,1.1,0,0,0-.755.385.75.75,0,0,0,.359.127c-.148.294-.646.462-.443.881a1.171,1.171,0,0,0,.429.008c.29,1.192,1.478.809,1.973.59-.2.243-.137.326.033.5.347-.08.548-.4.873-.512-.162.38-.162.38-.007.64a2.418,2.418,0,0,1-1.158,0c-.474.529-.4,1.47-1.289,1.683.271-.263.376-.641.629-.916l-.246-.036c-.028-.315.094-.617.091-.929-.761.073-.761.073-1.357.71a1.169,1.169,0,0,1,.333-.89,2.344,2.344,0,0,0-.991-.022c-.688-1.74-.688-1.74-.95-1.844-.845-.342-1.169.651-1.855.712-1.172.1-1.711,1.25-2.722,1.621a2.263,2.263,0,0,1-.185.39l-.2.005c-.574.707-.533.882-.467,1.2.1.032.236.074.333.107a2.5,2.5,0,0,0-.489.529c.225.282.225.282,2.658.145-.621.443-1.478.366-2.042.934.123.608.123.608.205.758a1.61,1.61,0,0,0,.512.076.917.917,0,0,0-.336.568,2.941,2.941,0,0,0,3.056.242c.024.054.049.126.07.179l.229.092a4.438,4.438,0,0,0,.771-.548c.758.173,1.013-.645,1.6-.8h0c-.914.9-.914.9-1.07,1.383,1.688.656,1.688.656,1.1,1.27.353-.939-.879-1.116-1.615-.8-.586.251-1.143.49-.515,1.544-.828.479-1.844.47-2.659.993a.876.876,0,0,0-.1-.409c-.355.233-.806.323-1.07.7-.729-.409-1.38.166-2.08.163-.722-1.073-.963-1.435-3.378-.924a2.273,2.273,0,0,1-.583.729c.943,1.158,1.3,1.589,3.177,1.055-.057.26-.057.26.188,1.356-.449.4-.449.4-1.217,1.841.083,0,.189,0,.27,0,.031.228.031.228-.112.781,3.256.056,3.256.056,3.722-.308a1.6,1.6,0,0,0-.346.782,21.322,21.322,0,0,0,3.431-.121c.939-.271,1.678-1.995,2.706-1.088a1.1,1.1,0,0,1-.184.734c.4.31.4.31,3.213.138.513-.661.966-1.367,1.5-2.018-1.664-1.717-4.94-1.139-7.245-.122a3.033,3.033,0,0,0-2.7-.3c.072-.115.072-.115-.081-1.21.449.121.637-.064.97-.676,1.532.144,3.069.206,4.6.369a1.356,1.356,0,0,1,.776-.589c.592.7,1.2.583,2.867.132-.155.2-.329.393-.481.6.14.04.14.04,3.932-.913a1.621,1.621,0,0,0,.293-1.317,1.335,1.335,0,0,0-.912.252c-.189-.411-.159-.448.009-.678,1.113.143,1.258-.976,1.905-1.437,1.105.261,1.867-.579,2.8-.861a5.6,5.6,0,0,1,.854-1.25,4.137,4.137,0,0,0-.326-.41c.539-.462.539-.462.358-.953a1.025,1.025,0,0,1,.359-.142c.025-.051.06-.12.083-.17a1.216,1.216,0,0,1-.193-.348c1.082-.738,2.3.266,3.4-.269,1.363-.667,2.216-2.035,3.65-2.6a3.553,3.553,0,0,1,.475-.119,4.846,4.846,0,0,0,2.5-1.272c-.025-.057-.058-.131-.085-.188a1.7,1.7,0,0,0-.6-.023c1.089-.472,2.257-.727,3.367-1.141a3.142,3.142,0,0,1,.184-.72" transform="translate(-11314.987 4070.771)" fill="#fff"/><path d="M11544.563-4047.353c.061.058.08.083.094.1a.411.411,0,0,1,.029.065,1.2,1.2,0,0,1-.114-.114c-.015-.017-.015-.041-.025-.06a.075.075,0,0,0,.017.013m-3.873-3.679c.036.03.07.059.1.092.016.019.025.041.04.06a1.165,1.165,0,0,1-.116-.1c-.017-.018-.023-.042-.041-.063,0,0,.013.009.015.014m-.715-.6a1.159,1.159,0,0,1,.122.112c.017.02.013.026.011.03a.022.022,0,0,0,0,.016,1.086,1.086,0,0,1-.134-.122c-.02-.019-.017-.027-.015-.031a.025.025,0,0,0,0-.021l.018.016m-1.633-1.489c.026.021.056.042.081.063.008.007.02.013.024.023a2.991,2.991,0,0,1-.388-.3c.021.005.28.21.282.213m-6.943-5.609-2.753-1.854h0l.048.033a38.741,38.741,0,0,1,3.563,2.735c-.062-.036-.143-.085-.207-.121,1.729,1.4,2.777,2.245,3.115,2.5-.025-.023-.057-.053-.078-.076.3.188.566.42.86.618l-.088-.068c.065.041.149.1.209.146l-.088-.014c.007.026.019.062.026.088a1.381,1.381,0,0,1-.362-.207c1.818,1.441,3.429,3.119,5.241,4.57a.679.679,0,0,1-.193-.083,27.005,27.005,0,0,0,3,2.791,3.467,3.467,0,0,0-.308-.287c.271.144.438.413.694.58-.048-.054-.107-.128-.149-.185,1.146.177,1.606,1.324,2.556,1.783-.038-.134-.038-.134-.351-.453a3.873,3.873,0,0,0,.723.536c-.076-.163-.076-.163-.415-.5l-.091.018c-3.372-2.9-6.64-5.918-10.115-8.7.025.017.059.037.083.054a6.26,6.26,0,0,0-.8-.684l.081.06c-.086-.075-.175-.145-.266-.216.119.078.237.162.351.244-3.551-2.818-3.551-2.818-4.279-3.315" transform="translate(-11325.418 4070.141)" fill="#fff"/><path d="M11574.319-3856.873a1.14,1.14,0,0,1,.043-.131c-.27.1-.406.532-.546.783-1.916,3.354-6.538,9.714-6.582,9.77-2.884,3.825-2.884,3.825-4.789,5.483.048-.26,3.042-5,3.07-5.04,1.2-1.749,2.7-3.278,3.769-5.115,1.779-3.056,2.317-3.98,3.973-5.7a30.361,30.361,0,0,0,4.453-6.847,44.067,44.067,0,0,1-3.4,6.842.21.21,0,0,1,.009-.049" transform="translate(-11328.111 4054.451)" fill="#fff"/><path d="M11568.83-3965.773a2.666,2.666,0,0,0-.141-.321l0,.009c.029.057.05.117.076.177a.724.724,0,0,0,.062.135h0m-.142-.327v.005a1.663,1.663,0,0,0-.087-.163l.006,0c.026.052.053.1.08.154m-.106-.195a.212.212,0,0,1,.021.037,3.4,3.4,0,0,0-.484-.716l0,.005c0,.04.041.092.154.233a3.945,3.945,0,0,1,.313.441" transform="translate(-11328.563 4062.682)" fill="#fff"/><path d="M11531.923-3993.911c.031.172-.071.14-.187.1-.22-.068-.284-.029-.2.336a.209.209,0,0,1-.126-.074l-.014-.021c-.1-.129-.135-.3-.225-.433-.066-.1-.13-.108-.154-.108-.072,0-.182-.152-.187-.164.017-.022.061-.014.251.043.408.123.622.141.754.063a1.43,1.43,0,0,1,.087.254m-1.833-2.021c.085.282.008.493-.238.361a.18.18,0,0,1-.025-.014.219.219,0,0,1-.01-.027c0-.009-.009-.018-.01-.027l-.008-.027a.1.1,0,0,0-.01-.026c0-.011,0-.019-.006-.027s-.008-.019-.01-.028l-.008-.028a.214.214,0,0,0-.01-.026.137.137,0,0,1-.006-.029.062.062,0,0,1-.01-.025.057.057,0,0,1-.01-.026.086.086,0,0,0-.01-.028.184.184,0,0,0-.007-.027l-.007-.027a.111.111,0,0,1-.01-.027.091.091,0,0,1-.01-.026.283.283,0,0,0,.051,0c.078-.016.085-.053.049-.228.134-.044.25.13.3.308m8.5-.693a1.791,1.791,0,0,0-2.289-1.63c-.257-.382-.525-.777-2.055-3.118-.453.207-2.247-.8-2.483-2.632.428.357.294,1.451,1.045,1.26a13.666,13.666,0,0,1,.057-1.765c-.619-.111-1.249.072-1.869-.047a2.591,2.591,0,0,1-1.318-.573c.187-2.891.187-2.891-.231-3.381-.243-.281-1.132-.144-1.425-.1a1.907,1.907,0,0,1-1.442-.117c.8-.358.781-1.154-.071-2.5-.038.056-.086.134-.124.191-.46.613-.863.832-2.161.589.046.844-.192,1.671-.147,2.516a.582.582,0,0,0-1,.379c-.007.148-.007.148,1.548,1.485-.513.515.153,1.421.7,1.873-1-.115-.3,1.077-.292,1.088a.513.513,0,0,0,.153.119c.3.174.657-.02.957.149.248.14.138.52.432.631.164.062.308-.073.4-.162.146-.133.166-.129.294-.089a6.167,6.167,0,0,1,.039.929,2.334,2.334,0,0,0,2.168.112,2.86,2.86,0,0,0,.209.563c.346.536,1.008.73,1.376,1.242.189.264,0,.585.13.858-.475.231-.475.231-1.844.126.076,1.2.083,1.332-.661,1.139a27.217,27.217,0,0,1,1.038,3.244c.834.213.834.213,1,.384.019.063.04.128.059.191s.042.128.06.191.039.127.058.191.04.128.059.19.038.128.061.19.036.127.058.191.035.126.057.189.039.128.06.191c-.207.372-.67.5-.855.887-.166.356-.14.474-.024.969.318-.109.552.146.837.181.86-.971.994-1.121,2.157-.83-.187-1.972,2.65-.877,2.68-.865.734-.7,1.144-1.03,1.662-.119.07-.379.157-.5.779-.771.379-.163.52-.225.541-1.567-.317-.206-.752-.094-1.042-.371a1.78,1.78,0,0,0,.671-1.8" transform="translate(-11324.975 4066.208)" fill="#fff"/><path d="M11550.48-4007.464s0,.1-.013.086a.488.488,0,0,1-.031-.084.08.08,0,0,1,.027,0l.017,0h0m40.372,58.283a.036.036,0,0,0-.01-.019v0a.221.221,0,0,1,0,.044s0,.01,0,.013v0a.265.265,0,0,0,0-.04m-3.975-24.2c.627,2.875.707,3.244.461,3.48-.1.006-.2-.084-.528-.648s-.329-.566-.424-.716c-.073-.114-.193-.188-.241-.319l-.418-1.649c-.035-.181.027-.364,0-.546-.083-.552-.224-1.093-.323-1.639.19-.234.152-1.032.48-.761.539.44.173,1.219.646,1.683a.241.241,0,0,0,.025-.116c.12.392.181.59.323,1.23m-15.463-1.283a1.089,1.089,0,0,0,.062.636,5.446,5.446,0,0,1,.31,1.568c-.211-.275-.405-.211-.837.016-.552.29-.741.143-.882-.683a.451.451,0,0,0,.311.114c.354-.112.379-.463.491-2.149.248.057.29.61.554.416,0,.025-.006.059-.008.082m14.218-4.006a2.979,2.979,0,0,1-.26-.432,8.455,8.455,0,0,1-.269-.87l.006,0,.008,0,.008,0,0,0,.007,0,.006,0h.006l.007,0c-.046-.17-.062-.2-.09-.217-.007-.039-.007-.042,0-.053a10.886,10.886,0,0,1,.581,1.619.163.163,0,0,0-.012-.022m-26.123-2.083c.01.045.023.108.032.154a.418.418,0,0,1-.147.045c-.222.008-.34-.129-.543-.42s-.326-.436-.54-.441c.4-.421.95-.4,1.2.662m-1.347-1.145h0c-.184-.146-.375-.281-.56-.421a.8.8,0,0,0,.061.054l.379.28a1.384,1.384,0,0,0,.12.086m23.6-7.962c.149.422.273.853.418,1.279a.845.845,0,0,0-.229-.243c-.106.125-.117.137.031.962s.14.894.1,1.128c.025.065.046.132.069.2s.045.132.069.2.042.133.066.2.045.131.066.2.046.132.068.2.042.133.065.2.045.133.067.2.045.133.065.2c.172.385.22.389.309.4a66.172,66.172,0,0,1,2.538,6.71c-.137.113-.137.113-.118,1.093-.321-1.208-.433-1.273-.636-1.3h0l-.007,0c-.08-.246-.182-.577-.279-.817-.043-.107-.1-.252-.148-.36-.324-.781-.77-1.5-1.125-2.27a23.1,23.1,0,0,0-1.035-2.946c-.8-1.256-1.087-3.039-.8-3.361a15.405,15.405,0,0,1-.27-2.152c.051-.863.412-.483.417-.479s.155.337.3.755m-5.915.949a11.69,11.69,0,0,0,.274,1.43,2.579,2.579,0,0,0-.706-.1.342.342,0,0,0-.264.277c-.346-1.178-.222-1.353.05-1.582a.707.707,0,0,0,.274-.62.846.846,0,0,1,.371.6m-25.07-16.665a.54.54,0,0,1,.009.483.533.533,0,0,0-.009.442c-.137.078-.21-.1-.317-.4-.1-.272-.181-.506-.315-.414,0-.07,0-.163.063-.186a.247.247,0,0,1,.146.021.393.393,0,0,0,.175.032c.08-.013.118-.048.168-.146.029.054.057.109.082.165m4.517-7.465a3.433,3.433,0,0,1,.163.408c.071.226.117.459.188.687a3.721,3.721,0,0,0-.846-.914,3.366,3.366,0,0,1-.655-.638s-.021-.222.183-.183c.18.034.566.346.532.1a1.488,1.488,0,0,1,.435.543m-2.6-4.315c.044.081.029.111.022.12-.021.05-.082.047-.113.083a.208.208,0,0,1-.038-.143c.01-.026.041-.039.066-.05a.132.132,0,0,0,.053-.029l.01.017m2.727-1.4c.021.193-.038.206-.058.211-.129.005-.314-.282-.26-.342s.25.063.314.1a.111.111,0,0,0,0,.031m-.01,1.038a1.753,1.753,0,0,0-1.15-.279c-.074-.276-.117-.349-.237-.39-.072-.234-.1-.473.3-.469a.639.639,0,0,1-.022.433.567.567,0,0,0,.515.265c.243.011.376.074.6.439m-1.7-10.969c-.037-.024-.3-.251-.337-.289.025.015.337.287.337.287m-9.121-1.276c.632.906.429,1.2.308,1.373a2.908,2.908,0,0,1,.492.545c-.354.665-.418.784.249,1.983-.024,0-.043.006-.062.007a.572.572,0,0,0-.059.008.617.617,0,0,0-.064.007l-.063.005c-.019,0-.041.006-.062.008l-.062.008-.062.007-.064.005a1.974,1.974,0,0,0-.3-1.265c-.512-1.011-1.233-1.9-1.793-2.881a1.178,1.178,0,0,1,1.547.188m7.211-2.975a6.259,6.259,0,0,0,1.956,2.392,3.053,3.053,0,0,1-.855-.372c-1-.506-1.167-.524-1.315-.441-.052.254.251.686,1.41,2.01a.081.081,0,0,0-.006.021,6.126,6.126,0,0,1-.846-.291,13.13,13.13,0,0,1-1.462-1.754,8.32,8.32,0,0,0-1.635-1.813,2.54,2.54,0,0,1,.99.22c1.034.344,1.667.52,1.7-.1.019.04.048.091.064.132m-10.332-5.361a2.248,2.248,0,0,1,.269.345l0,0a4.016,4.016,0,0,1-.337-.346.693.693,0,0,1-.087-.155l0,0c.007,0,.026.006.155.155m20.613,10.576c-3.868-4.6-9.206-10.6-13.394-14.919l-.053-.051c-.287-.275-.676-.644-.964-.918a44,44,0,0,1,2.649,3.643c-.247-.236-.582-.55-.832-.785l-.478-.477c1.439,3.308,1.439,3.308,2.857,4.923a4.614,4.614,0,0,1-1.667-1.475c-.633-.288-.658-.315-.685-.345s-.052-.057-.081-.085-.055-.058-.08-.087-.057-.056-.082-.085l-.078-.086c-.026-.027-.055-.056-.08-.084s-.053-.057-.083-.084a.909.909,0,0,0-.078-.083c-.243-.278-.566-.647-.811-.924a10.472,10.472,0,0,0,3.7,4.648c-.108.3-.26.7-.368.993-3.687-5.441-15.559-10.617-18.493-10.091-.113.7-.295,1.622-.452,2.309l-.984.352c-.593,4.132-.593,4.132-.431,4.455-.115.326-.265.761-.378,1.086.2.266.461.617.656.883l1.092-.092c.49,1.694,1.068,3.359,1.572,5.046l.058.49h0c-.15,1.161.093,2.333-.1,3.493-.3.133-.7.309-1.008.444-1.006,10.835,3.833,13.549,6.809,14.2.343.545.8,1.274,1.137,1.822a5.145,5.145,0,0,1,1.6-4.015,86.345,86.345,0,0,0,7.311,5.982c.684.172.684.171.683.17l0,0,0,0c.259-.293.6-.684.862-.976-.435-3.281-3.1-6.11-1.993-9.7-4.565-3.577-4.565-3.577-4.016-6.352,6.587,7.392,6.587,7.392,7.222,7.566-.382.814-1.017,2.176,2.664,9.621l-1.106-.019a4.5,4.5,0,0,1-1.822,1.276c-.112.324-.266.753-.379,1.077-1.686-1.473-3.668-2.543-5.4-3.951-.127.124-.292.291-.421.415-1.214-.987-1.693-2.476-2.568-3.7a2.942,2.942,0,0,0-1.8,3.443l-.112.393h-.01c.9,1.859,2.154,3.523,3.045,5.389l-.846-.836a35.838,35.838,0,0,1-2.623,3.094c-.225.7-.262.7-.3.707l-.118.008-.113.009-.117.009-.116.009c-.041,0-.078.007-.117.01l-.116.009-.116.008a13.922,13.922,0,0,0,.825,2.118c-.5,1.04-1.727,1.606-1.888,2.865.03.342.067.8.1,1.144l-1.041.309c-.052.349-.119.815-.167,1.164-.647-.154-1.519-.321-2.177-.4a3.552,3.552,0,0,0,.407,2.144c-3.114-.312-3.4.2-3.963,1.223,1.306,3.254,5.3,3.936,6.8,7-.29.191-.68.444-.973.634l1.039.43a12.145,12.145,0,0,1,.156,2.259c-9.759,1.144-9.759,1.144-10.344,1.562.749,3.193.749,3.193.528,4.439l1.02.275a4.147,4.147,0,0,0-.758,1.876c.2.246.473.573.682.819-.246,2.283,1.062,4.286,1.186,6.5,1.072-.056,2.143-.141,3.215-.2a13.049,13.049,0,0,0,1.4,1.627c8.207-1.054,8.387-4.373,8.746-10.985,3.256-1.63,2.947-2.33,1.921-4.659,1.446-.4,2.968.135,4.407-.357.1-.363.238-.849.341-1.211a3.079,3.079,0,0,0,1.368-1.53,3.649,3.649,0,0,1,2.039,3.127c4.545-.433,8.017,7.613,8.038,7.7-.936.9-1.034,1-2.9.9-.09.5-.2,1.171-.291,1.672.4.519.4.519,3.121,2.428,1.274-2.83.78-7.928.762-7.957.151-.271.354-.635.5-.906-.732-2.3-3.566-3.161-3.958-5.691,1.295.446,1.295.446,3.918,2.306-.068.574-.128,1.346-.135,1.924.343.763.77,1.794,1.066,2.576.064-.355.15-.829.214-1.184,1.679,3.5,4.227,6.562,5.378,10.334.5-1.842.46-3.828,1.489-5.531.221-.138.223-.138.223-.138a9.626,9.626,0,0,1-.366-4.141l.432-.316.088-1.353c-.05-2.8-.05-2.8-.57-11.733l1.027.222a17.568,17.568,0,0,0,1.8,2.962,14.571,14.571,0,0,0,1.616-1.65c1.432,1.08,2.257,2.688,3.5,3.933a3.48,3.48,0,0,0,.486,2.089c-.067.3-.155.707-.224,1.01-1.42-.222-1.716-.267-3.055-1.834a3.16,3.16,0,0,0-2.368,2.547l-.7-.981c-1.97,2.113-1.97,2.113.808,13.651.24-.227.558-.533.795-.761l1.027.585c.063.3.146.708.208,1.01.162-.724.352-1.7.467-2.432a3.906,3.906,0,0,0,2.181.613c.079-.367.183-.858.262-1.225.021.029,2.062,3.033.517,5.486.611.912.943,1.415.413,4.572-1.894-.4-1.894-.4-2.793-1.348-.045.681-.14,1.587-.229,2.263a14.369,14.369,0,0,0-3.112-.814c-.173-.276-.4-.645-.574-.921-.32-.011-.747-.024-1.065-.033-.386-.458-.386-.458-1.483-3.269-.453.7-.453.7-2.428,7.608-1.432-1.452-1.545-1.475-3.51-1.867-.1-.6-.1-.6-1.268-3.334-.276.178-.646.414-.92.592l-1.039-.284a7.422,7.422,0,0,0-.785-2.131c-.308-.071-.724-.165-1.032-.234-3.725-6.947-3.725-6.947-5.2-5.176-1.533-.41-2.962.644-4.486.305l-.452.015-.5.052-.041.013-.152.031-.57.145c-1.021.359-2.014.789-3.046,1.117a4.913,4.913,0,0,0-1.457.268l-.071.065-14.083,10.042c-.046,1.158.424,2.273.3,3.438l-.983.4c.086.34.2.793.278,1.132.3.138.689.324.986.463-1.3,2.081-3.957,2.989-4.81,5.456-.653.377-.65.428-.65.479s0,.1.006.156,0,.1.008.156,0,.1,0,.156,0,.1.007.157,0,.1.008.157,0,.1,0,.155,0,.1.006.155c-2.363,2.454-3.4,4.187-4.9,12.727,3.648,3.506.153,8.639-1.34,10.83,1.146,1.656,1.146,1.656.615,2.983.7,1.375.7,1.375.749,4.583a5.141,5.141,0,0,0,2.226.43c2.417,2.491,2.417,2.491,2.521,3.962-.279.22-.654.508-.935.727-.646-.578-.653-.522-.658-.463s-.012.114-.02.173-.011.116-.019.172-.011.118-.017.175-.012.116-.019.173-.012.116-.017.175-.015.116-.02.175-.014.118-.021.175a16.04,16.04,0,0,1,4.283,2.025c-.007.359-.016.841-.021,1.2,7.8,4.853,14.417-1.607,21.644-2.228.986,1,.949,2.561,1.972,3.542l1.055-.071c.063.322.146.755.206,1.076.205-.239.472-.556.674-.792.1.306.239.711.344,1.017l1.049-.1a7.555,7.555,0,0,1,.12,1.236c-.21,2.6-2.527,4.363-2.771,6.947-.278,2.948,1.618,5.564,1.313,8.516-.094.884-.536,2.007-.687,2.882-.7,4.042-1.375,4.843-2.4,6.051-.105.124-15.94,32.989-15.985,33.176,4.625-.212,7.861-2.926,10-4.722h.008v0h0c7.234-5.361,11.669-13.192,17.644-19.667-.313.761-.756,1.763-1.108,2.506,3.468-4.05,4.123-5.422,4.148-5.479l.112-.311h.01v0h.006c10.063-9.717,10.907-24.216,18.543-35.192l.328-.4h0c.089-.359.208-.837.3-1.2-.109.288-.258.671-.364.96l-.06.063h0c1.266-5.446,3.386-10.677,4.178-16.238a19.586,19.586,0,0,1-2.333,2.775,9.444,9.444,0,0,1-.434-4.05,44.67,44.67,0,0,1,.085-5.682c-.271-.213-.631-.5-.905-.71.013-.695.022-1.619.024-2.313.066-.908.066-.908.064-.908h-.006c-.037-.076-.037-.076-2.885-17.662,2.762,2.983,3.131,10.9,3.941,28.243l-.061.6c3.076-3.026,4.831-8.207,5.222-15.4a.073.073,0,0,0,.012-.014s.007-.009.012-.011l.009-.015.015-.013s0-.009.008-.013l.009-.013.011-.013a.015.015,0,0,0,.007-.012c.335-7.186.387-8.29-.35-13.042-.049,2.344-.049,2.344-.547,3.583a8.988,8.988,0,0,0-.063-2.086c-.422-.651-.424-.734-.43-.818s0-.167-.011-.25,0-.167-.011-.25-.006-.167-.012-.249-.011-.167-.013-.251-.009-.166-.014-.25-.007-.167-.011-.251-.011-.166-.016-.249a13.838,13.838,0,0,1-.806-3.783,23.823,23.823,0,0,1,2.274,6.418c-.313-6.559-1.171-15.287-2.131-21.786-3.345-14.489-3.345-14.489-5.868-21.444-5.539-13.574-5.539-13.574-9.062-19.926-6.959-11.489-8.028-13.257-11.957-18.121" transform="translate(-11324.68 4068.831)" fill="#fff"/></g></g><g transform="translate(9074.892 1627.388)"><path d="M11499.928-3982.328c-20.105,0-33.891,12.563-45.8,28.13l7.056,10.309c10.915-14.927,22.511-26.673,38.744-26.673a37.414,37.414,0,0,1,37.017,31.152h-46.287v11.768h58.27a48.559,48.559,0,0,0,.363-5.884c0-26.911-22.144-48.806-49.359-48.806" transform="translate(-11344.314 3982.331)" fill="#fff" fill-rule="evenodd"/><path d="M11490.42-3896.492c-19.853,0-32.952-17.144-49.581-42.3s-32.324-43.533-56.67-43.533c-27.217,0-49.362,21.892-49.362,48.806s22.146,48.806,49.362,48.806c20.07,0,33.839-12.519,45.738-28.047l-7.009-10.379c-10.908,14.92-22.5,26.656-38.728,26.656a37.034,37.034,0,0,1-37.507-36.562,37.036,37.036,0,0,1,36.561-37.506c.315,0,.63,0,.946,0,19.851,0,32.243,16.269,49.542,42.263s32.362,43.574,56.709,43.574a49.423,49.423,0,0,0,46.014-31.148h-13.062a37.6,37.6,0,0,1-32.954,19.377" transform="translate(-11334.807 3982.331)" fill="#fff" fill-rule="evenodd"/></g></g></svg>