<svg xmlns="http://www.w3.org/2000/svg" width="90.882" height="79.913" viewBox="0 0 90.882 79.913">
  <g id="API_Server_Icon" transform="translate(726.902 -588.999)">
    <g id="Layer_1" data-name="Layer 1" transform="translate(-716.582 594.963)">
      <g id="Group_1144" data-name="Group 1144" transform="translate(28.349 56.698)">
        <g id="Group_1143" data-name="Group 1143">
          <path id="Path_2442" data-name="Path 2442" d="M-674.843,664a4.822,4.822,0,0,1,4.816,4.816,4.821,4.821,0,0,1-4.816,4.815,4.821,4.821,0,0,1-4.815-4.816A4.821,4.821,0,0,1-674.843,664m0-2.594a7.431,7.431,0,0,0-7.409,7.409,7.432,7.432,0,0,0,7.409,7.41,7.432,7.432,0,0,0,7.41-7.409,7.432,7.432,0,0,0-7.41-7.41Z" transform="translate(682.252 -661.402)" stroke="#f7296e" stroke-width="1" fill="#f7296e"/>
        </g>
      </g>
      <g id="Group_1146" data-name="Group 1146" transform="translate(28.349)">
        <g id="Group_1145" data-name="Group 1145">
          <path id="Path_2443" data-name="Path 2443" d="M-674.843,598.413a4.821,4.821,0,0,1,4.816,4.816,4.821,4.821,0,0,1-4.816,4.815,4.821,4.821,0,0,1-4.815-4.815,4.821,4.821,0,0,1,4.815-4.816m0-2.594a7.431,7.431,0,0,0-7.409,7.41,7.431,7.431,0,0,0,7.409,7.409,7.432,7.432,0,0,0,7.41-7.409,7.432,7.432,0,0,0-7.41-7.41Z" transform="translate(682.252 -595.819)" stroke="#f7296e" stroke-width="1" fill="#f7296e"/>
        </g>
      </g>
      <g id="Group_1148" data-name="Group 1148" transform="translate(0 28.349)">
        <g id="Group_1147" data-name="Group 1147">
          <path id="Path_2444" data-name="Path 2444" d="M-707.634,631.2a4.821,4.821,0,0,1,4.815,4.815,4.821,4.821,0,0,1-4.815,4.815,4.821,4.821,0,0,1-4.815-4.815,4.821,4.821,0,0,1,4.815-4.815m0-2.594a7.431,7.431,0,0,0-7.409,7.409,7.431,7.431,0,0,0,7.409,7.409,7.431,7.431,0,0,0,7.409-7.409,7.43,7.43,0,0,0-7.409-7.409Z" transform="translate(715.043 -628.611)" stroke="#f7296e" stroke-width="1" fill="#f7296e"/>
        </g>
      </g>
      <g id="Group_1150" data-name="Group 1150" transform="translate(56.698 28.349)">
        <g id="Group_1149" data-name="Group 1149">
          <path id="Path_2445" data-name="Path 2445" d="M-642.051,631.2a4.821,4.821,0,0,1,4.815,4.815,4.821,4.821,0,0,1-4.815,4.815,4.821,4.821,0,0,1-4.815-4.815,4.821,4.821,0,0,1,4.815-4.815m0-2.594a7.43,7.43,0,0,0-7.409,7.409,7.431,7.431,0,0,0,7.409,7.409,7.431,7.431,0,0,0,7.409-7.409,7.43,7.43,0,0,0-7.409-7.409Z" transform="translate(649.46 -628.611)" stroke="#f7296e" stroke-width="1" fill="#f7296e"/>
        </g>
      </g>
      <g id="Group_1151" data-name="Group 1151" transform="translate(17.471 16.981)">
        <path id="Path_2446" data-name="Path 2446" d="M-677.4,616.919a15.561,15.561,0,0,0-3.962.51l-1.448-1.969-6.618,3.82.982,2.243a15.446,15.446,0,0,0-3.963,6.858l-2.428.27v7.641l2.428.27a15.449,15.449,0,0,0,3.963,6.859l-.982,2.242,6.618,3.82,1.448-1.968a15.561,15.561,0,0,0,3.962.51,15.558,15.558,0,0,0,3.961-.51l1.448,1.968,6.618-3.82-.982-2.242a15.446,15.446,0,0,0,3.963-6.859l2.429-.27v-7.641l-2.429-.27a15.433,15.433,0,0,0-3.963-6.858l.982-2.243-6.618-3.82-1.448,1.969a15.558,15.558,0,0,0-3.961-.51Zm13.189,12.62.158.714,2.046.227v3.983l-2.046.227-.158.714a13.425,13.425,0,0,1-4.056,7.021l-.538.495.826,1.887-3.449,1.992-1.219-1.656-.7.219a13.5,13.5,0,0,1-4.056.62,13.5,13.5,0,0,1-4.056-.62l-.7-.219-1.219,1.656-3.45-1.992.827-1.887-.538-.495a13.427,13.427,0,0,1-4.057-7.021l-.157-.714-2.047-.227v-3.983l2.047-.227.157-.714a13.433,13.433,0,0,1,4.057-7.021l.538-.495-.827-1.887,3.45-1.992,1.219,1.656.7-.219a13.5,13.5,0,0,1,4.056-.62,13.5,13.5,0,0,1,4.056.62l.7.219,1.219-1.656,3.449,1.992-.826,1.887.538.495A13.425,13.425,0,0,1-664.208,629.54Z" transform="translate(694.834 -615.461)" stroke="#f7296e" stroke-width="1" fill="#f7296e"/>
      </g>
      <g id="Group_1152" data-name="Group 1152" transform="translate(10.502 16.719) rotate(-13)">
        <rect id="Rectangle_826" data-name="Rectangle 826" width="2.594" height="14.266" transform="translate(0 1.634) rotate(-39.045)" stroke="#f7296e" stroke-width="1" fill="#f7296e"/>
      </g>
      <g id="Group_1153" data-name="Group 1153" transform="translate(11.257 39.771)">
        <rect id="Rectangle_827" data-name="Rectangle 827" width="15.238" height="2.594" transform="matrix(0.773, -0.634, 0.634, 0.773, -0.854, 10.524)" stroke="#f7296e" stroke-width="1" fill="#f7296e"/>
      </g>
      <g id="Group_1154" data-name="Group 1154" transform="matrix(0.978, -0.208, 0.208, 0.978, 46.248, 41.235)">
        <rect id="Rectangle_828" data-name="Rectangle 828" width="2.594" height="14.266" transform="translate(0 1.634) rotate(-39.045)" stroke="#f7296e" stroke-width="1" fill="#f7296e"/>
      </g>
      <g id="Group_1155" data-name="Group 1155" transform="matrix(0.978, 0.208, -0.208, 0.978, 48.787, 13.752)">
        <rect id="Rectangle_829" data-name="Rectangle 829" width="15.238" height="2.594" transform="matrix(0.638, -0.77, 0.77, 0.638, 0, 11.735)" stroke="#f7296e" stroke-width="1" fill="#f7296e"/>
      </g>
    </g>
    <g id="Layer_4" data-name="Layer 4" transform="translate(-726.402 589.499)">
      <g id="Group_1157" data-name="Group 1157">
        <g id="Group_1156" data-name="Group 1156">
          <path id="Path_2447" data-name="Path 2447" d="M-713.075,592.093a10.745,10.745,0,0,1,10.733,10.733,10.746,10.746,0,0,1-10.733,10.733,10.746,10.746,0,0,1-10.733-10.733,10.745,10.745,0,0,1,10.733-10.733m0-2.594A13.326,13.326,0,0,0-726.4,602.826a13.327,13.327,0,0,0,13.327,13.327,13.327,13.327,0,0,0,13.327-13.327A13.327,13.327,0,0,0-713.075,589.5Z" transform="translate(726.402 -589.499)" stroke="#f7296e" stroke-width="1" fill="#f7296e"/>
        </g>
      </g>
      <g id="Group_1158" data-name="Group 1158" transform="translate(0 52.259)">
        <path id="Path_2448" data-name="Path 2448" d="M-713.075,652.542a10.746,10.746,0,0,1,10.733,10.733,10.745,10.745,0,0,1-10.733,10.733,10.745,10.745,0,0,1-10.733-10.733,10.746,10.746,0,0,1,10.733-10.733m0-2.594A13.327,13.327,0,0,0-726.4,663.275,13.327,13.327,0,0,0-713.075,676.6a13.327,13.327,0,0,0,13.327-13.327,13.327,13.327,0,0,0-13.327-13.327Z" transform="translate(726.402 -649.948)" stroke="#f7296e" stroke-width="1" fill="#f7296e"/>
      </g>
      <g id="Group_1160" data-name="Group 1160" transform="translate(63.229 52.259)">
        <g id="Group_1159" data-name="Group 1159">
          <path id="Path_2449" data-name="Path 2449" d="M-639.937,652.542A10.746,10.746,0,0,1-629.2,663.275a10.746,10.746,0,0,1-10.733,10.733,10.745,10.745,0,0,1-10.733-10.733,10.745,10.745,0,0,1,10.733-10.733m0-2.594a13.326,13.326,0,0,0-13.327,13.327A13.327,13.327,0,0,0-639.937,676.6a13.327,13.327,0,0,0,13.327-13.327,13.327,13.327,0,0,0-13.327-13.327Z" transform="translate(653.264 -649.948)" stroke="#f7296e" stroke-width="1" fill="#f7296e"/>
        </g>
      </g>
      <g id="Group_1161" data-name="Group 1161" transform="translate(63.229)">
        <path id="Path_2450" data-name="Path 2450" d="M-639.937,592.093A10.745,10.745,0,0,1-629.2,602.826a10.746,10.746,0,0,1-10.733,10.733,10.745,10.745,0,0,1-10.733-10.733,10.745,10.745,0,0,1,10.733-10.733m0-2.594a13.326,13.326,0,0,0-13.327,13.327,13.327,13.327,0,0,0,13.327,13.327,13.327,13.327,0,0,0,13.327-13.327A13.327,13.327,0,0,0-639.937,589.5Z" transform="translate(653.264 -589.499)" stroke="#f7296e" stroke-width="1" fill="#f7296e"/>
      </g>
      <g id="Group_1162" data-name="Group 1162" transform="translate(35.495 35.987)">
        <path id="Path_2451" data-name="Path 2451" d="M-679.389,637.214a1.71,1.71,0,0,1,.076.289.175.175,0,0,1-.041.16.331.331,0,0,1-.2.066c-.1.008-.225.012-.39.012s-.307,0-.4-.007a.98.98,0,0,1-.22-.031.2.2,0,0,1-.106-.063.338.338,0,0,1-.051-.106l-.44-1.317h-2.462l-.416,1.281a.4.4,0,0,1-.053.119.217.217,0,0,1-.106.076.8.8,0,0,1-.207.038c-.09.006-.208.01-.353.01a3.57,3.57,0,0,1-.364-.015.278.278,0,0,1-.182-.074.2.2,0,0,1-.035-.165,1.653,1.653,0,0,1,.075-.284l2.021-5.815a.522.522,0,0,1,.071-.139.251.251,0,0,1,.13-.081,1,1,0,0,1,.245-.035q.157-.008.415-.008.3,0,.476.008a1.264,1.264,0,0,1,.277.035.269.269,0,0,1,.142.083.512.512,0,0,1,.073.152Zm-3.008-4.808h-.005l-.927,2.786h1.859Z" transform="translate(685.344 -631.125)" stroke="#f7296e" stroke-miterlimit="10" stroke-width="0.5" fill="#f7296e"/>
        <path id="Path_2452" data-name="Path 2452" d="M-670.507,633.151a2.586,2.586,0,0,1-.172.978,1.89,1.89,0,0,1-.5.717,2.232,2.232,0,0,1-.808.443,3.74,3.74,0,0,1-1.126.151h-.547v2.092a.146.146,0,0,1-.033.092.242.242,0,0,1-.109.066,1.133,1.133,0,0,1-.2.041,2.982,2.982,0,0,1-.324.015,3.02,3.02,0,0,1-.322-.015,1.141,1.141,0,0,1-.2-.041.215.215,0,0,1-.106-.066.154.154,0,0,1-.03-.092v-5.9a.475.475,0,0,1,.124-.357.453.453,0,0,1,.327-.119H-673q.233,0,.443.018a4.491,4.491,0,0,1,.5.076,2.181,2.181,0,0,1,.6.215,1.762,1.762,0,0,1,.513.4,1.653,1.653,0,0,1,.324.562A2.193,2.193,0,0,1-670.507,633.151Zm-1.393.1a1.174,1.174,0,0,0-.122-.567.844.844,0,0,0-.3-.329.988.988,0,0,0-.373-.134,2.787,2.787,0,0,0-.4-.028h-.567v2.224h.6a1.436,1.436,0,0,0,.534-.086.918.918,0,0,0,.353-.24,1.052,1.052,0,0,0,.207-.37A1.48,1.48,0,0,0-671.9,633.247Z" transform="translate(683.942 -631.13)" stroke="#f7296e" stroke-miterlimit="10" stroke-width="0.5" fill="#f7296e"/>
        <path id="Path_2453" data-name="Path 2453" d="M-664.872,637.528a.141.141,0,0,1-.033.092.233.233,0,0,1-.109.066,1.105,1.105,0,0,1-.2.041,3,3,0,0,1-.324.015,3,3,0,0,1-.322-.015,1.136,1.136,0,0,1-.206-.041.242.242,0,0,1-.109-.066.146.146,0,0,1-.033-.092v-6.19a.142.142,0,0,1,.033-.091.236.236,0,0,1,.112-.067,1.124,1.124,0,0,1,.206-.04,2.682,2.682,0,0,1,.319-.016,2.757,2.757,0,0,1,.324.016,1.036,1.036,0,0,1,.2.04.226.226,0,0,1,.109.067.137.137,0,0,1,.033.091Z" transform="translate(682.752 -631.125)" stroke="#f7296e" stroke-miterlimit="10" stroke-width="0.5" fill="#f7296e"/>
      </g>
    </g>
  </g>
</svg>
