<svg xmlns="http://www.w3.org/2000/svg" xmlns:xlink="http://www.w3.org/1999/xlink" width="82" height="82" viewBox="0 0 82 82">
  <defs>
    <filter id="Ellipse_1041" x="0" y="0" width="82" height="82" filterUnits="userSpaceOnUse">
      <feOffset dy="3" input="SourceAlpha"/>
      <feGaussianBlur stdDeviation="3" result="blur"/>
      <feFlood flood-opacity="0.161"/>
      <feComposite operator="in" in2="blur"/>
      <feComposite in="SourceGraphic"/>
    </filter>
  </defs>
  <g id="Coinmarketcap_icon" transform="translate(9 6)">
    <g transform="matrix(1, 0, 0, 1, -9, -6)" filter="url(#Ellipse_1041)">
      <g id="Ellipse_1041-2" data-name="Ellipse 1041" transform="translate(9 6)" fill="#fff" stroke="#fff" stroke-width="3">
        <circle cx="32" cy="32" r="32" stroke="none"/>
        <circle cx="32" cy="32" r="30.5" fill="none"/>
      </g>
    </g>
    <path id="Path_2784" data-name="Path 2784" d="M28.488,19.869a1.751,1.751,0,0,1-1.785.12,2.644,2.644,0,0,1-1.015-2.436V13.906c0-1.751-.694-3-1.854-3.335C21.873,10,20.409,12.4,19.844,13.3l-3.468,5.613v-6.85c-.039-1.58-.552-2.526-1.524-2.809-.642-.188-1.605-.111-2.543,1.319L4.555,23.02A13.7,13.7,0,0,1,3,16.624a13.5,13.5,0,0,1,13.379-13.6,13.519,13.519,0,0,1,13.4,13.6V16.7a3.385,3.385,0,0,1-1.284,3.168Zm4.281-3.241v-.073A16.548,16.548,0,0,0,16.376,0,16.537,16.537,0,0,0,0,16.624,16.524,16.524,0,0,0,16.376,33.253a16.186,16.186,0,0,0,11.131-4.435,1.524,1.524,0,0,0,.077-2.141,1.469,1.469,0,0,0-2.074-.1l-.006.006a13.242,13.242,0,0,1-18.72-.494q-.185-.195-.361-.4L13.4,14.471v5.176c0,2.487.963,3.292,1.772,3.528s2.046.073,3.344-2.034L22.37,14.9c.12-.2.235-.372.338-.522v3.172a5.56,5.56,0,0,0,2.569,5.1,4.71,4.71,0,0,0,4.8-.193,6.375,6.375,0,0,0,2.676-5.831Z" transform="translate(15.71 15.742)" fill="#17181b"/>
  </g>
</svg>
