<svg xmlns="http://www.w3.org/2000/svg" width="52.932" height="46.358" viewBox="0 0 52.932 46.358"><g transform="translate(526.211 -425.12)"><path d="M-526.211,425.12h7.178c-.057.082-.09.136-.129.184a23.545,23.545,0,0,0-4.754,10.384,28.685,28.685,0,0,0-.431,7.53A25.509,25.509,0,0,0-521,454.492a22.487,22.487,0,0,0,2.837,3.86l.243.269h-8.026c-.088,0-.177,0-.265.007Z" fill="#f7296e"/><path d="M-375.888,440.683c0-.409,0-.783,0-1.157-.015-1.106,0-2.214-.058-3.318a20.13,20.13,0,0,0-3.651-10.8c-.034-.047-.064-.1-.11-.167h6.851v33.468H-379.4c.826-1.057,1.7-2.1,2.49-3.208s1.485-2.265,2.245-3.437l-8.035-4.019c-.068.105-.131.2-.193.3a23.074,23.074,0,0,1-4.489,5.353,12.44,12.44,0,0,1-5.412,2.83,10.893,10.893,0,0,1-7.881-1.049,9.949,9.949,0,0,1-3.945-4.254,17.765,17.765,0,0,1-1.678-5.194,29.607,29.607,0,0,1-.424-5.129c0-.065.006-.13.01-.216Z" transform="translate(-100.422 -0.1)" fill="#f7296e"/><path d="M-389.56,436.859h-14.069c.037-.271.055-.54.111-.8a7.1,7.1,0,0,1,5.494-5.822,6.571,6.571,0,0,1,6.126,1.33,6.47,6.47,0,0,1,2.166,3.925C-389.649,435.936-389.617,436.39-389.56,436.859Z" transform="translate(-103.024 -4.092)" fill="#f7296e"/><path d="M-302.415,660.875h1.691v8.46c-.381,0-.755.01-1.128-.008-.07,0-.147-.107-.2-.179q-2.035-2.677-4.065-5.356c-.043-.057-.09-.112-.168-.208v5.535h-1.7v-8.459c.381,0,.754-.008,1.127.008.065,0,.137.1.187.163q2.042,2.685,4.079,5.373c.044.058.089.114.178.227Z" transform="translate(-183.408 -197.958)" fill="#f7296e"/><path d="M-237.437,662.6l-1.418.711c-.032-.044-.064-.082-.089-.123a2.072,2.072,0,0,0-3.725.006,3.553,3.553,0,0,0,.267,3.983,1.988,1.988,0,0,0,2.118.661,1.869,1.869,0,0,0,1.387-1.587c.013-.064.014-.131.024-.227h-1.779v-1.3h3.545c0,.294.022.587,0,.875a4.419,4.419,0,0,1-1.064,2.661,3.753,3.753,0,0,1-5.162.219,4.731,4.731,0,0,1,.1-7.024,3.9,3.9,0,0,1,5.112.236A10.026,10.026,0,0,1-237.437,662.6Z" transform="translate(-236.474 -197.922)" fill="#f7296e"/><path d="M-473.625,661.96a.729.729,0,0,1,.118-.02c.833.005,1.667,0,2.5.024a2.466,2.466,0,0,1,1.464.5,2.391,2.391,0,0,1,.83,2.48,2.13,2.13,0,0,1-.718,1.336,6.708,6.708,0,0,1-.866.515l2.247,3.423h-.248c-.509,0-1.018-.006-1.526,0a.331.331,0,0,1-.334-.185c-.566-.949-1.142-1.892-1.715-2.837a.518.518,0,0,0-.165-.183V670.2h-1.586Zm1.6,3.761c.562,0,1.16.1,1.506-.46a1.4,1.4,0,0,0-.007-1.514c-.339-.543-.935-.491-1.5-.512Z" transform="translate(-44.196 -199.036)" fill="#f7296e"/><path d="M-367.163,669.117c-.562,0-1.07.005-1.578-.007a.267.267,0,0,1-.176-.149q-.295-.678-.565-1.367a.231.231,0,0,0-.254-.179c-.841.007-1.681.008-2.522,0a.246.246,0,0,0-.268.192q-.268.677-.557,1.347c-.027.064-.1.155-.149.156-.521.012-1.043.007-1.594.007.03-.1.047-.163.073-.229q1.562-4.025,3.122-8.05a.263.263,0,0,1,.3-.2c.353.013.707,0,1.075,0Zm-3.859-6-.056,0-.867,2.994h1.986Z" transform="translate(-127.232 -197.939)" fill="#f7296e"/><path d="M-523.91,666.676v2.2h2.668v1.381h-4.264v-8.248h4.263v1.373h-2.664v1.9h2.566v1.394Z" transform="translate(-0.593 -199.098)" fill="#f7296e"/><path d="M-415.767,662.011v6.856h2.288v1.4h-3.862v-8.253Z" transform="translate(-91.5 -199.096)" fill="#f7296e"/></g></svg>