<svg xmlns="http://www.w3.org/2000/svg" width="28.011" height="24.671" viewBox="0 0 28.011 24.671">
  <path id="Shape" d="M22.493,24.671a.749.749,0,0,1-.445-.147l-6.489-4.767a1.056,1.056,0,0,0-.631-.207,1.067,1.067,0,0,0-.677.243l-3.6,2.969a.743.743,0,0,1-.477.173.76.76,0,0,1-.729-.542l-2.5-8.128L.494,11.827a.773.773,0,0,1-.007-1.439L26.975.05a.764.764,0,0,1,1.018.874L23.241,24.057A.761.761,0,0,1,22.493,24.671Zm-.717-19.6a.222.222,0,0,0-.118.035L9.044,12.967a1.3,1.3,0,0,0-.555,1.445l1.362,4.851a.325.325,0,0,0,.637-.047l.355-2.66a2.193,2.193,0,0,1,.669-1.306L21.925,5.458a.215.215,0,0,0,.056-.242A.226.226,0,0,0,21.776,5.07Z" fill="#fff"/>
</svg>
