<svg xmlns="http://www.w3.org/2000/svg" width="33.548" height="31.674" viewBox="0 0 33.548 31.674">
  <path id="Shape" d="M16.793,31.674h0a18.746,18.746,0,0,1-9.341-2.345,10.837,10.837,0,0,1-5.261-6.185,8.125,8.125,0,0,1-.145-3.717.527.527,0,0,0,.022-.233c-.013-.006-.135-.078-.3-.176a3.857,3.857,0,0,1-1.68-2.281A2.746,2.746,0,0,1,0,15.812a2.721,2.721,0,0,1,.092-.926,3.835,3.835,0,0,1,2.059-2.453A3.763,3.763,0,0,1,3.7,12.1a3.8,3.8,0,0,1,1.656.382,4.293,4.293,0,0,1,.944.667.435.435,0,0,0,.127.107,4.774,4.774,0,0,0,.416-.253,17.535,17.535,0,0,1,8.87-2.745,2.175,2.175,0,0,0,.371-.041c0-.048,2.135-9.624,2.173-9.758A.659.659,0,0,1,18.6.053.639.639,0,0,1,18.853,0c.155,0,.7.117,6.511,1.393a3.551,3.551,0,0,0,.536.1c.023,0,.035,0,.037-.009a2.238,2.238,0,0,1,.143-.236A2.732,2.732,0,0,1,28.41,0a2.539,2.539,0,0,1,1.975.8,2.585,2.585,0,0,1,.826,2.143,2.534,2.534,0,0,1-.79,1.778,2.7,2.7,0,0,1-1.292.778,4.009,4.009,0,0,1-1.435,0,2.677,2.677,0,0,1-1.287-.778,2.221,2.221,0,0,1-.507-.7,2.5,2.5,0,0,1-.258-.956l-.02-.271-3.115-.7c-1.643-.367-3.095-.681-3.13-.681-.015.026-.745,3.332-.968,4.345-.572,2.594-.964,4.362-.974,4.4,0,.019-.008.034,0,.045.02.027.106.033.4.05a18.168,18.168,0,0,1,7.323,1.822,15.4,15.4,0,0,1,1.692.969,2.223,2.223,0,0,0,.29.179.459.459,0,0,0,.128-.107,4.486,4.486,0,0,1,.879-.633,3.79,3.79,0,0,1,3.358.008,3.9,3.9,0,0,1,1.711,1.776,3.763,3.763,0,0,1-1.636,4.867c-.054.034-.053.061.017.413a7.514,7.514,0,0,1,.006,2.874,10.108,10.108,0,0,1-4.37,6.236,17.783,17.783,0,0,1-7.555,2.825A22.436,22.436,0,0,1,16.793,31.674Zm-5.781-6.624a.672.672,0,0,0-.651.839c.035.138.086.211.288.409a7.146,7.146,0,0,0,3.193,1.5,10.039,10.039,0,0,0,2.906.309h.023a10.63,10.63,0,0,0,3.968-.618c1.18-.393,2.315-1.14,2.428-1.6a.676.676,0,0,0-.655-.845.694.694,0,0,0-.235.042,1.741,1.741,0,0,0-.36.251,5.878,5.878,0,0,1-3.066,1.246,12.578,12.578,0,0,1-4.273-.018,5.775,5.775,0,0,1-2.967-1.227,1.625,1.625,0,0,0-.36-.249A.647.647,0,0,0,11.012,25.049Zm-.478-8.279a2.431,2.431,0,0,0-.344.02,2.627,2.627,0,0,0-1.564.833,2.028,2.028,0,0,0-.52.706,3.415,3.415,0,0,0-.23.606,3.514,3.514,0,0,0,.014,1.306,2.845,2.845,0,0,0,1.492,1.842,2.543,2.543,0,0,0,1.062.277c.069.005.14.006.187.006a2.688,2.688,0,0,0,1.878-.759A2.643,2.643,0,0,0,13.4,19.43a2.351,2.351,0,0,0-.285-1.127,2.084,2.084,0,0,0-.448-.624,2.72,2.72,0,0,0-1.391-.841A3.64,3.64,0,0,0,10.534,16.77Zm12.331,0a2.6,2.6,0,0,0-1.252.323,2.257,2.257,0,0,0-.67.519,2.085,2.085,0,0,0-.523.687,2.344,2.344,0,0,0-.288,1.131,2.641,2.641,0,0,0,.85,2.145,2.676,2.676,0,0,0,1.223.707,2.759,2.759,0,0,0,.718.08,2.865,2.865,0,0,0,.737-.083,2.816,2.816,0,0,0,1.618-1.206,2.518,2.518,0,0,0,.428-1.511,2.852,2.852,0,0,0-2.131-2.72,3.519,3.519,0,0,0-.524-.066C22.99,16.769,22.927,16.767,22.865,16.767Z" fill="#fff"/>
</svg>
