<svg xmlns="http://www.w3.org/2000/svg" width="31.625" height="30.851" viewBox="0 0 31.625 30.851">
  <path id="Path" d="M29.5,7.875a15.748,15.748,0,0,0-5.756-5.753A15.438,15.438,0,0,0,15.814,0a15.462,15.462,0,0,0-7.94,2.121A15.745,15.745,0,0,0,2.121,7.875,15.463,15.463,0,0,0,0,15.812a15.374,15.374,0,0,0,3.015,9.295A15.5,15.5,0,0,0,10.81,30.82a.919.919,0,0,0,.822-.143.806.806,0,0,0,.266-.618l-.008-1.113q-.012-1.049-.012-1.832l-.473.083a5.874,5.874,0,0,1-1.142.072,8.638,8.638,0,0,1-1.431-.145,3.187,3.187,0,0,1-1.38-.617,2.606,2.606,0,0,1-.906-1.266l-.205-.473a5.139,5.139,0,0,0-.648-1.05,2.508,2.508,0,0,0-.9-.783l-.145-.1a1.538,1.538,0,0,1-.266-.248A1.093,1.093,0,0,1,4.2,22.3c-.04-.1-.007-.176.1-.237a1.328,1.328,0,0,1,.6-.093l.413.063a3.019,3.019,0,0,1,1.019.493,3.348,3.348,0,0,1,1,1.071,3.638,3.638,0,0,0,1.142,1.287,2.432,2.432,0,0,0,1.35.441,5.974,5.974,0,0,0,1.173-.1,4.19,4.19,0,0,0,.927-.309,3.339,3.339,0,0,1,1.007-2.121,14.038,14.038,0,0,1-2.109-.372,8.322,8.322,0,0,1-1.935-.8,5.547,5.547,0,0,1-1.659-1.378,6.631,6.631,0,0,1-1.079-2.161,10.25,10.25,0,0,1-.422-3.089A6.011,6.011,0,0,1,7.35,10.746a5.529,5.529,0,0,1,.145-4.2,2.88,2.88,0,0,1,1.771.277,12.542,12.542,0,0,1,1.719.791c.364.22.656.406.874.557a14.857,14.857,0,0,1,7.907,0l.783-.494a11.014,11.014,0,0,1,1.893-.906,2.705,2.705,0,0,1,1.668-.227,5.483,5.483,0,0,1,.164,4.2A6,6,0,0,1,25.9,14.988a10.389,10.389,0,0,1-.421,3.1,6.32,6.32,0,0,1-1.09,2.161,5.756,5.756,0,0,1-1.668,1.37,8.381,8.381,0,0,1-1.936.8,14.021,14.021,0,0,1-2.109.373,3.666,3.666,0,0,1,1.07,2.922v4.344a.825.825,0,0,0,.257.618.894.894,0,0,0,.813.144,15.492,15.492,0,0,0,7.793-5.715,15.356,15.356,0,0,0,3.017-9.294A15.5,15.5,0,0,0,29.5,7.875Z" fill="#fff"/>
</svg>
