<svg xmlns="http://www.w3.org/2000/svg" width="119" height="119" viewBox="0 0 119 119">
  <g id="Highly_Flexible_Icon" transform="translate(2515 -6056)">
    <g id="Group_1926" data-name="Group 1926" transform="translate(-2776 3136)">
      <g id="Ellipse_687" data-name="Ellipse 687" transform="translate(261 2920)" fill="#f7296e" stroke="#f7296e" stroke-width="3">
        <circle cx="59.5" cy="59.5" r="59.5" stroke="none"/>
        <circle cx="59.5" cy="59.5" r="58" fill="none"/>
      </g>
    </g>
    <g id="Group_1928" data-name="Group 1928" transform="translate(-1895.32 5876.506)">
      <path id="Path_2405" data-name="Path 2405" d="M-524.364,208.574h-71.192a2.545,2.545,0,0,0-2.545,2.545v47.056a2.545,2.545,0,0,0,2.545,2.545h27.71a.015.015,0,0,1,.014.019l-2.228,8.909a.015.015,0,0,1-.015.011h-3.393a1.52,1.52,0,0,0-1.473,1.018,1.494,1.494,0,0,0,1.417,1.962h27.03a1.555,1.555,0,0,0,1.585-1.424,1.49,1.49,0,0,0-1.488-1.557h-3.448a.015.015,0,0,1-.015-.011l-2.227-8.909a.015.015,0,0,1,.014-.019h27.708a2.545,2.545,0,0,0,2.545-2.545V211.119A2.545,2.545,0,0,0-524.364,208.574Zm-42.622,61.067,2.227-8.909a.015.015,0,0,1,.015-.011h9.569a.015.015,0,0,1,.014.011l2.227,8.909a.015.015,0,0,1-.014.019h-14.024A.015.015,0,0,1-566.985,269.641Zm42.173-11.9h-70.294a.015.015,0,0,1-.015-.015V211.568a.015.015,0,0,1,.015-.015h70.294a.015.015,0,0,1,.015.015v46.157A.015.015,0,0,1-524.813,257.741Z" fill="#fff"/>
      <path id="Path_2406" data-name="Path 2406" d="M-513.579,242.623h27.959a1.49,1.49,0,0,0,1.49-1.49,1.491,1.491,0,0,0-1.49-1.49h-27.959a1.491,1.491,0,0,0-1.49,1.49A1.49,1.49,0,0,0-513.579,242.623Z" transform="translate(-43.647 -16.332)" fill="#fff"/>
      <path id="Path_2407" data-name="Path 2407" d="M-513.579,229.275h12.489a1.491,1.491,0,0,0,1.49-1.49,1.491,1.491,0,0,0-1.49-1.49h-12.489a1.491,1.491,0,0,0-1.49,1.49A1.491,1.491,0,0,0-513.579,229.275Z" transform="translate(-43.647 -9.315)" fill="#fff"/>
      <path id="Path_2408" data-name="Path 2408" d="M-513.579,257.019h27.959a1.49,1.49,0,0,0,1.49-1.49,1.49,1.49,0,0,0-1.49-1.49h-27.959a1.49,1.49,0,0,0-1.49,1.49A1.49,1.49,0,0,0-513.579,257.019Z" transform="translate(-43.647 -23.899)" fill="#fff"/>
      <path id="Path_2409" data-name="Path 2409" d="M-513.579,271.416h12.489a1.49,1.49,0,0,0,1.49-1.489,1.49,1.49,0,0,0-1.49-1.49h-12.489a1.49,1.49,0,0,0-1.49,1.49A1.49,1.49,0,0,0-513.579,271.416Z" transform="translate(-43.647 -31.468)" fill="#fff"/>
      <path id="Path_2410" data-name="Path 2410" d="M-461.413,282.832h-6.114a1.49,1.49,0,0,0-1.49,1.49,1.49,1.49,0,0,0,1.49,1.49h6.114a1.49,1.49,0,0,0,1.49-1.49A1.49,1.49,0,0,0-461.413,282.832Z" transform="translate(-67.854 -39.035)" fill="#fff"/>
      <g id="Group_1125" data-name="Group 1125" transform="translate(-585.786 216.422)">
        <g id="Group_1124" data-name="Group 1124" transform="translate(0 0)">
          <path id="Path_2411" data-name="Path 2411" d="M-564.038,225.12a8.1,8.1,0,0,0-8.1,8.1,8.1,8.1,0,0,0,8.1,8.1,8.1,8.1,0,0,0,8.1-8.1A8.108,8.108,0,0,0-564.038,225.12Zm0,13.5a5.4,5.4,0,0,1-5.4-5.4,5.4,5.4,0,0,1,5.4-5.4,5.4,5.4,0,0,1,5.4,5.4A5.4,5.4,0,0,1-564.038,238.62Z" transform="translate(572.138 -225.12)" fill="#fff"/>
        </g>
      </g>
      <g id="Group_1127" data-name="Group 1127" transform="translate(-589.836 233.972)">
        <g id="Group_1126" data-name="Group 1126">
          <path id="Path_2412" data-name="Path 2412" d="M-563.126,262.119h-.319l-.285.135a10.761,10.761,0,0,1-9.593,0l-.285-.135h-.319a6.758,6.758,0,0,0-6.75,6.75v8.1a4.05,4.05,0,0,0,4.05,4.05h16.2a4.05,4.05,0,0,0,4.05-4.05v-8.1A6.758,6.758,0,0,0-563.126,262.119Zm4.05,14.85a1.35,1.35,0,0,1-1.35,1.35h-16.2a1.35,1.35,0,0,1-1.35-1.35v-8.1a4.05,4.05,0,0,1,3.763-4.039,13.51,13.51,0,0,0,11.375,0,4.05,4.05,0,0,1,3.762,4.039Z" transform="translate(580.676 -262.119)" fill="#fff"/>
        </g>
      </g>
    </g>
  </g>
</svg>
