<?xml version="1.0" encoding="utf-8"?>
<!-- Generator: Adobe Illustrator 20.1.0, SVG Export Plug-In . SVG Version: 6.00 Build 0)  -->
<svg version="1.1" id="Layer_1" xmlns="http://www.w3.org/2000/svg" xmlns:xlink="http://www.w3.org/1999/xlink" x="0px" y="0px"
	 viewBox="0 0 64 64" style="enable-background:new 0 0 64 64;" xml:space="preserve">
<style type="text/css">
	.st0{fill:#FFFFFF;}
	.st1{fill:#7ABDF7;}
	.st2{fill:#0D74F5;}
	.st3{fill:#4494F7;}
	.st4{fill:#005CF4;}
	.st5{fill:#186EF9;}
	.st6{fill:#0246F2;}
	.st7{fill:#0046F8;}
	.st8{fill:#0729F1;}
	.st9{fill:#1A1A1A;}
</style>
<circle class="st0" cx="32.062" cy="32" r="32"/>
<g transform="translate(-.01 -.01)">
	<path class="st0" d="M35.481,32.031c0.004,0.614-0.098,1.223-0.304,1.801c-0.193,0.545-0.491,1.048-0.878,1.478
		c-0.396,0.431-0.879,0.773-1.417,1.003c-1.235,0.496-2.614,0.496-3.85,0c-0.54-0.232-1.025-0.574-1.424-1.006
		c-0.39-0.428-0.689-0.93-0.878-1.477c-0.396-1.166-0.396-2.431,0-3.597c0.188-0.55,0.486-1.056,0.878-1.485
		c0.399-0.43,0.884-0.772,1.424-1.003c1.234-0.495,2.611-0.495,3.845,0c0.539,0.231,1.022,0.573,1.417,1.006
		c0.389,0.432,0.689,0.938,0.881,1.487C35.382,30.813,35.484,31.42,35.481,32.031L35.481,32.031z M30.961,35.203
		c0.398,0.011,0.793-0.071,1.154-0.239c0.322-0.157,0.603-0.386,0.823-0.668c0.23-0.3,0.398-0.642,0.495-1.006
		c0.216-0.823,0.216-1.687,0-2.51c-0.097-0.364-0.264-0.706-0.493-1.006c-0.22-0.283-0.501-0.511-0.823-0.668
		c-0.735-0.324-1.573-0.324-2.308,0c-0.322,0.157-0.603,0.386-0.823,0.668c-0.229,0.3-0.396,0.642-0.493,1.006
		c-0.216,0.823-0.216,1.687,0,2.51c0.097,0.362,0.265,0.701,0.493,0.999c0.22,0.283,0.501,0.512,0.824,0.668
		c0.36,0.17,0.755,0.254,1.154,0.245L30.961,35.203z M36.669,36.525v-8.987h1.889v4.318l3.117-4.318h2.186l-3.306,4.44l3.536,4.548
		h-2.335l-3.199-4.413v4.413L36.669,36.525z M44.833,27.538h5.401v1.498h-3.511v2.172h3.347v1.498h-3.347v2.321h3.549v1.497h-5.439
		L44.833,27.538z M56.961,27.538h2.053l-2.954,4.467l3.011,4.52h-2.065l-1.94-3.063l-1.941,3.063h-2.07l3.008-4.521l-2.951-4.467
		h2.053l1.903,3.038L56.961,27.538z"/>
	<path class="st1" d="M13.607,30.981c0.677,0.166,1.383,0.166,2.06,0c0.385-1.567,1.609-2.791,3.176-3.176
		c0.568-2.323-0.855-4.667-3.178-5.235c-2.323-0.568-4.667,0.855-5.235,3.178c-0.165,0.676-0.165,1.381,0,2.057
		C11.998,28.189,13.222,29.413,13.607,30.981z"/>
	<path class="st2" d="M15.667,33.039c-0.677-0.166-1.383-0.166-2.06,0c-0.385,1.567-1.609,2.791-3.176,3.176
		c-0.568,2.323,0.855,4.667,3.178,5.235c2.323,0.568,4.667-0.855,5.235-3.178c0.165-0.676,0.165-1.381,0-2.057
		C17.276,35.831,16.052,34.607,15.667,33.039L15.667,33.039z"/>
	<path class="st3" d="M19.872,27.68c-0.347,0-0.692,0.042-1.029,0.124c-0.385,1.567-1.608,2.791-3.176,3.176
		c-0.166,0.677-0.166,1.383,0,2.06c1.567,0.385,2.791,1.609,3.176,3.176c2.323,0.567,4.666-0.856,5.234-3.179
		s-0.856-4.666-3.179-5.234C20.562,27.721,20.218,27.679,19.872,27.68L19.872,27.68z"/>
	<path class="st4" d="M13.607,33.039c0.166-0.677,0.166-1.383,0-2.06c-1.567-0.385-2.791-1.608-3.176-3.176
		c-2.323-0.568-4.667,0.855-5.235,3.178s0.855,4.667,3.178,5.235c0.676,0.165,1.381,0.165,2.057,0
		C10.816,34.649,12.04,33.425,13.607,33.039z"/>
	<path class="st5" d="M15.667,30.981c1.567-0.385,2.791-1.609,3.176-3.176C17.276,28.19,16.052,29.413,15.667,30.981L15.667,30.981z
		"/>
	<path class="st6" d="M15.667,33.039c0.385,1.567,1.609,2.791,3.176,3.176C18.458,34.648,17.234,33.425,15.667,33.039L15.667,33.039
		z"/>
	<path class="st7" d="M13.607,30.981c-0.385-1.567-1.609-2.791-3.176-3.176C10.816,29.372,12.04,30.595,13.607,30.981z"/>
	<path class="st8" d="M13.607,33.039c-1.567,0.385-2.791,1.609-3.176,3.176C11.998,35.83,13.222,34.607,13.607,33.039z"/>
	<path class="st9" d="M35.481,32.031c0.004,0.614-0.098,1.223-0.304,1.801c-0.193,0.545-0.491,1.048-0.878,1.478
		c-0.396,0.431-0.879,0.773-1.417,1.003c-1.235,0.496-2.614,0.496-3.85,0c-0.54-0.232-1.025-0.574-1.424-1.006
		c-0.39-0.428-0.689-0.93-0.878-1.477c-0.396-1.166-0.396-2.431,0-3.597c0.188-0.55,0.486-1.056,0.878-1.485
		c0.399-0.43,0.884-0.772,1.424-1.003c1.234-0.495,2.611-0.495,3.845,0c0.539,0.231,1.022,0.573,1.417,1.006
		c0.389,0.432,0.689,0.938,0.881,1.487C35.382,30.813,35.484,31.42,35.481,32.031L35.481,32.031z M30.961,35.203
		c0.398,0.011,0.793-0.071,1.154-0.239c0.322-0.157,0.603-0.386,0.823-0.668c0.23-0.3,0.398-0.642,0.495-1.006
		c0.216-0.823,0.216-1.687,0-2.51c-0.097-0.364-0.264-0.706-0.493-1.006c-0.22-0.283-0.501-0.511-0.823-0.668
		c-0.735-0.324-1.573-0.324-2.308,0c-0.322,0.157-0.603,0.386-0.823,0.668c-0.229,0.3-0.396,0.642-0.493,1.006
		c-0.216,0.823-0.216,1.687,0,2.51c0.097,0.362,0.265,0.701,0.493,0.999c0.22,0.283,0.501,0.512,0.824,0.668
		c0.36,0.17,0.755,0.254,1.154,0.245L30.961,35.203z M36.669,36.525v-8.987h1.889v4.318l3.117-4.318h2.186l-3.306,4.44l3.536,4.548
		h-2.335l-3.199-4.413v4.413L36.669,36.525z M44.833,27.538h5.401v1.498h-3.511v2.172h3.347v1.498h-3.347v2.321h3.549v1.497h-5.439
		L44.833,27.538z M56.961,27.538h2.053l-2.954,4.467l3.011,4.52h-2.065l-1.94-3.063l-1.941,3.063h-2.07l3.008-4.521l-2.951-4.467
		h2.053l1.903,3.038L56.961,27.538z"/>
	<path class="st1" d="M13.607,30.981c0.677,0.166,1.383,0.166,2.06,0c0.385-1.567,1.609-2.791,3.176-3.176
		c0.568-2.323-0.855-4.667-3.178-5.235c-2.323-0.568-4.667,0.855-5.235,3.178c-0.165,0.676-0.165,1.381,0,2.057
		C11.998,28.189,13.222,29.413,13.607,30.981z"/>
	<path class="st2" d="M15.667,33.039c-0.677-0.166-1.383-0.166-2.06,0c-0.385,1.567-1.609,2.791-3.176,3.176
		c-0.568,2.323,0.855,4.667,3.178,5.235c2.323,0.568,4.667-0.855,5.235-3.178c0.165-0.676,0.165-1.381,0-2.057
		C17.276,35.831,16.052,34.607,15.667,33.039L15.667,33.039z"/>
	<path class="st3" d="M19.872,27.68c-0.347,0-0.692,0.042-1.029,0.124c-0.385,1.567-1.608,2.791-3.176,3.176
		c-0.166,0.677-0.166,1.383,0,2.06c1.567,0.385,2.791,1.609,3.176,3.176c2.323,0.567,4.666-0.856,5.234-3.179
		s-0.856-4.666-3.179-5.234C20.562,27.721,20.218,27.679,19.872,27.68L19.872,27.68z"/>
	<path class="st4" d="M13.607,33.039c0.166-0.677,0.166-1.383,0-2.06c-1.567-0.385-2.791-1.608-3.176-3.176
		c-2.323-0.568-4.667,0.855-5.235,3.178s0.855,4.667,3.178,5.235c0.676,0.165,1.381,0.165,2.057,0
		C10.816,34.649,12.04,33.425,13.607,33.039z"/>
	<path class="st5" d="M15.667,30.981c1.567-0.385,2.791-1.609,3.176-3.176C17.276,28.19,16.052,29.413,15.667,30.981L15.667,30.981z
		"/>
	<path class="st6" d="M15.667,33.039c0.385,1.567,1.609,2.791,3.176,3.176C18.458,34.648,17.234,33.425,15.667,33.039L15.667,33.039
		z"/>
	<path class="st7" d="M13.607,30.981c-0.385-1.567-1.609-2.791-3.176-3.176C10.816,29.372,12.04,30.595,13.607,30.981z"/>
	<path class="st8" d="M13.607,33.039c-1.567,0.385-2.791,1.609-3.176,3.176C11.998,35.83,13.222,34.607,13.607,33.039z"/>
</g>
</svg>
