<svg xmlns="http://www.w3.org/2000/svg" width="119" height="119" viewBox="0 0 119 119">
  <g id="Private_Transaction_icon" transform="translate(2854 -5996)">
    <g id="Group_1921" data-name="Group 1921" transform="translate(-3115 3076)">
      <g id="Ellipse_687" data-name="Ellipse 687" transform="translate(261 2920)" fill="#f7296e" stroke="#f7296e" stroke-width="3">
        <circle cx="59.5" cy="59.5" r="59.5" stroke="none"/>
        <circle cx="59.5" cy="59.5" r="58" fill="none"/>
      </g>
    </g>
    <g id="Group_1924" data-name="Group 1924" transform="translate(3128.285 -846.268)">
      <path id="Path_2395" data-name="Path 2395" d="M-5943.705,6938.128a18.6,18.6,0,0,0,18.6-18.6,18.6,18.6,0,0,0-18.6-18.6,18.6,18.6,0,0,0-18.6,18.6A18.625,18.625,0,0,0-5943.705,6938.128Zm0-34.55a15.946,15.946,0,0,1,15.946,15.946,15.947,15.947,0,0,1-15.946,15.947,15.947,15.947,0,0,1-15.947-15.947A15.964,15.964,0,0,1-5943.705,6903.579Z" transform="translate(0 -20.167)" fill="#fff"/>
      <path id="Path_2396" data-name="Path 2396" d="M-5860.584,6919.524a18.6,18.6,0,0,0,18.6,18.6,18.6,18.6,0,0,0,18.6-18.6,18.6,18.6,0,0,0-18.6-18.6A18.623,18.623,0,0,0-5860.584,6919.524Zm34.55,0a15.946,15.946,0,0,1-15.946,15.947,15.946,15.946,0,0,1-15.946-15.947,15.945,15.945,0,0,1,15.946-15.946A15.963,15.963,0,0,1-5826.034,6919.524Z" transform="translate(-59.202 -20.167)" fill="#fff"/>
      <path id="Path_2397" data-name="Path 2397" d="M-5916.475,6876.9h5.315v-2.658h-1.727a27.85,27.85,0,0,1,33.385.491l1.624-2.1a30.561,30.561,0,0,0-37.269-.046v-2.327h-2.658v5.315A1.329,1.329,0,0,0-5916.475,6876.9Z" transform="translate(-25.901 0)" fill="#fff"/>
      <path id="Path_2398" data-name="Path 2398" d="M-5906.791,7001.316l-1.625,2.1a30.563,30.563,0,0,0,37.27.045v2.327h2.658v-5.315a1.33,1.33,0,0,0-1.329-1.329h-5.316v2.658h1.728a27.85,27.85,0,0,1-33.385-.49Z" transform="translate(-31.365 -77.334)" fill="#fff"/>
      <path id="Path_2399" data-name="Path 2399" d="M-5895.551,6942.247h2.658v2.658h-2.658Z" transform="translate(-38.852 -44.218)" fill="#fff"/>
      <path id="Path_2400" data-name="Path 2400" d="M-5946.414,6942.247h2.657v2.658h-2.657Z" transform="translate(-9.251 -44.218)" fill="#fff"/>
      <path id="Path_2401" data-name="Path 2401" d="M-5841.51,6942.247h2.658v2.658h-2.658Z" transform="translate(-70.303 -44.218)" fill="#fff"/>
      <path id="Path_2402" data-name="Path 2402" d="M-5797,6942.247h2.658v2.658H-5797Z" transform="translate(-96.204 -44.218)" fill="#fff"/>
      <path id="Path_2403" data-name="Path 2403" d="M-5927.314,6931.175a4.746,4.746,0,0,1,4.74,4.741,4.746,4.746,0,0,1-4.74,4.74,4.746,4.746,0,0,1-4.741-4.74,4.746,4.746,0,0,1,4.741-4.741m0-2.09a6.831,6.831,0,0,0-6.831,6.831,6.831,6.831,0,0,0,6.831,6.831,6.831,6.831,0,0,0,6.831-6.831,6.831,6.831,0,0,0-6.831-6.831Z" transform="translate(-16.391 -36.558)" fill="#fff"/>
      <path id="Path_2404" data-name="Path 2404" d="M-5825.588,6931.175a4.747,4.747,0,0,1,4.741,4.741,4.746,4.746,0,0,1-4.741,4.74,4.746,4.746,0,0,1-4.74-4.74,4.746,4.746,0,0,1,4.74-4.741m0-2.09a6.831,6.831,0,0,0-6.83,6.831,6.831,6.831,0,0,0,6.83,6.831,6.831,6.831,0,0,0,6.831-6.831,6.831,6.831,0,0,0-6.831-6.831Z" transform="translate(-75.594 -36.558)" fill="#fff"/>
    </g>
  </g>
</svg>
