<svg xmlns="http://www.w3.org/2000/svg" width="119" height="119" viewBox="0 0 119 119">
  <g id="Security_icon" transform="translate(2564 -6282)">
    <g id="Group_2034" data-name="Group 2034" transform="translate(-2825 3362)">
      <g id="Ellipse_687" data-name="Ellipse 687" transform="translate(261 2920)" fill="#f7296e" stroke="#f7296e" stroke-width="3">
        <circle cx="59.5" cy="59.5" r="59.5" stroke="none"/>
        <circle cx="59.5" cy="59.5" r="58" fill="none"/>
      </g>
    </g>
    <g id="Group_2035" data-name="Group 2035" transform="translate(2682.742 -552.691)">
      <path id="Path_2387" data-name="Path 2387" d="M-5189.361,6862.754c-5.154,5.024-11.187,7.568-18.979,8a6.659,6.659,0,0,0-6.272,6.524c-.011.749-.031,1.433-.061,2.09l0,.112c-.148,7.8-.333,17.508,2.9,26.287a33.242,33.242,0,0,0,7.974,12.422,41.818,41.818,0,0,0,15.648,9.251,4.272,4.272,0,0,0,.591.161,4.365,4.365,0,0,0,1.716,0,4.283,4.283,0,0,0,.594-.162,41.861,41.861,0,0,0,15.631-9.256,33.3,33.3,0,0,0,7.975-12.425c3.247-8.8,3.063-18.529,2.915-26.345l0-.047c-.029-.634-.048-1.317-.061-2.088a6.661,6.661,0,0,0-6.272-6.525c-7.793-.435-13.825-2.979-18.982-8.005l-.041-.039a3.853,3.853,0,0,0-2.612-1.022,3.876,3.876,0,0,0-2.625,1.028Zm3.174,2.212a30.2,30.2,0,0,0,9.41,6.328,34.019,34.019,0,0,0,11.541,2.537,3.57,3.57,0,0,1,3.366,3.5c.012.786.032,1.491.063,2.158.15,7.95.321,16.949-2.726,25.211-3.488,9.457-10.6,15.946-21.733,19.842a1.5,1.5,0,0,1-.181.048,1.281,1.281,0,0,1-.254.025,1.343,1.343,0,0,1-.256-.026,1.327,1.327,0,0,1-.176-.047c-11.151-3.889-18.266-10.376-21.75-19.833-3.035-8.235-2.863-17.23-2.712-25.166v-.046c.031-.686.051-1.392.062-2.167a3.571,3.571,0,0,1,3.367-3.5,34.013,34.013,0,0,0,11.539-2.537,30.137,30.137,0,0,0,9.39-6.309A.793.793,0,0,1-5186.187,6864.966Z" transform="translate(0 0)" fill="#fff"/>
      <path id="Path_2388" data-name="Path 2388" d="M-5166.106,6907.715a16.255,16.255,0,0,0-16.236,16.236,16.255,16.255,0,0,0,16.236,16.237,16.255,16.255,0,0,0,16.236-16.237A16.254,16.254,0,0,0-5166.106,6907.715Zm0,29.4a13.173,13.173,0,0,1-13.159-13.159,13.174,13.174,0,0,1,13.159-13.159,13.174,13.174,0,0,1,13.158,13.159A13.173,13.173,0,0,1-5166.106,6937.11Z" transform="translate(-20.598 -29.259)" fill="#fff"/>
      <path id="Path_2389" data-name="Path 2389" d="M-5146.6,6938.148l-8.036,8.036-2.4-2.4a1.53,1.53,0,0,0-1.088-.451,1.528,1.528,0,0,0-1.088.451,1.541,1.541,0,0,0,0,2.176l3.487,3.487a1.576,1.576,0,0,0,2.176,0l9.125-9.125a1.529,1.529,0,0,0,.45-1.088,1.527,1.527,0,0,0-.45-1.088,1.574,1.574,0,0,0-2.177,0Z" transform="translate(-35.017 -48.329)" fill="#fff"/>
    </g>
  </g>
</svg>
