<svg xmlns="http://www.w3.org/2000/svg" xmlns:xlink="http://www.w3.org/1999/xlink" width="162" height="162" viewBox="0 0 162 162"><defs><filter id="a" x="0" y="0" width="162" height="162" filterUnits="userSpaceOnUse"><feOffset dy="3" input="SourceAlpha"/><feGaussianBlur stdDeviation="3" result="b"/><feFlood flood-opacity="0.161"/><feComposite operator="in" in2="b"/><feComposite in="SourceGraphic"/></filter></defs><g transform="translate(-1.76 5.81)"><g transform="matrix(1, 0, 0, 1, 1.76, -5.81)" filter="url(#a)"><g transform="translate(9 6)" fill="#fff" stroke="#fff" stroke-width="3"><circle cx="72" cy="72" r="72" stroke="none"/><circle cx="72" cy="72" r="70.5" fill="none"/></g></g><g transform="translate(-10.274 1.351)"><g transform="translate(52.975 33.093)"><path d="M18.732-483.343a24.46,24.46,0,0,0-4.307,1.151c-.3.132-.822.345-1.151.493a23.2,23.2,0,0,0-9.041,7.5c-.477.707-.871,1.315-.871,1.348a4.58,4.58,0,0,1-.362.707A22.365,22.365,0,0,0,.585-464.7a38.527,38.527,0,0,0,.049,6.164,21.877,21.877,0,0,0,5.9,11.7A22.4,22.4,0,0,0,17.45-440.7c.427.082.97.2,1.2.263a38.242,38.242,0,0,0,6.986-.033,24.986,24.986,0,0,0,6.789-2.351c3.764-1.858,5.293-2.285,8.3-2.285a14.707,14.707,0,0,1,7.315,1.792,15.577,15.577,0,0,1,8.268,13.545,13.736,13.736,0,0,1-.625,4.356,15.56,15.56,0,0,1-7.857,9.616,15.516,15.516,0,0,1-5.014,1.644,20.709,20.709,0,0,1-4.6-.066A15.642,15.642,0,0,1,27-422.376a15.259,15.259,0,0,1-1.841-7.2,2.864,2.864,0,0,0-3.337-2.844c-2.071.247-2.86,1.364-2.729,3.879a21.423,21.423,0,0,0,2.268,8.581,21.625,21.625,0,0,0,13.479,11.227,16.8,16.8,0,0,0,2.12.493c.378.049,1.085.148,1.611.214a21.73,21.73,0,0,0,7.15-.46,21.288,21.288,0,0,0,10.405-5.9,21.388,21.388,0,0,0,4.011-24.887c-1.874-3.764-4.06-6.115-8.531-9.139a17.583,17.583,0,0,1-4.405-3.83,16.261,16.261,0,0,1-3.189-7.2,26.54,26.54,0,0,1-.033-4.7c.082-.444.2-1.019.247-1.282a16.674,16.674,0,0,1,1.479-3.863,15.475,15.475,0,0,1,16.668-7.857,16.113,16.113,0,0,1,6.74,3.222,15.317,15.317,0,0,1,5.819,11.769,15.587,15.587,0,0,1-7.857,13.808c-1.693.937-2.3,1.874-2.153,3.3a3.012,3.012,0,0,0,2.778,2.762,3.131,3.131,0,0,0,1.989-.542,21.8,21.8,0,0,0,6.937-5.8,24.215,24.215,0,0,0,3.994-8.613,17.627,17.627,0,0,0,.395-4.75,19.638,19.638,0,0,0-2.334-9.665,21.687,21.687,0,0,0-18.854-11.868A19.86,19.86,0,0,0,49.8-481.305a21.486,21.486,0,0,0-12,17.917c-.3,4.373-.312,4.537-.921,6.394a15.587,15.587,0,0,1-14.252,10.619,15.542,15.542,0,0,1-15.9-13.216,15.781,15.781,0,0,1,15.073-17.852,16.423,16.423,0,0,1,7.167,1.529,3.047,3.047,0,0,0,4.274-2.285,2.974,2.974,0,0,0-.756-2.531c-.986-.986-3.4-1.89-7.019-2.647A34.264,34.264,0,0,0,18.732-483.343Z" transform="translate(-0.483 483.529)" fill="#f7296e"/></g></g></g></svg>