<svg xmlns="http://www.w3.org/2000/svg" width="64" height="64" viewBox="0 0 64 64"><circle cx="32" cy="32" r="32" fill="#fff"/><path d="M27.082,20.486,32,15.568l4.92,4.92,2.862-2.861L32,9.845l-7.779,7.779Z" fill="#f0b90b"/><rect width="4.046" height="4.046" transform="translate(19.338 23.105) rotate(-45)" fill="#f0b90b"/><path d="M27.082,24.527,32,29.443l4.92-4.919,2.863,2.86v0L32,35.167l-7.78-7.779,0,0Z" fill="#f0b90b"/><rect width="4.046" height="4.046" transform="translate(38.938 22.507) rotate(-45)" fill="#f0b90b"/><path d="M34.9,23.1h0L32,20.2l-2.146,2.146h0l-.246.246L29.1,23.1h0l0,0,0,0,2.9,2.9,2.9-2.9h0Z" fill="#f0b90b"/><path d="M7,39.1h3.214a2.447,2.447,0,0,1,1.809.614A1.6,1.6,0,0,1,12.5,40.9v.019a1.711,1.711,0,0,1-.074.525,1.628,1.628,0,0,1-.2.411,1.573,1.573,0,0,1-.285.322,1.912,1.912,0,0,1-.35.238,2.335,2.335,0,0,1,.947.62,1.586,1.586,0,0,1,.345,1.085v.019a1.8,1.8,0,0,1-.183.833,1.624,1.624,0,0,1-.524.6,2.435,2.435,0,0,1-.821.357,4.435,4.435,0,0,1-1.063.118H7Zm2.892,2.8a1.594,1.594,0,0,0,.8-.173.6.6,0,0,0,.3-.559v-.019a.611.611,0,0,0-.257-.53,1.266,1.266,0,0,0-.743-.183H8.485v1.466S9.892,41.9,9.892,41.9ZM10.3,44.7a1.47,1.47,0,0,0,.793-.183.629.629,0,0,0,.287-.57v-.019a.654.654,0,0,0-.268-.55,1.438,1.438,0,0,0-.862-.2H8.486V44.7H10.3Z" fill="#f0b90b"/><path d="M14.8,39.1h1.525v6.934H14.8Z" fill="#f0b90b"/><path d="M18.635,39.1h1.407l3.249,4.269V39.1H24.8v6.934H23.5l-3.358-4.408v4.408H18.636V39.1h0Z" fill="#f0b90b"/><path d="M29.414,39.053h1.407l2.972,6.984H32.2l-.634-1.555H28.632L28,46.037H26.443Zm1.6,4.081L30.1,40.885l-.921,2.249Z" fill="#f0b90b"/><path d="M35.44,39.1h1.407L40.1,43.371V39.1H41.6v6.934H40.3l-3.358-4.408v4.408H35.44Z" fill="#f0b90b"/><path d="M47.092,46.155a3.589,3.589,0,0,1-1.417-.278,3.488,3.488,0,0,1-1.129-.758,3.444,3.444,0,0,1-.743-1.135,3.639,3.639,0,0,1-.268-1.4v-.019a3.6,3.6,0,0,1,1.011-2.531,3.442,3.442,0,0,1,1.139-.772,3.709,3.709,0,0,1,1.466-.282,4.565,4.565,0,0,1,.886.08,3.728,3.728,0,0,1,.728.218,3.083,3.083,0,0,1,.6.337,4.237,4.237,0,0,1,.515.436l-.97,1.12a3.653,3.653,0,0,0-.827-.574,2.1,2.1,0,0,0-.947-.208,1.921,1.921,0,0,0-1.446.635,2.162,2.162,0,0,0-.416.688,2.34,2.34,0,0,0-.148.837v.019a2.379,2.379,0,0,0,.148.842,2.208,2.208,0,0,0,.411.694,1.9,1.9,0,0,0,1.451.644,2.131,2.131,0,0,0,1.006-.218,3.841,3.841,0,0,0,.817-.6l.971.981a5.1,5.1,0,0,1-.555.515A3.215,3.215,0,0,1,48,46.073,4.661,4.661,0,0,1,47.092,46.155Z" fill="#f0b90b"/><path d="M51.73,39.1h5.221v1.357H53.236v1.407h3.269v1.357H53.236v1.456H57v1.357H51.73Z" fill="#f0b90b"/></svg>