<svg xmlns="http://www.w3.org/2000/svg" width="64" height="64" viewBox="0 0 64 64"><circle cx="32" cy="32" r="32" fill="#fff"/><path d="M31.573,38.384a.343.343,0,0,0,.485,0l16.09-16.09a.342.342,0,0,0,0-.484l-9.467-9.467a.342.342,0,0,0-.484,0l-9.452,9.448a.345.345,0,0,1-.488,0h0l-.284-.287a.343.343,0,0,0-.585.243v4.092a.345.345,0,0,0,.345.343h4.093a.342.342,0,0,0,.242-.584.342.342,0,0,1,0-.484l4.353-4.367a.342.342,0,0,0,0-.484l-.4-.4a.343.343,0,0,1,.243-.585h4.091a.344.344,0,0,1,.344.343v4.092a.344.344,0,0,1-.586.243l-.275-.275a.335.335,0,0,0-.483,0l-7.339,7.336a.342.342,0,0,1-.484,0l-8.979-8.979a.343.343,0,0,1,0-.487l12.43-12.43a.343.343,0,0,0,0-.485L32.06,5.717a.343.343,0,0,0-.485,0L15.482,21.809a.343.343,0,0,0,0,.485Z" fill="#de5959"/><path d="M26.192,42.357h-.673a.527.527,0,0,0-.528.526v.376a3.3,3.3,0,0,0-2.435-1.119,3.373,3.373,0,0,0-2.617,1.167,4.194,4.194,0,0,0-1.046,2.914,4.34,4.34,0,0,0,1.045,2.971,3.449,3.449,0,0,0,5.055.126v.743a.656.656,0,0,0,.654.655H26.8V42.959A.607.607,0,0,0,26.192,42.357Zm-1.7,5.71h0a2.061,2.061,0,0,1-1.613.685,1.955,1.955,0,0,1-1.549-.711,2.708,2.708,0,0,1-.6-1.822,2.6,2.6,0,0,1,.614-1.757,1.982,1.982,0,0,1,1.549-.7,2.025,2.025,0,0,1,1.6.7,2.949,2.949,0,0,1,0,3.609Z" fill="#de5959"/><path d="M33.825,42.363h0v-.006H30.1V40.074a.53.53,0,0,0-.532-.531h-.727a.536.536,0,0,0-.536.538v2.276h-.767v1.675H28.3v6.683h1.025a.769.769,0,0,0,.771-.771v-5.91h1.843a3.755,3.755,0,0,1,.532-.769A3.284,3.284,0,0,1,33.825,42.363Z" fill="#de5959"/><path d="M18.348,42.357h-.711a.54.54,0,0,0-.542.542v.334a3.138,3.138,0,0,0-2.444-1.1,3.31,3.31,0,0,0-2.7,1.262A4.486,4.486,0,0,0,11,46.292a4.253,4.253,0,0,0,1.023,2.914,3.3,3.3,0,0,0,2.6,1.15,3.353,3.353,0,0,0,2.467-1.093v1.086q0,2.421-1.972,2.421a1.926,1.926,0,0,1-1.628-.728,1.582,1.582,0,0,1-.237-.459.637.637,0,0,0-.6-.428h-.68a.529.529,0,0,0-.512.66,3.265,3.265,0,0,0,1.081,1.729,3.868,3.868,0,0,0,2.564.839A3.644,3.644,0,0,0,18,53.171a3.286,3.286,0,0,0,.75-1.509,6.344,6.344,0,0,0,.1-.74c.023-.279.035-.6.035-.97V48.821a4.446,4.446,0,0,1-.756-2.6,4.3,4.3,0,0,1,.756-2.552h0V42.9A.54.54,0,0,0,18.348,42.357ZM16.615,48h0a1.972,1.972,0,0,1-1.629.749,1.934,1.934,0,0,1-1.614-.743,2.729,2.729,0,0,1-.534-1.741,2.76,2.76,0,0,1,.534-1.757,1.938,1.938,0,0,1,1.614-.758,2,2,0,0,1,1.572.694,2.618,2.618,0,0,1,.608,1.814A2.674,2.674,0,0,1,16.615,48Z" fill="#de5959"/><path d="M51.8,44.338h0a4.254,4.254,0,0,0-5.894-.006A3.862,3.862,0,0,0,44.7,47.2a4.03,4.03,0,0,0,1.182,2.971,3.952,3.952,0,0,0,2.931,1.2,4.119,4.119,0,0,0,2.978-1.174,4.168,4.168,0,0,0,.009-5.854Zm-1.271,4.745a2.424,2.424,0,0,1-3.37-.009,2.625,2.625,0,0,1-.624-1.844,2.5,2.5,0,0,1,.64-1.772,2.39,2.39,0,0,1,3.354,0,2.915,2.915,0,0,1,0,3.625Z" fill="#de5959"/><path d="M40.718,49.231v0a.908.908,0,0,0-.9.9.953.953,0,0,0,.561.864.939.939,0,0,0,.986-.215.873.873,0,0,0,.267-.643.847.847,0,0,0-.267-.637A.881.881,0,0,0,40.718,49.231Z" fill="#de5959"/><path d="M43.359,43.237h-.651a.6.6,0,0,0-.606.606v5.7a.912.912,0,0,1,0,1.147v.32h1.156a.642.642,0,0,0,.641-.642v-6.6A.538.538,0,0,0,43.359,43.237Z" fill="#de5959"/><path d="M43,39.543h0a1.178,1.178,0,0,0-1.165,1.16,1.144,1.144,0,0,0,.344.839,1.132,1.132,0,0,0,.831.343,1.1,1.1,0,0,0,.821-.344,1.134,1.134,0,0,0,.345-.83,1.1,1.1,0,0,0-.345-.822A1.133,1.133,0,0,0,43,39.543Z" fill="#de5959"/><path d="M40.719,49.229Z" fill="#de5959"/><path d="M40.718,49.229Z" fill="#de5959"/><path d="M34.5,48.77h0a2.348,2.348,0,0,1-.625-1.527h5.15a.432.432,0,0,0,.432-.423,4.308,4.308,0,0,0-.989-3.011,3.9,3.9,0,0,0-5.446.032A4.309,4.309,0,0,0,32,46.829a4.2,4.2,0,0,0,1.053,2.986,3.426,3.426,0,0,0,1.806,1.017,3.75,3.75,0,0,0,.923.1l3.671.079,0-.188a.877.877,0,0,1-.235-.614.865.865,0,0,1,.242-.606v-.228c-1.009-.026-3.454-.049-3.552-.049A1.876,1.876,0,0,1,34.5,48.77Zm-.252-3.6h0a1.83,1.83,0,0,1,.4-.449,1.7,1.7,0,0,1,.524-.288,1.883,1.883,0,0,1,.617-.1A1.724,1.724,0,0,1,37.6,45.774H33.993A2.166,2.166,0,0,1,34.246,45.175Z" fill="#de5959"/></svg>