<svg xmlns="http://www.w3.org/2000/svg" width="64" height="64" viewBox="0 0 64 64"><g transform="translate(-0.031)"><circle cx="32" cy="32" r="32" transform="translate(0.031)" fill="#fff"/><path d="M25.081,24.92v4.573H20.538V25.51a.593.593,0,0,0-.593-.593H18.407V35.863a.593.593,0,0,0,.593.593h1.538V31.35h4.545v4.511a.593.593,0,0,0,.584.6h1.547V25.51a.593.593,0,0,0-.593-.593h-1.54v0ZM34.1,27.78v5.486a1.4,1.4,0,0,1-.687,1.22,1.588,1.588,0,0,1-2.451-1.32V28.374a.593.593,0,0,0-.593-.593H28.833v5.582a3.273,3.273,0,0,0,3.259,3.263h.874a3.276,3.276,0,0,0,3.266-3.266V28.373a.593.593,0,0,0-.593-.593Z" fill="#1b2143"/><path d="M57.37,36.463h1.538V28.691a.593.593,0,0,0-.593-.593H56.777v7.767a.593.593,0,0,0,.588.6h0Z" fill="#2ca6e0"/><circle cx="1.188" cy="1.188" r="1.188" transform="translate(56.292 26.731) rotate(-67.5)" fill="#2ca6e0"/><path d="M41.73,27.776A3.879,3.879,0,0,0,37.672,31.6v1.206a4.066,4.066,0,0,0,8.116,0V31.6A3.876,3.876,0,0,0,41.73,27.776Zm1.918,5.177a1.926,1.926,0,0,1-3.838,0V31.447a1.926,1.926,0,0,1,3.838,0Z" fill="#1b2143"/><path d="M51.284,27.776a4.357,4.357,0,0,0-1.929.437V25.522a.593.593,0,0,0-.593-.593H47.224v7.879a4.066,4.066,0,0,0,8.116,0V31.6a3.873,3.873,0,0,0-4.056-3.826Zm1.921,5.177a1.926,1.926,0,0,1-3.838,0V31.447a1.926,1.926,0,0,1,3.838,0Z" fill="#2ca6e0"/><path d="M11.967,25.865a6.814,6.814,0,0,0-2-4.978s-.066-.037-.06.057c-.071,4.492-2.366,5.71-3.627,7.349a5.508,5.508,0,0,0,2.554,8.7c1.538.43-.357-.76-.6-3.27-.3-3.03,3.731-5.346,3.731-7.859Z" fill="#1b2143"/><path d="M13.29,27.4c-.018-.011-.043-.021-.06.009a8.555,8.555,0,0,1-1.357,2.886C9.39,34.058,10.8,35.875,11.6,36.852c.462.565,0,0,1.153-.579a5.21,5.21,0,0,0,2.488-4.023A5.825,5.825,0,0,0,13.29,27.4Z" fill="#2ca6e0"/></g></svg>