<svg xmlns="http://www.w3.org/2000/svg" xmlns:xlink="http://www.w3.org/1999/xlink" width="140" height="111.836" viewBox="0 0 140 111.836"><defs><linearGradient id="a" x1="0.122" y1="0.955" x2="0.911" y2="0.027" gradientUnits="objectBoundingBox"><stop offset="0" stop-color="#ae0721"/><stop offset="0.15" stop-color="#c41a23"/><stop offset="0.336" stop-color="#d92c26"/><stop offset="0.517" stop-color="#e63728"/><stop offset="0.688" stop-color="#eb3b29"/><stop offset="0.755" stop-color="#ec4524"/><stop offset="0.869" stop-color="#f16018"/><stop offset="0.971" stop-color="#f77e0b"/></linearGradient><linearGradient id="b" x1="1.174" y1="0.283" x2="-0.013" y2="0.659" gradientUnits="objectBoundingBox"><stop offset="0.008" stop-color="#6f0027"/><stop offset="0.14" stop-color="#530329"/><stop offset="0.283" stop-color="#3c062a"/><stop offset="0.419" stop-color="#2e082b"/><stop offset="0.538" stop-color="#2a092c"/><stop offset="0.656" stop-color="#2b0b2f"/><stop offset="0.762" stop-color="#30133a"/><stop offset="0.864" stop-color="#39214c"/><stop offset="0.958" stop-color="#453365"/></linearGradient></defs><g transform="translate(-140 -57.333)"><path d="M323.013,369.4c-8.023-9.948-21.34-22.31-34.225-15.8-14.2,7.177-19.34,38.738-20.336,46.023-6.994,2.174-13.242,3.161-18.1,1.551-11.724-3.909-12.189-18.395-11.582-25.92v-.05c.025-.149.05-.29.066-.415,15.863-27.048,28.981-44.04,47.375-43.467,8.8.266,16.718,5.891,24.219,17.2C313.895,353.735,318.98,362.389,323.013,369.4Z" transform="translate(-78.221 -273.97)" fill="url(#a)"/><path d="M352.16,417.23c-4.512-14.341-17.746-28.3-41.347-24.5-9.232,1.494-19.332,5.551-29.1,9.472-13.709,5.506-26.66,10.7-35.249,7.871-12.135-4.008-12.318-19.132-11.645-26.472q-2.661,4.55-5.441,9.449c-15.732,27.625-19.453,46.55-10.761,54.725,11.062,10.415,40.263,1.426,62.12-12.313,23.455-14.745,41.6-19.264,52.473-13.078,7.611,4.328,11.456,13.9,11.146,27.708C353.066,445.17,356.5,431.031,352.16,417.23Z" transform="translate(-74.037 -283.141)" fill="url(#b)"/></g></svg>