<svg xmlns="http://www.w3.org/2000/svg" width="64" height="64" viewBox="0 0 64 64"><g transform="translate(-0.062)"><circle cx="32" cy="32" r="32" transform="translate(0.062)" fill="#fff"/><g transform="translate(-0.01 -0.01)"><path d="M35.481,32.031a5.259,5.259,0,0,1-.3,1.8A4.411,4.411,0,0,1,34.3,35.31a4.128,4.128,0,0,1-1.417,1,5.167,5.167,0,0,1-3.85,0,4.187,4.187,0,0,1-1.424-1.006,4.257,4.257,0,0,1-.878-1.477,5.594,5.594,0,0,1,0-3.6,4.127,4.127,0,0,1,2.3-2.488,5.163,5.163,0,0,1,3.845,0,4.1,4.1,0,0,1,1.417,1.006,4.389,4.389,0,0,1,.881,1.487,5.216,5.216,0,0,1,.306,1.793ZM30.961,35.2a2.567,2.567,0,0,0,1.154-.239,2.352,2.352,0,0,0,.823-.668,2.867,2.867,0,0,0,.495-1.006,4.942,4.942,0,0,0,0-2.51,2.879,2.879,0,0,0-.493-1.006,2.341,2.341,0,0,0-.823-.668,2.862,2.862,0,0,0-2.308,0,2.352,2.352,0,0,0-.823.668,2.879,2.879,0,0,0-.493,1.006,4.942,4.942,0,0,0,0,2.51,2.865,2.865,0,0,0,.493,1,2.324,2.324,0,0,0,.824.668,2.567,2.567,0,0,0,1.154.245Zm5.708,1.322V27.538h1.889v4.318l3.117-4.318h2.186l-3.306,4.44,3.536,4.548H41.756l-3.2-4.413v4.413Zm8.164-8.987h5.4v1.5H46.723v2.172H50.07v1.5H46.723v2.321h3.549v1.5H44.833Zm12.128,0h2.053L56.06,32.005l3.011,4.52H57.006l-1.94-3.063-1.941,3.063h-2.07L54.063,32l-2.951-4.467h2.053l1.9,3.038Z" fill="#fff"/><path d="M13.607,30.981a4.323,4.323,0,0,0,2.06,0,4.336,4.336,0,0,1,3.176-3.176,4.33,4.33,0,1,0-8.413,0A4.333,4.333,0,0,1,13.607,30.981Z" fill="#7abdf7"/><path d="M15.667,33.039a4.323,4.323,0,0,0-2.06,0,4.336,4.336,0,0,1-3.176,3.176,4.33,4.33,0,1,0,8.413,0,4.333,4.333,0,0,1-3.177-3.176Z" fill="#0d74f5"/><path d="M19.872,27.68a4.35,4.35,0,0,0-1.029.124,4.335,4.335,0,0,1-3.176,3.176,4.323,4.323,0,0,0,0,2.06,4.336,4.336,0,0,1,3.176,3.176A4.33,4.33,0,0,0,20.9,27.8a4.273,4.273,0,0,0-1.026-.123Z" fill="#4494f7"/><path d="M13.607,33.039a4.323,4.323,0,0,0,0-2.06A4.335,4.335,0,0,1,10.431,27.8a4.33,4.33,0,1,0,0,8.413A4.339,4.339,0,0,1,13.607,33.039Z" fill="#005cf4"/><path d="M15.667,30.981a4.336,4.336,0,0,0,3.176-3.176,4.335,4.335,0,0,0-3.176,3.176Z" fill="#186ef9"/><path d="M15.667,33.039a4.336,4.336,0,0,0,3.176,3.176,4.338,4.338,0,0,0-3.176-3.176Z" fill="#0246f2"/><path d="M13.607,30.981a4.336,4.336,0,0,0-3.176-3.176A4.338,4.338,0,0,0,13.607,30.981Z" fill="#0046f8"/><path d="M13.607,33.039a4.336,4.336,0,0,0-3.176,3.176A4.335,4.335,0,0,0,13.607,33.039Z" fill="#0729f1"/><path d="M35.481,32.031a5.259,5.259,0,0,1-.3,1.8A4.411,4.411,0,0,1,34.3,35.31a4.128,4.128,0,0,1-1.417,1,5.167,5.167,0,0,1-3.85,0,4.187,4.187,0,0,1-1.424-1.006,4.257,4.257,0,0,1-.878-1.477,5.594,5.594,0,0,1,0-3.6,4.127,4.127,0,0,1,2.3-2.488,5.163,5.163,0,0,1,3.845,0,4.1,4.1,0,0,1,1.417,1.006,4.389,4.389,0,0,1,.881,1.487,5.216,5.216,0,0,1,.306,1.793ZM30.961,35.2a2.567,2.567,0,0,0,1.154-.239,2.352,2.352,0,0,0,.823-.668,2.867,2.867,0,0,0,.495-1.006,4.942,4.942,0,0,0,0-2.51,2.879,2.879,0,0,0-.493-1.006,2.341,2.341,0,0,0-.823-.668,2.862,2.862,0,0,0-2.308,0,2.352,2.352,0,0,0-.823.668,2.879,2.879,0,0,0-.493,1.006,4.942,4.942,0,0,0,0,2.51,2.865,2.865,0,0,0,.493,1,2.324,2.324,0,0,0,.824.668,2.567,2.567,0,0,0,1.154.245Zm5.708,1.322V27.538h1.889v4.318l3.117-4.318h2.186l-3.306,4.44,3.536,4.548H41.756l-3.2-4.413v4.413Zm8.164-8.987h5.4v1.5H46.723v2.172H50.07v1.5H46.723v2.321h3.549v1.5H44.833Zm12.128,0h2.053L56.06,32.005l3.011,4.52H57.006l-1.94-3.063-1.941,3.063h-2.07L54.063,32l-2.951-4.467h2.053l1.9,3.038Z" fill="#1a1a1a"/><path d="M13.607,30.981a4.323,4.323,0,0,0,2.06,0,4.336,4.336,0,0,1,3.176-3.176,4.33,4.33,0,1,0-8.413,0A4.333,4.333,0,0,1,13.607,30.981Z" fill="#7abdf7"/><path d="M15.667,33.039a4.323,4.323,0,0,0-2.06,0,4.336,4.336,0,0,1-3.176,3.176,4.33,4.33,0,1,0,8.413,0,4.333,4.333,0,0,1-3.177-3.176Z" fill="#0d74f5"/><path d="M19.872,27.68a4.35,4.35,0,0,0-1.029.124,4.335,4.335,0,0,1-3.176,3.176,4.323,4.323,0,0,0,0,2.06,4.336,4.336,0,0,1,3.176,3.176A4.33,4.33,0,0,0,20.9,27.8a4.273,4.273,0,0,0-1.026-.123Z" fill="#4494f7"/><path d="M13.607,33.039a4.323,4.323,0,0,0,0-2.06A4.335,4.335,0,0,1,10.431,27.8a4.33,4.33,0,1,0,0,8.413A4.339,4.339,0,0,1,13.607,33.039Z" fill="#005cf4"/><path d="M15.667,30.981a4.336,4.336,0,0,0,3.176-3.176,4.335,4.335,0,0,0-3.176,3.176Z" fill="#186ef9"/><path d="M15.667,33.039a4.336,4.336,0,0,0,3.176,3.176,4.338,4.338,0,0,0-3.176-3.176Z" fill="#0246f2"/><path d="M13.607,30.981a4.336,4.336,0,0,0-3.176-3.176A4.338,4.338,0,0,0,13.607,30.981Z" fill="#0046f8"/><path d="M13.607,33.039a4.336,4.336,0,0,0-3.176,3.176A4.335,4.335,0,0,0,13.607,33.039Z" fill="#0729f1"/></g></g></svg>