<?xml version="1.0" encoding="utf-8"?>
<!-- Generator: Adobe Illustrator 16.0.3, SVG Export Plug-In . SVG Version: 6.00 Build 0)  -->
<!DOCTYPE svg PUBLIC "-//W3C//DTD SVG 1.1//EN" "http://www.w3.org/Graphics/SVG/1.1/DTD/svg11.dtd" [
	<!ENTITY ns_flows "http://ns.adobe.com/Flows/1.0/">
	<!ENTITY ns_extend "http://ns.adobe.com/Extensibility/1.0/">
	<!ENTITY ns_ai "http://ns.adobe.com/AdobeIllustrator/10.0/">
	<!ENTITY ns_graphs "http://ns.adobe.com/Graphs/1.0/">
]>
<svg version="1.1" id="Layer_1" xmlns:x="&ns_extend;" xmlns:i="&ns_ai;" xmlns:graph="&ns_graphs;"
	 xmlns="http://www.w3.org/2000/svg" xmlns:xlink="http://www.w3.org/1999/xlink" xmlns:a="http://ns.adobe.com/AdobeSVGViewerExtensions/3.0/"
	 x="0px" y="0px" width="80px" height="80px" viewBox="0 0 80 80" enable-background="new 0 0 80 80" xml:space="preserve">
<g>
	<path fill="#F7296E" d="M75.800781,20.558594c0-3.438965-2.796875-6.234863-6.234375-6.234863
		c-1.763672,0-3.359375,0.73877-4.496094,1.921387L40.742188,2.199219c-0.458984-0.265625-1.024414-0.265625-1.483398,0
		L14.928711,16.245117c-1.135742-1.182617-2.730469-1.921387-4.496094-1.921387c-3.436523,0-6.233398,2.795898-6.233398,6.234863
		c0,2.924805,2.026367,5.385742,4.75,6.053711v28.084961c0,0.529297,0.283203,1.017578,0.743164,1.285156l24.321289,14.042969
		c-0.162109,0.552734-0.25,1.136719-0.25,1.740234c0,3.4375,2.796875,6.234375,6.234375,6.234375
		c3.435547,0,6.234375-2.796875,6.234375-6.234375c0-0.603516-0.087891-1.185547-0.248047-1.740234l24.324219-14.042969
		c0.458984-0.267578,0.742188-0.755859,0.742188-1.285156V26.612305C73.775391,25.944336,75.800781,23.483398,75.800781,20.558594z
		 M7.168945,20.558594c0-1.801758,1.462891-3.266602,3.263672-3.266602c1.801758,0,3.265625,1.464844,3.265625,3.266602
		c0,1.799316-1.463867,3.265137-3.265625,3.265137C8.631836,23.82373,7.168945,22.35791,7.168945,20.558594z M39.998047,75.033203
		c-1.800781,0-3.264648-1.466797-3.264648-3.267578c0-1.798828,1.463867-3.265625,3.264648-3.265625
		s3.265625,1.466797,3.265625,3.265625C43.263672,73.566406,41.798828,75.033203,39.998047,75.033203z M44.496094,67.455078
		c-1.136719-1.181641-2.732422-1.921875-4.498047-1.921875s-3.361328,0.740234-4.496094,1.921875L11.916992,53.839844V26.612305
		c2.723633-0.667969,4.75-3.128906,4.75-6.053711c0-0.606445-0.088867-1.190918-0.25-1.745117L40,5.198242l23.582031,13.615234
		c-0.162109,0.554199-0.25,1.138184-0.25,1.745117c0,2.924805,2.027344,5.385742,4.75,6.053711v27.227539L44.496094,67.455078z
		 M69.566406,23.82373c-1.800781,0-3.265625-1.46582-3.265625-3.265137c0-1.801758,1.464844-3.266602,3.265625-3.266602
		s3.265625,1.464844,3.265625,3.266602C72.832031,22.35791,71.367188,23.82373,69.566406,23.82373z"/>
	<path fill="#F7296E" d="M60.335938,25.026855l-19.59375-11.3125c-0.458984-0.26416-1.024414-0.26416-1.483398,0l-19.594727,11.3125
		c-0.458984,0.265625-0.741211,0.755859-0.741211,1.285645v22.626953c0,0.529297,0.282227,1.019531,0.741211,1.285156
		l19.594727,11.3125C39.488281,61.667969,39.743164,61.734375,40,61.734375c0.257813,0,0.511719-0.066406,0.742188-0.197266
		l19.59375-11.3125c0.458984-0.265625,0.742188-0.755859,0.742188-1.285156V26.3125
		C61.078125,25.782715,60.794922,25.29248,60.335938,25.026855z M40,16.714355L56.625,26.3125L40,35.911133L23.375,26.3125
		L40,16.714355z M41.482422,57.679688v-6.693359C41.482422,50.166016,40.818359,49.5,40,49.5
		c-0.820313,0-1.484375,0.666016-1.484375,1.486328v6.693359l-16.625-9.597656v-19.19873l17.368164,10.027344
		C39.488281,39.043457,39.743164,39.109863,40,39.109863c0.257813,0,0.511719-0.066406,0.742188-0.199219l17.367188-10.027344
		v19.19873L41.482422,57.679688z"/>
	<path fill="#F7296E" d="M39.999023,42.822266c-0.391602,0-0.773438,0.158203-1.050781,0.433594
		c-0.276367,0.277344-0.435547,0.658203-0.435547,1.048828c0,0.388672,0.15918,0.775391,0.435547,1.050781
		c0.277344,0.275391,0.65918,0.433594,1.050781,0.433594c0.390625,0,0.772461-0.158203,1.047852-0.433594
		c0.277344-0.275391,0.435547-0.662109,0.435547-1.050781c0-0.390625-0.158203-0.771484-0.435547-1.048828
		C40.771484,42.980469,40.389648,42.822266,39.999023,42.822266z"/>
</g>
</svg>
