<?xml version="1.0" encoding="utf-8"?>
<!-- Generator: Adobe Illustrator 16.0.3, SVG Export Plug-In . SVG Version: 6.00 Build 0)  -->
<!DOCTYPE svg PUBLIC "-//W3C//DTD SVG 1.1//EN" "http://www.w3.org/Graphics/SVG/1.1/DTD/svg11.dtd" [
	<!ENTITY ns_flows "http://ns.adobe.com/Flows/1.0/">
	<!ENTITY ns_extend "http://ns.adobe.com/Extensibility/1.0/">
	<!ENTITY ns_ai "http://ns.adobe.com/AdobeIllustrator/10.0/">
	<!ENTITY ns_graphs "http://ns.adobe.com/Graphs/1.0/">
]>
<svg version="1.1" id="Layer_1" xmlns:x="&ns_extend;" xmlns:i="&ns_ai;" xmlns:graph="&ns_graphs;"
	 xmlns="http://www.w3.org/2000/svg" xmlns:xlink="http://www.w3.org/1999/xlink" xmlns:a="http://ns.adobe.com/AdobeSVGViewerExtensions/3.0/"
	 x="0px" y="0px" width="80px" height="80px" viewBox="0 0 80 80" enable-background="new 0 0 80 80" xml:space="preserve">
<g>
	<path fill="#F7296E" d="M57.470703,47.902344l-2.620117,1.451172c-0.538086,0.299805-0.732422,0.975586-0.43457,1.512695
		c0.203125,0.368164,0.583008,0.574219,0.975586,0.574219c0.180664,0,0.367188-0.043945,0.539063-0.138672l2.619141-1.452148
		c0.537109-0.295898,0.733398-0.974609,0.433594-1.512695C58.685547,47.799805,58.008789,47.605469,57.470703,47.902344z"/>
	<path fill="#F7296E" d="M57.470703,44.742188l-2.620117,1.452148c-0.538086,0.299805-0.732422,0.975586-0.43457,1.515625
		c0.203125,0.364258,0.583008,0.571289,0.975586,0.571289c0.180664,0,0.367188-0.043945,0.537109-0.138672l2.621094-1.452148
		c0.537109-0.295898,0.733398-0.974609,0.433594-1.512695C58.685547,44.640625,58.008789,44.446289,57.470703,44.742188z"/>
	<path fill="#F7296E" d="M75.945313,58.083008c0.106445-0.175781,0.166016-0.379883,0.166016-0.583984v-9.793945
		c0-0.615234-0.498047-1.114258-1.113281-1.114258s-1.114258,0.499023-1.114258,1.114258v8.079102l-10.705078-4.776367V30.321289
		l10.705078-5.930664v18.464844c0,0.615234,0.499023,1.114258,1.114258,1.114258s1.113281-0.499023,1.113281-1.114258V22.500977
		c0-0.397461-0.225586-0.781738-0.573242-0.974121L40.540039,2.137695c-0.333008-0.183594-0.747559-0.183594-1.07959,0
		L4.462891,21.526855c-0.354004,0.195801-0.579102,0.583984-0.574219,0.987305v34.984863
		c0,0.396484,0.225586,0.780273,0.574219,0.972656l15.419922,8.543945c0.538086,0.296875,1.215332,0.102539,1.513184-0.435547
		c0.29834-0.537109,0.103027-1.21582-0.434082-1.512695L7.493652,57.606445l10.38623-4.633789l21.006836,11.640625v10.384766
		l-13.509766-7.483398c-0.537598-0.299805-1.214844-0.104492-1.513184,0.435547
		c-0.29834,0.537109-0.103027,1.212891,0.43457,1.512695l15.162109,8.400391c0.331055,0.181641,0.749023,0.181641,1.07959,0
		l15.901367-8.811523c0.538086-0.299805,0.731445-0.975586,0.433594-1.512695
		c-0.296875-0.538086-0.975586-0.732422-1.512695-0.435547l-14.25,7.894531V64.613281l21.007813-11.640625l10.385742,4.633789
		L59.774414,64.65918c-0.538086,0.298828-0.732422,0.975586-0.43457,1.514648
		c0.203125,0.365234,0.583984,0.574219,0.975586,0.574219c0.182617,0,0.367188-0.045898,0.539063-0.140625l14.683594-8.135742
		C75.702148,58.381836,75.84668,58.241211,75.945313,58.083008z M40.000488,18.712891l19.768066,10.953125L40.000488,40.618164
		L20.231934,29.666016L40.000488,18.712891z M62.06543,28.392578L41.112305,16.78418V5.000977l31.588867,17.5L62.06543,28.392578z
		 M38.886719,16.78418L17.93457,28.392578L7.299316,22.500977l31.587402-17.5V16.78418z M6.115234,24.390625l10.705566,5.930664
		v20.686523L6.115234,55.78418V24.390625z M19.047363,31.555664l8.081055,4.476074l11.758301,6.515137v19.519531
		L19.047363,51.076172V31.555664z M41.112305,42.546875l19.839844-10.991211v19.520508L41.112305,62.066406V42.546875z"/>
</g>
</svg>
