<svg xmlns="http://www.w3.org/2000/svg" width="86" height="74.364" viewBox="0 0 86 74.364"><g transform="translate(2970.09 -176.639)"><path d="M-2889.522,209.683H-2916a4.925,4.925,0,0,0-4.9,4.948v23.733l-15.575,9.007V214.494l28.362-16.442V210.4h2.3V196.066a1.124,1.124,0,0,0-.547-.993l-30.754-17.762a1.133,1.133,0,0,0-1.141,0l-30.763,17.762a1.145,1.145,0,0,0-.57.993v35.526a1.148,1.148,0,0,0,.574.994l30.764,17.762a1.148,1.148,0,0,0,.574.154,1.211,1.211,0,0,0,.591-.154l16.189-9.339v4.456a4.86,4.86,0,0,0,4.848,4.872h26.527a4.889,4.889,0,0,0,4.931-4.842V214.631a4.952,4.952,0,0,0-4.932-4.948Zm-48.154-30.048,12.784,7.381-28.469,16.436-12.783-7.381Zm-1.09,67.737-28.527-16.442V198.057l28.527,16.442Zm1.09-34.865-13.388-7.729,28.469-16.436,13.389,7.729Zm50.792,32.965a2.59,2.59,0,0,1-2.6,2.576H-2916a2.562,2.562,0,0,1-2.6-2.519v-30.9a2.627,2.627,0,0,1,2.6-2.653h26.479a2.653,2.653,0,0,1,2.637,2.653Z" transform="translate(0)" fill="#f7296e" stroke="#f7296e" stroke-width="1"/><g transform="translate(-2915.8 224.459)"><path d="M-2868.519,272.193a.95.95,0,0,1-.618-.228l-6.174-5.257a.955.955,0,0,1-.333-.727.957.957,0,0,1,.333-.727l6.174-5.257a.954.954,0,0,1,1.344.111.954.954,0,0,1-.111,1.345l-5.321,4.531,5.321,4.531a.954.954,0,0,1,.111,1.345A.95.95,0,0,1-2868.519,272.193Z" transform="translate(2875.643 -259.772)" fill="#f7296e" stroke="#f7296e" stroke-width="1"/></g><g transform="translate(-2897.445 224.457)"><path d="M-2842.625,272.193a.951.951,0,0,1-.728-.333.954.954,0,0,1,.112-1.345l5.321-4.531-5.321-4.531a.954.954,0,0,1-.111-1.345.953.953,0,0,1,.649-.334.953.953,0,0,1,.7.223l6.175,5.257a.952.952,0,0,1,.333.727.952.952,0,0,1-.333.727l-6.175,5.257A.948.948,0,0,1-2842.625,272.193Z" transform="translate(2843.579 -259.77)" fill="#f7296e" stroke="#f7296e" stroke-width="1"/></g><g transform="translate(-2905.724 220.645)"><path d="M-2857.085,273.289a.966.966,0,0,1-.2-.02.954.954,0,0,1-.6-.412.954.954,0,0,1-.135-.718l3.847-18.268a.954.954,0,0,1,1.13-.737.954.954,0,0,1,.737,1.131l-3.847,18.268A.955.955,0,0,1-2857.085,273.289Z" transform="translate(2858.041 -253.113)" fill="#f7296e" stroke="#f7296e" stroke-width="1"/></g></g></svg>