<?xml version="1.0" encoding="utf-8"?>
<!-- Generator: Adobe Illustrator 20.1.0, SVG Export Plug-In . SVG Version: 6.00 Build 0)  -->
<svg version="1.1" id="Layer_1" xmlns="http://www.w3.org/2000/svg" xmlns:xlink="http://www.w3.org/1999/xlink" x="0px" y="0px"
	 viewBox="0 0 64 64" style="enable-background:new 0 0 64 64;" xml:space="preserve">
<style type="text/css">
	.st0{fill:#FFFFFF;}
	.st1{fill:#F0B90B;}
</style>
<circle class="st0" cx="32" cy="32" r="32"/>
<g>
	<g>
		<g>
			<polygon class="st1" points="27.082,20.486 32,15.568 36.92,20.488 39.782,17.627 32,9.845 24.221,17.624 			"/>
			
				<rect x="20.176" y="21.082" transform="matrix(0.7071 -0.7071 0.7071 0.7071 -9.8357 22.4647)" class="st1" width="4.046" height="4.046"/>
			<polygon class="st1" points="27.082,24.527 32,29.443 36.92,24.524 39.783,27.384 39.782,27.386 32,35.167 24.22,27.388 
				24.217,27.384 			"/>
			
				<rect x="39.776" y="20.484" transform="matrix(0.7071 -0.7071 0.7071 0.7071 -3.6722 36.1487)" class="st1" width="4.046" height="4.046"/>
			<polygon class="st1" points="34.902,23.105 34.903,23.105 32,20.201 29.854,22.347 29.854,22.347 29.608,22.593 29.099,23.102 
				29.099,23.102 29.095,23.106 29.099,23.11 32,26.011 34.903,23.107 34.905,23.106 			"/>
		</g>
		<g>
			<path class="st1" d="M7,39.102h3.214c0.798,0,1.4,0.204,1.809,0.614c0.316,0.317,0.474,0.71,0.474,1.179v0.019
				c0,0.198-0.025,0.373-0.074,0.525c-0.049,0.152-0.115,0.289-0.197,0.411c-0.082,0.123-0.177,0.229-0.285,0.322
				c-0.109,0.093-0.225,0.172-0.35,0.238c0.401,0.152,0.716,0.358,0.947,0.62c0.23,0.261,0.345,0.623,0.345,1.085v0.019
				c0,0.317-0.061,0.595-0.183,0.833c-0.122,0.238-0.297,0.436-0.524,0.595c-0.227,0.159-0.501,0.278-0.821,0.357
				s-0.674,0.118-1.063,0.118H7V39.102z M9.892,41.905c0.337,0,0.604-0.058,0.802-0.173c0.198-0.115,0.297-0.302,0.297-0.559v-0.019
				c0-0.231-0.086-0.408-0.257-0.53c-0.172-0.123-0.419-0.183-0.743-0.183H8.485v1.466C8.485,41.905,9.892,41.905,9.892,41.905z
				 M10.299,44.699c0.337,0,0.601-0.061,0.793-0.183c0.191-0.123,0.287-0.312,0.287-0.57v-0.019c0-0.231-0.089-0.414-0.268-0.55
				c-0.179-0.136-0.466-0.203-0.862-0.203H8.486v1.525H10.299L10.299,44.699z"/>
			<path class="st1" d="M14.798,39.102h1.525v6.934h-1.525V39.102z"/>
			<path class="st1" d="M18.635,39.102h1.407l3.249,4.269v-4.269h1.506v6.934H23.5l-3.358-4.408v4.408h-1.506v-6.934H18.635z"/>
			<path class="st1" d="M29.414,39.053h1.407l2.972,6.984h-1.595l-0.634-1.555h-2.932l-0.634,1.555h-1.555L29.414,39.053z
				 M31.019,43.134l-0.922-2.249l-0.921,2.249H31.019z"/>
			<path class="st1" d="M35.44,39.102h1.407l3.249,4.269v-4.269h1.506v6.934h-1.298l-3.358-4.408v4.408H35.44
				C35.44,46.037,35.44,39.102,35.44,39.102z"/>
			<path class="st1" d="M47.092,46.155c-0.509,0-0.981-0.093-1.417-0.278c-0.436-0.185-0.812-0.438-1.129-0.758
				c-0.317-0.321-0.565-0.698-0.743-1.135c-0.179-0.436-0.268-0.901-0.268-1.397v-0.019c0-0.496,0.089-0.959,0.268-1.392
				c0.179-0.432,0.426-0.812,0.743-1.139c0.317-0.327,0.697-0.584,1.139-0.772c0.442-0.188,0.931-0.282,1.466-0.282
				c0.324,0,0.618,0.027,0.886,0.08s0.51,0.126,0.728,0.218c0.218,0.092,0.419,0.204,0.604,0.337s0.356,0.278,0.515,0.436
				l-0.97,1.12c-0.271-0.244-0.546-0.436-0.827-0.574c-0.281-0.139-0.596-0.208-0.947-0.208c-0.29,0-0.559,0.056-0.807,0.169
				c-0.247,0.112-0.46,0.268-0.639,0.466c-0.179,0.198-0.317,0.428-0.416,0.688c-0.099,0.261-0.148,0.54-0.148,0.837v0.019
				c0,0.297,0.049,0.578,0.148,0.842s0.236,0.496,0.411,0.694c0.175,0.198,0.386,0.355,0.634,0.471
				c0.247,0.116,0.521,0.173,0.817,0.173c0.397,0,0.731-0.073,1.006-0.218s0.546-0.343,0.817-0.595l0.971,0.981
				c-0.179,0.191-0.364,0.364-0.555,0.515c-0.191,0.152-0.401,0.283-0.629,0.392c-0.228,0.109-0.478,0.191-0.748,0.247
				C47.732,46.127,47.428,46.155,47.092,46.155z"/>
			<path class="st1" d="M51.73,39.102h5.221v1.357h-3.715v1.407h3.269v1.357h-3.269v1.456H57v1.357h-5.27V39.102z"/>
		</g>
	</g>
</g>
</svg>
