<svg xmlns="http://www.w3.org/2000/svg" width="70.872" height="66.97" viewBox="0 0 70.872 66.97"><g transform="translate(-1491.712 -12249.298)"><g transform="translate(1491.999 12254.772)"><g transform="translate(0 0)"><path d="M-2758.568,226.178a7.877,7.877,0,0,1-3.209-5.236c0-.027-.007-.053-.013-.079l-4.116-21.128c-.074-.578-.254-3.093,2.072-3.564,2.011-.319,2.837,1.289,3.177,2.7l.015.059c.006.025.013.049.021.074l4.85,14.575a3.78,3.78,0,0,0,.819,4.863c2,1.763,6.761,5.983,6.809,6.026a1.082,1.082,0,0,0,1.527-.091,1.083,1.083,0,0,0-.091-1.528c-.048-.042-4.808-4.265-6.815-6.031a1.667,1.667,0,0,1-.207-2.413l.009-.012.006-.009a2.273,2.273,0,0,1,3.18-.553c.07.043,3.432,2.244,3.5,2.289,4.76,3.111,5.617,3.671,6.581,5.008l0,0c4.867,7.031,4.493,6.5,5.76,13.914h-13.443q-.155-.244-.3-.472C-2750.627,231.05-2750.594,231.427-2758.568,226.178Zm24.185,26.868H-2752.7a.263.263,0,0,1-.263-.263v-8.857h18.921V252.7h0A.347.347,0,0,1-2734.384,253.047Zm.347-15.718v4.432h-18.922v-4.456a.106.106,0,0,1,.114-.1h18.7a.093.093,0,0,1,.042.01l0,0a.127.127,0,0,1,.064.11v0Zm20.972-.125a.106.106,0,0,1,.113.1v4.457h-18.922v-4.436a.083.083,0,0,1,0-.019.116.116,0,0,1,.105-.1Zm-36.98-25.566a4.213,4.213,0,0,0-4.019.215l-4.49-13.5c-.751-3.112-2.915-4.768-5.647-4.32l-.034.006c-3.557.7-4.069,4.107-3.81,6.01,0,.021.006.041.01.061l4.116,21.129a10.2,10.2,0,0,0,4.1,6.7l.043.03c7.512,4.945,7.6,4.732,9.091,7.068h-2.156a2.275,2.275,0,0,0-2.277,2.264v15.479a2.431,2.431,0,0,0,2.428,2.428h18.311a2.5,2.5,0,0,0,1.429-.449,2.493,2.493,0,0,0,1.429.449h7.308a1.082,1.082,0,0,0,1.082-1.082,1.082,1.082,0,0,0-1.082-1.082h-7.308a.346.346,0,0,1-.346-.346v-8.775h18.922v8.857a.264.264,0,0,1-.264.263h-13.768a1.082,1.082,0,0,0-1.082,1.082,1.082,1.082,0,0,0,1.082,1.082h13.768a2.43,2.43,0,0,0,2.428-2.428V237.3a2.274,2.274,0,0,0-2.276-2.263h-2.157c1.505-2.352,1.659-2.177,9.091-7.068l.042-.03a10.2,10.2,0,0,0,4.1-6.7l.833-4.274a1.083,1.083,0,0,0-.855-1.269,1.082,1.082,0,0,0-1.27.855l-.839,4.306c0,.025-.009.049-.012.075a7.877,7.877,0,0,1-3.21,5.24c-7.967,5.244-7.941,4.871-10.138,8.389-.1.152-.193.31-.3.472h-13.443c1.306-7.645,1.009-7.052,5.764-13.921,1.161-1.609,2.185-2.1,9.963-7.221a2.3,2.3,0,0,1,3.29.475l.007.008a.193.193,0,0,0,.014.019,1.668,1.668,0,0,1-.206,2.414c-2.007,1.766-6.767,5.989-6.814,6.031a1.083,1.083,0,0,0-.092,1.528,1.082,1.082,0,0,0,1.528.091c.048-.043,4.8-4.262,6.808-6.026a3.778,3.778,0,0,0,.82-4.862l4.85-14.575c.008-.024.015-.049.021-.074l.015-.059c.339-1.407,1.167-3.015,3.177-2.7,2.326.471,2.145,2.986,2.071,3.563l-3.62,18.542a1.083,1.083,0,0,0,.855,1.269,1.082,1.082,0,0,0,1.27-.855l3.626-18.574c0-.02.007-.041.01-.061.258-1.9-.253-5.309-3.812-6.01l-.034-.006c-2.732-.448-4.9,1.208-5.647,4.32l-4.49,13.5a4.277,4.277,0,0,0-4.532.048l-2,1.3c-5.968,3.909-7.353,4.727-8.59,6.324l-.011.013c-5,6.475-5.562,10.347-5.979,12.782a24.209,24.209,0,0,0-1.3-5.262,51.338,51.338,0,0,0-4.91-7.8c-1.216-1.46-2.78-2.387-8.731-6.289l-.038-.025Z" transform="translate(2768.102 -193.966)" fill="#f7296e" stroke="#f7296e" stroke-width="0.5"/></g></g><g transform="translate(1506.426 12249.548)"><path d="M8.77,0C4.92,0,2.281,2.415,0,5.407L1.352,7.389C3.441,4.52,5.662,2.262,8.77,2.262A7.173,7.173,0,0,1,15.859,8.25H6.995v2.262H18.153A9.379,9.379,0,0,0,8.77,0" transform="translate(21.726 0)" fill="#ee306f" stroke="#f7296e" stroke-width="0.5"/><path d="M30.291,16.641c-3.864,0-6.414-3.324-9.651-8.2S14.347,0,9.608,0A9.546,9.546,0,0,0,0,9.461a9.546,9.546,0,0,0,9.608,9.461c3.907,0,6.587-2.427,8.9-5.438l-1.364-2.012c-2.124,2.893-4.38,5.168-7.539,5.168a7.248,7.248,0,0,1-7.3-7.18,7.248,7.248,0,0,1,7.3-7.18c3.864,0,6.277,3.155,9.644,8.193s6.3,8.448,11.038,8.448a9.621,9.621,0,0,0,8.957-6.039H36.705a7.323,7.323,0,0,1-6.415,3.757" transform="translate(0 0)" fill="#ee306f" stroke="#f7296e" stroke-width="0.5"/></g></g></svg>