<svg xmlns="http://www.w3.org/2000/svg" width="37.023" height="30" viewBox="0 0 37.023 30">
  <path id="icons8-weibo-64" d="M31.673,6.286a9.742,9.742,0,0,0-2.507.193,1.428,1.428,0,0,0,.579,2.8,6.949,6.949,0,0,1,8.1,8.967,1.418,1.418,0,0,0,2.7.868A9.785,9.785,0,0,0,31.673,6.286ZM18.9,10.528c-2.585.277-6.2,2.29-9.4,5.5C6.007,19.519,4,23.238,4,26.438c0,6.123,7.84,9.835,15.524,9.835,7.18,0,12.65-2.981,15.373-6.616a6.72,6.72,0,0,0,1.4-3.894c0-2.808-2.356-4.405-4.483-5.062-.524-.157-.9-.229-.627-.916.591-1.489.687-2.8.048-3.712-1.2-1.718-4.526-1.627-8.292-.048,0,0-1.169.554-.868-.386.579-1.862.47-3.435-.434-4.339A3.226,3.226,0,0,0,18.9,10.528Zm12.535.771a4.769,4.769,0,0,0-1.205.1,1.276,1.276,0,0,0-.964,1.495,1.206,1.206,0,0,0,1.446.916,2.418,2.418,0,0,1,2.266.723,2.3,2.3,0,0,1,.482,2.266,1.22,1.22,0,0,0,2.314.771A4.822,4.822,0,0,0,31.432,11.3ZM20.343,19.447c5.122.181,9.244,2.748,9.594,6.267.4,4.026-4.236,7.786-10.365,8.389S8.11,31.909,7.712,27.884,12,20.1,18.126,19.5A16.155,16.155,0,0,1,20.343,19.447Zm-2.41,2.989a6.554,6.554,0,0,0-5.255,3.423,4.569,4.569,0,0,0,2.893,6.508,6.633,6.633,0,0,0,7.906-3.375c1.235-2.766-.307-5.586-3.326-6.364A6.42,6.42,0,0,0,17.933,22.436Zm1.4,3.375a.556.556,0,0,1,.241.048.627.627,0,0,1,.337.916.886.886,0,0,1-1.061.386.619.619,0,0,1-.289-.916A.945.945,0,0,1,19.331,25.811Zm-2.844.868a2.086,2.086,0,0,1,.771.145,1.633,1.633,0,0,1,.675,2.459,2.313,2.313,0,0,1-2.8.964,1.637,1.637,0,0,1-.627-2.459A2.362,2.362,0,0,1,16.486,26.679Z" transform="translate(-4 -6.272)" fill="#fff"/>
</svg>
