<svg xmlns="http://www.w3.org/2000/svg" width="78.704" height="62.964" viewBox="0 0 78.704 62.964">
  <g id="Forum_icon" transform="translate(3341.985 -188.426)">
    <path id="Path_2891" data-name="Path 2891" d="M11452.168-11674.358a1.314,1.314,0,0,1-.512-.1,1.363,1.363,0,0,1-.833-1.257v-12.3h-3.9a3.933,3.933,0,0,1-3.911-3.937v-31.687a3.941,3.941,0,0,1,3.911-3.937h52.484a3.941,3.941,0,0,1,3.911,3.938v18.852l-.038,0h-1.986c-3.29.006-10.575.012-16.177.012-4.477,0-6.312,0-6.333-.015a4.514,4.514,0,0,0-2.755,3.794v12.979h-9.728l-13.174,13.26A1.364,1.364,0,0,1,11452.168-11674.358Zm4.306-28.673a1.357,1.357,0,0,0-1.351,1.354,1.355,1.355,0,0,0,1.351,1.351h12.75a1.355,1.355,0,0,0,1.349-1.351,1.358,1.358,0,0,0-1.352-1.354Zm.039-12.273a1.357,1.357,0,0,0-1.349,1.354,1.35,1.35,0,0,0,1.349,1.348h33.591a1.356,1.356,0,0,0,1.354-1.348,1.361,1.361,0,0,0-1.351-1.354Z" transform="translate(-14785 11916)" fill="#f7296e"/>
    <g id="Group_1622" data-name="Group 1622">
      <path id="Path_2885" data-name="Path 2885" d="M-3236.671,234.193a3.868,3.868,0,0,0-1.149-2.761,3.912,3.912,0,0,0-2.772-1.145h-36.843a3.911,3.911,0,0,0-2.773,1.141,3.91,3.91,0,0,0-1.149,2.769V255.65a3.912,3.912,0,0,0,1.149,2.769,3.911,3.911,0,0,0,2.773,1.141h23.265l9.492,9.453a1.369,1.369,0,0,0,1.474.291,1.347,1.347,0,0,0,.836-1.247v-8.5h1.769a3.911,3.911,0,0,0,2.773-1.141,3.91,3.91,0,0,0,1.149-2.769Z" transform="translate(-27.61 -19.045)" fill="none" stroke="#f7296e" stroke-width="2"/>
      <path id="Path_2888" data-name="Path 2888" d="M-3239.045,246.572h-28.914a1.353,1.353,0,0,0-1.353,1.351,1.354,1.354,0,0,0,1.353,1.351h28.913a1.351,1.351,0,0,0,1.348-1.351,1.351,1.351,0,0,0-1.348-1.351Z" transform="translate(-33.042 -26.608)" fill="#f7296e"/>
      <path id="Path_2889" data-name="Path 2889" d="M-3239.045,263.091h-28.914a1.353,1.353,0,0,0-1.353,1.351,1.354,1.354,0,0,0,1.353,1.351h28.913a1.351,1.351,0,0,0,1.348-1.351,1.351,1.351,0,0,0-1.348-1.351Z" transform="translate(-33.042 -34.167)" fill="#f7296e"/>
    </g>
  </g>
</svg>
