<svg xmlns="http://www.w3.org/2000/svg" width="95.538" height="84.472" viewBox="0 0 95.538 84.472">
  <g id="Host_a_Node_icon" transform="translate(1557.964 -489.976)">
    <path id="Path_2432" data-name="Path 2432" d="M-1495.832,586.757l-5.518-5.4,5.4-5.518-3.42-3.349-8.754,8.938,8.938,8.754Z" transform="translate(-24.392 -40.377)" fill="#f7296e"/>
    <path id="Path_2433" data-name="Path 2433" d="M-1443.939,590.177l8.938-8.754-8.754-8.938-3.42,3.349,5.4,5.518-5.518,5.4Z" transform="translate(-54.16 -40.377)" fill="#f7296e"/>
    <rect id="Rectangle_825" data-name="Rectangle 825" width="33.06" height="4.789" transform="translate(-1516.565 556.601) rotate(-78.117)" fill="#f7296e"/>
    <path id="Path_2434" data-name="Path 2434" d="M-1473.612,489.976h-73.165a11.2,11.2,0,0,0-11.187,11.187v62.1a11.2,11.2,0,0,0,11.187,11.186h73.165a11.2,11.2,0,0,0,11.186-11.186v-62.1A11.2,11.2,0,0,0-1473.612,489.976Zm-79.717,26.384h86.267v46.9a6.558,6.558,0,0,1-6.551,6.55h-73.165a6.558,6.558,0,0,1-6.551-6.55Zm86.267-4.637h-86.267V501.163a6.558,6.558,0,0,1,6.551-6.551h73.165a6.558,6.558,0,0,1,6.551,6.551Z" transform="translate(0)" fill="#f7296e"/>
    <path id="Path_2435" data-name="Path 2435" d="M-1507,510.942a2.576,2.576,0,0,0-2.573,2.574,2.576,2.576,0,0,0,2.573,2.573,2.576,2.576,0,0,0,2.574-2.573A2.577,2.577,0,0,0-1507,510.942Z" transform="translate(-23.68 -10.26)" fill="#f7296e"/>
    <path id="Path_2436" data-name="Path 2436" d="M-1536.553,510.85a2.576,2.576,0,0,0-2.573,2.573,2.576,2.576,0,0,0,2.573,2.574,2.576,2.576,0,0,0,2.574-2.574A2.576,2.576,0,0,0-1536.553,510.85Z" transform="translate(-9.219 -10.215)" fill="#f7296e"/>
    <path id="Path_2437" data-name="Path 2437" d="M-1477.448,511.034a2.576,2.576,0,0,0-2.573,2.574,2.576,2.576,0,0,0,2.573,2.573,2.576,2.576,0,0,0,2.574-2.573A2.577,2.577,0,0,0-1477.448,511.034Z" transform="translate(-38.142 -10.305)" fill="#f7296e"/>
  </g>
</svg>
