<?xml version="1.0" encoding="utf-8"?>
<!-- Generator: Adobe Illustrator 20.1.0, SVG Export Plug-In . SVG Version: 6.00 Build 0)  -->
<svg version="1.1" id="Layer_1" xmlns="http://www.w3.org/2000/svg" xmlns:xlink="http://www.w3.org/1999/xlink" x="0px" y="0px"
	 viewBox="0 0 64 64" style="enable-background:new 0 0 64 64;" xml:space="preserve">
<style type="text/css">
	.st0{fill:#FFFFFF;}
	.st1{fill:#1B2143;}
	.st2{fill:#2CA6E0;}
</style>
<circle class="st0" cx="32.031" cy="32" r="32"/>
<g>
	<path class="st1" d="M25.081,24.92v4.573h-4.543V25.51c0-0.327-0.265-0.593-0.593-0.593h-1.538v10.946
		c0,0.327,0.265,0.593,0.593,0.593h1.538v-5.106h4.545v4.511c-0.005,0.327,0.256,0.597,0.584,0.602h0.009h1.538V25.51
		c0-0.327-0.265-0.593-0.593-0.593h-1.54V24.92z M34.102,27.78v5.486c0.005,0.499-0.256,0.963-0.687,1.22
		c-1.204,0.696-2.451-0.176-2.451-1.32v-4.792c0-0.327-0.265-0.593-0.593-0.593h-1.538v5.582c0.005,1.799,1.46,3.254,3.259,3.263
		h0.874c1.801-0.005,3.261-1.465,3.266-3.266v-4.987c0-0.327-0.265-0.593-0.593-0.593H34.102z"/>
	<path class="st2" d="M57.37,36.463h1.538v-7.772c0-0.327-0.265-0.593-0.593-0.593h-1.538v7.767
		c-0.002,0.327,0.261,0.595,0.588,0.597H57.37z"/>
	
		<ellipse transform="matrix(0.3827 -0.9239 0.9239 0.3827 11.6033 69.5449)" class="st2" cx="57.843" cy="26.09" rx="1.188" ry="1.188"/>
	<path class="st1" d="M41.73,27.776c-2.231,0-4.058,1.595-4.058,3.826v1.206c0,2.231,1.826,3.817,4.058,3.817
		c2.231,0,4.058-1.586,4.058-3.817v-1.206C45.79,29.371,43.963,27.776,41.73,27.776z M43.648,32.953c0,1.055-0.863,1.758-1.92,1.758
		s-1.918-0.703-1.918-1.758v-1.506c0-1.055,0.863-1.758,1.918-1.758s1.92,0.703,1.92,1.758V32.953z"/>
	<path class="st2" d="M51.284,27.776c-0.668-0.005-1.327,0.146-1.929,0.437v-2.691c0-0.327-0.265-0.593-0.593-0.593h-1.538v7.879
		c0,2.231,1.826,3.817,4.058,3.817c2.231,0,4.058-1.586,4.058-3.817v-1.206C55.342,29.371,53.52,27.776,51.284,27.776L51.284,27.776
		z M53.205,32.953c0,1.055-0.863,1.758-1.92,1.758c-1.055,0-1.918-0.703-1.918-1.758v-1.506c0-1.055,0.863-1.758,1.918-1.758
		s1.92,0.703,1.92,1.758V32.953z"/>
	<path class="st1" d="M11.967,25.865c0-2.325-1.133-4.328-1.996-4.978c0,0-0.066-0.037-0.06,0.057
		c-0.071,4.492-2.366,5.71-3.627,7.349c-2.911,3.785-0.206,7.934,2.554,8.701c1.538,0.43-0.357-0.76-0.602-3.27
		C7.937,30.694,11.967,28.378,11.967,25.865L11.967,25.865z"/>
	<path class="st2" d="M13.29,27.396c-0.018-0.011-0.043-0.021-0.06,0.009c-0.048,0.565-0.625,1.774-1.357,2.886
		c-2.483,3.767-1.069,5.584-0.272,6.561c0.462,0.565,0,0,1.153-0.579c1.426-0.865,2.35-2.362,2.488-4.023
		C15.469,29.572,13.862,27.886,13.29,27.396L13.29,27.396z"/>
</g>
</svg>
