<?xml version="1.0" encoding="utf-8"?>
<!-- Generator: Adobe Illustrator 16.0.3, SVG Export Plug-In . SVG Version: 6.00 Build 0)  -->
<!DOCTYPE svg PUBLIC "-//W3C//DTD SVG 1.1//EN" "http://www.w3.org/Graphics/SVG/1.1/DTD/svg11.dtd">
<svg version="1.1" id="Layer_1" xmlns="http://www.w3.org/2000/svg" xmlns:xlink="http://www.w3.org/1999/xlink" x="0px" y="0px"
	 width="119px" height="119px" viewBox="0 0 119 119" enable-background="new 0 0 119 119" xml:space="preserve">
<g id="No_Scaling_Icon" transform="translate(3868 -6261)">
	<g id="Group_2033" transform="translate(-4129 3341)">
		<g id="Ellipse_687" transform="translate(261 2920)">
			<circle fill="#FFFFFF" cx="59.5" cy="59.5" r="59.5"/>
			<circle fill="none" stroke="#FFFFFF" stroke-width="3" cx="59.5" cy="59.5" r="58"/>
		</g>
	</g>
	<path fill="#F7296E" d="M-3773.463,6329.143c0.748,0,1.356-0.608,1.356-1.355l0.02-7.025c0-0.481-0.26-0.931-0.679-1.174
		l-16.88-9.746l0.041-16.659l7.196-4.3l-1.017,4.03l2.52,0.634l2.071-8.209l0.03-0.122l-8.211-2.067l-0.121-0.031l-0.635,2.519
		l4.03,1.015l-7.342,4.384l-16.773-9.685c-0.404-0.233-0.955-0.232-1.361,0.002l-17.438,10.135
		c-0.408,0.203-0.695,0.689-0.696,1.182l-0.044,17.159l-16.776,9.75c-0.409,0.204-0.695,0.689-0.697,1.182l-0.045,17.942
		c-0.001,0.482,0.258,0.936,0.679,1.181l15.69,9.059l-8.686,5.189l1.016-4.03l-2.52-0.633l-2.068,8.208l-0.031,0.121l8.208,2.067
		l0.122,0.03l0.634-2.519l-4.029-1.015l11.21-6.69l7.468-4.342c0.314-0.181,0.538-0.474,0.631-0.825
		c0.094-0.352,0.044-0.717-0.139-1.03c-0.242-0.418-0.692-0.678-1.174-0.678c-0.24,0-0.476,0.064-0.682,0.186l-6.035,3.506
		l0.039-14.796l14.738-8.563l-0.039,14.795l-4.209,2.447c-0.314,0.182-0.539,0.476-0.631,0.827
		c-0.092,0.351-0.043,0.716,0.139,1.027c0.241,0.418,0.692,0.678,1.175,0.678c0.239,0,0.475-0.063,0.682-0.184l4.205-2.444
		l16.872,9.742c0.058,0.039,0.119,0.071,0.152,0.086l10.486,6.259l-4.027,1.015l0.632,2.519l8.33-2.098l-2.098-8.329l-2.52,0.633
		l1.016,4.03l-4.713-2.815l0.002-0.002l-3.994-2.385l15.575-9.049c0.416-0.242,0.675-0.691,0.675-1.172l0.016-6.052
		c0-0.747-0.609-1.357-1.358-1.359c-0.745,0-1.354,0.607-1.358,1.354l-0.014,5.271l-14.736,8.564l0.035-14.796l14.74-8.563
		l-0.014,4.653C-3774.821,6328.531-3774.212,6329.142-3773.463,6329.143z M-3811.187,6320.769l-14.751,8.571l-14.862-8.579
		l14.751-8.574L-3811.187,6320.769z M-3842.196,6337.924l0.038-14.811l14.862,8.579l-0.038,14.811L-3842.196,6337.924z
		 M-3809.78,6303.603l-0.039,14.81l-14.861-8.58l0.039-14.81L-3809.78,6303.603z M-3776.153,6320.769l-14.753,8.571l-14.858-8.577
		l14.753-8.574L-3776.153,6320.769z M-3792.263,6331.692l-0.037,14.811l-14.863-8.579l0.037-14.811L-3792.263,6331.692z
		 M-3798.608,6295.525l-2.872,1.692c-0.646,0.377-0.868,1.21-0.494,1.857c0.242,0.417,0.693,0.676,1.177,0.676
		c0.238,0,0.473-0.063,0.679-0.183l7.794-4.529l-0.037,14.792l-14.738,8.565l0.037-14.791l2.653-1.542
		c0.313-0.181,0.537-0.474,0.63-0.823c0.094-0.352,0.045-0.718-0.138-1.032c-0.243-0.417-0.693-0.677-1.176-0.677
		c-0.239,0-0.475,0.064-0.68,0.185l-2.648,1.537l-14.863-8.58l14.752-8.573l14.78,8.534L-3798.608,6295.525z"/>
</g>
</svg>
