<svg xmlns="http://www.w3.org/2000/svg" width="56.203" height="61.934" viewBox="0 0 56.203 61.934">
  <g id="Layer_2" transform="translate(-58.999 -30.521)">
    <g id="Group_1623" data-name="Group 1623" transform="translate(71.053 66.154)">
      <path id="Path_2892" data-name="Path 2892" d="M143.576,278.381s-.182,1.454-.363,3.127c-.091.836-.182,1.728-.25,2.524-.034.4-.063.772-.083,1.105s-.032.625-.032.866a5.83,5.83,0,0,0,.15,1.391,3.82,3.82,0,0,0,.386.983,3.751,3.751,0,0,0,1.156,1.237,6.476,6.476,0,0,0,1.864.843,12.4,12.4,0,0,0,3.367.532,6.445,6.445,0,0,0,1.289-.12,4.073,4.073,0,0,0,.9-.289,2.747,2.747,0,0,0,1.106-.9,2.562,2.562,0,0,0,.34-.677,3.058,3.058,0,0,0,.145-.79c.073-1.315.134-3.025.178-4.409s.068-2.442.068-2.443l-1.437-.034s0,.065,0,.186c-.021.841-.114,4.36-.24,6.622a1.38,1.38,0,0,1-.185.659,1.119,1.119,0,0,1-.29.314,2.066,2.066,0,0,1-.76.329,4.812,4.812,0,0,1-1.109.115,11.006,11.006,0,0,1-2.961-.474,5.348,5.348,0,0,1-1.334-.569,2.663,2.663,0,0,1-.589-.488,2.169,2.169,0,0,1-.463-.858,4.183,4.183,0,0,1-.138-1.16c0-.193.01-.463.03-.779.067-1.11.24-2.784.4-4.172.078-.694.151-1.318.205-1.769.027-.225.049-.407.064-.532s.024-.193.024-.194Z" transform="translate(-142.846 -278.381)" fill="#f7296e"/>
    </g>
    <path id="Path_2893" data-name="Path 2893" d="M218.849,116.763c-.839,0-1.52,1.014-1.52,2.266s.681,2.266,1.52,2.266,1.52-1.014,1.52-2.266S219.689,116.763,218.849,116.763Zm.434,2.832c-.36,0-.651-.435-.651-.971s.292-.971.651-.971.652.435.652.971S219.643,119.6,219.283,119.6Z" transform="translate(-135.568 -73.844)" fill="#f7296e"/>
    <path id="Path_2894" data-name="Path 2894" d="M275.378,118.933a.891.891,0,0,1,.22-.279.248.248,0,0,1,.34,0,1.156,1.156,0,0,1,.324.512,2.878,2.878,0,0,1,.16.975h1.172a4.27,4.27,0,0,0-.463-2.012,2.212,2.212,0,0,0-.568-.7,1.236,1.236,0,0,0-1.591,0,2.532,2.532,0,0,0-.767,1.138,4.589,4.589,0,0,0-.264,1.571h1.173A2.6,2.6,0,0,1,275.378,118.933Z" transform="translate(-184.041 -74.169)" fill="#f7296e"/>
    <path id="Path_2895" data-name="Path 2895" d="M110.971,62.629a19.924,19.924,0,0,0-1.483-1.905c.039-.061.082-.123.118-.184a5.218,5.218,0,0,0,.651-1.516,9.964,9.964,0,0,0,.259-2.211,8.086,8.086,0,0,0-.723-3.381,9.554,9.554,0,0,0-1.982-2.794l-.793-.793c-.088-.868-.256-1.966-.536-3.431a22.041,22.041,0,0,0-7.962-12.16A22.912,22.912,0,0,0,87.1,30.521a21.937,21.937,0,0,0-11.42,3.734c-3.993,2.731-7.528,8.4-7.962,12.16a33.785,33.785,0,0,0-.3,4.509h0a2.829,2.829,0,0,0-.944.438,2.9,2.9,0,0,0-.709.7,3.007,3.007,0,0,0-.489,1.156l-.252,1.261a3.817,3.817,0,0,0-.674,1.262,3.415,3.415,0,0,0-.153,1.005,3.373,3.373,0,0,0,.066.662,9.848,9.848,0,0,0,.515,1.682c.13.324.286.673.473,1.039a20.582,20.582,0,0,0-2.02,2.495c-2.171,3.185-4.542,8.981-4.2,12.305.434,4.2,1.013,4.343,2.461,3.474,1.618-.971,3.474-3.909,3.474-3.909s1.977,5.39,5.212,8.252c3.764,3.33,7.238,5.356,11.437,6.225a24.443,24.443,0,0,0,10.969,0c4.2-.869,7.672-2.9,11.437-6.225,3.235-2.862,5.212-8.252,5.212-8.252s1.856,2.938,3.474,3.909c1.448.869,2.027.724,2.461-3.474C115.513,71.61,113.142,65.814,110.971,62.629ZM92.691,39.466c2.118,0,3.836,2.56,3.836,5.718S94.81,50.9,92.691,50.9s-3.836-2.56-3.836-5.718S90.572,39.466,92.691,39.466Zm-10.713,0c2.119,0,3.836,2.56,3.836,5.718S84.1,50.9,81.978,50.9s-3.836-2.56-3.836-5.718S79.86,39.466,81.978,39.466ZM79.156,52.929c2.634-1.129,7.442-1.388,8.679-1.437l.007-.01.145,0,.145,0,.007.01c1.237.049,6.044.309,8.679,1.437,3.04,1.3,4.777,2.027,4.777,2.751s-.579,1.448-2.172,2.172a4.363,4.363,0,0,1-2.316.579A6.5,6.5,0,0,0,98.265,56.4S93.926,60,88.689,60.3c-.041,0-.081.007-.124.009h-.037c-.095,0-.19.005-.286.007s-.171.005-.256.005-.171,0-.256-.005-.191,0-.285-.007h-.037c-.043,0-.082-.006-.124-.009-5.236-.307-9.575-3.9-9.575-3.9a6.5,6.5,0,0,0,1.158,2.027,4.364,4.364,0,0,1-2.316-.579c-1.592-.724-2.171-1.448-2.171-2.172S76.115,54.232,79.156,52.929Zm-13.117,2.6a2.106,2.106,0,0,1,.129-.169l.032-.037,0,0,.151-.151.043-.213.29-1.448a1.567,1.567,0,0,1,.253-.609,1.389,1.389,0,0,1,.206-.228c.1.268.229.585.4.942a13.645,13.645,0,0,0,1.822,2.835,16.444,16.444,0,0,0,6.065,4.49,27.858,27.858,0,0,0,11.441,2.129q.342,0,.692-.006a30.468,30.468,0,0,0,10.79-1.921,18.612,18.612,0,0,0,5.024-2.915,14.576,14.576,0,0,0,3.771-4.641c.188-.371.336-.709.454-1.007a7.448,7.448,0,0,1,.882,1.453,6.64,6.64,0,0,1,.594,2.786,8.516,8.516,0,0,1-.223,1.892,3.822,3.822,0,0,1-.479,1.089,12.013,12.013,0,0,1-2.117,2.462,25.479,25.479,0,0,1-5.471,3.767A24.294,24.294,0,0,1,93.8,68.435a28.337,28.337,0,0,1-4.73.379,39.351,39.351,0,0,1-9.109-1.136,38.18,38.18,0,0,1-7.586-2.655,12.842,12.842,0,0,1-5.164-4.386,11.182,11.182,0,0,1-1.1-2.074,8.441,8.441,0,0,1-.44-1.431,1.928,1.928,0,0,1-.038-.38,1.974,1.974,0,0,1,.089-.583A2.381,2.381,0,0,1,66.038,55.526Zm35.667,26.357c-4.132,5.469-12.141,6.448-14.6,6.622-2.464-.174-10.473-1.153-14.6-6.622a18.761,18.761,0,0,1-3.474-15.49,12.473,12.473,0,0,1,.5-1.392,15.789,15.789,0,0,0,2.228,1.315,39.6,39.6,0,0,0,7.877,2.76,40.766,40.766,0,0,0,9.446,1.176,29.753,29.753,0,0,0,4.971-.4A27.214,27.214,0,0,0,104.758,65.3l.036-.026c.147.37.28.747.386,1.12A18.763,18.763,0,0,1,101.706,81.883Z" transform="translate(0)" fill="#f7296e"/>
    <path id="Path_2896" data-name="Path 2896" d="M104.855,389.535A12.9,12.9,0,0,1,103.4,388a13.792,13.792,0,0,0-2,1.322c-.793.68-1.158,1.737-.434,1.882,0,0-3.377,3.37,2.461,5.791,5.935,2.461,12.45,1.737,15.635-.434.153-.1.292-.2.424-.293-.874-.091-1.937-.247-3.2-.508C112.093,394.891,108.619,392.864,104.855,389.535Z" transform="translate(-35.106 -306.087)" fill="#f7296e"/>
    <path id="Path_2897" data-name="Path 2897" d="M278.622,395.76c-1.263.261-2.326.417-3.2.508.132.092.271.189.424.293,3.185,2.171,9.7,2.9,15.635.434,5.838-2.421,2.461-5.791,2.461-5.791.724-.145.358-1.2-.434-1.882a13.78,13.78,0,0,0-2-1.322,12.92,12.92,0,0,1-1.452,1.535C286.294,392.864,282.82,394.891,278.622,395.76Z" transform="translate(-185.309 -306.087)" fill="#f7296e"/>
  </g>
</svg>
