<svg xmlns="http://www.w3.org/2000/svg" width="64.406" height="66.02" viewBox="0 0 64.406 66.02">
  <g id="Build_in_Oracles_icon_black" transform="translate(756.398 -212.975)">
    <path id="Path_2413" data-name="Path 2413" d="M-694.753,245.985a29.494,29.494,0,0,0-.965-7.5l3.726-2.741-7.232-12.528-4.244,1.859a29.228,29.228,0,0,0-12.983-7.5l-.511-4.6h-14.466l-.511,4.6a29.226,29.226,0,0,0-12.983,7.5l-4.244-1.859-7.232,12.528,3.726,2.741a29.491,29.491,0,0,0-.965,7.5,29.491,29.491,0,0,0,.965,7.5l-3.726,2.741,7.232,12.528,4.244-1.859a29.224,29.224,0,0,0,12.983,7.5l.511,4.6h14.466l.511-4.6a29.225,29.225,0,0,0,12.983-7.5l4.244,1.859,7.232-12.528-3.726-2.741a29.489,29.489,0,0,0,.965-7.5Zm-23.889,24.967-1.352.3-.431,3.874h-7.541l-.431-3.874-1.352-.3a25.422,25.422,0,0,1-13.29-7.679l-.935-1.018-3.574,1.566-3.77-6.531,3.136-2.307-.415-1.319a25.573,25.573,0,0,1-1.173-7.679,25.574,25.574,0,0,1,1.173-7.679l.415-1.319-3.136-2.307,3.77-6.531,3.574,1.566.935-1.018a25.418,25.418,0,0,1,13.29-7.679l1.352-.3.431-3.874h7.541l.431,3.874,1.352.3a25.418,25.418,0,0,1,13.29,7.679l.935,1.018,3.574-1.566,3.771,6.531-3.137,2.307.415,1.319a25.578,25.578,0,0,1,1.173,7.679,25.577,25.577,0,0,1-1.173,7.679l-.415,1.319,3.137,2.307-3.771,6.531-3.574-1.566-.935,1.018a25.422,25.422,0,0,1-13.29,7.679Z" fill="#f7296e"/>
    <path id="Path_2414" data-name="Path 2414" d="M-716.3,268.992l-2.763-2.706-7.074,7.223,7.223,7.074,2.706-2.764-4.459-4.368Z" transform="translate(-15.572 -27.435)" fill="#f7296e"/>
    <path id="Path_2415" data-name="Path 2415" d="M-674.326,268.992l4.367,4.46-4.46,4.368,2.706,2.764,7.223-7.074-7.074-7.223Z" transform="translate(-42.19 -27.435)" fill="#f7296e"/>
    <path id="Path_2416" data-name="Path 2416" d="M-699.587,279.345l5.5-26.144,3.787.8-5.5,26.144Z" transform="translate(-29.237 -20.701)" fill="#f7296e"/>
  </g>
</svg>
