<svg id="Group_754" data-name="Group 754" xmlns="http://www.w3.org/2000/svg" width="90.269" height="66.802" viewBox="0 0 90.269 66.802">
  <path id="Path_645" data-name="Path 645" d="M1351.33,90.7h-77.373a6.412,6.412,0,0,0-6.457,6.457v53.888a6.412,6.412,0,0,0,6.457,6.457h77.355a6.565,6.565,0,0,0,6.457-6.634V97.157A6.4,6.4,0,0,0,1351.33,90.7Zm2.944,60.15a2.9,2.9,0,0,1-2.944,2.945h-77.373a2.9,2.9,0,0,1-2.945-2.945V97.157a2.9,2.9,0,0,1,2.945-2.945h77.355a2.9,2.9,0,0,1,2.945,2.945V150.85Z" transform="translate(-1267.5 -90.7)" fill="#f7296e"/>
  <path id="Path_646" data-name="Path 646" d="M1365.255,151.727H1336.2v31.851h29.055Zm-3.512,28.339H1339.89v-24.65h21.853Z" transform="translate(-1324.014 -140.902)" fill="#f7296e"/>
  <rect id="Rectangle_469" data-name="Rectangle 469" width="28.396" height="4.304" transform="translate(48.034 24.7)" fill="#f7296e"/>
  <rect id="Rectangle_470" data-name="Rectangle 470" width="28.396" height="4.304" transform="translate(48.034 11.146)" fill="#f7296e"/>
  <rect id="Rectangle_471" data-name="Rectangle 471" width="28.396" height="4.304" transform="translate(48.034 38.254)" fill="#f7296e"/>
  <rect id="Rectangle_472" data-name="Rectangle 472" width="64.244" height="4.304" transform="translate(12.186 51.808)" fill="#f7296e"/>
</svg>
