<svg xmlns="http://www.w3.org/2000/svg" width="76" height="76" viewBox="0 0 76 76">
  <g id="_5.oracles" data-name="5.oracles" transform="translate(-2 -2)">
    <path id="Path_3000" data-name="Path 3000" d="M75.625,36.289h-.4c-6.148-21.385-5.728-19.946-5.788-20.08.14-.451.106-.472.106-3.373a2.379,2.379,0,0,0-2.375-2.375c-2.887,0-2.918-.034-3.372.106-.137-.062,1.286.354-20.081-5.752v-.44A2.378,2.378,0,0,0,41.336,2H38.664a2.377,2.377,0,0,0-2.375,2.375v.44c-21.377,6.107-19.944,5.69-20.08,5.752-.453-.14-.472-.106-3.373-.106a2.379,2.379,0,0,0-2.375,2.375c0,2.887-.036,2.918.106,3.373-.062.135.349-1.275-5.752,20.08h-.44A2.378,2.378,0,0,0,2,38.664v2.672a2.377,2.377,0,0,0,2.375,2.375h.44c6.113,21.4,5.687,19.94,5.752,20.08-.141.453-.106.479-.106,3.373a2.377,2.377,0,0,0,2.375,2.375c2.887,0,2.917.036,3.373-.105.136.062-1.287-.353,20.08,5.751v.44A2.376,2.376,0,0,0,38.664,78h2.672a2.378,2.378,0,0,0,2.375-2.375v-.44c21.378-6.106,19.944-5.689,20.081-5.751.45.139.471.105,3.372.105a2.378,2.378,0,0,0,2.375-2.375c0-2.887.036-2.918-.106-3.373.063-.141-.362,1.311,5.788-20.08h.4A2.378,2.378,0,0,0,78,41.336V38.664A2.378,2.378,0,0,0,75.625,36.289ZM64.492,12.836h2.672v2.672H64.492Zm6.169,29.111-3.646,3.647V41.188h3.563A2.523,2.523,0,0,0,70.661,41.947Zm-.083-3.135H67.016V34.407l3.646,3.646A2.576,2.576,0,0,0,70.578,38.813ZM63.879,17.8a2.562,2.562,0,0,0,.762.083v10.79l-5.817-5.817Zm-1.65,23.388h2.412V47.97l-7.5,7.5-8.293-8.295,1.191-.686a1.19,1.19,0,0,0,.594-1.029V41.188h2.371a1.188,1.188,0,0,0,0-2.375H50.637V34.545a1.189,1.189,0,0,0-.594-1.028l-1.191-.687,8.293-8.294,7.5,7.5v6.781H62.229a1.188,1.188,0,0,0,0,2.375Zm-26.921-2.45,3.5,2.022v8.1l-7.074-4.085V35.231L40,30.462l7.138,4.12L40,38.7l-3.5-2.023a1.188,1.188,0,0,0-1.189,2.057Zm-4.159-5.908-1.191.688a1.189,1.189,0,0,0-.594,1.028v4.268h-14V32.031l7.5-7.5Zm-6.615-9.974,7.5-7.5h6.782V28.4l-5.534,3.2Zm4.83,18.332v4.269a1.192,1.192,0,0,0,.594,1.029l1.191.686-8.293,8.295-7.5-7.5V41.188ZM33.279,48.4,38.813,51.6V64.641H32.03l-7.5-7.5Zm7.908-20V15.359H47.97l7.5,7.5L46.721,31.6Zm7.074,8.271v8.095l-7.074,4.085v-8.1ZM41.188,51.6,46.721,48.4l8.745,8.742-7.5,7.5H41.188ZM57.145,21.177l-5.817-5.817h10.79a2.482,2.482,0,0,0,.083.762ZM43.7,7.282,62.137,12.55a2.321,2.321,0,0,0-.02.286c0,.215,1.461.148-13.165.148L43.628,7.66A2.307,2.307,0,0,0,43.7,7.282ZM41.947,9.339l3.646,3.646H41.188V9.422A2.468,2.468,0,0,0,41.947,9.339ZM38.664,4.375h2.672V7.047H38.664c0-2.709-.015-2.672,0-2.672Zm-.612,4.964a2.515,2.515,0,0,0,.76.083v3.563H34.407ZM36.3,7.282a2.306,2.306,0,0,0,.071.378l-5.326,5.324c-14.634,0-13.164.066-13.164-.148a2.42,2.42,0,0,0-.019-.286ZM17.883,15.359h10.79l-5.817,5.817L17.8,16.121a2.591,2.591,0,0,0,.083-.762ZM16.121,17.8l5.056,5.056-5.817,5.817V17.883a2.482,2.482,0,0,0,.761-.083Zm-3.285-4.964h2.672v2.672H12.836C12.835,12.827,12.821,12.836,12.836,12.836Zm-.287,5.028a2.883,2.883,0,0,0,.435.019V31.048L7.66,36.373a2.2,2.2,0,0,0-.378-.072ZM9.422,38.813a2.528,2.528,0,0,0-.083-.76l3.646-3.646v4.405Zm3.563,2.375v4.407L9.339,41.947a2.528,2.528,0,0,0,.083-.76h3.563Zm-5.938.148H4.375l0-2.672H7.047v2.672Zm5.5,20.8L7.282,43.7a2.3,2.3,0,0,0,.378-.071l5.325,5.326V62.117a2.768,2.768,0,0,0-.435.021Zm2.958,5.026H12.836V64.492h2.672C15.509,67.1,15.523,67.164,15.508,67.164Zm.613-4.963a2.562,2.562,0,0,0-.761-.084V51.327l5.817,5.817Zm6.735-3.378,5.817,5.817H17.883a2.528,2.528,0,0,0-.083-.76ZM36.3,72.718,17.864,67.45a2.407,2.407,0,0,0,.019-.286c0-.215-1.461-.148,13.164-.148l5.326,5.326a2.3,2.3,0,0,0-.071.376Zm1.751-2.056-3.646-3.646h4.406v3.563A2.506,2.506,0,0,0,38.052,70.662Zm3.284,4.963H38.664V72.953h2.672C41.337,75.663,41.352,75.625,41.336,75.625Zm.611-4.963a2.55,2.55,0,0,0-.76-.084V67.016h4.406ZM43.7,72.718a2.3,2.3,0,0,0-.071-.376l5.324-5.326c14.634,0,13.165-.066,13.165.148a2.308,2.308,0,0,0,.02.286Zm18.418-8.077H51.327l5.817-5.817L62.2,63.881A2.516,2.516,0,0,0,62.117,64.641ZM63.879,62.2l-5.056-5.057,5.817-5.817v10.79A2.521,2.521,0,0,0,63.879,62.2Zm3.285,4.963H64.492V64.492h2.672Zm.288-5.026a2.766,2.766,0,0,0-.437-.021V48.955l5.324-5.326a2.14,2.14,0,0,0,.412.071ZM72.34,36.373l-5.324-5.325V17.883a2.908,2.908,0,0,0,.437-.019l5.3,18.435a2.311,2.311,0,0,0-.412.073Zm3.285,4.963H72.953V38.664h2.672C75.626,41.346,75.641,41.336,75.625,41.336Z" fill="#f7296e"/>
    <path id="Path_3001" data-name="Path 3001" d="M57.65,38.813A1.188,1.188,0,1,0,58.838,40,1.189,1.189,0,0,0,57.65,38.813Z" fill="#f7296e"/>
  </g>
</svg>
