<svg xmlns="http://www.w3.org/2000/svg" width="35.967" height="31.679" viewBox="0 0 35.967 31.679">
  <path id="Shape" d="M28.883,31.679a.962.962,0,0,1-.571-.189l-8.332-6.121a1.356,1.356,0,0,0-.81-.266,1.37,1.37,0,0,0-.869.312l-4.623,3.812a.954.954,0,0,1-.613.222.976.976,0,0,1-.936-.7L8.918,18.317.634,15.187a.993.993,0,0,1-.009-1.848L34.638.064a.981.981,0,0,1,1.307,1.122l-6.1,29.7a.977.977,0,0,1-.96.788ZM27.962,6.511a.285.285,0,0,0-.152.045L11.613,16.65a1.669,1.669,0,0,0-.713,1.855l1.749,6.229a.417.417,0,0,0,.818-.06l.456-3.416a2.816,2.816,0,0,1,.859-1.677L28.153,7.008a.276.276,0,0,0,.072-.311.29.29,0,0,0-.263-.187Z" transform="translate(0 0)" fill="#1e1e1e"/>
</svg>
