<svg xmlns="http://www.w3.org/2000/svg" width="28.102" height="30.967" viewBox="0 0 28.102 30.967">
  <g id="Layer_2" transform="translate(-58.999 -30.521)">
    <g id="Group_1623" data-name="Group 1623" transform="translate(65.026 48.337)">
      <path id="Path_2892" data-name="Path 2892" d="M143.211,278.381s-.091.727-.182,1.563c-.045.418-.091.864-.125,1.262-.017.2-.031.386-.042.553s-.016.312-.016.433a2.914,2.914,0,0,0,.075.7,1.91,1.91,0,0,0,.193.492,1.876,1.876,0,0,0,.578.618,3.237,3.237,0,0,0,.932.421,6.2,6.2,0,0,0,1.683.266,3.222,3.222,0,0,0,.645-.06,2.035,2.035,0,0,0,.449-.145,1.374,1.374,0,0,0,.553-.449,1.281,1.281,0,0,0,.17-.339,1.53,1.53,0,0,0,.073-.4c.037-.657.067-1.512.089-2.2s.034-1.221.034-1.222l-.719-.017,0,.093c-.01.42-.057,2.18-.12,3.311a.69.69,0,0,1-.092.329.559.559,0,0,1-.145.157,1.033,1.033,0,0,1-.38.165,2.407,2.407,0,0,1-.554.057,5.5,5.5,0,0,1-1.48-.237,2.674,2.674,0,0,1-.667-.284,1.331,1.331,0,0,1-.294-.244,1.084,1.084,0,0,1-.232-.429,2.091,2.091,0,0,1-.069-.58c0-.1.005-.231.015-.389.034-.555.12-1.392.2-2.086.039-.347.076-.659.1-.884l.032-.266.012-.1Z" transform="translate(-142.846 -278.381)" fill="#1e1e1e"/>
    </g>
    <path id="Path_2893" data-name="Path 2893" d="M218.089,116.763c-.42,0-.76.507-.76,1.133s.34,1.133.76,1.133.76-.507.76-1.133S218.509,116.763,218.089,116.763Zm.217,1.416c-.18,0-.326-.217-.326-.485s.146-.485.326-.485.326.217.326.485S218.486,118.179,218.306,118.179Z" transform="translate(-146.949 -80.043)" fill="#1e1e1e"/>
    <path id="Path_2894" data-name="Path 2894" d="M274.659,118.038a.446.446,0,0,1,.11-.14.124.124,0,0,1,.17,0,.578.578,0,0,1,.162.256,1.439,1.439,0,0,1,.08.487h.586a2.135,2.135,0,0,0-.231-1.006,1.106,1.106,0,0,0-.284-.348.618.618,0,0,0-.8,0,1.266,1.266,0,0,0-.383.569,2.294,2.294,0,0,0-.132.786h.586A1.3,1.3,0,0,1,274.659,118.038Z" transform="translate(-199.491 -80.395)" fill="#1e1e1e"/>
    <path id="Path_2895" data-name="Path 2895" d="M84.985,46.575a9.961,9.961,0,0,0-.741-.953c.02-.031.041-.061.059-.092a2.609,2.609,0,0,0,.326-.758,4.982,4.982,0,0,0,.13-1.105,4.043,4.043,0,0,0-.361-1.69,4.777,4.777,0,0,0-.991-1.4l-.4-.4c-.044-.434-.128-.983-.268-1.715a11.021,11.021,0,0,0-3.981-6.08,11.456,11.456,0,0,0-5.71-1.867,10.969,10.969,0,0,0-5.71,1.867,10.241,10.241,0,0,0-3.981,6.08,16.893,16.893,0,0,0-.149,2.255h0a1.414,1.414,0,0,0-.472.219,1.452,1.452,0,0,0-.354.352,1.5,1.5,0,0,0-.244.578l-.126.63a1.909,1.909,0,0,0-.337.631,1.708,1.708,0,0,0-.076.5,1.686,1.686,0,0,0,.033.331,4.924,4.924,0,0,0,.257.841c.065.162.143.337.236.52a10.291,10.291,0,0,0-1.01,1.247c-1.086,1.592-2.271,4.49-2.1,6.153.217,2.1.507,2.172,1.231,1.737a7.6,7.6,0,0,0,1.737-1.954,11.956,11.956,0,0,0,2.606,4.126,12.126,12.126,0,0,0,5.718,3.112,12.222,12.222,0,0,0,5.484,0,12.126,12.126,0,0,0,5.718-3.112,11.958,11.958,0,0,0,2.606-4.126,7.593,7.593,0,0,0,1.737,1.954c.724.434,1.013.362,1.23-1.737C87.256,51.065,86.071,48.167,84.985,46.575Zm-9.14-11.581c1.059,0,1.918,1.28,1.918,2.859s-.859,2.859-1.918,2.859-1.918-1.28-1.918-2.859S74.786,34.993,75.845,34.993Zm-5.356,0c1.059,0,1.918,1.28,1.918,2.859s-.859,2.859-1.918,2.859-1.918-1.28-1.918-2.859S69.43,34.993,70.489,34.993Zm-1.411,6.732a15.22,15.22,0,0,1,4.339-.719l0-.005.072,0,.072,0,0,.005a15.222,15.222,0,0,1,4.339.719c1.52.651,2.389,1.013,2.389,1.375s-.29.724-1.086,1.086a2.182,2.182,0,0,1-1.158.29,3.251,3.251,0,0,0,.579-1.013,9.378,9.378,0,0,1-4.788,1.95l-.062,0h-.019l-.143,0-.128,0-.128,0-.143,0H73.2l-.062,0a9.378,9.378,0,0,1-4.788-1.95,3.251,3.251,0,0,0,.579,1.013,2.182,2.182,0,0,1-1.158-.29c-.8-.362-1.086-.724-1.086-1.086S67.557,42.376,69.077,41.725Zm-6.559,1.3a1.053,1.053,0,0,1,.065-.085l.016-.018,0,0,.075-.075.021-.107.145-.724a.783.783,0,0,1,.127-.3.694.694,0,0,1,.1-.114c.049.134.114.293.2.471a6.823,6.823,0,0,0,.911,1.417,8.222,8.222,0,0,0,3.032,2.245,13.929,13.929,0,0,0,5.721,1.064l.346,0a15.234,15.234,0,0,0,5.4-.961,9.306,9.306,0,0,0,2.512-1.458,7.288,7.288,0,0,0,1.886-2.32c.094-.185.168-.354.227-.5a3.724,3.724,0,0,1,.441.727,3.32,3.32,0,0,1,.3,1.393,4.258,4.258,0,0,1-.112.946,1.911,1.911,0,0,1-.239.545,6.006,6.006,0,0,1-1.058,1.231,12.74,12.74,0,0,1-2.736,1.883A12.147,12.147,0,0,1,76.4,49.478a14.168,14.168,0,0,1-2.365.19,19.675,19.675,0,0,1-4.555-.568,19.09,19.09,0,0,1-3.793-1.328,6.421,6.421,0,0,1-2.582-2.193,5.591,5.591,0,0,1-.549-1.037,4.22,4.22,0,0,1-.22-.715.964.964,0,0,1-.019-.19.987.987,0,0,1,.045-.291A1.19,1.19,0,0,1,62.519,43.023ZM80.353,56.2c-2.066,2.735-6.07,3.224-7.3,3.311-1.232-.087-5.236-.577-7.3-3.311a9.381,9.381,0,0,1-1.737-7.745,6.24,6.24,0,0,1,.249-.7,7.894,7.894,0,0,0,1.114.657,19.8,19.8,0,0,0,3.939,1.38,20.383,20.383,0,0,0,4.723.588,14.877,14.877,0,0,0,2.486-.2,13.607,13.607,0,0,0,5.358-2.277L81.9,47.9c.073.185.14.374.193.56A9.381,9.381,0,0,1,80.353,56.2Z" fill="#1e1e1e"/>
    <path id="Path_2896" data-name="Path 2896" d="M102.427,388.767A6.449,6.449,0,0,1,101.7,388a6.9,6.9,0,0,0-1,.661c-.4.34-.579.869-.217.941,0,0-1.689,1.685,1.231,2.9,2.968,1.23,6.225.869,7.817-.217l.212-.146c-.437-.046-.969-.123-1.6-.254A12.126,12.126,0,0,1,102.427,388.767Z" transform="translate(-38.053 -331.783)" fill="#1e1e1e"/>
    <path id="Path_2897" data-name="Path 2897" d="M277.022,391.88c-.631.131-1.163.208-1.6.254l.212.146c1.592,1.086,4.85,1.448,7.817.217,2.919-1.21,1.231-2.9,1.231-2.9.362-.072.179-.6-.217-.941a6.89,6.89,0,0,0-1-.661,6.463,6.463,0,0,1-.726.767A12.126,12.126,0,0,1,277.022,391.88Z" transform="translate(-200.866 -331.783)" fill="#1e1e1e"/>
  </g>
</svg>
