<svg xmlns="http://www.w3.org/2000/svg" width="32.684" height="32.716" viewBox="0 0 32.684 32.716">
  <g id="Forum_icon" transform="translate(3341.986 -188.425)">
    <path id="Path_2891" data-name="Path 2891" d="M11446.748-11700.354a.442.442,0,0,1-.209-.052.717.717,0,0,1-.34-.643v-6.289h-1.588a1.847,1.847,0,0,1-1.6-2.015v-16.209a1.849,1.849,0,0,1,1.6-2.015h21.4a1.851,1.851,0,0,1,1.6,2.015v9.643h-.824c-1.344,0-4.312.006-6.6.006-1.826,0-2.574,0-2.584-.007a2.33,2.33,0,0,0-1.121,1.94v6.641h-3.969l-5.371,6.782A.5.5,0,0,1,11446.748-11700.354Zm1.754-14.667a.638.638,0,0,0-.551.692.635.635,0,0,0,.551.69h5.2a.634.634,0,0,0,.549-.69.637.637,0,0,0-.551-.692Zm.018-6.278a.637.637,0,0,0-.551.693.632.632,0,0,0,.551.689h13.7a.636.636,0,0,0,.553-.689.642.642,0,0,0-.551-.693Z" transform="translate(-14785.001 11916.001)" fill="#1e1e1e"/>
    <g id="Group_1622" data-name="Group 1622" transform="translate(-3328.523 200.096)">
      <path id="Path_2885" data-name="Path 2885" d="M-3263.137,232.285a2.259,2.259,0,0,0-.469-1.412,1.451,1.451,0,0,0-1.13-.586h-15.022a1.45,1.45,0,0,0-1.131.584,2.283,2.283,0,0,0-.469,1.416V243.26a2.284,2.284,0,0,0,.469,1.416,1.45,1.45,0,0,0,1.131.584h9.486l3.87,4.835a.478.478,0,0,0,.6.149.708.708,0,0,0,.341-.638v-4.347h.721a1.45,1.45,0,0,0,1.131-.584,2.283,2.283,0,0,0,.469-1.416Z" transform="translate(3281.357 -230.287)" fill="none" stroke="#1e1e1e" stroke-width="2"/>
      <path id="Path_2888" data-name="Path 2888" d="M-3256.971,246.572h-11.789a.634.634,0,0,0-.552.691.634.634,0,0,0,.552.691h11.789a.633.633,0,0,0,.55-.691.633.633,0,0,0-.549-.691Z" transform="translate(3272.008 -242.111)" fill="#1e1e1e"/>
      <path id="Path_2889" data-name="Path 2889" d="M-3256.971,263.091h-11.789a.634.634,0,0,0-.552.691.634.634,0,0,0,.552.691h11.789a.633.633,0,0,0,.55-.691.633.633,0,0,0-.55-.691Z" transform="translate(3272.008 -254.047)" fill="#1e1e1e"/>
    </g>
  </g>
</svg>
