<svg xmlns="http://www.w3.org/2000/svg" width="19.922" height="19.922" viewBox="0 0 19.922 19.922">
  <path id="Path_694" data-name="Path 694" d="M-2177.675,3470.29a9.961,9.961,0,0,0-9.961,9.961,9.961,9.961,0,0,0,9.961,9.961,9.961,9.961,0,0,0,9.961-9.961A9.961,9.961,0,0,0-2177.675,3470.29Zm3.437,5.35v.108h-.113c-.457.005-.914,0-1.371.019a2.172,2.172,0,0,0-.469.073.75.75,0,0,0-.556.606,2.487,2.487,0,0,0-.065.522c-.008.517,0,1.034,0,1.551,0,.017,0,.033,0,.062h2.486c-.109.848-.217,1.682-.326,2.524h-2.165v6.359c0,.009,0,.018,0,.026h-2.608q0-2.531,0-5.062,0-.609,0-1.218v-.1h-2.168v-2.52h2.168v-.107q0-.869,0-1.738a3.982,3.982,0,0,1,.256-1.509,2.8,2.8,0,0,1,1.99-1.714,5.272,5.272,0,0,1,1.574-.111c.422.016.844.052,1.266.076.08,0,.1.033.1.113C-2174.239,3474.277-2174.238,3474.958-2174.238,3475.64Z" transform="translate(2187.637 -3470.29)" opacity="0.49"/>
</svg>
