<svg xmlns="http://www.w3.org/2000/svg" width="19.924" height="19.922" viewBox="0 0 19.924 19.922">
  <path id="Path_695" data-name="Path 695" d="M-3638.8,3459.43a9.961,9.961,0,0,0-9.961,9.961,9.961,9.961,0,0,0,9.961,9.961,9.961,9.961,0,0,0,9.961-9.961A9.961,9.961,0,0,0-3638.8,3459.43Zm-2.946,14.9c-.061.016-2.191.02-2.294,0v-6.925h2.288C-3641.732,3467.467-3641.726,3474.194-3641.742,3474.329Zm-.785-7.914c-.12.025-.243.033-.365.049a1.464,1.464,0,0,1-.636-.147,1.129,1.129,0,0,1-.648-1.024,1.164,1.164,0,0,1,1.037-1.215,1.608,1.608,0,0,1,.708.038,1.164,1.164,0,0,1,.849,1.158A1.157,1.157,0,0,1-3642.527,3466.416Zm9.112,7.818v.1h-2.307v-.114q0-1.8,0-3.6a2.6,2.6,0,0,0-.1-.748,1.373,1.373,0,0,0-.166-.366.967.967,0,0,0-.706-.437,1.339,1.339,0,0,0-.468.014,1.108,1.108,0,0,0-.528.263,1.274,1.274,0,0,0-.458.913c0,.075-.008.151-.008.227q0,1.867,0,3.733v.113h-2.307c.006-2.31.029-4.615,0-6.919.063-.018,2.184-.023,2.3-.005v.945c.042-.016.052-.046.068-.069a2.647,2.647,0,0,1,.5-.554,2.119,2.119,0,0,1,1.016-.454,2.934,2.934,0,0,1,1.467.114,2.308,2.308,0,0,1,1.385,1.313,3.38,3.38,0,0,1,.269,1.054c.022.24.033.481.033.722C-3633.413,3471.733-3633.415,3472.983-3633.415,3474.233Z" transform="translate(3648.758 -3459.43)" opacity="0.49"/>
</svg>
