<?xml version="1.0" encoding="utf-8"?>
<!-- Generator: Adobe Illustrator 16.0.3, SVG Export Plug-In . SVG Version: 6.00 Build 0)  -->
<!DOCTYPE svg PUBLIC "-//W3C//DTD SVG 1.1//EN" "http://www.w3.org/Graphics/SVG/1.1/DTD/svg11.dtd" [
	<!ENTITY ns_flows "http://ns.adobe.com/Flows/1.0/">
	<!ENTITY ns_extend "http://ns.adobe.com/Extensibility/1.0/">
	<!ENTITY ns_ai "http://ns.adobe.com/AdobeIllustrator/10.0/">
	<!ENTITY ns_graphs "http://ns.adobe.com/Graphs/1.0/">
]>
<svg version="1.1" id="Layer_1" xmlns:x="&ns_extend;" xmlns:i="&ns_ai;" xmlns:graph="&ns_graphs;"
	 xmlns="http://www.w3.org/2000/svg" xmlns:xlink="http://www.w3.org/1999/xlink" xmlns:a="http://ns.adobe.com/AdobeSVGViewerExtensions/3.0/"
	 x="0px" y="0px" width="1780.012px" height="978.738px" viewBox="0 0 1780.012 978.738"
	 enable-background="new 0 0 1780.012 978.738" xml:space="preserve">
<g id="Technical_Advantages_Section_Graphic" transform="translate(3340.985 -5313.925)">
	<g id="Group_1913" transform="translate(-11632.42 4162.5)">
		<g id="Group_830" transform="translate(9032.92 1536.204)" opacity="0.82">
			<path id="Path_2095_1_" fill="#311B58" d="M292.971,104.591c0,79.777-64.671,144.448-144.448,144.449
				c-79.777,0-144.451-64.671-144.452-144.449c0-4.444,0.197-8.838,0.594-13.184c1.204-13.372,4.277-26.508,9.129-39.027
				C35.365-3.223,88.881-39.862,148.522-39.86c59.641-0.002,113.157,36.638,134.727,92.242c4.851,12.519,7.925,25.654,9.13,39.025
				C292.771,95.749,292.969,100.143,292.971,104.591z"/>
			
				<linearGradient id="Path_2095_2_" gradientUnits="userSpaceOnUse" x1="-158.5181" y1="501.4698" x2="-158.5181" y2="500.4659" gradientTransform="matrix(288.917 0 0 -288.9172 45947.0664 144842.8594)">
				<stop  offset="0" style="stop-color:#F7296D"/>
				<stop  offset="1" style="stop-color:#F7296D;stop-opacity:0"/>
				<a:midPointStop  offset="0" style="stop-color:#F7296D"/>
				<a:midPointStop  offset="0.5" style="stop-color:#F7296D"/>
				<a:midPointStop  offset="1" style="stop-color:#F7296D;stop-opacity:0"/>
			</linearGradient>
			<path id="Path_2095" fill="url(#Path_2095_2_)" d="M293.521,104.591c0,80.08-64.918,144.998-144.999,144.999
				c-80.081,0-145-64.918-145.001-144.999c0-4.461,0.198-8.872,0.596-13.234c1.208-13.422,4.293-26.609,9.163-39.175
				C34.934-3.633,88.653-40.412,148.521-40.41c59.868-0.002,113.588,36.778,135.239,92.594c4.87,12.566,7.956,25.752,9.166,39.173
				C293.32,95.715,293.519,100.126,293.521,104.591z"/>
			<g id="Technical_Advantages_Section_Graphic_1_" transform="translate(3340.985 -5313.925)">
			</g>
		</g>
		<g opacity="0.53">
			<path fill="#FFFFFF" d="M9133.666,1523.485c0.502-0.107,0.629-0.074,0.385,0.331c0.38-0.069,0.694-0.428,1.128-0.266
				c-0.015,0.023-0.033,0.044-0.052,0.069c-0.018,0.024-0.034,0.046-0.05,0.071c-0.021,0.021-0.04,0.044-0.056,0.068l-0.054,0.072
				c-0.02,0.021-0.036,0.045-0.054,0.07c-0.016,0.025-0.035,0.048-0.057,0.072c-0.016,0.024-0.034,0.048-0.054,0.071
				c-0.02,0.021-0.034,0.046-0.042,0.073c0.402,0.023,0.541-0.637,1.002-0.419c-0.02,0.19-0.018,0.38,0.007,0.569
				c0.079,0.368,0.948,1.057,1.908-0.138l-0.001,0.001c0.234-0.289-0.004-0.57-0.011-0.855c0.003-0.071,0.03-0.137,0.079-0.188
				c0.137-0.136,0.326-0.211,0.465-0.343c-0.055-0.574-0.801-0.683-0.852-1.26c-0.357,0.116-0.745,0.112-1.095,0.26
				c0.513-0.702,0.403-0.88-0.548-0.909c-0.573-0.023-0.648-0.061-0.707-0.203c-0.158,0.234-0.158,0.234-0.654,0.257
				c-0.032,0.035-0.058,0.066-0.09,0.103c-0.033,0.033-0.063,0.067-0.092,0.101c-0.028,0.034-0.059,0.07-0.087,0.101
				c-0.028,0.033-0.062,0.069-0.09,0.102c-0.028,0.033-0.055,0.07-0.086,0.102c-0.032,0.031-0.062,0.067-0.09,0.101
				c-0.027,0.034-0.06,0.068-0.089,0.102c-0.029,0.033-0.059,0.066-0.088,0.101c0.183-0.035,0.365,0.051,0.455,0.213
				c0.107,0.184,0.203,0.227,0.731-0.054c-0.262,0.211-0.308,0.252-0.345,0.345c0.064,0.061,0.156,0.064,0.219,0.122
				c-0.001,0.028-0.004,0.056-0.008,0.084c-0.035-0.003-0.035-0.003-0.548,0.277c-0.076-0.074-0.076-0.074-0.774-0.011
				c-0.183,0.263-0.339,0.545-0.463,0.841C9133.038,1523.562,9133.164,1523.59,9133.666,1523.485z"/>
			<path fill="#FFFFFF" d="M9138.731,1524.158c0.17,0.038,0.212,0.036,0.241,0.278c0.028,0.242,0.053,0.25,0.213,0.303
				c0.297-0.187,0.641-0.288,0.99-0.291c0.41-0.016,0.813-0.106,1.189-0.268c0.092-0.323,0.266-0.616,0.506-0.851l-0.004-0.004
				c0.041-0.037,0.094-0.097,0.133-0.139c-0.15-0.335-0.295-0.536-0.876-0.284c0.086-0.522,0.035-0.535-1.382-0.844
				c-1.199,1.057-0.9,1.648-0.574,1.813C9138.979,1523.87,9138.805,1523.983,9138.731,1524.158z"/>
			<path fill="#FFFFFF" d="M9129.268,1523.126c0.077-0.027,0.176-0.072,0.257-0.101c0.208-0.506,0.198-0.771-0.438-0.826
				c-1.141,0.14-2.245,0.486-3.262,1.023c0.387-0.005,0.773,0.027,1.154,0.094
				C9127.744,1523.461,9128.537,1523.396,9129.268,1523.126z"/>
			<path fill="#FFFFFF" d="M9124.838,1525.553l1.943-0.272c0.01,0,0.837-0.715,0.546-1.011c0.39,0.071,0.786-0.089,1.019-0.412
				l0.014,0.01c0.039-0.04,0.088-0.098,0.128-0.141c-0.121-0.005-0.239-0.011-0.36-0.011c-1.061-0.062-2.122,0.111-3.107,0.506
				c-0.034,0.035-0.07,0.069-0.102,0.105c-0.031,0.036-0.069,0.073-0.1,0.109c-0.031,0.036-0.066,0.071-0.096,0.106l-0.102,0.101
				c-0.035,0.031-0.07,0.065-0.102,0.101c-0.029,0.037-0.06,0.073-0.094,0.109c-0.037,0.036-0.066,0.069-0.102,0.106
				c-0.035,0.038-0.068,0.071-0.102,0.108C9124.252,1525.312,9124.316,1525.534,9124.838,1525.553z"/>
			<path fill="#FFFFFF" d="M9121.105,1528.001c0.157-0.357,0.453-1.021-1.067-0.412c-0.564,0.224-1.677,0.791-1.683,0.795
				l-2.596,2.115c0.475,0.495,0.475,0.495,0.932,0.346c-0.117,0.11-0.241,0.214-0.371,0.312c1.895,0.072,1.895,0.072,2.76-0.72
				c-0.422,0.476-0.422,0.476-0.294,0.95c-0.55-0.081-1.096,0.155-1.417,0.608c0.229,1.127,1.602,0.708,4.012-0.134
				c0.588-0.233,1.197-0.408,1.82-0.524c0.287,0.021,0.572,0.061,0.854,0.118c0.632,0.012,1.263-0.051,1.895-0.064
				c0.562-0.607,1.243-1.096,1.769-1.738l-0.001-0.014c0.178-0.23,0.338-0.471,0.479-0.724c-0.168-0.297-0.867-0.573-1.699,0.128
				c-0.135-0.236-0.57-0.254-0.506-0.625l0.94-1.801l-0.348,0.057c-0.908,0.289-1.745,0.765-2.462,1.395
				c0.086,0.22,0.583,0.192,0.453,0.472c-0.027,0.061-0.134,0.152-0.473,0.234c-0.202,0.047-0.377,0.178-0.475,0.361
				c0.43,0.076,0.547,0.231,0.475,0.633h-0.256l-0.25-0.007l-0.252-0.007c-0.086,0-0.17,0-0.254-0.005h-0.25l-0.25-0.006
				c-0.08,0-0.162,0-0.248-0.006l-0.246-0.005C9122.453,1528.847,9122.701,1527.907,9121.105,1528.001z M9120.629,1530.917
				c-0.007,0.012-0.016,0.022-0.025,0.031v-0.002c-0.094,0.083-0.215,0.13-0.34,0.128c-0.159,0-0.287-0.129-0.287-0.288
				c0-0.006,0-0.011,0-0.016C9120.773,1530.675,9120.649,1530.891,9120.629,1530.917z"/>
			<path fill="#FFFFFF" d="M9129.245,1528.778h0.151c0.026,0,0.051,0,0.078,0h0.076h0.078h0.075h0.082
				c-0.114,0.471-0.218,0.917,0.231,1.162c0.694,0.087,1.395,0.123,2.094,0.103c-0.287,0.445-0.537,0.914-0.746,1.4
				c0.911,0.093,1.831,0.053,2.73-0.12c0.111-0.039,0.297-0.066,0.355-0.168c0.168-0.289,0.12-0.642,0.287-0.93
				c0.209-0.043,0.418,0.264,0.613,0.053l-0.002,0.014c0.018-0.015,0.031-0.03,0.043-0.047l1.004-2.509
				c0.103-0.266-0.028-0.563-0.293-0.667c-0.008-0.003-0.016-0.006-0.025-0.009c-0.547,0.285-1.273,0.53-1.162,0.231
				c0.043-0.088,0.102-0.169,0.168-0.24c-0.287-0.111-0.598-0.147-0.901-0.11c-0.676,0.162-1.333,0.387-1.963,0.675
				c-0.454,0.292-0.544,0.867-0.947,1.198c0.54-2.125-1.241-1.548-1.264-1.536c-0.124,0.159-0.216,0.339-0.274,0.532
				c-0.095,0.37-0.291,0.705-0.565,0.971H9129.245z M9133.218,1527.538c0.028-0.022,0.062-0.048,0.089-0.067
				c-0.063,0.121-0.09,0.256-0.074,0.391c0.032,0.191,0.18,0.329,0.217,0.514c0,0.007-0.018,0.013-0.021,0.016
				c-0.049,0.032-0.104,0.047-0.159,0.048C9132.93,1528.416,9132.844,1527.854,9133.218,1527.538z M9131.564,1529.017
				c0.074-0.021,0.152-0.036,0.229-0.047l-0.009,0.012v-0.004c-0.03,0.042-0.069,0.073-0.116,0.093
				c-0.072,0.029-0.15,0.026-0.229,0.048C9131.47,1529.074,9131.514,1529.037,9131.564,1529.017z"/>
			<path fill="#FFFFFF" d="M9138.006,1529.64c-0.611,0.045-1.199,0.254-1.699,0.606c-0.006,0.166-0.006,0.187-0.436,0.448
				c-0.296,0.137-0.545,0.359-0.713,0.638c0.441,0.49,1.023,0.829,1.668,0.966c0.568,0.078,1.146-0.036,1.643-0.322v0.003
				C9138.577,1531.881,9139.721,1529.764,9138.006,1529.64z"/>
			<path fill="#FFFFFF" d="M9142.379,1560.702c-0.152,0.015-0.303,0.048-0.445,0.101c-0.363,0.142-0.764,0.146-1.129,0.016
				c-0.092,0.201-0.225,0.38-0.388,0.53c-0.315,0.267-0.5,0.658-0.505,1.071c1.08,0.626,2.273-0.333,2.772-1.086l-0.002,0.001
				c0.028-0.048,0.047-0.103,0.055-0.158C9142.77,1560.947,9142.608,1560.734,9142.379,1560.702z"/>
			<path fill="#FFFFFF" d="M9145.266,1562.464c-0.389,0.27-0.576,0.498-0.465,0.935c0.623,0.276,1,0.442,1.303,0.202
				c0.004-0.035,0.01-0.068,0.016-0.101c0.004-0.034,0.01-0.068,0.02-0.101c0.004-0.035,0.006-0.067,0.013-0.101
				c0.007-0.034,0.017-0.068,0.021-0.102c0.004-0.034,0.008-0.067,0.015-0.101c0.007-0.035,0.015-0.068,0.019-0.103
				c0.004-0.034,0.01-0.066,0.017-0.1c0.006-0.035,0.012-0.067,0.017-0.102c0.005-0.034,0.016-0.066,0.02-0.101
				c0.004-0.035,0.004-0.068,0.014-0.102c0.01-0.035,0.018-0.066,0.021-0.101c0.004-0.034,0.01-0.066,0.016-0.101
				c0.006-0.036,0.014-0.066,0.018-0.102c0.004-0.034,0.016-0.067,0.016-0.102l0.018-0.101c0.006-0.031,0.016-0.062,0.016-0.095
				c-0.23,0.092-0.457-0.016-0.687-0.016c-0.203,0.009-0.265,0.058-0.289,0.222
				C9145.529,1562.275,9145.469,1562.327,9145.266,1562.464z"/>
			<path fill="#FFFFFF" d="M9258.735,1563.211c0.034-0.135,0.11-0.412-0.243-1.196l-0.01,0.003l-0.102-0.228
				c-0.258,0.07-0.444-0.164-0.688-0.164h-0.018C9257.988,1562.573,9258.229,1563.051,9258.735,1563.211z"/>
			<path fill="#FFFFFF" d="M9253.836,1568.791h0.011h0.008c0.509-0.064,0.632-0.752,0.491-1.214l0.002-0.005
				c-0.082-0.305-0.298-0.556-0.589-0.684c0.026,0.113,0.013,0.231-0.042,0.334c-0.093,0.162-0.262,0.251-0.381,0.388
				c-0.136,0.164-0.163,0.393-0.073,0.587C9253.376,1568.469,9253.672,1568.566,9253.836,1568.791z"/>
			<path fill="#FFFFFF" d="M9253.492,1569.442c-0.029,0.003-0.06,0.011-0.087,0.023c-0.014,0.226,0.095,0.443,0.285,0.565
				c0.207,0.138,0.423,0.103,0.377-0.152l-0.008-0.031C9253.787,1569.831,9253.783,1569.442,9253.492,1569.442z"/>
			<path fill="#FFFFFF" d="M9252.589,1577.445c-0.04,0.109-0.046,0.229-0.016,0.344c0.062,0.326,0.38,0.516,0.454,0.836
				c0.116,0.506-0.11,1.022,0.09,1.518c0.159,0.396,0.658,0.065,0.852,0.389c-0.093,0.333,0.046,0.691-0.112,1.011
				c-0.007,0.007-0.102,0.187-0.467,0.133c0.506,1.803,1.138,2.108,2.813,1.371c0.912-0.405,1.372-0.577,1.771-0.093
				c-0.485-1.669,1.239-1.2,1.255-1.193c0.025-1.543-0.404-3.059-1.238-4.36c0.445,0.069,0.393-0.505,0.669-0.673l-0.004,0.001
				c0.047-0.019,0.092-0.035,0.14-0.045c-0.244-1.187-1.232-2.08-2.439-2.199c-0.605-0.089-1.164-0.373-1.593-0.81
				c0.043,0.087,0.101,0.202,0.14,0.289c0.27,0.686,0.156,0.775-0.391,0.741c-0.38-0.024-0.46,0-0.587,0.108
				c0.226,0.552,0.036,1.2,0.404,1.72c-0.214,0.252-0.214,0.252-1.703,0.33h-0.018c-0.037,0-0.082,0.005-0.119,0.009
				C9252.618,1577.215,9252.633,1577.259,9252.589,1577.445z M9253.985,1579.417c0.018,0.051,0.035,0.1,0.047,0.156l0.005,0.001
				c0.125,0.442-0.11,0.516-0.297,0.531c-0.027,0-0.056,0-0.084,0c0.042-0.096,0.049-0.202,0.028-0.303
				C9253.664,1579.553,9253.647,1579.339,9253.985,1579.417z"/>
			<path fill="#FFFFFF" d="M9260.198,1576.041c-0.101-0.108-0.101-0.108-0.221-0.101c-0.559,0.052-0.646,0.47-0.278,1.349
				c0.649,0.118,0.894-0.323,0.75-0.798v-0.002C9260.396,1576.323,9260.31,1576.171,9260.198,1576.041z"/>
			<path fill="#FFFFFF" d="M9285.294,1601.932c-0.123,0.055-0.333,0.148-0.361,0.291c0.03,0.496,0.159,0.98,0.376,1.428
				c0.249,0.565,0.673,1.033,0.96,1.578c-0.018,0.04-0.432,0.958-1.066,0.333c0.448,1.068,0.773,2.185,0.968,3.327
				c0.254,1.206,0.329,1.417,0.329,1.417c0.425,0.63,0.881-0.694,1.502-0.617c-0.137-0.88-0.225-1.767-0.391-2.64l-0.002,0.001
				c-0.056-0.285-0.13-0.566-0.221-0.843c-0.288-0.591-0.612-1.166-0.968-1.72c-0.038-0.08,0.028-0.197,0.035-0.282
				c0-0.024,0.154-2.253-0.809-3.006C9285.732,1601.672,9285.699,1601.753,9285.294,1601.932z"/>
			<path fill="#FFFFFF" d="M9145.092,1651.843c-0.807,0.374-1.348-0.122-1.971-0.81c-0.399-0.44-0.434-0.448-0.529-0.473
				c-0.389-0.095-0.193,0.621-0.592,0.597c-0.07,0-0.141-0.018-0.203-0.052c-1.523-1.187-3.42-1.793-5.35-1.713
				c-2.816,0.14-4.111,0.892-4.779,2.771c1.911,0.465,2.963-1.721,4.785-1.526c-0.002,0.363,0.238,0.659,0.262,1.011
				c3.045,0.313,5.318,2.597,8.252,3.197c-0.188,0.561-0.846,0.848-0.874,1.5c1.989-0.319,4.041,0.179,6.009-0.445l-0.007-0.004
				c0.095-0.023,0.212-0.068,0.303-0.101C9149.208,1653.708,9146.213,1654.014,9145.092,1651.843z"/>
			<path fill="#FFFFFF" d="M9159.737,1659.884c1.248-0.078,1.248-0.078,1.417-0.022c0.075-0.341,0.121-0.686,0.14-1.034l0.019,0.006
				c0.037-0.518-0.127-1.033-0.459-1.436c-1.966-0.125-3.311-2.002-5.363-1.866c-0.447,0.056-0.842,0.319-1.068,0.71
				c-1.779-0.79-2.201-0.977-2.346,0.284c0.304,0.189,0.742,0.165,0.919,0.562c0.164,0.378-0.334,0.745-0.339,0.745
				c-0.073,0.024-0.073,0.024-0.775-0.319c0.162,0.346,0.283,0.705,0.365,1.077c-0.049,0.237-0.15,0.464-0.295,0.661
				c0.867,0.495,1.964,0.266,2.565-0.527c-0.022,0.636,0.476,1.112,0.538,1.72c0.598-0.242,1.26-0.265,1.851-0.527
				c0.433-0.183,0.433-0.183,0.476-0.491c0.289,0.084,0.446,0.376,0.721,0.481c0.049-0.684,0.266-0.718,0.785-0.646
				c0.477,0.072,0.674,0.024,0.838-0.366c0,0.037,0,0.082,0,0.125c0,0.042,0,0.082,0.007,0.125c0.007,0.044,0,0.08,0,0.122
				c0,0.045,0,0.081,0,0.126c0,0.043,0,0.078,0,0.12c0,0.047,0,0.083,0.006,0.124c0.006,0.04,0,0.08,0,0.125
				C9159.737,1659.803,9159.737,1659.84,9159.737,1659.884z M9156.859,1659.463c0,0.074,0,0.246-0.055,0.258
				c-0.062-0.008-0.144-0.279-0.144-0.281c0.018-0.096,0.053-0.188,0.101-0.271c0.053-0.048,0.093,0.117,0.102,0.295H9156.859z
				 M9160.074,1659.122c0.055-0.047,0.093,0.113,0.095,0.295h-0.001c0,0.075,0,0.247-0.052,0.26
				c-0.065-0.009-0.144-0.276-0.144-0.282C9159.99,1659.298,9160.024,1659.206,9160.074,1659.122z"/>
			<path fill="#FFFFFF" d="M9183.297,1539.999c0.091-0.088,0.174-0.183,0.248-0.284v-0.004
				C9183.443,1539.791,9183.358,1539.889,9183.297,1539.999z"/>
			<path fill="#FFFFFF" d="M9220.895,1540.73l0.16-0.006c1.876-0.121,1.876-0.121,2.326-0.005c0.062-0.11,0.139-0.253,0.195-0.363
				c-0.051-0.114-0.051-0.114-0.663-1.227l0.269-0.168c-0.339-0.695-1.085-0.92-1.625-1.378l0.186-0.259
				c-0.286-0.234-0.286-0.234-3.464-1.284c0.044,0.079,0.111,0.184,0.156,0.262c-0.539,0.174-0.548,0.17-0.949-0.053l0.309-0.03
				c-0.013-0.243-0.104-0.477-0.265-0.663c0.86,0.15,1.696,0.398,2.502,0.739c0.018-0.086,0.037-0.203,0.053-0.29l0.196-0.064h0.018
				c-0.251-0.55-0.616-1.041-1.069-1.442c-0.634,0.038-1.272,0.016-1.904-0.063c-0.297-0.362-0.494-0.791-0.824-1.128
				c0.042-0.082,0.1-0.191,0.141-0.273c3.855,0.411,3.855,0.411,4.533,0.201c-0.37-0.955-0.413-0.975-1.125-1.326
				c0.379-0.229,0.8-0.391,1.234-0.476c0.187-1.03,0.187-1.03-0.2-1.417c-0.064,0-0.066,0-0.068,0.004
				c-0.371,0.024-0.749,0.001-1.118-0.067c-1.196-2.346-1.196-2.346-2.029-3.186c-1.886,0.14-1.886,0.14-2.392-0.179
				c0.074-0.048,0.176-0.113,0.247-0.161c-0.302-0.945-2.023-1.314-1.417-2.562c0.094-0.018,0.214-0.042,0.306-0.061
				c-0.123-0.382-0.23-0.708-1.074-1.088c0.279-0.769-0.43-1.276-0.527-1.945c0.034,0,0.066,0,0.101,0h0.101
				c0.034,0,0.067,0,0.101-0.007h0.101c0.033,0,0.066,0,0.096,0l0.101-0.006h0.101h0.102c-0.176-0.165-0.314-0.365-0.406-0.588
				l0.218-0.36c-0.206-0.534-0.206-0.534-0.723-0.546c-0.063-0.096-0.147-0.222-0.21-0.319c0.023-0.091,0.056-0.208,0.076-0.303
				c0.25,0.035,0.505,0.051,0.762,0.046c0.174-0.464,0.174-0.464-0.151-1.154l0.286-0.097c0.018-0.228,0.02-0.458,0.008-0.686
				c-0.172-0.108-0.397-0.257-0.561-0.374c0.459-0.303,0.499-0.274,0.911-0.012c-0.093-0.337-0.132-0.685-0.114-1.032
				c0.244-0.146,0.457-0.337,0.63-0.561c-0.03-0.169-0.072-0.336-0.129-0.5l-0.014-0.011c-0.888-1.527-2.622-0.674-3.815-1.342
				c0.072,0.073,0.173,0.173,0.25,0.249c-1.084,0.63-1.084,0.63-1.296,1.144c-0.515-0.136-1.047-0.025-1.564-0.138
				c-0.302,0.229-0.302,0.229-0.64,0.796c-0.385-0.764-1.001-1.389-1.76-1.786c0.008-0.206,0.079-0.404,0.203-0.568
				c-0.471-0.647-1.31-0.721-1.885-1.201c-0.051,0.087-0.116,0.202-0.165,0.288c-0.456,0-0.909-0.086-1.364-0.101
				c-0.152-0.173-0.317-0.337-0.491-0.487c-0.087-0.047-0.101-0.045-0.124-0.045h-0.057h-0.055h-0.056
				c-0.021-0.001-0.039-0.001-0.057,0h-0.056c-0.018-0.001-0.037-0.001-0.055,0c-0.02-0.001-0.039-0.001-0.06,0
				c-0.201-0.125-0.201-0.125-4.219-1.112c0,0.019,0.004,0.037,0.01,0.054c0.015,0.101,0.036,0.231,0.054,0.329
				c-3.638,0.252-3.638,0.252-4.328,0.541c-0.199-0.126-0.384-0.27-0.557-0.431c-0.196,0.363-0.196,0.363-0.87,0.589
				c0.131,0.173,0.271,0.34,0.419,0.499c-1.896-0.385-3.867-0.187-5.647,0.569c0,0.132,0,0.305-0.006,0.438l0.697,0.06
				c-0.085,0.193-0.114,0.407-0.085,0.616c0.211,0.086,0.415,0.192,0.607,0.319c-0.072,0.055-0.171,0.128-0.244,0.186
				c0.166,0.101,0.376,0.244,0.532,0.357c-1.654,0.079-3.092-0.867-4.703-0.991c-0.046,0.117-0.101,0.27-0.144,0.385
				c0.1,0.183,0.234,0.429,0.338,0.614c-1.013,0.077-1.891-0.568-2.898-0.488c-3.035,0.241-3.541,0.614-4.141,1.047l-0.176-0.296
				c-0.457,0.25-0.963,0.365-1.433,0.569c-0.023,0.464,0.116,0.92,0.087,1.386c-2.016,0.512-3.983,1.198-5.882,2.046
				c0.448,0.989,0.448,0.989,0.472,1.021c0.508,0.103,1.029,0.109,1.538,0.02c0,0.862,0,1.042-0.784,1.496
				c-0.986,0.566-2.197,0.244-3.188,0.791c-0.027,0.137-0.062,0.319-0.088,0.454c-0.791,0.421-0.791,0.421-0.979,1.081
				c0.778-0.024,1.323,0.749,2.133,0.608c0.318,0.457,0.578,0.954,0.772,1.478c-1.618-0.144-3.15-0.276-3.258,1.061
				c0.22,0.008,0.438,0.04,0.651,0.094c0.026,0.101,0.061,0.238,0.086,0.339l-0.387-0.026c-0.104,0.182-0.177,0.377-0.218,0.58
				c-0.199-0.006-0.396-0.049-0.581-0.122c-0.033,0.102-0.078,0.224-0.111,0.321l0.25,0.235c-0.01,0.153-0.025,0.355-0.038,0.505
				c2.714,0.866,2.714,0.866,3.899,0.096c0.283,0.524,0.32,0.533,0.693,0.601c0.723-0.519,1.831-0.091,2.416-0.959
				c1.191,0.519,2.717,0.209,3.619,1.44c0.06-0.078,0.141-0.182,0.202-0.26c0.423,0.085,0.835,0.215,1.231,0.39
				c-0.133,0.56,0.34,0.999,0.313,1.536c0.813-0.01,0.972,0.245,1.155,0.542c-0.094,0.179-0.178,0.364-0.244,0.556
				c0.053,0.077,0.121,0.176,0.17,0.252c0.211-0.034,0.424-0.048,0.639-0.041c-0.125,0.183-0.279,0.342-0.455,0.476
				c0.033,0.103,0.077,0.224,0.111,0.319c0.301,0.051,0.605,0.016,0.91,0.041c-0.158,0.158-0.303,0.327-0.434,0.506
				c0.202,0.043,0.401,0.102,0.594,0.175c0.154,0.512,0.154,0.512,1.006,1.244h-0.302c0.035,0.242,0.087,0.482,0.155,0.716
				c-0.166,0.102-0.383,0.253-0.541,0.368c0,0.108,0.012,0.25,0.018,0.357c0.17,0.081,0.399,0.188,0.569,0.27
				c-0.044,0.715-0.147,1.426-0.312,2.125c0.54,0.605,1.547,1.75,3.236,0.263c0.188,0.315,0.115,0.69,0.241,1.021
				c1.489,0.065,1.489,0.065,1.493,0.53c-2.962,0.046-2.962,0.046-3.248,0.202c0.315,0.778,0.315,0.778,0.559,1.028
				c-0.63,0.229-0.74,0.27-0.732,1.775c1.165,1.122,2.976,1.228,4.266,0.252c-0.073-0.357-0.162-0.709-0.271-1.056
				c0.195,0.082,0.403,0.14,0.613,0.17c-0.043,0.233-0.043,0.233,0.54,1.214c-0.18,0.53-0.066,1.119-0.352,1.625
				c-0.546-0.023-1.094-0.076-1.637-0.161c-2.22,3.178-1.012,4.547-0.611,4.997c-0.346,0.234-0.346,0.234-0.435,1.706
				c0.266,0.036,0.514,0.161,0.699,0.356l3.083,5.523l0.406,0.063c0.101,0.363,0.128,0.743,0.259,1.101
				c1.315,0.052,1.331,0.986,1.112,1.761c0.809,0.362,1.268,1.19,2.079,1.552c-0.298,1.325,1.603,1.242,1.62,2.386
				c2.439-0.656,4.137-0.052,5.36,1.899c-0.013-0.087-0.028-0.208-0.042-0.296c0.329-0.155,0.329-0.155,0.962-0.124
				c0.241,0.649,0.241,0.649,2.141-0.304c-0.211-2.092,0.734-4.184,0-6.272c0.339-0.079,0.69-0.119,1.035-0.187
				c0.215-0.875,0.687-1.666,1.352-2.275c-0.422-0.988,0.071-2.149-0.598-3.09c0.813-0.344,1.188-1.273,2.074-1.518
				c0.649-0.125,1.323,0.026,1.857,0.417c-0.007-0.245,0.029-0.486,0.109-0.716c1.284-0.265,2.14-1.361,3.381-1.706
				c1.95-3.572,1.95-3.572,2.055-3.623c-0.014-0.31,0.002-0.621,0.048-0.928c4.678,0.476,7.677-2.35,9.866-4.413
				c0.109,0.156,0.268,0.276,0.447,0.344c0.002-0.54-0.077-1.076-0.235-1.591c-1.778,0.293-3.477-0.736-5.261-0.278
				c0.352-0.156,0.685-0.35,0.995-0.573c-0.046-0.258-0.116-0.512-0.202-0.76c0.1-0.026,0.237-0.064,0.338-0.09
				C9219.73,1539.67,9220.352,1540.161,9220.895,1540.73z M9221.748,1538.137c0.06-0.051,0.139-0.04,0.202-0.071
				c0,0,0,0.01,0.007,0.014l0.004,0.005c0.02,0.048,0.016,0.084-0.011,0.101c-0.06,0.046-0.138,0.035-0.202,0.062
				C9221.738,1538.223,9221.714,1538.17,9221.748,1538.137z M9221.07,1537.219c-0.132-0.078-0.259-0.167-0.378-0.265
				C9220.717,1536.953,9221.07,1537.216,9221.07,1537.219z M9218.392,1531.646c0.049-0.048,0.119-0.037,0.181-0.061
				c0.001,0.005,0.001,0.01,0,0.015l0.005-0.003c0.023,0.043,0.021,0.076,0,0.1c-0.052,0.046-0.127,0.033-0.186,0.057
				C9218.373,1531.718,9218.357,1531.677,9218.392,1531.646z M9185.837,1543.088v0.005c-0.002,0.043-0.028,0.083-0.066,0.102
				c-0.083,0.029-0.171,0.051-0.258,0.064c-0.006-0.051,0.02-0.101,0.065-0.127c0.084-0.028,0.169-0.048,0.259-0.058
				C9185.837,1543.074,9185.837,1543.085,9185.837,1543.088z M9205.187,1513.254l-0.002-0.008c-0.027,0.142-0.188,0.149-0.386,0.146
				c-0.368-0.008-0.441,0.051-0.476,0.202c0.189,0.164,0.347,0.359,0.466,0.579c-0.056-0.038-0.121-0.063-0.189-0.073
				c-0.021,0-0.041,0.012-0.05,0.032c-0.033,0.047-0.086,0.076-0.144,0.074c-0.035,0.001-0.071-0.001-0.108-0.009
				c-0.063-0.124-0.159-0.228-0.279-0.303c-0.112-0.067-0.207-0.16-0.277-0.269c0.181-0.025,0.353-0.091,0.507-0.195
				c0.269-0.197,0.608-0.279,0.938-0.227C9205.188,1513.221,9205.188,1513.237,9205.187,1513.254z M9214.852,1541.539
				c-0.054-0.01-0.202-0.349-0.202-0.354c0-0.005,0.007-0.134,0.04-0.152c0.034-0.018,0.063,0.037,0.101,0.134h0.004
				C9214.829,1541.256,9214.895,1541.524,9214.852,1541.539z M9215.836,1534.376v0.003c-0.03,0.33-0.242,0.37-0.436,0.382
				c-0.332,0.01-0.662-0.054-0.995-0.044c0.415-0.301,0.924-0.446,1.437-0.404
				C9215.842,1534.334,9215.842,1534.357,9215.836,1534.376z M9216.718,1534.473c0.01-0.017,0.04-0.025,0.061-0.032
				c-0.163-0.187-0.675-0.42-0.683-0.223c0.016,0.092,0.053,0.179,0.109,0.251c-0.187-0.052-0.231-0.297-0.441-0.312
				c-0.13-0.328,0.012-0.333,0.698-0.36c0.045,0.132,0.129,0.25,0.237,0.336c0.107,0.082,0.195,0.188,0.25,0.313v-0.002
				c0.02,0.048,0.037,0.099,0.048,0.151C9216.809,1534.638,9216.695,1534.531,9216.718,1534.473z M9218.417,1540.169
				c-0.031,0.008-0.167-0.189-0.169-0.191c-0.002,0-0.033-0.168-0.008-0.192c0.028-0.024,0.101,0.092,0.144,0.21
				C9218.405,1540.047,9218.448,1540.161,9218.417,1540.169z"/>
			<path fill="#FFFFFF" d="M9114.275,1529.169c0.281-0.162,0.429-0.493,0.754-0.602c-0.175,0.261-0.226,0.325-0.243,0.463
				s0.151,0.188,0.151,0.319c1.143-0.873,2.502-1.422,3.607-2.351c-0.286,0.34-0.713,0.855-0.656,1.025
				c0.064,0.188,0.683-0.122,1.227-0.396c0.488-0.245,0.799-0.4,1.018-0.484c0.088-0.021,0.175-0.049,0.258-0.086
				c0.35-0.35,0.648-0.747,0.891-1.179c0.117,0.008,0.382,0.029,0.887-0.433l0.004-0.001c0.038-0.038,0.09-0.092,0.131-0.131
				c-0.389-0.461-0.389-0.461-0.638-0.489c-0.478-0.005-0.729,0.412-1.113,0.582c-0.419-0.325-0.865-0.229-1.764,0.13
				c-1.44,0.57-2.659,1.612-4.218,1.929v0.066c-0.12,0.116-0.285,0.177-0.453,0.165c0.002-0.033,0.012-0.066,0.029-0.095
				c-0.381,0.357-0.582,0.854-0.96,1.214C9114.301,1528.51,9114.566,1528.598,9114.275,1529.169z"/>
			<path fill="#FFFFFF" d="M9205.237,1695.569c-0.391-0.793-0.971-1.476-1.688-1.989c-1.137,0.055-1.137,0.024-1.137,0
				c0-0.026,0-0.055,0-0.083c0-0.03,0-0.058,0-0.084c0-0.024,0-0.055,0-0.082c0-0.029,0-0.056,0-0.081
				c0.002-0.028,0.002-0.056,0-0.081c0-0.029,0-0.061,0-0.084c0.004-0.028,0.006-0.057,0.009-0.085
				c-1.259-0.021-2.496-0.349-3.758-0.268c-0.648-0.624-1.412-1.122-2.249-1.465c-0.257-0.732-0.601-1.708-0.854-2.439
				c-0.333-0.158-0.769-0.367-1.096-0.524c-0.295-2.093-1.646-3.825-2.031-5.883c-8.377-1.044-8.377-1.044-15.075-6.202
				c-0.271,0.241-0.636,0.564-0.911,0.81c-0.169-0.838-0.608-1.599-1.251-2.16h-0.021h-0.007h-0.026
				c0.106-0.367,0.252-0.861,0.361-1.229c-0.34-0.121-0.796-0.287-1.136-0.404c-0.224,0.285-0.517,0.667-0.739,0.952
				c-0.568-0.538-0.568-0.538-3.959-1.822c-0.454,0.752-1.101,1.368-1.872,1.783c-1.405-0.69-2.182-1.071-5.085-0.477
				c-0.16-0.428-0.371-0.998-0.531-1.429c-3.615-1.37-3.615-1.37-12.849,0.534c-1.683,3.372-1.683,3.372-2.337,4.227l-11.73-4.213
				c0.691-0.618,1.516-1.067,2.409-1.315c0.12-0.383,0.283-0.891,0.405-1.269c-0.768-0.313-1.777-0.755-2.529-1.102
				c0.247-1.837,1.762-2.993,2.48-4.58c-2.061-1.258-2.061-1.258-10.331-1.566c0.38-0.234,0.885-0.538,1.267-0.77
				c0.041-0.383,0.094-0.896,0.133-1.275c-0.33-0.222-0.771-0.515-1.105-0.73c-0.168-0.91-0.232-1.836-0.192-2.761
				c-0.017-1.001,0.019-1.001,0.056-1.001h0.682c0.038,0,0.078,0,0.116,0c0.558-2.405,0.558-2.405-6.071-4.675
				c-3.621,3.466-13.253,12.666-12.503-3.796c0.026-0.537,1.253-7.982,1.26-7.991c3.8-2.721,8.356-0.158,12.319-1.736
				c0.899-0.315,0.899-0.405,0.899-0.506c0-0.101,0-0.187,0-0.28v-0.565c0-0.095,0-0.189,0-0.281v-0.564c0-0.093,0-0.186,0-0.279
				c2.63-0.38,5.04,1.789,7.738,0.667c3.44,2.39,1.054,8.844,6.524,9.687c1.235-2.023,1.799-2.952,0.127-7.952
				c-2.535-7.57,2.842-10.976,7.795-12.499c3.855-8.82,3.855-8.82,4.584-12.913c2.214-0.586,4.217-1.764,6.469-2.238
				c0.191-0.369,0.445-0.861,0.639-1.228c-0.182-0.446-0.219-0.445-0.258-0.445h-0.115h-0.113c-0.038,0-0.076,0-0.115,0h-0.114
				c-0.041,0-0.08,0-0.116,0h-0.115h-0.114c0.028-2.148,0.035-2.659,4.428-4.798v0.086c0,0.03,0,0.058,0,0.088
				c0.001,0.029,0.001,0.059,0,0.087v0.087c0,0.031,0,0.058,0,0.086c0,0.03,0,0.06,0,0.088v0.088c-0.001,0.028-0.001,0.057,0,0.085
				c0.822-0.165,1.603-0.497,2.29-0.977c0.304,2.751,0.304,2.751,10.92-1.841h-0.027c1.494-1.203,1.494-1.203,1.787-3.532
				c-0.692-0.567-1.48-1.005-2.326-1.295c-2.445,1.686-2.445,1.686-5.955,0.423c-0.166-0.362-0.393-0.846-0.558-1.208
				c0.759-1.147,1.964-1.856,2.855-2.872c0.829-0.004,1.657-0.071,2.478-0.203c-0.016-0.384-0.035-0.9-0.051-1.288l0.938-0.819
				c0.731,0.33,1.517,0.525,2.316,0.579c1.297-1.85,1.375-1.884,3.458-2.755c-0.114,0.342-0.263,0.8-0.374,1.142
				c3.061-0.846,3.061-0.846,5.208-4.599c-1.731-1.161-1.375-4.018-3.8-4.622l-12.445-15.288c-2.197,1.019-2.792,3.648-4.874,4.785
				c-0.615-0.446-1.436-1.046-2.046-1.498l0.479-1.146c-0.239-0.314-0.557-0.731-0.794-1.045c0.086-0.359,0.202-0.838,0.29-1.197
				c-0.054-0.043-6.419-4.451-7.571-4.582c-0.223-0.323-0.521-0.753-0.744-1.077c-0.188,0.32-0.43,0.744-0.613,1.063
				c-4.988,0.183-5.63,0.202-5.203,3.907l-1.039,0.621c-0.006,0.821,0.059,1.641,0.188,2.452h0.023
				c-0.314,1.347-1.012,2.581-1.189,3.964c2.66,1.457,2.656,3.055,2.654,3.069c-0.078,0.482-0.21,0.955-0.395,1.407
				c-1.012,2.135-3.94,1.917-4.986,4.007c-0.967,1.94,1.314,3.824,0.101,5.767l-1.347-0.114c-0.309-2.53-1.403-4.912-1.395-7.5
				c-9.602-0.719-9.227-4.451-8.861-8.057c-0.777-0.049-1.813-0.122-2.587-0.182c-1.383,2.683-1.383,2.683-2.833,3.332
				c-0.086-3.181-0.086-3.181-1.993-4.59c7.423-7.259,7.423-7.259,7.655-7.35c0.012-0.052,0.025-0.102,0.039-0.153
				c0.016-0.052,0.027-0.101,0.043-0.149c0.014-0.049,0.025-0.102,0.039-0.151s0.023-0.101,0.039-0.148
				c0.015-0.047,0.025-0.101,0.041-0.148c0.014-0.047,0.026-0.102,0.041-0.152c0.015-0.05,0.025-0.101,0.04-0.148
				c0.016-0.047,0.026-0.102,0.038-0.151c1.766-1.128,3.792-1.792,5.486-3.044c-0.123,0.395-0.285,0.919-0.405,1.315
				c0.349,0.102,0.81,0.235,1.159,0.336c-0.011,0.368-0.029,0.862-0.041,1.23c2.707-0.499,3.247-1.462,3.811-2.985
				c0.545,0.598,1.27,1.39,1.82,1.984c0.406,0.015,0.938,0.032,1.346,0.05c0.085-0.367,0.203-0.853,0.287-1.214
				c-0.363-0.071-0.848-0.167-1.215-0.238c-0.35-1.454-0.35-1.454-2.389-2.612c0.532-0.598,0.867-1.348,0.957-2.144
				c1.27-0.824,2.365-1.871,3.604-2.732c-0.123-0.816-0.313-1.901-0.469-2.711l1.112-0.556c0.121-0.783-0.012-1.583-0.38-2.284
				c0.35-0.122,0.82-0.284,1.167-0.404c1.485,0.762,3.369,0.03,4.734,1.241l1.281-0.157l-0.552,0.842h0.021l1.1,0.506
				c-2.261,2.239-2.261,2.239-2.435,2.79c1.323,0.59,1.323,0.59,4.747-1.112c0.281,0.261,0.658,0.607,0.94,0.869
				c-0.146,0.304-0.146,0.304-2.915,3.395c0.031,0.364,0.077,0.85,0.111,1.213c-2.68,0.672-2.68,0.672-3.982,0.559
				c-0.643,0.629-1.207,1.336-1.677,2.104c0.14,0.334,0.327,0.782,0.466,1.113l0.64-0.158h0.015c-0.057,0.36-0.135,0.84-0.192,1.2
				c0.522-0.651,1.21-1.15,1.993-1.445c0.078,0.362,0.188,0.846,0.266,1.208c4.729,1.113,9.321,8.521,14.111,3.634
				c-0.413-0.624-0.992-1.436-1.449-2.032c2.514,0.731,2.514,0.731,3.541,0.532c0.188-0.715,0.389-1.681,0.506-2.411
				c-0.582-0.558-0.958-1.298-1.068-2.097c-2.389-0.883-2.359-1.777-2.319-3.131c0.373-0.036,0.87-0.086,1.247-0.121
				c2.133,2.226,2.133,2.226,2.832,2.484c0.314-0.158,0.314-0.158,3.68-3.237c-0.354-0.649-0.861-1.495-1.268-2.111l-1.342,0.37
				c-0.017-0.381-0.035-0.886-0.05-1.267c-0.419-0.17-0.419-0.17-5.161-3.549c0.365-0.06,0.855-0.139,1.221-0.196
				c-1.064-3.576-1.064-3.576-6.801-5.334c0.064-0.357,0.145-0.833,0.209-1.188c-4.636-0.183-7.588-4.697-12.301-4.684
				c-0.213-0.292-0.497-0.68-0.709-0.973h-0.578c-6.146,2.226-6.146,2.226-8.358,7.306l1.315,0.025
				c0.271,0.148,0.231,0.148,0.195,0.148h-0.811c-0.068,0.405-0.163,0.938-0.232,1.338c1.071,0.821,1.922,1.896,3.071,2.622
				c-0.008,0.397-0.017,0.928-0.026,1.327l-1.002,0.881c-0.362,0.203-0.405,0.203-0.447,0.203h-0.871
				c-0.129-0.943-0.578-1.814-1.272-2.466l-0.556-0.048c-1.367-1.008-1.869-2.818-1.215-4.384l-0.971-0.729
				c-0.225-3.494,3.618-3.413,5.227-5.315c0.32-0.425,0.316-0.425,0.314-0.425h-0.033c-4.496-0.608-5.704-0.766-8.244,3.104
				c0.141-0.389,0.275-0.78,0.392-1.178c-0.206-0.092-0.206-0.092-0.964,0.49c-0.003-0.025-0.012-0.058-0.012-0.082
				c-0.163-0.107-0.391,0.014-0.537-0.159c0.008-0.031,0.012-0.07,0.021-0.101c0.784-0.321,1.481-0.821,2.04-1.459
				c0.002-0.131-0.076-0.251-0.195-0.303c-0.299-0.199-0.311-0.261-0.109-0.664h-0.086c-1.705,0.052-2.124,0.585-2.279,0.787
				c-0.008-0.72-1.027-0.104-1.533-0.18c-0.268,0.406-0.683,0.693-1.156,0.802c-0.179,0.409-0.245,0.564,0.186,0.744
				c0.472,0.198,0.468,0.243,0.436,0.585c-0.172,0.048-0.246,0.153-0.414,0.489c-1.607,0.35-1.066-0.752-0.863-1.169
				c-1.604,0.937-1.604,0.937-1.738,1.307c-0.041,0.158-0.004,0.327,0.1,0.452c0.197,0.322,0.167,0.441-0.256,1.055
				c1.211-0.626,1.546-0.027,1.891,0.891c0.419,1.109,0.715,1.68,1.998,0.519c0.582,0.048,1.139-0.12,1.611-0.425
				c-0.604,1.037-1.285,2.24-2.082,3.647c-2.103,0.524-3.652,2.112-5.631,2.86l0.545,1.071c-0.121,0.337-0.281,0.788-0.406,1.126
				c-0.372,0-0.866-0.011-1.24-0.019c-0.094-0.392-0.219-0.911-0.313-1.308c0.487-0.741,0.852-1.557,1.079-2.415
				c0.881,0.062,0.912,0.01,0.93-0.043c0.02-0.052,0.05-0.102,0.078-0.155c0.027-0.053,0.05-0.1,0.074-0.154
				c0.023-0.053,0.05-0.1,0.076-0.155l0.076-0.155c0.025-0.053,0.051-0.102,0.076-0.155c0.024-0.053,0.049-0.101,0.077-0.155
				c0.028-0.054,0.05-0.102,0.071-0.151c-0.898-0.598-1.748-1.265-2.54-1.995c2.093-5.016,2.093-5.016,3.203-6.231
				c-0.291-0.231-0.681-0.536-0.974-0.765c-1.215,0.222-2.139,1.145-3.346,1.377c-0.748,1.139-1.167,2.46-2.004,3.542
				c0.181-0.875,0.299-1.761,0.354-2.654l-1.161-0.44c-0.217,0.313-0.507,0.732-0.726,1.048c-0.23-0.29-0.535-0.678-0.766-0.97
				h-1.229c0.203-0.81,0.203-0.81,0.203-0.81l-1.206-0.101c0.229-0.753,0.236-1.555,0.019-2.313
				c-1.306-0.018-2.245-0.029-2.848-0.948c-2.135,0.24-2.135,0.24-8.519,5.938c0.189,0.879,0.166,1.791-0.066,2.658
				c0.871-0.16,0.871-0.16,6.368-3.278c-0.507,0.633-1.208,1.449-1.749,2.05c0.277,0.249,0.65,0.583,0.932,0.833l-1.256,0.81
				c0.189,0.348,0.439,0.81,0.626,1.156c1.258-0.026,2.509-0.176,3.769-0.192c-1.648,0.885-3.603,0.659-5.283,1.429
				c0.014,0.416,0.036,0.971,0.048,1.386c-2.028-0.032-3.448-2.08-5.606-1.684l-0.865-0.858c-0.254,0.261-0.596,0.606-0.852,0.87
				c0.171-0.941,0.552-1.833,1.112-2.609c-2.919,0.332-10.169,3.255-10.213,3.281c-0.202-0.316-0.468-0.737-0.665-1.053
				c-1.956-0.234-2.811-1.214-4.873-3.583c0.037-0.4,0.088-0.93,0.123-1.331c-0.707,0.378-1.379,0.819-2.009,1.317
				c-0.304-0.169-0.304-0.169-0.304-0.169c-8.471,6.45-8.471,6.45-10.281,10.647c-0.671,0.398-0.633,0.351-0.596,0.303l0.112-0.139
				c0.036-0.045,0.073-0.092,0.112-0.139c0.04-0.046,0.073-0.092,0.111-0.136c0.037-0.044,0.074-0.094,0.109-0.138l0.11-0.138
				c0.038-0.047,0.077-0.092,0.112-0.136s0.073-0.091,0.111-0.137c-1.619,0.834-3.643,1.875-5.674,6.854
				c0.229-0.291,0.535-0.678,0.764-0.967c0.01,0.413,0.025,0.963,0.036,1.376c-2.791,1.893-2.791,1.893-8.212,12.503l1.166,0.418
				c-0.148,0.264-0.148,0.264-6.523,8.119c1.932-0.848,4.572-2.01,10.252-10.32c-0.053,0.36-0.125,0.837-0.18,1.198
				c1.676-0.332,3.224-1.129,4.465-2.301c0.238,0.303,0.56,0.708,0.801,1.012c3.761,0.15,3.287,5.099,3.277,5.149
				c-0.752,4.381,1.154,9.207,1.176,9.252c-0.16,0.449-0.16,0.449-0.291,8.934c3.326,3.28,1.316,10.131,1.07,10.541
				c-0.061,0.102-6.154,10.751,1.14,25.672c-0.183,0.309-0.426,0.723-0.606,1.033l0.82,0.982c0.74,0.024,1.727,0.082,2.467,0.143
				c2.052,3.003,2.69,6.736,5.035,9.582c-0.451,0.729-0.686,1.571-0.676,2.428c3.617,3.295,3.617,3.295,3.717,5.745
				c0.467,0.355,0.467,0.355,3.811,3.885l0.961-0.73c-0.063-1.333-0.857-2.521-2.067-3.088c-0.442-2.656-2.099-4.94-2.368-7.65
				c2.814,4.317,6.342,8.139,8.971,12.588c0,0.085,0.008,0.168,0.01,0.253c0.004,0.084,0.008,0.168,0.013,0.253
				s0.007,0.165,0.011,0.251c0.004,0.087,0.008,0.168,0.014,0.25c0.005,0.084,0.009,0.166,0.012,0.252
				c0.003,0.085,0.01,0.167,0.014,0.251c0.004,0.083,0.009,0.168,0.012,0.252s0.011,0.168,0.014,0.251
				c2.43,7.131,12.407,5.967,14.738,13.2c0.355-0.166,0.828-0.389,1.182-0.553c0.15-0.587,0.197-0.587,0.24-0.587h0.273
				c0.046,0,0.09,0,0.135,0s0.089,0,0.131,0h0.271c0.043,0,0.086,0,0.133,0c0.164,0.328,0.378,0.766,0.539,1.095
				c5.283,0.305,8.577,6.357,14.461,4.93c1.519,1.607,2.377,3.701,3.936,5.279c-0.068,0.393-0.156,0.913-0.224,1.304
				c1.88,0.059,2.327,0.074,5.634,2.276c0.295-0.267,0.691-0.627,0.986-0.897c0.91,0.964,2.152,1.543,3.473,1.618
				c0.35-0.746,0.613-1.535,0.784-2.342c0.396,0.018,0.921,0.048,1.315,0.069c1.732,2.426,2.65,3.904,2.986,8.327
				c-2.354,2.173-2.354,2.173-2.484,3.641c-0.059,0.04-5.651,3.979-0.979,7.533c-0.796,0.725-2.124,1.945-0.917,5.16
				c0.22,0.375,0.539,0.684,0.924,0.89c0.914,0.612,1.744,1.341,2.471,2.166l18.092,21.479c-0.059,26.879-0.059,26.879,1.721,29.565
				c0.137-0.394,0.32-0.918,0.459-1.313c0.752,1.851,0.752,1.851-0.606,4.792l0.993,0.802c-0.387,2.896,2.486,6.133,5.361,7.469
				c0.678,0.423,0.702,0.423,0.726,0.423h0.079h0.073h0.075c0.025,0.002,0.05,0.002,0.074,0h0.079c0.024,0.002,0.05,0.002,0.073,0
				h0.075c2.447,1.353,3.481,0.791,4.677,0.141c-1.629-0.965-3.02-2.285-4.072-3.859c0.828-1.012,1.104-2.388,2.161-3.256
				c-0.011-0.051-0.021-0.101-0.032-0.155c-0.013-0.055-0.021-0.101-0.033-0.159c-0.012-0.055-0.021-0.1-0.033-0.155
				c-0.012-0.054-0.021-0.106-0.036-0.161c-0.011-0.052-0.017-0.1-0.032-0.157c-0.012-0.057-0.021-0.107-0.028-0.16
				c-0.015-0.052-0.026-0.104-0.034-0.16c-0.012-0.051-0.021-0.101-0.035-0.155c-0.413-0.135-0.969-0.304-1.385-0.438
				c-0.07-0.359-0.168-0.836-0.244-1.199c0.414-0.161,0.955-0.377,1.359-0.538c0.264-2.119,0.264-2.119,1.639-3.153
				c-0.699-0.418-1.314-0.96-1.814-1.603c0.897,0.03,1.795,0.017,2.692-0.045c0.202-0.815,0.505-1.891,0.769-2.687
				c4.837-0.091,5.375-1.525,5.95-3.045c-0.405-0.794-0.688-1.647-0.839-2.53c7.802,0.835,12.393-9.697,12.446-9.808
				c2.208-5.173,8.41-5.145,11.74-8.861c3.61-4.025,4.878-12.683,4.931-13.776h0.038c0.359-0.074,0.836-0.171,1.192-0.244
				c1.733-3.183,5.323-5.002,6.43-8.643v0.03c0.444-1.462,0.444-1.462-0.447-4.814
				C9214.887,1698.537,9211.143,1693.465,9205.237,1695.569z M9169.245,1593.918c0.056-0.042,0.084,0.109,0.079,0.274h0.003
				c0,0.067-0.009,0.228-0.06,0.239c-0.063-0.008-0.123-0.257-0.123-0.258C9169.163,1594.083,9169.198,1593.996,9169.245,1593.918z
				 M9167.321,1591.016h0.093c-0.287,0.366-0.195,0.561,0.426,0.902c-0.01,0.008-0.021,0.02-0.033,0.028v-0.002
				c-0.38,0.11-0.781,0.123-1.168,0.035c-1.28-0.136-1.753-0.085-2.113,0.22C9164.313,1591.105,9167.198,1591.019,9167.321,1591.016
				z M9152.74,1536.825c0.002,0.062-0.006,0.121-0.023,0.18l-0.006,0.003c-0.025,0.079-0.092,0.137-0.173,0.153
				c-0.169,0.012-0.339,0.012-0.507,0C9152.158,1536.878,9152.363,1536.781,9152.74,1536.825z M9151.881,1543.695
				c0.002,0.029-0.002,0.06-0.009,0.089c-0.021,0.077-0.093,0.226-0.175,0.234c-0.057,0-0.08-0.081-0.093-0.158
				C9151.823,1543.599,9151.873,1543.625,9151.881,1543.695z M9144.551,1536.028c0.037-0.065,0.084-0.126,0.137-0.179
				c0.025-0.017,0.031,0.007,0.02,0.067c-0.01,0.046-0.025,0.091-0.043,0.134l0,0c-0.016,0.047-0.062,0.158-0.1,0.166
				C9144.525,1536.224,9144.551,1536.028,9144.551,1536.028z M9144.275,1536.634c-0.001,0.065-0.017,0.129-0.045,0.187
				c-0.021,0.056-0.066,0.146-0.131,0.152c-0.063,0.006-0.087-0.156-0.091-0.285
				C9144.247,1536.463,9144.275,1536.575,9144.275,1536.634z M9122.66,1535.141c0.096-0.043,0.123,0.405,0.102,0.465l-0.007,0.011
				l-0.007,0.003c-0.054-0.016-0.127-0.423-0.129-0.426C9122.629,1535.175,9122.644,1535.157,9122.66,1535.141z M9122.1,1544.306
				c0.127-0.093,0.235-0.207,0.322-0.339c0.084,0.049,0.123,0.093,0.086,0.195l-0.014,0.026c-0.044,0.07-0.1,0.133-0.164,0.184
				c-0.132,0.109-0.279,0.196-0.414,0.303C9121.746,1544.638,9121.848,1544.529,9122.1,1544.306z M9119.089,1546.999
				c0.148-0.25,0.25-0.414,0.028-0.371c0.069-0.03,0.146-0.042,0.222-0.033c0.286,0.006,0.572,0.05,0.854,0.056
				c0.291,0.023,0.582-0.037,0.84-0.174c-0.131,0.243-0.28,0.477-0.447,0.697c0.067-0.048,0.129-0.102,0.188-0.159
				c0.078,0.045,0.143,0.081,0.067,0.191h-0.001c-0.156,0.246-0.455,0.394-0.498,0.717c-0.035-0.077-0.082-0.149-0.14-0.212
				c-0.017-0.015-0.036-0.037-0.051-0.053c-0.175-0.174-0.392-0.298-0.63-0.358c-0.076-0.018-0.154-0.023-0.232-0.016
				c-0.094,0.014-0.172,0.071-0.265,0.086C9118.842,1547.4,9118.967,1547.195,9119.089,1546.999z M9109.385,1539.818
				c-0.031,0.043-0.072,0.08-0.122,0.101c-0.075,0.021-0.152,0.039-0.229,0.051c0.034-0.049,0.08-0.09,0.135-0.116
				c0.074-0.022,0.15-0.041,0.227-0.051L9109.385,1539.818z M9109.99,1539.661v0.002c-0.031,0.044-0.073,0.079-0.123,0.102
				c-0.072,0.02-0.148,0.034-0.224,0.043c0.032-0.049,0.078-0.087,0.13-0.112c0.075-0.022,0.152-0.041,0.229-0.05
				C9110,1539.652,9109.996,1539.656,9109.99,1539.661z M9111.016,1536.26c-0.285,0.274-0.453,0.304-0.565,0.304h-0.017
				c0.145-0.181,0.355-0.299,0.587-0.324h0.016l-0.021,0.019V1536.26z M9068.773,1564.247l-0.002-0.004l-0.022,0.039
				c-0.008,0.012-0.013,0.026-0.022,0.039c-0.01,0.014-0.016,0.026-0.023,0.039c-0.006,0.014-0.014,0.025-0.022,0.038
				c-0.008,0.013-0.016,0.028-0.021,0.041l-0.023,0.037c-0.008,0.012-0.016,0.025-0.021,0.038c-0.01,0.014-0.018,0.025-0.024,0.039
				c-0.007,0.013-0.015,0.024-0.021,0.039c-0.008,0.013-0.016,0.025-0.023,0.039c-0.006,0.013-0.014,0.022-0.021,0.036
				c-0.007,0.013-0.014,0.025-0.021,0.038c-0.01,0.014-0.015,0.024-0.021,0.038l-0.021,0.04c-0.01,0.013-0.017,0.025-0.023,0.04
				c-0.092-0.06-0.203,0.101-0.27,0.182c-0.014-0.04-0.012-0.073,0.045-0.225c0.076-0.21,0.112-0.329-0.102-0.21
				c0.166-0.213,0.416-0.346,0.686-0.361C9068.789,1564.217,9068.782,1564.232,9068.773,1564.247z M9084.834,1635.947
				c-0.655-0.385-0.941-1.189-1.682-1.482c0.202-0.54,0.202-0.54,0.082-2.252h0.022c0.188,0.022,0.255,0.09,0.386,0.309
				c0.144,0.242,0.271,0.39,0.682,0.228c-0.008,0.452,0.031,0.903,0.116,1.348c0.128,0.652,0.397,1.269,0.53,1.922
				C9084.931,1635.997,9084.875,1635.97,9084.834,1635.947z M9097.741,1552.671c-0.042,0.065-0.104,0.112-0.179,0.135
				c-0.099,0.017-0.201,0.023-0.303,0.018c0.042-0.066,0.104-0.116,0.176-0.142c0.104-0.022,0.212-0.032,0.318-0.031l-0.016,0.022
				L9097.741,1552.671z M9112.199,1546.847c0.301,0.034,0.605-0.019,0.879-0.149c-0.019,0.039-0.039,0.077-0.063,0.114v-0.002
				c-0.226,0.35-0.563,0.313-0.89,0.25c-0.563-0.116-0.79-0.086-1.026,0.331C9111.1,1546.884,9111.498,1546.855,9112.199,1546.847z
				 M9108.742,1545.595c-0.031,0.099-0.073,0.193-0.127,0.281l-0.004,0.006c-0.037,0.055-0.078,0.108-0.116,0.162
				c-0.138-0.19-0.175-0.435-0.345-0.607c-0.113-0.097-0.257-0.148-0.404-0.146h-0.016
				C9108.299,1544.941,9108.867,1545.115,9108.742,1545.595z M9109.701,1548.098c-0.616-0.305-1.32-0.392-1.992-0.243
				c0.18-0.33,0.506-0.549,0.66-0.897c0.05,0.188,0.142,0.251,0.395,0.27c0.262-0.01,0.521-0.047,0.776-0.11
				c0.759-0.154,1.119-0.175,1.379,0.086c-0.035,0.041-0.075,0.094-0.106,0.13h0.003c-0.167,0.218-0.438,0.329-0.709,0.294
				C9109.836,1547.609,9109.759,1547.664,9109.701,1548.098z M9157.494,1672.109h-0.002c-0.013,0.079-0.072,0.144-0.15,0.161
				c-0.174,0.037-0.352,0.058-0.527,0.062c0.005-0.092,0.066-0.172,0.154-0.194c0.174-0.038,0.35-0.055,0.525-0.053
				C9157.494,1672.09,9157.494,1672.099,9157.494,1672.109z M9168.585,1766.38c-0.118,0-0.202-0.052-0.12-0.127
				c0.031-0.023,0.063-0.045,0.096-0.064c0.041,0.021,0.132,0.066,0.148,0.114
				C9168.726,1766.348,9168.678,1766.378,9168.585,1766.38z M9172.385,1769.247c-0.064-0.021-0.121-0.059-0.17-0.105
				c0.01-0.149,0.102-0.052,0.125-0.03c0.023,0.024,0.043,0.051,0.055,0.085C9172.413,1769.243,9172.395,1769.245,9172.385,1769.247
				z M9172.704,1768.22c-0.024,0.008-0.101-0.101-0.101-0.101s-0.01-0.101,0.011-0.108c0.021-0.006,0.056,0.052,0.079,0.114
				l-0.002-0.006C9172.702,1768.141,9172.727,1768.212,9172.704,1768.22z"/>
			<path fill="#FFFFFF" d="M9061.513,1570.37v-0.004c-0.103,0.104-0.198,0.215-0.284,0.333
				C9061.26,1570.666,9061.492,1570.392,9061.513,1570.37z"/>
			<path fill="#FFFFFF" d="M9145.352,1521.005c-0.629,0.448-1.495,0.37-2.066,0.945c0.124,0.615,0.124,0.615,0.207,0.767
				c0.167,0.054,0.342,0.081,0.518,0.078c-0.181,0.143-0.302,0.348-0.339,0.575c0.902,0.655,2.097,0.749,3.091,0.245
				c0.024,0.055,0.05,0.128,0.071,0.18l0.231,0.094c0.279-0.156,0.54-0.341,0.779-0.554c0.769,0.174,1.025-0.654,1.619-0.81
				c-0.925,0.91-0.925,0.91-1.084,1.399c1.71,0.664,1.71,0.664,1.114,1.284c0.356-0.949-0.89-1.127-1.635-0.809
				c-0.593,0.254-1.156,0.497-0.521,1.563c-0.838,0.485-1.865,0.476-2.69,1.004c0.001-0.144-0.034-0.285-0.101-0.413
				c-0.359,0.235-0.816,0.327-1.083,0.708c-0.737-0.413-1.396,0.168-2.104,0.166c-0.73-1.086-0.975-1.453-3.418-0.935
				c-0.144,0.283-0.344,0.536-0.59,0.737c0.955,1.171,1.315,1.608,3.214,1.066c-0.057,0.264-0.057,0.264,0.19,1.373
				c-0.453,0.405-0.453,0.405-1.23,1.862c0.084,0,0.192,0,0.273,0c0.031,0.232,0.031,0.232-0.115,0.791
				c3.296,0.056,3.296,0.056,3.766-0.312c-0.186,0.227-0.307,0.501-0.35,0.791c1.158,0.052,2.32,0.012,3.472-0.122
				c0.95-0.275,1.697-2.019,2.737-1.101c0.028,0.262-0.037,0.524-0.186,0.743c0.405,0.313,0.405,0.313,3.251,0.14
				c0.519-0.669,0.978-1.383,1.518-2.042c-1.685-1.738-4.999-1.153-7.331-0.125c-0.812-0.525-1.823-0.638-2.731-0.303
				c0.073-0.116,0.073-0.116-0.082-1.224c0.455,0.122,0.645-0.064,0.981-0.684c1.551,0.146,3.105,0.208,4.653,0.373
				c0.179-0.29,0.459-0.502,0.786-0.597c0.598,0.708,1.214,0.591,2.9,0.134c-0.156,0.202-0.332,0.397-0.487,0.607
				c0.142,0.04,0.142,0.04,3.978-0.924c0.288-0.379,0.396-0.866,0.297-1.332c-0.328-0.03-0.656,0.061-0.922,0.255
				c-0.192-0.416-0.162-0.454,0.008-0.687c1.127,0.145,1.273-0.987,1.928-1.454c1.119,0.264,1.89-0.586,2.833-0.871
				c0.229-0.459,0.52-0.884,0.863-1.265c-0.101-0.145-0.212-0.284-0.329-0.414c0.545-0.468,0.545-0.468,0.361-0.964
				c0.111-0.071,0.234-0.12,0.364-0.145c0.025-0.051,0.06-0.121,0.083-0.171c-0.083-0.105-0.149-0.224-0.195-0.352
				c1.096-0.747,2.327,0.269,3.441-0.272c1.379-0.674,2.24-2.059,3.692-2.63c0.157-0.051,0.317-0.092,0.479-0.121
				c0.953-0.17,1.833-0.617,2.53-1.287c-0.025-0.056-0.058-0.132-0.086-0.19c-0.2-0.044-0.405-0.052-0.606-0.023
				c1.102-0.478,2.283-0.736,3.407-1.154c0.03-0.249,0.095-0.493,0.186-0.728l-0.006-0.021c0.016-0.063,0.028-0.128,0.036-0.192
				c-0.204-0.208-0.204-0.208-1.368-0.218c-0.253-0.455-0.253-0.455-0.228-0.675c-0.957,0.077-1.924-0.116-2.876,0.047
				c0.054-0.022,0.129-0.055,0.182-0.078c-1.216-0.294-2.463-0.448-3.714-0.462c-0.601,0.03-1.186,0.204-1.705,0.506
				c-0.674-0.613-4.403-0.226-5.103,0.267c-0.324-0.172-0.727-0.05-0.899,0.274c-0.01,0.018-0.019,0.037-0.026,0.056l-0.079,0.018
				c-0.826-0.114-0.746,0.93-1.315,1.167c-0.017-0.019-1.688-1.602-2.41-0.251c-0.626-0.126-0.968,0.411-1.45,0.612
				c-0.01-0.069-0.021-0.162-0.03-0.231c-0.617-0.414-1.898,0.437-1.95,0.473c-0.877-0.339-2.096,0.466-2.447,0.721
				c0.445,0.411,0.875-0.164,1.314-0.021c-0.296,0.024-0.571,0.164-0.764,0.391c0.108,0.073,0.234,0.118,0.363,0.129
				c-0.149,0.297-0.654,0.467-0.447,0.891c0.143,0.03,0.288,0.033,0.433,0.007c0.294,1.207,1.495,0.82,1.997,0.598
				c-0.203,0.246-0.139,0.33,0.033,0.507c0.351-0.081,0.555-0.405,0.883-0.519c-0.164,0.384-0.164,0.384-0.007,0.646
				c-0.385,0.095-0.788,0.095-1.173,0c-0.479,0.536-0.404,1.488-1.303,1.704c0.273-0.266,0.38-0.648,0.635-0.926l-0.248-0.037
				c-0.029-0.318,0.095-0.623,0.092-0.939c-0.77,0.074-0.77,0.074-1.373,0.718c-0.02-0.333,0.102-0.661,0.337-0.9
				c-0.329-0.079-0.671-0.086-1.003-0.022c-0.697-1.76-0.697-1.76-0.961-1.866c-0.855-0.347-1.184,0.659-1.877,0.721
				c-1.187,0.1-1.732,1.264-2.754,1.639c-0.051,0.137-0.112,0.269-0.187,0.394l-0.204,0.005c-0.58,0.716-0.539,0.894-0.471,1.214
				c0.1,0.032,0.238,0.076,0.336,0.108c-0.189,0.154-0.356,0.334-0.494,0.535
				C9142.889,1521.143,9142.889,1521.143,9145.352,1521.005z M9144.449,1527.863l0.001-0.003c-0.023,0.04-0.059,0.071-0.101,0.089
				c-0.076,0.02-0.152,0.035-0.23,0.045c0.022-0.046,0.062-0.083,0.109-0.101c0.074-0.022,0.152-0.036,0.229-0.044
				C9144.457,1527.849,9144.457,1527.859,9144.449,1527.863z M9170.377,1515.749c0.041-0.038,0.152-0.071,0.443-0.027l-0.021,0.02
				v-0.001c-0.078,0.077-0.182,0.12-0.289,0.124C9170.354,1515.859,9170.336,1515.788,9170.377,1515.749z M9165.61,1519.235
				c0.066-0.022,0.134-0.039,0.202-0.048v0.011h-0.004c-0.01,0.036-0.035,0.065-0.068,0.081c-0.064,0.02-0.13,0.034-0.196,0.042
				C9165.553,1519.283,9165.576,1519.251,9165.61,1519.235z M9160.412,1520.966c0.101-0.017,0.432-0.072,0.557,0.11
				c0.045,0.07,0.07,0.153,0.068,0.237c0,0.164-0.02,0.327-0.059,0.488v0.003c-0.108,0.189-0.24,0.032-0.328-0.071
				c-0.122-0.152-0.186-0.217-0.223-0.089c-0.039-0.034-0.071-0.066-0.074-0.202
				C9160.363,1521.282,9160.383,1521.123,9160.412,1520.966z M9158.972,1517.483c0.118-0.065,0.165-0.095,0.188-0.145
				c0.048,0.021,0.126,0.055,0.083,0.116l0,0c-0.051,0.05-0.109,0.089-0.172,0.121c-0.129,0.071-0.171,0.101-0.19,0.146
				C9158.711,1517.646,9158.78,1517.591,9158.972,1517.483z M9157.363,1518.101l0.041-0.012c0.191-0.052,0.388-0.07,0.578-0.121
				c0.102-0.024,0.2-0.063,0.291-0.116c0.014-0.008,0.03-0.015,0.047-0.02v0.006l-0.009,0.014l0.005,0.002
				c-0.305,0.229-0.662,0.376-1.041,0.425c-0.065,0.003-0.131-0.011-0.19-0.039
				C9157.168,1518.179,9157.263,1518.131,9157.363,1518.101z M9155.322,1517.992c-0.18,0.214-0.158,0.245,0,0.248h0.014
				c0.146,0,0.178,0.019,0.116,0.139c0.149-0.095,0.345-0.111,0.463-0.256c0.072,0.077,0.192,0.101,0.669,0.152
				c0.062,0.004,0.121,0.013,0.18,0.028c-0.008,0.008-0.018,0.016-0.028,0.021c-0.512,0.07-1.019,0.171-1.517,0.304
				c-0.125,0.294-0.132,0.417-0.033,0.521c-0.186,0.042-0.313-0.058-0.506-0.203c-0.244-0.242-0.587-0.356-0.928-0.309
				C9154.297,1518.475,9154.822,1518.26,9155.322,1517.992z M9152.395,1521.015c0.148,0.077,0.115,0.175-0.016,0.363
				c-0.111,0.157-0.164,0.243-0.082,0.314c-0.012,0.014-0.023,0.026-0.036,0.036h-0.002c-0.112,0.102-0.149,0.111-0.167,0.114
				C9151.96,1521.822,9152.275,1521.208,9152.395,1521.015z M9151.643,1521.561c0.039-0.052,0.082-0.102,0.129-0.147
				c0.018-0.014,0.025-0.01,0.023,0.011c-0.016,0.053-0.036,0.103-0.063,0.151h-0.003c-0.017,0.03-0.072,0.136-0.101,0.143
				C9151.601,1521.724,9151.641,1521.563,9151.643,1521.561z M9150.394,1527.745c0.073-0.023,0.149-0.04,0.226-0.046l-0.006,0.014
				l-0.002-0.004c-0.02,0.039-0.051,0.071-0.092,0.088c-0.074,0.021-0.15,0.038-0.227,0.049
				C9150.309,1527.798,9150.346,1527.761,9150.394,1527.745z M9149.835,1522.152c0.068-0.021,0.14-0.036,0.21-0.042l-0.009,0.01
				v0.002c-0.022,0.036-0.054,0.063-0.093,0.08c-0.069,0.02-0.139,0.035-0.21,0.046
				C9149.754,1522.203,9149.791,1522.17,9149.835,1522.152z M9147.537,1516.77c0.066-0.019,0.135-0.033,0.203-0.043
				c-0.004,0.004-0.008,0.008-0.01,0.012c-0.027,0.032-0.063,0.057-0.101,0.075c-0.063,0.016-0.128,0.028-0.194,0.035
				C9147.463,1516.814,9147.498,1516.787,9147.537,1516.77z M9147.123,1516.772c0.065-0.02,0.134-0.035,0.203-0.043l-0.01,0.01
				v-0.001c-0.028,0.033-0.063,0.058-0.102,0.076c-0.062,0.016-0.125,0.028-0.188,0.035
				C9147.053,1516.815,9147.084,1516.788,9147.123,1516.772z M9143.928,1519.138c0,0,0.023-0.022,0.033-0.031
				c0.012-0.008,0.027-0.023,0.039-0.033c0.078-0.062,0.117-0.067,0.111-0.018c-0.017,0.062-0.045,0.117-0.087,0.166v-0.002
				c-0.054,0.072-0.079,0.074-0.088,0.076C9143.885,1519.288,9143.928,1519.138,9143.928,1519.138z"/>
			<path fill="#FFFFFF" d="M9275.369,1533.076c0.036,0.041,0.074,0.079,0.117,0.115c-0.011-0.021-0.02-0.045-0.031-0.065
				c-0.01-0.011-0.024-0.029-0.046-0.052c-0.016-0.01-0.036-0.018-0.054-0.027
				C9275.359,1533.056,9275.361,1533.067,9275.369,1533.076z"/>
			<path fill="#FFFFFF" d="M9262.91,1522.445c-0.063-0.036-0.145-0.087-0.21-0.123c1.749,1.417,2.812,2.271,3.153,2.529
				c-0.025-0.023-0.059-0.054-0.08-0.076c0.303,0.189,0.573,0.424,0.869,0.624l-0.088-0.068c0.066,0.042,0.152,0.101,0.21,0.147
				l-0.089-0.013c0.008,0.025,0.021,0.063,0.029,0.088c-0.133-0.051-0.257-0.121-0.368-0.209c1.841,1.459,3.469,3.156,5.305,4.625
				c-0.071-0.018-0.137-0.047-0.195-0.084c0.938,1.017,1.951,1.96,3.033,2.824c-0.099-0.104-0.2-0.2-0.312-0.291
				c0.274,0.145,0.445,0.418,0.703,0.587c-0.049-0.054-0.109-0.129-0.152-0.188c0.24,0.037,0.446,0.122,0.637,0.23
				c-0.002-0.011-0.006-0.021-0.012-0.032c0.006,0.006,0.012,0.011,0.018,0.015v-0.004c0.021,0.021,0.036,0.034,0.048,0.048
				c0.703,0.416,1.153,1.188,1.896,1.547c-0.039-0.135-0.039-0.135-0.356-0.458c0.225,0.208,0.47,0.391,0.732,0.543
				c-0.077-0.166-0.077-0.166-0.421-0.506l-0.091,0.018c-3.411-2.934-6.717-5.988-10.234-8.802c0.025,0.017,0.06,0.037,0.085,0.055
				c-0.252-0.253-0.521-0.486-0.81-0.692l0.084,0.061c-0.088-0.076-0.179-0.146-0.271-0.218c0.121,0.078,0.239,0.163,0.354,0.246
				c-3.593-2.851-3.593-2.851-4.329-3.353l-0.009,0.008l-2.784-1.877l0.048,0.035
				C9260.559,1520.529,9261.762,1521.453,9262.91,1522.445z M9271.44,1529.308l0.004-0.003c0.035,0.031,0.07,0.061,0.099,0.093
				c0.016,0.021,0.025,0.042,0.039,0.061c-0.041-0.032-0.079-0.065-0.114-0.101c-0.018-0.018-0.023-0.043-0.044-0.064
				C9271.424,1529.295,9271.438,1529.304,9271.44,1529.308z M9270.699,1528.685l0.018,0.016h-0.002
				c0.045,0.035,0.086,0.073,0.125,0.114c0.016,0.02,0.012,0.025,0.01,0.029c-0.002,0.006-0.002,0.012,0,0.017
				c-0.048-0.037-0.092-0.079-0.135-0.124c-0.02-0.02-0.018-0.028-0.016-0.032C9270.703,1528.7,9270.703,1528.692,9270.699,1528.685
				z M9269.065,1527.195L9269.065,1527.195c0.027,0.022,0.057,0.044,0.082,0.064c0.008,0.007,0.021,0.013,0.025,0.023
				c-0.139-0.089-0.269-0.191-0.393-0.303C9268.802,1526.984,9269.064,1527.192,9269.065,1527.195z"/>
			<path fill="#FFFFFF" d="M9297.647,1715.684c-1.081,1.858-2.6,3.406-3.813,5.175c-0.027,0.042-3.058,4.837-3.106,5.101
				c1.929-1.679,1.929-1.679,4.846-5.549c0.045-0.055,4.722-6.491,6.659-9.886c0.144-0.252,0.28-0.691,0.554-0.791
				c-0.018,0.044-0.033,0.087-0.045,0.132l-0.001-0.004c-0.004,0.017-0.009,0.033-0.009,0.049c1.345-2.202,2.495-4.518,3.441-6.922
				c-1.185,2.503-2.699,4.832-4.507,6.929C9299.99,1711.658,9299.448,1712.593,9297.647,1715.684z"/>
			<path fill="#FFFFFF" d="M9296.729,1608.016c-0.04-0.11-0.088-0.219-0.141-0.325v0.01c0.027,0.058,0.049,0.118,0.077,0.179
				c0.016,0.047,0.035,0.093,0.06,0.136H9296.729z"/>
			<path fill="#FFFFFF" d="M9296.585,1607.685l-0.002-0.004c-0.028-0.055-0.056-0.103-0.082-0.156h-0.006
				c0.032,0.053,0.062,0.108,0.09,0.166V1607.685z"/>
			<path fill="#FFFFFF" d="M9296.313,1607.252c0.061,0.091,0.137,0.171,0.185,0.269c-0.006-0.013-0.014-0.026-0.021-0.038h0.004
				C9296.43,1607.402,9296.369,1607.328,9296.313,1607.252z"/>
			<path fill="#FFFFFF" d="M9296.008,1606.802c0,0.041,0.042,0.093,0.156,0.236c0.054,0.067,0.101,0.143,0.148,0.214
				c-0.097-0.155-0.185-0.317-0.305-0.455V1606.802z"/>
			<path fill="#FFFFFF" d="M9254.065,1569.304c-0.008,0.149-0.008,0.149,1.565,1.503c-0.519,0.521,0.154,1.438,0.709,1.896
				c-1.012-0.116-0.305,1.088-0.297,1.1c0.043,0.049,0.097,0.09,0.155,0.12c0.303,0.176,0.665-0.02,0.969,0.15
				c0.252,0.142,0.14,0.526,0.438,0.639c0.164,0.063,0.31-0.074,0.405-0.165c0.147-0.134,0.167-0.13,0.296-0.09
				c0.037,0.312,0.051,0.626,0.039,0.94c0.668,0.396,1.487,0.438,2.192,0.113c0.053,0.197,0.123,0.387,0.212,0.569
				c0.35,0.542,1.021,0.739,1.395,1.257c0.19,0.267,0,0.591,0.129,0.869c-0.479,0.233-0.479,0.233-1.865,0.126
				c0.078,1.214,0.086,1.347-0.668,1.153c0.417,1.071,0.769,2.167,1.05,3.282c0.844,0.215,0.844,0.215,1.012,0.389
				c0.019,0.063,0.04,0.129,0.06,0.192c0.02,0.064,0.043,0.13,0.061,0.193c0.018,0.064,0.041,0.129,0.058,0.192
				c0.02,0.066,0.041,0.13,0.059,0.193c0.021,0.063,0.04,0.13,0.062,0.192c0.023,0.063,0.037,0.128,0.06,0.194
				c0.021,0.064,0.035,0.127,0.058,0.19c0.021,0.064,0.039,0.13,0.059,0.194c-0.209,0.376-0.677,0.506-0.866,0.897
				c-0.168,0.359-0.139,0.48-0.023,0.98c0.322-0.11,0.559,0.148,0.847,0.184c0.871-0.982,1.006-1.134,2.185-0.839
				c-0.191-1.997,2.681-0.888,2.71-0.876c0.743-0.708,1.157-1.042,1.682-0.121c0.072-0.383,0.158-0.506,0.789-0.78
				c0.383-0.164,0.524-0.228,0.545-1.584c-0.321-0.209-0.759-0.095-1.054-0.375c0.563-0.424,0.828-1.135,0.681-1.821h-0.006
				c-0.052-0.999-0.902-1.77-1.901-1.72c-0.141,0.007-0.279,0.031-0.415,0.071c-0.261-0.387-0.531-0.787-2.078-3.155
				c-0.458,0.209-2.275-0.809-2.515-2.663c0.433,0.361,0.298,1.468,1.057,1.274c-0.02-0.596,0-1.191,0.059-1.785
				c-0.627-0.113-1.264,0.073-1.892-0.048c-0.49-0.064-0.953-0.265-1.334-0.58c0.19-2.924,0.19-2.924-0.233-3.42
				c-0.248-0.284-1.146-0.146-1.442-0.102c-0.48,0.154-1.008,0.111-1.457-0.118c0.808-0.363,0.79-1.168-0.075-2.529
				c-0.037,0.056-0.086,0.136-0.123,0.193c-0.467,0.62-0.874,0.842-2.187,0.596c0.047,0.853-0.194,1.69-0.15,2.546
				c-0.226-0.234-0.598-0.24-0.832-0.015C9254.136,1569.011,9254.071,1569.153,9254.065,1569.304z M9260.925,1581.432
				c-0.008-0.004-0.018-0.009-0.025-0.015c-0.004-0.008-0.006-0.018-0.01-0.026c0-0.009-0.009-0.019-0.011-0.028l-0.008-0.027
				c-0.002-0.009-0.004-0.018-0.01-0.026c0-0.011,0-0.02-0.007-0.028c-0.006-0.008-0.008-0.019-0.01-0.029l-0.008-0.027
				c-0.002-0.01-0.006-0.018-0.01-0.027c-0.002-0.01-0.004-0.02-0.006-0.03c-0.004-0.007-0.008-0.016-0.01-0.025
				c-0.004-0.008-0.009-0.017-0.009-0.027c-0.002-0.01-0.004-0.019-0.011-0.028c-0.002-0.009-0.004-0.018-0.006-0.027l-0.008-0.027
				c-0.004-0.008-0.008-0.018-0.01-0.028c-0.004-0.008-0.007-0.017-0.011-0.025c0.019,0.001,0.037,0.001,0.052,0
				c0.08-0.018,0.088-0.055,0.05-0.231c0.136-0.044,0.252,0.131,0.305,0.312l0.002,0.004
				C9261.251,1581.351,9261.174,1581.565,9260.925,1581.432z M9262.932,1582.853c0.038,0.083,0.067,0.169,0.089,0.257v0.005
				c0.032,0.173-0.072,0.142-0.189,0.1c-0.222-0.067-0.287-0.028-0.202,0.34c-0.051-0.009-0.097-0.035-0.128-0.074l-0.014-0.022
				c-0.101-0.13-0.136-0.303-0.228-0.439c-0.067-0.1-0.131-0.108-0.156-0.108c-0.073,0-0.184-0.154-0.188-0.166
				c0.016-0.022,0.062-0.014,0.253,0.043C9262.582,1582.915,9262.799,1582.932,9262.932,1582.853z"/>
			<path fill="#FFFFFF" d="M9322.896,1632.573c0.106,0.418,0.214,0.835,0.3,1.258c-0.318-6.636-1.186-15.467-2.156-22.042
				c-3.386-14.659-3.386-14.659-5.938-21.696c-5.603-13.733-5.603-13.733-9.166-20.16c-7.041-11.624-8.125-13.414-12.098-18.334
				l0.002-0.018c-3.914-4.654-9.315-10.724-13.552-15.095l-0.053-0.051c-0.291-0.278-0.684-0.652-0.975-0.929
				c0.954,1.182,1.849,2.412,2.68,3.686c-0.25-0.238-0.589-0.557-0.844-0.793l-0.481-0.483c1.457,3.346,1.457,3.346,2.892,4.98
				c-0.676-0.352-1.254-0.865-1.688-1.492c-0.641-0.291-0.666-0.319-0.691-0.35c-0.029-0.029-0.054-0.058-0.083-0.085
				c-0.031-0.028-0.056-0.059-0.081-0.088c-0.024-0.029-0.058-0.057-0.083-0.085l-0.079-0.086c-0.025-0.028-0.056-0.058-0.083-0.085
				c-0.024-0.029-0.052-0.058-0.08-0.084c-0.026-0.03-0.052-0.059-0.08-0.086c-0.247-0.28-0.573-0.654-0.819-0.935
				c0.767,1.896,2.064,3.53,3.741,4.703c-0.108,0.303-0.263,0.708-0.37,1.004c-3.731-5.504-15.743-10.741-18.713-10.21
				c-0.115,0.708-0.298,1.642-0.456,2.337l-0.995,0.355c-0.601,4.181-0.601,4.181-0.438,4.508c-0.116,0.33-0.266,0.77-0.382,1.098
				c0.202,0.271,0.467,0.625,0.664,0.894l1.104-0.092c0.496,1.713,1.082,3.398,1.592,5.104l0.058,0.496
				c-0.152,1.175,0.095,2.361-0.102,3.535c-0.301,0.134-0.707,0.312-1.019,0.449c-1.019,10.963,3.879,13.709,6.887,14.367
				c0.35,0.551,0.81,1.289,1.151,1.844c-0.083-1.526,0.51-3.012,1.618-4.063c2.354,2.151,4.824,4.171,7.396,6.052
				c0.691,0.175,0.691,0.173,0.691,0.172c0.261-0.297,0.606-0.691,0.871-0.987c-0.438-3.32-3.135-6.182-2.015-9.814
				c-4.62-3.619-4.62-3.619-4.064-6.427c6.664,7.479,6.664,7.479,7.306,7.655c-0.387,0.824-1.026,2.202,2.697,9.735l-1.119-0.021
				c-0.498,0.578-1.13,1.021-1.845,1.291c-0.114,0.329-0.269,0.762-0.383,1.089c-1.704-1.489-3.71-2.572-5.463-3.997
				c-0.129,0.125-0.297,0.293-0.428,0.42c-1.228-1-1.712-2.505-2.599-3.744c-1.395,0.539-2.175,2.029-1.821,3.484l-0.112,0.397
				h-0.011c0.91,1.881,2.18,3.564,3.08,5.453l-0.854-0.845c-0.825,1.092-1.712,2.137-2.653,3.13
				c-0.227,0.708-0.265,0.708-0.303,0.715l-0.12,0.008l-0.115,0.009l-0.118,0.01l-0.117,0.009c-0.041,0-0.079,0.006-0.118,0.009
				l-0.118,0.008l-0.117,0.009c0.22,0.736,0.498,1.453,0.834,2.144c-0.506,1.051-1.748,1.624-1.91,2.897
				c0.03,0.347,0.067,0.81,0.103,1.159l-1.054,0.311c-0.055,0.354-0.121,0.826-0.171,1.179c-0.654-0.155-1.534-0.325-2.2-0.404
				c-0.095,0.748,0.049,1.506,0.41,2.168c-3.149-0.315-3.441,0.203-4.009,1.238c1.322,3.292,5.363,3.981,6.88,7.081
				c-0.294,0.193-0.688,0.449-0.984,0.642l1.052,0.435c0.122,0.756,0.177,1.521,0.156,2.285c-9.872,1.158-9.872,1.158-10.463,1.581
				c0.756,3.23,0.756,3.23,0.533,4.491l1.03,0.278c-0.406,0.56-0.67,1.211-0.765,1.897c0.203,0.25,0.477,0.581,0.688,0.829
				c-0.248,2.309,1.075,4.336,1.2,6.577c1.084-0.057,2.169-0.143,3.253-0.202c0.426,0.587,0.9,1.138,1.416,1.646
				c8.304-1.067,8.485-4.424,8.849-11.115c3.295-1.648,2.983-2.357,1.944-4.713c1.464-0.405,3.002,0.136,4.458-0.361
				c0.102-0.368,0.241-0.86,0.347-1.225c0.623-0.342,1.111-0.889,1.382-1.548c1.219,0.597,2.009,1.81,2.064,3.164
				c4.597-0.439,8.111,7.703,8.133,7.791c-0.947,0.91-1.049,1.012-2.935,0.91c-0.091,0.506-0.203,1.185-0.295,1.691
				c0.403,0.526,0.403,0.526,3.158,2.458c1.289-2.864,0.788-8.022,0.771-8.051c0.153-0.274,0.358-0.643,0.507-0.917
				c-0.74-2.327-3.608-3.198-4.007-5.757c1.312,0.45,1.312,0.45,3.966,2.333c-0.07,0.58-0.129,1.361-0.139,1.947
				c0.349,0.771,0.779,1.815,1.079,2.606c0.066-0.36,0.153-0.839,0.22-1.199c1.696,3.541,4.275,6.64,5.439,10.456
				c0.506-1.864,0.466-3.873,1.508-5.596c0.222-0.14,0.224-0.14,0.224-0.14c-0.426-1.352-0.552-2.782-0.372-4.188l0.438-0.32
				l0.089-1.369c-0.049-2.833-0.049-2.833-0.577-11.871l1.038,0.224c0.51,1.057,1.117,2.06,1.824,2.998
				c0.589-0.514,1.134-1.072,1.634-1.67c1.448,1.093,2.283,2.72,3.541,3.98c-0.062,0.739,0.109,1.478,0.491,2.113
				c-0.068,0.303-0.154,0.716-0.225,1.022c-1.437-0.225-1.737-0.27-3.09-1.855c-1.243,0.304-2.188,1.316-2.398,2.577l-0.707-0.992
				c-1.994,2.137-1.994,2.137,0.815,13.811c0.244-0.229,0.566-0.538,0.807-0.77l1.038,0.592c0.066,0.304,0.148,0.716,0.211,1.021
				c0.165-0.732,0.355-1.72,0.474-2.46c0.657,0.42,1.423,0.636,2.204,0.62c0.081-0.371,0.186-0.868,0.266-1.24
				c0.021,0.03,2.086,3.069,0.522,5.551c0.621,0.922,0.956,1.432,0.417,4.626c-1.914-0.405-1.914-0.405-2.825-1.363
				c-0.047,0.688-0.139,1.605-0.23,2.289c-1.018-0.392-2.07-0.669-3.147-0.824c-0.177-0.278-0.405-0.652-0.582-0.932
				c-0.324-0.01-0.757-0.023-1.079-0.033c-0.389-0.463-0.389-0.463-1.499-3.308c-0.459,0.708-0.459,0.708-2.456,7.698
				c-1.448-1.469-1.563-1.493-3.552-1.89c-0.102-0.606-0.102-0.606-1.282-3.372c-0.281,0.179-0.655,0.418-0.932,0.598l-1.051-0.288
				c-0.151-0.755-0.42-1.482-0.794-2.156c-0.313-0.072-0.734-0.167-1.047-0.236c-3.768-7.029-3.768-7.029-5.259-5.237
				c-1.552-0.415-2.999,0.651-4.54,0.308l-0.457,0.015l-0.507,0.053l-0.041,0.012l-0.154,0.032l-0.577,0.147
				c-1.034,0.362-2.037,0.798-3.082,1.128c-0.501,0.016-0.999,0.107-1.474,0.272l-0.072,0.065l-14.247,10.16
				c-0.048,1.172,0.428,2.3,0.302,3.479l-0.993,0.404c0.086,0.345,0.201,0.802,0.279,1.145c0.306,0.14,0.697,0.328,0.998,0.469
				c-1.314,2.106-4.002,3.023-4.865,5.521c-0.662,0.381-0.658,0.433-0.658,0.484s0,0.101,0.006,0.158
				c0.006,0.056,0,0.101,0.008,0.158c0.009,0.056,0,0.101,0,0.157c0,0.057,0,0.102,0.007,0.159c0.008,0.058,0,0.101,0.008,0.16
				c0.008,0.057,0,0.1,0,0.157c0,0.055,0,0.101,0.006,0.156c-2.391,2.483-3.439,4.235-4.958,12.876
				c3.691,3.547,0.156,8.739-1.355,10.957c1.161,1.674,1.161,1.674,0.622,3.019c0.71,1.389,0.71,1.389,0.76,4.636
				c0.707,0.312,1.478,0.46,2.251,0.435c2.446,2.521,2.446,2.521,2.55,4.009c-0.282,0.223-0.661,0.514-0.944,0.734
				c-0.654-0.584-0.662-0.527-0.666-0.468c-0.006,0.059-0.012,0.117-0.02,0.176c-0.008,0.06-0.012,0.117-0.02,0.173
				c-0.009,0.06-0.011,0.119-0.017,0.18c-0.006,0.058-0.011,0.115-0.019,0.173c-0.006,0.058-0.013,0.119-0.017,0.178
				c-0.006,0.06-0.016,0.117-0.02,0.176c-0.006,0.063-0.014,0.12-0.022,0.178c1.538,0.466,2.999,1.158,4.335,2.051
				c-0.008,0.363-0.017,0.85-0.022,1.213c7.891,4.912,14.586-1.626,21.897-2.254c0.997,1.011,0.96,2.592,1.994,3.583l1.067-0.069
				c0.064,0.322,0.149,0.762,0.208,1.086c0.206-0.241,0.478-0.563,0.682-0.8c0.102,0.31,0.244,0.718,0.35,1.027l1.059-0.103
				c0.076,0.414,0.118,0.833,0.124,1.252c-0.212,2.633-2.558,4.414-2.805,7.029c-0.283,2.983,1.637,5.631,1.328,8.615
				c-0.095,0.896-0.542,2.032-0.694,2.917c-0.709,4.091-1.391,4.899-2.428,6.122c-0.106,0.127-16.129,33.378-16.173,33.564
				c4.678-0.213,7.953-2.96,10.116-4.775h0.008c7.319-5.426,11.806-13.348,17.854-19.899c-0.32,0.771-0.766,1.785-1.124,2.535
				c3.51-4.096,4.171-5.484,4.197-5.543l0.115-0.313h0.01h0.006c10.181-9.831,11.034-24.502,18.761-35.604l0.332-0.405
				c0.089-0.363,0.208-0.849,0.301-1.217c-0.109,0.293-0.26,0.681-0.366,0.973l-0.061,0.064c1.28-5.509,3.426-10.802,4.227-16.43
				c-0.698,1.007-1.488,1.945-2.36,2.81c-0.443-1.32-0.592-2.717-0.439-4.101c-0.08-1.621-0.052-3.247,0.044-4.871
				c0.09,1.825,0.181,3.767,0.28,5.852l-0.063,0.606c3.114-3.061,4.89-8.304,5.285-15.577c0.005-0.006,0.009-0.011,0.012-0.017
				c0,0,0.006-0.008,0.012-0.01l0.008-0.016l0.016-0.012c0,0,0-0.012,0.008-0.016l0.008-0.013l0.012-0.012
				c0.003-0.004,0.005-0.008,0.005-0.012C9323.535,1638.345,9323.587,1637.104,9322.896,1632.573z M9272.916,1540.882
				c-0.036-0.049-0.065-0.101-0.089-0.156c0.007,0,0.027,0.006,0.156,0.156v0.001c0.102,0.107,0.192,0.224,0.272,0.349
				C9273.135,1541.123,9273.022,1541.005,9272.916,1540.882z M9282.398,1574.482c-0.065,0.142-0.069,0.304-0.008,0.448
				c-0.138,0.079-0.212-0.102-0.32-0.405c-0.102-0.276-0.185-0.512-0.32-0.419c0-0.071,0-0.166,0.066-0.188
				c0.048-0.009,0.101-0.001,0.146,0.02c0.057,0.025,0.117,0.036,0.176,0.033c0.082-0.014,0.121-0.049,0.171-0.148
				c0.03,0.055,0.058,0.111,0.082,0.167l-0.001,0.003C9282.471,1574.145,9282.473,1574.327,9282.398,1574.482z M9286.77,1560.523
				c0.056-0.061,0.253,0.064,0.318,0.102c0,0.011,0,0.021,0,0.031h0.004c0.021,0.195-0.04,0.208-0.06,0.213
				C9286.901,1560.874,9286.714,1560.584,9286.77,1560.523z M9277.132,1553.268c-0.02,0.002-0.039,0.005-0.059,0.008
				c-0.023,0.001-0.044,0.004-0.065,0.007l-0.064,0.005c-0.02,0-0.041,0.006-0.063,0.008l-0.062,0.008l-0.063,0.007l-0.064,0.005
				c0.048-0.448-0.06-0.899-0.302-1.279c-0.519-1.022-1.249-1.921-1.815-2.915c0.494-0.34,1.166-0.259,1.565,0.189l-0.006,0.002
				c0.639,0.917,0.433,1.214,0.311,1.39c0.189,0.162,0.355,0.348,0.497,0.551c-0.356,0.673-0.423,0.793,0.253,2.007
				C9277.17,1553.262,9277.151,1553.267,9277.132,1553.268z M9284.354,1562.195c-0.021,0.052-0.083,0.049-0.114,0.085
				c-0.029-0.042-0.043-0.094-0.037-0.145c0.01-0.027,0.041-0.04,0.066-0.05c0.021-0.005,0.038-0.016,0.054-0.029l0.01,0.018v0.002
				C9284.375,1562.157,9284.362,1562.186,9284.354,1562.195z M9285.36,1550.608c-0.035-0.025-0.304-0.254-0.341-0.293
				c0.025,0.014,0.341,0.291,0.341,0.291V1550.608z M9284.548,1548.347c-1.012-0.512-1.18-0.53-1.33-0.446
				c-0.054,0.257,0.253,0.693,1.427,2.033c-0.004,0.006-0.006,0.014-0.006,0.021c-0.293-0.077-0.579-0.176-0.856-0.294
				c-0.542-0.547-1.038-1.142-1.479-1.774c-0.459-0.69-1.016-1.309-1.653-1.835c0.345,0.006,0.688,0.082,1.002,0.222
				c1.047,0.348,1.687,0.527,1.72-0.1c0.02,0.04,0.046,0.089,0.063,0.13c0.444,0.958,1.126,1.791,1.979,2.418
				C9285.107,1548.643,9284.817,1548.516,9284.548,1548.347z M9285.675,1561.03c-0.073-0.237-0.1-0.479,0.303-0.475
				c0.042,0.144,0.035,0.298-0.023,0.438c0.112,0.178,0.313,0.281,0.521,0.268c0.246,0.012,0.382,0.075,0.605,0.445l-0.004,0.001
				c-0.344-0.226-0.755-0.326-1.163-0.283C9285.839,1561.145,9285.796,1561.071,9285.675,1561.03z M9286.463,1566.62
				c-0.248-0.184-0.472-0.401-0.663-0.646c0,0-0.021-0.224,0.186-0.185c0.183,0.034,0.574,0.35,0.537,0.101
				c0.188,0.146,0.341,0.335,0.441,0.55v-0.003c0.063,0.134,0.117,0.271,0.163,0.413c0.073,0.229,0.119,0.465,0.192,0.694
				C9287.088,1567.191,9286.797,1566.879,9286.463,1566.62z M9289.859,1597.948c-0.008-0.007-0.016-0.012-0.023-0.018
				C9289.844,1597.935,9289.85,1597.941,9289.859,1597.948L9289.859,1597.948z M9291.103,1599.308
				c-0.224,0.008-0.344-0.131-0.55-0.426c-0.204-0.294-0.329-0.441-0.546-0.446c0.406-0.426,0.961-0.403,1.215,0.67h-0.002
				c0.01,0.046,0.023,0.11,0.032,0.157C9291.206,1599.286,9291.156,1599.302,9291.103,1599.308z M9302.796,1607.487
				c-0.558,0.293-0.749,0.144-0.892-0.691c0.085,0.078,0.198,0.118,0.314,0.115c0.357-0.113,0.383-0.468,0.495-2.174
				c0.252,0.058,0.295,0.617,0.562,0.42c0,0.025-0.006,0.06-0.007,0.084v-0.001c-0.047,0.216-0.026,0.44,0.06,0.644
				c0.183,0.51,0.289,1.045,0.313,1.587C9303.429,1607.193,9303.231,1607.258,9302.796,1607.487z M9307.32,1592.195
				c-0.138,0.03-0.245,0.141-0.269,0.28c-0.351-1.192-0.223-1.37,0.05-1.6c0.194-0.149,0.299-0.385,0.278-0.628
				c0.208,0.138,0.347,0.359,0.376,0.607v-0.006c0.063,0.488,0.156,0.971,0.279,1.448
				C9307.801,1592.229,9307.563,1592.196,9307.32,1592.195z M9317.648,1601.2c0.004,0.012,0.008,0.023,0.012,0.035
				c-0.002-0.007-0.006-0.015-0.012-0.022V1601.2z M9317.073,1599.598c0.23,0.509,0.418,1.035,0.565,1.573
				c-0.092-0.133-0.179-0.272-0.25-0.419c-0.108-0.289-0.195-0.582-0.271-0.88h0.006h0.008h0.008h0.006h0.007h0.006h0.007
				c-0.047-0.172-0.063-0.202-0.092-0.218C9317.066,1599.612,9317.066,1599.609,9317.073,1599.598z M9313.016,1589.61
				c0.051-0.874,0.417-0.488,0.421-0.484c0.006,0.004,0.158,0.341,0.305,0.763l-0.004,0.002c0.149,0.427,0.275,0.862,0.423,1.293
				c-0.062-0.096-0.14-0.179-0.23-0.245c-0.11,0.127-0.12,0.139,0.031,0.973c0.148,0.836,0.14,0.905,0.101,1.142
				c0.025,0.065,0.045,0.134,0.069,0.202c0.022,0.069,0.045,0.134,0.069,0.203c0.025,0.069,0.044,0.135,0.069,0.202
				c0.022,0.067,0.043,0.132,0.067,0.203c0.021,0.069,0.045,0.133,0.067,0.203c0.023,0.068,0.042,0.134,0.065,0.202
				c0.023,0.068,0.045,0.134,0.07,0.202c0.021,0.068,0.044,0.134,0.063,0.203c0.175,0.39,0.225,0.394,0.313,0.404
				c0.976,2.216,1.836,4.481,2.568,6.789c-0.139,0.115-0.139,0.115-0.122,1.107c-0.323-1.224-0.436-1.289-0.64-1.317h-0.008
				c-0.082-0.249-0.185-0.583-0.283-0.826c-0.045-0.108-0.102-0.254-0.15-0.364c-0.328-0.79-0.78-1.518-1.138-2.297
				c-0.28-1.016-0.632-2.011-1.048-2.98c-0.808-1.271-1.099-3.075-0.808-3.401
				C9313.146,1591.069,9313.055,1590.341,9313.016,1589.61z M9316.747,1653.077c0.011-0.703,0.021-1.64,0.021-2.341
				c0.069-0.918,0.069-0.918,0.067-0.918h-0.006c-0.04-0.078-0.04-0.078-2.919-17.87c2.403,2.595,3.015,8.903,3.66,21.775
				C9317.31,1653.516,9316.996,1653.267,9316.747,1653.077z M9319.376,1610.06c-0.1,0.007-0.202-0.085-0.535-0.656
				c-0.332-0.57-0.332-0.572-0.429-0.724c-0.073-0.116-0.195-0.19-0.244-0.323l-0.422-1.669c-0.035-0.182,0.026-0.367,0-0.551
				c-0.086-0.559-0.227-1.107-0.327-1.659c0.193-0.236,0.152-1.044,0.486-0.769c0.544,0.444,0.175,1.233,0.652,1.703
				c0.02-0.037,0.029-0.077,0.027-0.117c0.121,0.396,0.182,0.596,0.328,1.243l-0.002,0.001
				C9319.543,1609.448,9319.626,1609.822,9319.376,1610.06z M9322.295,1635.875c0.063-0.704,0.041-1.412-0.063-2.11
				c-0.427-0.66-0.429-0.744-0.435-0.829s0-0.169-0.012-0.252c-0.01-0.084,0-0.169-0.01-0.254c-0.012-0.083-0.006-0.168-0.012-0.251
				c-0.006-0.083-0.012-0.169-0.014-0.254c-0.002-0.085-0.008-0.167-0.014-0.252c-0.006-0.086-0.008-0.169-0.012-0.255
				c-0.004-0.085-0.013-0.167-0.017-0.251c-0.449-1.231-0.724-2.52-0.814-3.829c0.841,1.596,1.488,3.281,1.952,5.02
				C9322.8,1634.609,9322.79,1634.642,9322.295,1635.875z"/>
			<path fill="#FFFFFF" d="M9282.078,1572.058c-0.01-0.001-0.02-0.001-0.027,0c0.008,0.03,0.018,0.058,0.031,0.085
				c0.012,0.014,0.012-0.081,0.012-0.085H9282.078z"/>
		</g>
	</g>
	<g id="Group_471" transform="translate(9074.892 1627.388)">
		<path id="Path_1397" fill="#FFFFFF" d="M-11472.744,4122.634c-20.105,0-33.893,12.563-45.801,28.131l7.057,10.31
			c10.914-14.927,22.51-26.673,38.744-26.673c18.295-0.063,33.953,13.113,37.016,31.15h-46.287v11.77h58.271
			c0.238-1.953,0.359-3.917,0.361-5.884c0-26.911-22.143-48.808-49.357-48.808"/>
		<path id="Path_1398" fill="#FFFFFF" d="M-11472.744,4208.471c-19.854,0-32.953-17.145-49.582-42.3
			c-16.629-25.155-32.324-43.532-56.67-43.532c-27.217,0-49.361,21.892-49.361,48.806c0,26.914,22.145,48.806,49.361,48.806
			c20.07,0,33.84-12.52,45.738-28.047l-7.01-10.379c-10.908,14.92-22.5,26.656-38.727,26.656
			c-20.451,0.262-37.244-16.104-37.506-36.556c0-0.002,0-0.005,0-0.007c-0.264-20.453,16.105-37.245,36.559-37.506
			c0.002,0,0.002,0,0.002,0c0.314,0,0.629,0,0.945,0c19.852,0,32.244,16.269,49.543,42.262
			c17.299,25.994,32.361,43.574,56.709,43.574c20.273,0.039,38.516-12.311,46.014-31.146h-13.063
			c-6.637,11.979-19.262,19.4-32.953,19.377"/>
	</g>
	<path opacity="0.8" fill="#FFFFFF" d="M-1624.229,6065.998c-23.388-52.413-110.909-124.726-246.443-203.617
		c-38.624-22.482-80.685-45.216-125.439-67.861c25.775-18.433,38.399-36.92,36.55-54.463c-1.115-10.581-7.55-20.363-18.734-29.216
		c24.418-12.853,47.634-25.676,69.494-38.407c137.044-79.813,204.667-146.544,190.411-187.903
		c-4.763-13.818-18.583-24.354-41.077-31.316c-21.709-6.719-51.513-10.126-88.583-10.126c-74.978,0-178.297,13.932-298.789,40.289
		c-111.201,24.324-234.576,58.767-359.287,100.224c-252.431-84.704-486.32-135.575-630.184-135.575
		c-38.749,0-70.127,3.723-93.264,11.065c-23.946,7.6-39.102,19.101-45.045,34.184c-4.76,12.082-3.54,26.353,3.628,42.417
		c23.388,52.414,110.91,124.727,246.444,203.618c18.032,10.496,36.819,21.047,56.273,31.618
		c-41.593,20.712-80.29,41.446-115.48,61.94c-137.044,79.812-204.667,146.544-190.412,187.903
		c4.763,13.817,18.583,24.354,41.077,31.315c21.708,6.72,51.512,10.126,88.583,10.126c74.978,0,178.297-13.932,298.789-40.288
		c84.464-18.477,175.954-42.791,269.715-71.581c20.002,7.794,40.156,15.471,60.427,23.009
		c299.061,111.219,588.998,180.31,756.665,180.31c38.749,0,70.127-3.723,93.265-11.065c23.946-7.6,39.103-19.1,45.045-34.182
		C-1615.841,6096.333-1617.061,6082.062-1624.229,6065.998z M-1960.556,5740.161c1.853,17.578-11.323,35.876-36.597,53.834
		c-24.17-12.218-49.123-24.409-74.742-36.52c32.463-15.357,63.443-30.78,92.697-46.161
		C-1967.962,5720.122-1961.648,5729.792-1960.556,5740.161z M-2631.041,5924.979c-1.973,0-3.933-0.008-5.894-0.016
		c-99.972-40.811-194.879-84.197-279.47-127.745c65.375-53.681,241.525-105.607,451.489-127.742
		c55.87-5.89,110.572-9.319,163.048-10.25c79.359,31.341,156.08,64.478,227.635,98.248
		c-109.421,51.663-235.575,102.559-369.163,148.604c-12.015,4.142-24.012,8.21-35.984,12.214
		C-2531.497,5922.729-2582.355,5924.979-2631.041,5924.979z M-2483.38,5919.632c-31.103,10.364-62.024,20.253-92.623,29.64
		c-19.65-7.659-39.148-15.432-58.462-23.302c1.143,0.003,2.276,0.01,3.424,0.01
		C-2583.6,5925.979-2534.097,5923.842-2483.38,5919.632z M-2639.602,5924.955c-85.374-0.466-158.81-7.932-212.804-21.662
		c-56.982-14.491-88.464-35.071-91.042-59.516c-1.58-14.983,7.764-30.49,26.208-45.864
		C-2833.173,5841.207-2738.909,5884.346-2639.602,5924.955z M-2917.392,5796.71c-16.629-8.568-32.857-17.143-48.645-25.705
		c116.839-58.029,259.901-117.679,416.875-171.784c14.376-4.955,28.726-9.807,43.039-14.564
		c41.646,13.979,83.796,28.876,126.13,44.62c25.439,9.461,50.697,19.139,75.698,28.994c-51.769,0.993-105.682,4.41-160.725,10.213
		c-131.442,13.857-253.674,39.683-344.178,72.721C-2858.168,5759.082-2894.691,5777.936-2917.392,5796.71z M-2299.261,5659.182
		c8.83-0.143,17.603-0.223,26.299-0.223c89.027,0,165.574,7.499,221.365,21.687c32.192,8.187,56.24,18.318,71.54,29.99
		c-29.349,15.424-60.432,30.888-93.006,46.286C-2144.176,5723.338-2220.403,5690.378-2299.261,5659.182z M-2443.069,5907.025
		c133.924-46.16,260.379-97.198,370.007-148.998c25.705,12.144,50.737,24.369,74.985,36.62
		c-72.363,50.802-241.406,98.77-441.011,119.813c-12.083,1.273-24.109,2.43-36.072,3.474
		C-2464.468,5914.347-2453.77,5910.714-2443.069,5907.025z M-1848.051,5444.088c75.013,0,119.522,14.098,128.715,40.768
		c7.093,20.577-6.474,47.641-40.32,80.441c-32.81,31.794-83.158,67.549-149.648,106.272c-21.964,12.792-45.299,25.676-69.845,38.591
		c-42.147-32.473-148.967-52.201-293.813-52.201c-9.491,0-19.074,0.096-28.724,0.266c-25.738-10.164-51.752-20.14-77.959-29.886
		c-41.916-15.588-83.651-30.348-124.897-44.207C-2243.025,5497.326-1994.579,5444.088-1848.051,5444.088z M-3024.045,5738.446
		c-135.354-78.787-222.731-150.938-246.034-203.161c-7.054-15.81-8.269-29.82-3.61-41.644
		c11.501-29.188,59.006-44.615,137.378-44.615c143.525,0,376.755,50.684,628.601,135.1c-13.915,4.632-27.845,9.347-41.777,14.149
		c-153.809,53.015-297.767,112.462-417.694,172.108C-2986.846,5759.706-3005.831,5749.047-3024.045,5738.446z M-3144.506,6061.213
		c-75.013,0-119.522-14.097-128.715-40.768c-18.442-53.505,104.702-148.753,306.09-248.897c15.868,8.611,32.181,17.235,48.9,25.854
		c-18.781,15.768-27.793,31.47-26.211,46.48c5.2,49.322,125.585,81.379,307.309,82.08c19.68,8.032,39.554,15.967,59.586,23.78
		C-2805.302,6019.509-3014.822,6061.213-3144.506,6061.213z M-1621.531,6108.048c-11.502,29.188-59.007,44.614-137.38,44.614
		c-167.557,0-457.36-69.066-756.316-180.247c-19.867-7.389-39.622-14.91-59.231-22.543c31.569-9.708,63.393-19.924,95.29-30.593
		c13.319-1.135,26.717-2.404,40.186-3.824c131.441-13.856,253.673-39.684,344.177-72.722c42.064-15.355,74.943-31.432,97.771-47.561
		c44.913,22.715,87.117,45.521,125.86,68.072c135.354,78.787,222.73,150.938,246.033,203.161
		C-1618.088,6082.215-1616.873,6096.226-1621.531,6108.048z"/>
</g>
</svg>
