<svg xmlns="http://www.w3.org/2000/svg" width="66" height="66" viewBox="0 0 66 66"><g transform="translate(-14.696 -13.695)"><g transform="translate(14.696 13.696)"><path d="M33,0A33,33,0,1,1,0,33,33,33,0,0,1,33,0Z" transform="translate(0 0)" fill="#f7296e"/></g><path d="M28.917,30.671a.985.985,0,0,1-.572-.183L20,24.562a1.405,1.405,0,0,0-1.682.045L13.7,28.3a.987.987,0,0,1-1.551-.459l-3.213-10.1L.635,14.7a.95.95,0,0,1-.009-1.789L34.68.062a1.008,1.008,0,0,1,.988.167.929.929,0,0,1,.321.92l-6.11,28.759A.971.971,0,0,1,28.917,30.671ZM28,6.3a.293.293,0,0,0-.151.044L11.627,16.121a1.593,1.593,0,0,0-.714,1.8l1.751,6.03a.421.421,0,0,0,.819-.058l.456-3.307a2.7,2.7,0,0,1,.86-1.623L28.186,6.786a.261.261,0,0,0,.072-.3A.29.29,0,0,0,28,6.3Z" transform="translate(27.159 31.604)" fill="#fff"/></g></svg>