<svg xmlns="http://www.w3.org/2000/svg" width="87.349" height="77.21" viewBox="0 0 87.349 77.21">
  <g id="Try_it_in_browser_icon" transform="translate(-143.591 65.104)">
    <path id="Path_2372" data-name="Path 2372" d="M230.94-55.978a9.136,9.136,0,0,0-9.126-9.126h-69.1a9.136,9.136,0,0,0-9.125,9.126V2.981a9.135,9.135,0,0,0,9.125,9.125h69.1a9.136,9.136,0,0,0,9.126-9.125ZM227.711,2.981a5.9,5.9,0,0,1-5.9,5.9h-69.1a5.9,5.9,0,0,1-5.9-5.9V-45.726h80.891Zm0-51.937H146.82v-7.022a5.9,5.9,0,0,1,5.9-5.9h69.1a5.9,5.9,0,0,1,5.9,5.9Z" fill="#f7296e"/>
    <path id="Path_2373" data-name="Path 2373" d="M202.023-55.415a2.838,2.838,0,0,0-2.833-2.837h0a2.816,2.816,0,0,0-2,.829,2.817,2.817,0,0,0-.831,2,2.724,2.724,0,0,0,.8,1.943,2.722,2.722,0,0,0,1.938.8l.1,0a2.732,2.732,0,0,0,2.826-2.654Z" fill="#f7296e"/>
    <path id="Path_2374" data-name="Path 2374" d="M208.2-58.251h0a2.746,2.746,0,0,0-2.742,2.741l0,.086a2.746,2.746,0,0,0,2.741,2.75h.008a2.685,2.685,0,0,0,1.963-.741,2.721,2.721,0,0,0,.863-1.913l0-.087A2.84,2.84,0,0,0,208.2-58.251Z" fill="#f7296e"/>
    <path id="Path_2375" data-name="Path 2375" d="M217.214-58.251h0a2.746,2.746,0,0,0-2.742,2.741l0,.086a2.746,2.746,0,0,0,2.741,2.75h.008a2.686,2.686,0,0,0,1.962-.741,2.722,2.722,0,0,0,.864-1.913l0-.087A2.84,2.84,0,0,0,217.214-58.251Z" fill="#f7296e"/>
    <path id="Path_2376" data-name="Path 2376" d="M187.265-42.1A23.892,23.892,0,0,0,163.4-18.237,23.892,23.892,0,0,0,187.265,5.628a23.893,23.893,0,0,0,23.866-23.865A23.893,23.893,0,0,0,187.265-42.1Zm-14.073,8.745a20.51,20.51,0,0,1,5.611-3.709l1.04-.464-.732.873a25.975,25.975,0,0,0-3.439,5.3l-.133.275-.252-.173a16.555,16.555,0,0,1-2.1-1.718l-.2-.192Zm-6.468,13.22a19.756,19.756,0,0,1,4-10.371l.18-.235.212.207a18.337,18.337,0,0,0,3.054,2.406l.165.1-.051.188a40.846,40.846,0,0,0-1.306,7.742l-.016.244H166.7Zm4.172,14.4-.175-.229a19.759,19.759,0,0,1-4-10.371l-.024-.285h6.259l.016.244a40.846,40.846,0,0,0,1.306,7.742l.049.183-.157.105a25.035,25.035,0,0,0-3.065,2.415ZM178.8.592a20.51,20.51,0,0,1-5.611-3.709l-.2-.185.193-.193a12.237,12.237,0,0,1,1.293-1.082c.269-.2.535-.406.787-.622l.258-.221.149.306a25.975,25.975,0,0,0,3.439,5.3l.732.873ZM185.651,1.6l-.412-.284a19.594,19.594,0,0,1-6.756-8.088l-.109-.242.242-.106a22.724,22.724,0,0,1,6.743-1.8l.292-.031Zm0-13.781-.237.024A27.5,27.5,0,0,0,177.6-10.2l-.273.112-.08-.283a29.1,29.1,0,0,1-1.042-5.969l-.02-.28h9.464Zm0-7.674h-9.465l.021-.281a30.182,30.182,0,0,1,1.042-5.967l.081-.29.276.12a24.651,24.651,0,0,0,7.8,1.95l.242.02Zm0-7.669-.292-.031a22.724,22.724,0,0,1-6.743-1.805l-.242-.106.109-.242a19.594,19.594,0,0,1,6.756-8.088l.412-.284Zm10.081-9.543a21.529,21.529,0,0,1,5.512,3.707l.222.2-2.565,2.1-.141-.314a22.157,22.157,0,0,0-3.339-5.288l-.782-.92Zm-6.852-1.013.412.284a19.6,19.6,0,0,1,6.756,8.088l.11.242-.243.107a22.785,22.785,0,0,1-6.743,1.8l-.292.031Zm0,13.78.238-.023a24.734,24.734,0,0,0,7.805-2.043l.279-.125.081.3a31.352,31.352,0,0,1,1.041,6.06l.02.281H188.88Zm0,7.675h9.463l-.019.28a30.159,30.159,0,0,1-1.041,6.062l-.082.293-.278-.124a24.734,24.734,0,0,0-7.805-2.043l-.238-.023Zm.412,17.941-.412.284V-8.953l.292.031a22.785,22.785,0,0,1,6.743,1.8l.243.107-.11.242A19.6,19.6,0,0,1,189.292,1.319Zm11.952-4.436A21.529,21.529,0,0,1,195.732.59l-1.041.487.727-.891a27.6,27.6,0,0,0,3.346-5.208l.133-.266.248.163a17.583,17.583,0,0,1,2.1,1.62l.215.193Zm6.562-13.217a21.023,21.023,0,0,1-3.993,10.458l-.178.242-.217-.209a20.755,20.755,0,0,0-3.152-2.5l-.167-.108.058-.19a32.566,32.566,0,0,0,1.4-7.731l.015-.247h6.264Zm.028-3.518h-6.263l-.016-.246a34.421,34.421,0,0,0-1.4-7.733l-.057-.19.166-.107a20.755,20.755,0,0,0,3.152-2.5l.217-.21.179.244a21.324,21.324,0,0,1,3.992,10.457Z" fill="#f7296e"/>
  </g>
</svg>
