<svg xmlns="http://www.w3.org/2000/svg" width="66" height="66" viewBox="0 0 66 66"><g transform="translate(0.304 0.305)"><g transform="translate(-0.304 -0.304)"><path d="M33,0A33,33,0,1,1,0,33,33,33,0,0,1,33,0Z" transform="translate(0 0)" fill="#f7296e"/></g><g transform="translate(14.443 18.503)"><path d="M101.766,145.769c14.521,0,22.462-12.033,22.462-22.462,0-.344,0-.688-.016-1.015a16.173,16.173,0,0,0,3.945-4.093,16.023,16.023,0,0,1-4.535,1.244,7.89,7.89,0,0,0,3.471-4.371,15.986,15.986,0,0,1-5.01,1.915,7.9,7.9,0,0,0-13.654,5.4,7.234,7.234,0,0,0,.213,1.8,22.4,22.4,0,0,1-16.273-8.251,7.89,7.89,0,0,0,2.456,10.527,7.755,7.755,0,0,1-3.569-.982v.1a7.9,7.9,0,0,0,6.336,7.744,7.87,7.87,0,0,1-2.079.278,7.538,7.538,0,0,1-1.49-.147,7.882,7.882,0,0,0,7.367,5.484,15.869,15.869,0,0,1-9.806,3.372A14.357,14.357,0,0,1,89.7,142.2a22,22,0,0,0,12.066,3.569" transform="translate(-89.7 -114.5)" fill="#fff"/></g></g></svg>