<svg xmlns="http://www.w3.org/2000/svg" width="76.434" height="61.934" viewBox="0 0 76.434 61.934">
  <path id="icons8-weibo-64" d="M61.129,6.3a20.111,20.111,0,0,0-5.175.4,2.947,2.947,0,0,0,1.194,5.773A14.347,14.347,0,0,1,73.869,30.983a2.927,2.927,0,0,0,5.574,1.792A20.2,20.2,0,0,0,61.129,6.3ZM34.754,15.058c-5.337.572-12.789,4.727-19.408,11.346C8.143,33.62,4,41.3,4,47.9c0,12.64,16.186,20.3,32.048,20.3,14.822,0,26.116-6.154,31.738-13.658a13.872,13.872,0,0,0,2.9-8.039c0-5.8-4.864-9.094-9.256-10.451-1.083-.324-1.854-.473-1.294-1.891,1.219-3.073,1.418-5.773.1-7.664-2.476-3.546-9.343-3.359-17.119-.1,0,0-2.414,1.144-1.792-.8,1.194-3.844.97-7.091-.9-8.958A6.661,6.661,0,0,0,34.754,15.058ZM60.632,16.65a9.844,9.844,0,0,0-2.488.2,2.634,2.634,0,0,0-1.991,3.085,2.489,2.489,0,0,0,2.986,1.891,4.993,4.993,0,0,1,4.678,1.493,4.751,4.751,0,0,1,1,4.678,2.518,2.518,0,0,0,4.777,1.592A9.955,9.955,0,0,0,60.632,16.65ZM37.74,33.471c10.575.373,19.084,5.673,19.806,12.939.821,8.311-8.746,16.074-21.4,17.318S12.485,59.2,11.664,50.888s8.846-16.074,21.5-17.318A33.351,33.351,0,0,1,37.74,33.471Zm-4.976,6.171a13.53,13.53,0,0,0-10.849,7.067c-2.662,5.412-.112,11.47,5.972,13.436,6.308,2.028,13.735-1.12,16.323-6.967,2.55-5.711-.634-11.533-6.867-13.138A13.254,13.254,0,0,0,32.764,39.641Zm2.886,6.967a1.147,1.147,0,0,1,.5.1,1.3,1.3,0,0,1,.7,1.891,1.83,1.83,0,0,1-2.19.8,1.277,1.277,0,0,1-.6-1.891A1.952,1.952,0,0,1,35.65,46.608ZM29.778,48.4a4.306,4.306,0,0,1,1.592.3,3.372,3.372,0,0,1,1.393,5.076,4.775,4.775,0,0,1-5.773,1.991A3.38,3.38,0,0,1,25.7,50.689,4.877,4.877,0,0,1,29.778,48.4Z" transform="translate(-4 -6.272)" fill="#f7296e"/>
</svg>
