<?xml version="1.0" encoding="utf-8"?>
<!-- Generator: Adobe Illustrator 16.0.3, SVG Export Plug-In . SVG Version: 6.00 Build 0)  -->
<!DOCTYPE svg PUBLIC "-//W3C//DTD SVG 1.1//EN" "http://www.w3.org/Graphics/SVG/1.1/DTD/svg11.dtd" [
	<!ENTITY ns_flows "http://ns.adobe.com/Flows/1.0/">
	<!ENTITY ns_extend "http://ns.adobe.com/Extensibility/1.0/">
	<!ENTITY ns_ai "http://ns.adobe.com/AdobeIllustrator/10.0/">
	<!ENTITY ns_graphs "http://ns.adobe.com/Graphs/1.0/">
]>
<svg version="1.1" id="Layer_1" xmlns:x="&ns_extend;" xmlns:i="&ns_ai;" xmlns:graph="&ns_graphs;"
	 xmlns="http://www.w3.org/2000/svg" xmlns:xlink="http://www.w3.org/1999/xlink" xmlns:a="http://ns.adobe.com/AdobeSVGViewerExtensions/3.0/"
	 x="0px" y="0px" width="80px" height="80px" viewBox="0 0 80 80" enable-background="new 0 0 80 80" xml:space="preserve">
<g>
	<path fill="#F7296E" d="M75.155273,25.45752c-0.103516-0.648926-0.693359-1.105469-1.347656-1.041504
		c-2.770508,0.267578-4.844727,2.664063-4.708984,5.443359l0.201172,8.251465
		c-2.230469,0.255859-4.172852,1.643066-5.138672,3.67041l-3.052734,6.407227
		c-0.466797,0.978516-1.150391,1.838867-1.994141,2.518555l-0.634766,0.508789
		c-3.202148,2.555664-5.012695,6.473633-4.883789,10.570313l-1.082031-0.517578
		c-0.619141-0.293945-1.360352-0.033203-1.654297,0.587891l-3.34668,7.024414
		c-0.293945,0.621094-0.033203,1.360352,0.586914,1.655273l15.418945,7.34375
		c0.618164,0.293945,1.360352,0.032227,1.654297-0.588867l3.34668-7.023438c0.293945-0.621094,0.030273-1.360352-0.587891-1.65625
		l-0.601563-0.287109l-0.158203-2.133789c-0.06543-0.831055,0.197266-1.65332,0.729492-2.295898l7.983398-9.661133
		c0.016602-0.020508,0.03418-0.043945,0.049805-0.06543c1.661133-2.317383,2.535156-5.104492,2.498047-7.953125
		c-0.000977-0.05957-0.006836-0.117188-0.016602-0.176758L75.155273,25.45752z M63.463867,75.102539l-13.174805-6.273438
		l2.279297-4.783203l13.173828,6.273438L63.463867,75.102539z M73.942383,52.68457l-7.955078,9.62793
		c-0.941406,1.135742-1.405273,2.591797-1.293945,4.0625l0.054688,0.72168l-8.542969-4.069336
		c-0.594727-3.739258,0.869141-7.511719,3.829102-9.874023l0.632813-0.507813
		c1.139648-0.915039,2.055664-2.073242,2.685547-3.389648l3.049805-6.407227c0.754883-1.578125,2.439453-2.493652,4.172852-2.265625
		l-4.397461,9.235352c-0.194336,0.400391-0.15918,0.874023,0.092773,1.243164c0.25293,0.365234,0.681641,0.570313,1.124023,0.53418
		c0.445313-0.035156,0.836914-0.306641,1.023438-0.708984l5.017578-10.531738
		c0.292969-0.620605,0.032227-1.362793-0.586914-1.656738c-0.341797-0.162598-0.695313-0.294434-1.058594-0.394531
		l-0.208984-8.520996c0-0.008789,0-0.021484-0.000977-0.030762c-0.052734-1.018555,0.466797-1.980957,1.344727-2.499023
		l3.025391,19.085938C75.961914,48.612305,75.260742,50.832031,73.942383,52.68457L73.942383,52.68457z"/>
	<path fill="#F7296E" d="M12.830078,66.19043l-0.161133,2.133789l-0.600586,0.287109
		c-0.619141,0.295898-0.881836,1.035156-0.585938,1.65625l3.345703,7.024414c0.294922,0.620117,1.035156,0.881836,1.655273,0.587891
		l15.416992-7.342773c0.620117-0.295898,0.880859-1.035156,0.586914-1.65625l-3.34668-7.024414
		c-0.293945-0.618164-1.035156-0.881836-1.65332-0.587891l-1.083984,0.517578
		c0.129883-4.09668-1.679688-8.014648-4.881836-10.570313l-0.635742-0.508789
		c-0.845703-0.679688-1.527344-1.540039-1.994141-2.518555l-3.051758-6.407227
		c-0.966797-2.027344-2.90918-3.414551-5.139648-3.67041l0.201172-8.251465c0.135742-2.779297-1.9375-5.175781-4.708008-5.443359
		c-0.654297-0.063965-1.245117,0.392578-1.347656,1.041504l-3.263672,20.58252
		c-0.007813,0.057617-0.013672,0.115234-0.014648,0.174805c-0.037109,2.848633,0.837891,5.635742,2.49707,7.953125
		c0.014648,0.023438,0.032227,0.044922,0.050781,0.06543l7.983398,9.661133
		C12.631836,64.537109,12.892578,65.359375,12.830078,66.19043z M29.710938,68.829102l-13.174805,6.273438l-2.27832-4.783203
		l13.174805-6.273438L29.710938,68.829102z M4.049805,46.338867L7.075195,27.25293
		c0.878906,0.518066,1.397461,1.480469,1.344727,2.499023c0,0.009277-0.001953,0.021973-0.001953,0.030762l-0.208008,8.520996
		c-0.363281,0.100098-0.717773,0.231934-1.058594,0.394531c-0.619141,0.293945-0.880859,1.036133-0.586914,1.656738
		l5.016602,10.531738c0.189453,0.402344,0.579102,0.673828,1.023438,0.708984c0.443359,0.036133,0.873047-0.168945,1.125-0.53418
		c0.250977-0.369141,0.286133-0.842773,0.092773-1.243164l-4.397461-9.235352c1.735352-0.226563,3.418945,0.6875,4.172852,2.265625
		l3.050781,6.407227c0.628906,1.316406,1.546875,2.474609,2.68457,3.389648l0.633789,0.507813
		c2.959961,2.362305,4.420898,6.134766,3.829102,9.874023l-8.543945,4.069336l0.053711-0.72168
		c0.113281-1.470703-0.350586-2.926758-1.291992-4.0625l-7.956055-9.62793
		C4.741211,50.831055,4.038086,48.612305,4.049805,46.338867z"/>
	<path fill="#F7296E" d="M23.90332,39.689941h7.249023v1.040527c0.030273,0.708984,0.606445,1.272461,1.31543,1.289063h0.417969
		l-0.026367,4.554688v0.042969c-0.008789,1.155273,0.839844,2.137695,1.984375,2.293945
		c-0.004883,0.09375-0.022461,0.186523-0.022461,0.280273c0,3.875977,2.90332,7.350586,4.788086,7.727539
		c0.079102,0.008789,0.15918,0.008789,0.236328,0.001953H40.125c0.081055,0.006836,0.163086,0.006836,0.245117-0.001953
		c1.907227-0.381836,4.850586-3.870117,4.850586-7.739258c0-0.009766,0-0.012695,0-0.022461
		c-0.000977-0.082031-0.005859-0.164063-0.008789-0.24707c1.163086-0.143555,2.032227-1.141602,2.012695-2.313477
		l-0.083008-4.577148h0.405273c0.707031-0.018555,1.277344-0.583008,1.300781-1.289063v-0.992188h7.306641
		c0.329102,0,0.640625-0.131836,0.871094-0.367188c0.230469-0.231445,0.358398-0.547852,0.355469-0.876465
		c0-4.037109-0.685547-7.303223-2.078125-9.982422c-1.426758-2.73877-3.564453-4.81543-6.511719-6.33252
		c-0.029297-6.057617-2.000977-11.945801-5.625-16.799805L41.00293,2.497559C40.768555,2.18457,40.400391,2,40.008789,2
		c-0.390625,0-0.759766,0.18457-0.996094,0.497559l-2.161133,2.882324c-3.605469,4.830078-5.576172,10.685547-5.62207,16.713379
		c-5.839844,2.918945-8.567383,8.156738-8.567383,16.401367c0,0.322266,0.131836,0.630859,0.364258,0.854492
		C23.261719,39.574707,23.578125,39.697266,23.90332,39.689941z M39.984375,54.456055
		c-0.790039-0.432617-2.692383-2.600586-2.692383-5.228516c-0.003906-0.073242,0-0.148438,0.006836-0.222656h5.427734
		c0.006836,0,0.008789,0.144531,0.010742,0.235352C42.729492,51.975586,40.693359,54.051758,39.984375,54.456055z
		 M44.737305,46.519531h-9.449219l0.082031-4.5h9.288086L44.737305,46.519531z M54.917969,37.253418h-6.070313V25.03418
		C52.729492,27.5,54.688477,31.367188,54.917969,37.253418z M38.800781,6.870605l1.1875-1.557617l1.208984,1.557617
		c3.330078,4.44043,5.141602,9.835449,5.167969,15.387207v17.276855H33.635742V23.022461
		c0.155273-0.101074,0.155273-0.203613,0-0.307129v-0.45752C33.660156,16.706055,35.473633,11.311035,38.800781,6.870605z
		 M31.152344,24.931641v12.274414h-5.983398C25.393555,31.308105,27.271484,27.345215,31.152344,24.931641z"/>
	<path fill="#F7296E" d="M40.013672,30.220215h0.000977c2.78418,0,5.041016-2.257324,5.039063-5.040527
		c0-2.783691-2.254883-5.039551-5.039063-5.039551s-5.041016,2.255859-5.041016,5.039551
		C34.973633,27.962891,37.229492,30.220215,40.013672,30.220215z M40.013672,22.65918
		c1.412109,0,2.555664,1.14502,2.555664,2.555176c0,1.411621-1.143555,2.556641-2.555664,2.556641
		c-1.411133,0-2.555664-1.14502-2.555664-2.556641C37.459961,23.804199,38.603516,22.660156,40.013672,22.65918z"/>
</g>
</svg>
