<?xml version="1.0" encoding="utf-8"?>
<!-- Generator: Adobe Illustrator 16.0.3, SVG Export Plug-In . SVG Version: 6.00 Build 0)  -->
<!DOCTYPE svg PUBLIC "-//W3C//DTD SVG 1.1//EN" "http://www.w3.org/Graphics/SVG/1.1/DTD/svg11.dtd" [
	<!ENTITY ns_flows "http://ns.adobe.com/Flows/1.0/">
	<!ENTITY ns_extend "http://ns.adobe.com/Extensibility/1.0/">
	<!ENTITY ns_ai "http://ns.adobe.com/AdobeIllustrator/10.0/">
	<!ENTITY ns_graphs "http://ns.adobe.com/Graphs/1.0/">
]>
<svg version="1.1" id="Layer_1" xmlns:x="&ns_extend;" xmlns:i="&ns_ai;" xmlns:graph="&ns_graphs;"
	 xmlns="http://www.w3.org/2000/svg" xmlns:xlink="http://www.w3.org/1999/xlink" xmlns:a="http://ns.adobe.com/AdobeSVGViewerExtensions/3.0/"
	 x="0px" y="0px" width="80px" height="80px" viewBox="0 0 80 80" enable-background="new 0 0 80 80" xml:space="preserve">
<g>
	<path fill="#F7296E" d="M65.087891,29.411133c0.228516,0.131836,0.486328,0.198242,0.742188,0.198242
		c0.253906,0,0.509766-0.066406,0.740234-0.198242l10.685547-6.160156C77.716797,22.98584,78,22.494141,78,21.964355V9.644043
		c0-0.530273-0.283203-1.020996-0.744141-1.286133L66.570313,2.197754c-0.458984-0.263672-1.023438-0.263672-1.482422,0
		l-10.6875,6.160156C53.941406,8.623047,53.65625,9.11377,53.65625,9.644043v12.320313
		c0,0.529785,0.285156,1.021484,0.744141,1.286621l0.158203,0.090332l-5.947266,5.949219v-2.077148
		c0-4.74707-3.863281-8.609375-8.611328-8.609375c-4.746582,0-8.608887,3.862305-8.608887,8.609375v2.078613l-5.949219-5.950684
		l0.158691-0.090332c0.458984-0.265137,0.743652-0.756836,0.743652-1.286621V9.644043
		c0-0.530273-0.284668-1.020996-0.743652-1.286133l-10.6875-6.160156c-0.458008-0.263672-1.023926-0.263672-1.481445,0
		L2.743652,8.35791C2.28418,8.623047,2,9.11377,2,9.644043v12.320313c0,0.529785,0.28418,1.021484,0.743652,1.286621
		l10.687988,6.160156c0.228516,0.131836,0.484863,0.198242,0.740723,0.198242s0.51123-0.066406,0.740723-0.198242l7.866211-4.53418
		l6.045898,6.047363c-1.309082,0.808105-2.18457,2.255371-2.18457,3.90332v14.510254
		c0,0.572266,0.106445,1.119141,0.298828,1.626953l-4.662109,4.658203l-7.38623-4.091797
		c-0.446289-0.246094-0.991699-0.246094-1.437988,0l-10.6875,5.921875C2.292969,57.714844,2,58.212891,2,58.753906v11.841797
		c0,0.539063,0.292969,1.037109,0.765625,1.296875l10.6875,5.923828C13.676758,77.939453,13.92334,78,14.172363,78
		c0.248047,0,0.495117-0.060547,0.71875-0.183594l10.687988-5.923828c0.472168-0.259766,0.765137-0.757813,0.765137-1.296875
		V58.753906c0-0.541016-0.292969-1.039063-0.765137-1.300781l-0.600098-0.332031l3.865723-3.865234
		c0.694824,0.421875,1.508301,0.667969,2.379883,0.667969h2.096191c0.820313,0,1.484375-0.666016,1.484375-1.486328
		c0-0.818359-0.664063-1.482422-1.484375-1.482422h-2.096191c-0.890625,0-1.614746-0.726563-1.614746-1.617188V34.827637
		c0-0.890625,0.724121-1.614746,1.614746-1.614746h17.552734c0.890625,0,1.613281,0.724121,1.613281,1.614746v14.510254
		c0,0.890625-0.722656,1.617188-1.613281,1.617188h-2.097656c-0.820313,0-1.484375,0.664063-1.484375,1.482422
		c0,0.820313,0.664063,1.486328,1.484375,1.486328h2.097656c0.871094,0,1.683594-0.246094,2.378906-0.667969l3.865234,3.865234
		l-0.599609,0.332031c-0.472656,0.261719-0.765625,0.759766-0.765625,1.300781v11.841797
		c0,0.539063,0.292969,1.037109,0.765625,1.296875l10.6875,5.923828C65.332031,77.939453,65.580078,78,65.830078,78
		c0.246094,0,0.494141-0.060547,0.71875-0.183594l10.6875-5.923828C77.707031,71.632813,78,71.134766,78,70.595703V58.753906
		c0-0.541016-0.292969-1.039063-0.763672-1.300781l-10.6875-5.921875c-0.447266-0.246094-0.994141-0.246094-1.439453,0
		l-7.386719,4.091797L53.0625,50.964844c0.191406-0.507813,0.296875-1.054688,0.296875-1.626953V34.827637
		c0-1.647949-0.875-3.095215-2.183594-3.90332l6.046875-6.047363L65.087891,29.411133z M15.65625,16.662109l7.719238-4.448242
		v8.893066l-7.719238,4.449707V16.662109z M14.172363,5.197754l7.714355,4.446289l-7.714355,4.447266L6.457031,9.644043
		L14.172363,5.197754z M4.96875,12.213379l7.719238,4.44873v8.893066L4.96875,21.106934V12.213379z M14.172363,54.527344
		l7.625,4.226563l-7.625,4.222656l-7.625977-4.222656L14.172363,54.527344z M4.96875,61.271484l7.719238,4.277344v8.447266
		L4.96875,69.71875V61.271484z M15.65625,73.996094v-8.447266l7.719238-4.277344v8.447266L15.65625,73.996094z M56.625,61.271484
		l7.71875,4.277344v8.447266L56.625,69.71875V61.271484z M67.3125,73.996094v-8.447266l7.720703-4.277344v8.447266
		L67.3125,73.996094z M65.830078,54.527344l7.623047,4.226563l-7.623047,4.222656l-7.626953-4.222656L65.830078,54.527344z
		 M40,21.573242c3.111328,0,5.640625,2.530762,5.640625,5.640137v3.030762H34.359863v-3.030762
		C34.359863,24.104004,36.890137,21.573242,40,21.573242z M64.34375,16.662109v8.894531L56.625,21.106934v-8.893555
		L64.34375,16.662109z M67.3125,25.556641v-8.894531l7.720703-4.448242v8.893066L67.3125,25.556641z M65.830078,5.197754
		l7.712891,4.446289l-7.712891,4.447266l-7.716797-4.447266L65.830078,5.197754z"/>
	<path fill="#F7296E" d="M41.484375,38.784668v-1.162109c0-0.820313-0.664063-1.484863-1.484375-1.484863
		s-1.483887,0.664551-1.483887,1.484863v1.162109c-1.727539,0.612305-2.96875,2.262207-2.96875,4.197754
		c0,2.455078,1.99707,4.453125,4.452637,4.453125c2.455078,0,4.453125-1.998047,4.453125-4.453125
		C44.453125,41.046875,43.212891,39.396973,41.484375,38.784668z M40,44.466797c-0.818359,0-1.483887-0.666016-1.483887-1.484375
		S39.181641,41.498047,40,41.498047s1.484375,0.666016,1.484375,1.484375S40.818359,44.466797,40,44.466797z"/>
	<path fill="#F7296E" d="M40,50.947266c-0.389648,0-0.771484,0.158203-1.048828,0.433594
		c-0.276855,0.277344-0.435059,0.660156-0.435059,1.050781c0,0.388672,0.158203,0.773438,0.435059,1.050781
		c0.277344,0.275391,0.65918,0.433594,1.048828,0.433594c0.390625,0,0.773438-0.158203,1.050781-0.433594
		c0.275391-0.277344,0.433594-0.660156,0.433594-1.050781s-0.158203-0.773438-0.433594-1.050781
		C40.773438,51.105469,40.390625,50.947266,40,50.947266z"/>
</g>
</svg>
