<?xml version="1.0" encoding="utf-8"?>
<!-- Generator: Adobe Illustrator 16.0.3, SVG Export Plug-In . SVG Version: 6.00 Build 0)  -->
<!DOCTYPE svg PUBLIC "-//W3C//DTD SVG 1.1//EN" "http://www.w3.org/Graphics/SVG/1.1/DTD/svg11.dtd">
<svg version="1.1" id="Layer_1" xmlns="http://www.w3.org/2000/svg" xmlns:xlink="http://www.w3.org/1999/xlink" x="0px" y="0px"
	 width="80px" height="80px" viewBox="0 0 80 80" enable-background="new 0 0 80 80" xml:space="preserve">
<g>
	<path fill="#F7296E" d="M77.861328,64.092773l-2.853516-6.881836c-0.387695-0.93457-1.458008-1.376953-2.393555-0.991211
		c-0.932617,0.387695-1.375977,1.458008-0.989258,2.393555l1.161133,2.798828l-6.188477-2.560547V31.563965
		c0-0.769531-0.480469-1.457031-1.203125-1.720703l-23.5625-8.583496v-5.996094l2.141602,2.142578
		c0.357422,0.35791,0.827148,0.536621,1.294922,0.536621c0.46875,0,0.9375-0.179199,1.294922-0.536621
		c0.714844-0.714844,0.714844-1.874023,0-2.588867l-5.268555-5.268066c-0.714844-0.715332-1.874512-0.715332-2.589844,0
		l-5.268555,5.268066c-0.714844,0.714844-0.714844,1.874023,0,2.588867s1.874512,0.715332,2.589844,0l2.142578-2.142578v5.996094
		l-23.5625,8.583984c-0.723145,0.263184-1.204102,0.950684-1.204102,1.720215v27.287598l-6.1875,2.560547L8.375,58.613281
		c0.387695-0.93457-0.055664-2.005859-0.989258-2.393555c-0.935547-0.386719-2.005859,0.056641-2.393066,0.991211
		l-2.853027,6.881836c-0.186523,0.448242-0.186523,0.953125-0.000488,1.401367
		c0.185547,0.448242,0.54248,0.805664,0.990723,0.991211l6.882813,2.852539c0.229004,0.094727,0.466797,0.140625,0.700195,0.140625
		c0.718262,0,1.399902-0.425781,1.691895-1.130859c0.387207-0.933594-0.056152-2.004883-0.990723-2.392578l-2.798828-1.160156
		l6.583496-2.724609l24.174316,8.806641c0,0,0.344727,0.110352,0.628906,0.110352c0.285156,0,0.625-0.110352,0.625-0.110352
		l24.174805-8.806641l6.583008,2.724609l-2.798828,1.160156c-0.93457,0.387695-1.37793,1.458008-0.991211,2.392578
		c0.292969,0.705078,0.974609,1.130859,1.692383,1.130859c0.233398,0,0.470703-0.045898,0.700195-0.140625l6.882813-2.852539
		c0.448242-0.185547,0.805664-0.542969,0.991211-0.991211C78.046875,65.044922,78.046875,64.541016,77.861328,64.092773z
		 M38.168945,66.541992l-17.962402-6.542969l17.962402-7.28418V66.541992z M38.168945,48.766602l-21.10498,8.518555V34.386719
		l21.10498,8.517578V48.766602z M38.168945,38.956055l-17.969238-7.25293l17.969238-6.546387V38.956055z M41.832031,25.156738
		l17.96875,6.546387l-17.96875,7.25293V25.156738z M41.832031,66.541992V52.714844l17.960938,7.28418L41.832031,66.541992z
		 M62.936523,57.285156l-21.104492-8.518555v-5.862305l21.104492-8.517578V57.285156L62.936523,57.285156L62.936523,57.285156z"/>
</g>
</svg>
