<?xml version="1.0" encoding="utf-8"?>
<!-- Generator: Adobe Illustrator 16.0.3, SVG Export Plug-In . SVG Version: 6.00 Build 0)  -->
<!DOCTYPE svg PUBLIC "-//W3C//DTD SVG 1.1//EN" "http://www.w3.org/Graphics/SVG/1.1/DTD/svg11.dtd">
<svg version="1.1" id="Layer_1" xmlns="http://www.w3.org/2000/svg" xmlns:xlink="http://www.w3.org/1999/xlink" x="0px" y="0px"
	 width="80px" height="80px" viewBox="0 0 80 80" enable-background="new 0 0 80 80" xml:space="preserve">
<path fill="#F7296E" d="M74.717,48.526c0.741,0,1.343-0.602,1.343-1.343l0.021-6.96c0-0.477-0.258-0.923-0.672-1.163l-16.727-9.657
	l0.04-16.507l7.132-4.26l-1.009,3.993l2.497,0.628l2.053-8.134l0.029-0.121l-8.136-2.048l-0.12-0.03l-0.629,2.496l3.992,1.006
	l-7.274,4.344l-16.62-9.596c-0.399-0.231-0.945-0.23-1.348,0.002L22.011,11.217c-0.404,0.201-0.689,0.683-0.69,1.171L21.277,29.39
	L4.655,39.051c-0.406,0.202-0.689,0.683-0.691,1.171L3.92,58c-0.001,0.478,0.255,0.929,0.672,1.171l15.547,8.976l-8.606,5.143
	l1.007-3.993l-2.497-0.627l-2.049,8.132l-0.031,0.12l8.134,2.05L16.216,79l0.629-2.497l-3.993-1.006l11.107-6.629l7.4-4.302
	c0.311-0.18,0.533-0.471,0.625-0.816c0.094-0.351,0.044-0.711-0.138-1.022c-0.239-0.414-0.686-0.671-1.163-0.671
	c-0.237,0-0.472,0.063-0.676,0.184l-5.979,3.474l0.038-14.659L38.67,42.57l-0.038,14.659l-4.171,2.423
	c-0.311,0.183-0.534,0.473-0.625,0.821c-0.092,0.348-0.043,0.708,0.138,1.018c0.238,0.414,0.686,0.672,1.164,0.672
	c0.236,0,0.471-0.063,0.676-0.183l4.166-2.423l16.718,9.653c0.059,0.039,0.118,0.071,0.151,0.085l10.391,6.203l-3.991,1.006
	L63.874,79l8.254-2.079l-2.079-8.252l-2.496,0.627l1.006,3.993l-4.67-2.789l0.002-0.002l-3.956-2.363l15.433-8.966
	c0.412-0.24,0.669-0.686,0.669-1.161l0.016-5.997c0-0.739-0.604-1.346-1.346-1.348c-0.738,0-1.342,0.603-1.346,1.344l-0.014,5.221
	l-14.602,8.486l0.035-14.659l14.605-8.486l-0.014,4.611C73.372,47.921,73.975,48.526,74.717,48.526z M37.338,40.229l-14.616,8.493
	L7.995,40.221l14.616-8.496L37.338,40.229z M6.612,57.228L6.65,42.553l14.726,8.5l-0.037,14.675L6.612,57.228z M38.732,23.22
	l-0.039,14.675l-14.726-8.502l0.039-14.674L38.732,23.22z M72.052,40.229l-14.619,8.493l-14.722-8.5l14.617-8.496L72.052,40.229z
	 M56.088,51.053l-0.037,14.675l-14.727-8.5l0.037-14.675L56.088,51.053z M49.802,15.216l-2.847,1.677
	c-0.64,0.374-0.859,1.199-0.489,1.84c0.24,0.413,0.687,0.669,1.167,0.669c0.236,0,0.468-0.063,0.674-0.181l7.722-4.488L55.991,29.39
	l-14.604,8.487l0.037-14.656l2.63-1.528c0.31-0.18,0.532-0.47,0.623-0.816c0.093-0.349,0.044-0.711-0.137-1.022
	c-0.241-0.414-0.686-0.671-1.166-0.671c-0.236,0-0.47,0.063-0.674,0.184l-2.622,1.523l-14.728-8.501l14.617-8.495l14.645,8.456
	L49.802,15.216z"/>
</svg>
