<?xml version="1.0" encoding="utf-8"?>
<!-- Generator: Adobe Illustrator 16.0.3, SVG Export Plug-In . SVG Version: 6.00 Build 0)  -->
<!DOCTYPE svg PUBLIC "-//W3C//DTD SVG 1.1//EN" "http://www.w3.org/Graphics/SVG/1.1/DTD/svg11.dtd" [
	<!ENTITY ns_flows "http://ns.adobe.com/Flows/1.0/">
	<!ENTITY ns_extend "http://ns.adobe.com/Extensibility/1.0/">
	<!ENTITY ns_ai "http://ns.adobe.com/AdobeIllustrator/10.0/">
	<!ENTITY ns_graphs "http://ns.adobe.com/Graphs/1.0/">
]>
<svg version="1.1" id="Layer_1" xmlns:x="&ns_extend;" xmlns:i="&ns_ai;" xmlns:graph="&ns_graphs;"
	 xmlns="http://www.w3.org/2000/svg" xmlns:xlink="http://www.w3.org/1999/xlink" xmlns:a="http://ns.adobe.com/AdobeSVGViewerExtensions/3.0/"
	 x="0px" y="0px" width="80px" height="80px" viewBox="0 0 80 80" enable-background="new 0 0 80 80" xml:space="preserve">
<g>
	<path fill="#F7296E" d="M77.4375,34.839355c-0.174805-0.172363-4.426758-4.216797-14.953125-4.216797
		c-10.52832,0-14.775391,4.044434-14.951172,4.216797c-0.361328,0.353027-0.567383,0.856934-0.567383,1.383789v33.60791
		c0,0.52832,0.206055,1.030273,0.567383,1.383789c0.172852,0.172852,4.422852,4.217773,14.951172,4.217773
		c10.526367,0,14.77832-4.049805,14.953125-4.217773c0.361328-0.353516,0.567383-0.855469,0.5625-1.383789v-33.60791
		C78.004883,35.694824,77.798828,35.192383,77.4375,34.839355z M52.87793,35.94043
		c0.03125-0.016113,0.060547-0.027832,0.09375-0.039063c0.359375-0.138672,0.760742-0.275879,1.1875-0.410156
		c0.112305-0.035156,0.239258-0.072266,0.356445-0.103516c0.358398-0.104004,0.743164-0.205078,1.150391-0.300293
		c0.123047-0.029785,0.236328-0.05957,0.364258-0.088379c0.523438-0.11377,1.082031-0.213867,1.676758-0.306152
		c0.125-0.01709,0.258789-0.030273,0.383789-0.046875c0.501953-0.069336,1.030273-0.123535,1.582031-0.170898
		c0.186523-0.016602,0.37793-0.029785,0.576172-0.04248c0.706055-0.044434,1.4375-0.077148,2.226563-0.077148
		c0.788086,0,1.519531,0.03125,2.225586,0.077148c0.196289,0.012695,0.385742,0.027344,0.566406,0.04248
		c0.551758,0.045898,1.078125,0.101563,1.586914,0.168457c0.123047,0.018066,0.255859,0.029785,0.375977,0.049316
		c0.597656,0.09082,1.15918,0.192383,1.683594,0.305176c0.119141,0.026855,0.233398,0.055176,0.352539,0.083008
		c0.40918,0.097656,0.799805,0.198242,1.161133,0.304199c0.114258,0.033691,0.236328,0.069336,0.347656,0.102051
		c0.430664,0.134277,0.836914,0.269043,1.198242,0.408691l0.061523,0.025879c0.259766,0.104492,0.487305,0.20752,0.708984,0.30957
		l0,0c-3.28125,1.338379-6.770508,1.972168-10.274414,1.86377c-3.505859,0.108398-6.995117-0.523926-10.273438-1.864746
		C52.413086,36.135254,52.626953,36.037109,52.87793,35.94043z M50.405273,39.449219
		c3.826172,1.695313,7.938477,2.503906,12.070313,2.373047c4.131836,0.130859,8.244141-0.677734,12.071289-2.373047
		l-0.00293,0.005859v7.006836l-0.014648,0.006836c-0.163086,0.107422-0.361328,0.233398-0.600586,0.370117
		c-0.21875,0.12207-0.484375,0.260742-0.770508,0.398438l-0.114258,0.058594
		c-0.296875,0.140625-0.624023,0.283203-0.988281,0.426758l-0.169922,0.063477
		c-0.339844,0.125977-0.701172,0.253906-1.09668,0.375977c-0.069336,0.020508-0.135742,0.041992-0.205078,0.06543
		c-0.436523,0.128906-0.904297,0.253906-1.416016,0.367188l-0.338867,0.070313
		c-0.483398,0.103516-0.994141,0.200195-1.542969,0.28125c-0.069336,0.010742-0.12793,0.024414-0.197266,0.033203
		c-0.592773,0.083008-1.237305,0.148438-1.905273,0.204102l-0.480469,0.029297
		c-0.704102,0.044922-1.43457,0.078125-2.21875,0.078125s-1.518555-0.032227-2.223633-0.075195
		c-0.15918-0.013672-0.326172-0.022461-0.480469-0.032227c-0.667969-0.053711-1.306641-0.124023-1.902344-0.201172
		c-0.072266-0.013672-0.140625-0.026367-0.207031-0.035156c-0.541992-0.082031-1.044922-0.174805-1.526367-0.276367
		c-0.114258-0.026367-0.236328-0.049805-0.347656-0.078125c-0.50293-0.111328-0.970703-0.234375-1.404297-0.367188
		c-0.080078-0.027344-0.158203-0.052734-0.239258-0.075195c-0.366211-0.116211-0.713867-0.233398-1.037109-0.355469
		l-0.224609-0.083008c-0.347656-0.134766-0.662109-0.275391-0.948242-0.40625l-0.192383-0.091797
		c-0.238281-0.12207-0.453125-0.230469-0.650391-0.338867c-0.033203-0.018555-0.075195-0.036133-0.114258-0.058594
		c-0.205078-0.12207-0.382813-0.229492-0.533203-0.328125l-0.047852-0.030273V39.449219z M74.556641,50.660156v7.00293
		l-0.041992,0.030273c-0.154297,0.098633-0.332031,0.208984-0.544922,0.332031l-0.085938,0.047852
		c-0.194336,0.106445-0.422852,0.226563-0.666992,0.345703c-0.061523,0.029297-0.120117,0.058594-0.183594,0.088867
		c-0.286133,0.136719-0.607422,0.274414-0.954102,0.410156l-0.213867,0.079102
		c-0.319336,0.123047-0.664063,0.239258-1.037109,0.356445c-0.082031,0.026367-0.161133,0.052734-0.246094,0.078125
		c-0.430664,0.129883-0.90332,0.253906-1.399414,0.368164c-0.114258,0.026367-0.228516,0.048828-0.347656,0.073242
		c-0.475586,0.103516-0.981445,0.195313-1.518555,0.27832c-0.075195,0.009766-0.144531,0.025391-0.216797,0.036133
		c-0.594727,0.082031-1.237305,0.148438-1.904297,0.201172c-0.15918,0.011719-0.323242,0.024414-0.484375,0.032227
		c-0.706055,0.045898-1.43457,0.078125-2.22168,0.078125c-0.786133,0-1.517578-0.030273-2.222656-0.075195
		c-0.160156-0.008789-0.322266-0.022461-0.478516-0.032227c-0.669922-0.053711-1.30957-0.123047-1.904297-0.204102
		c-0.072266-0.010742-0.140625-0.023438-0.207031-0.032227c-0.541992-0.084961-1.046875-0.176758-1.52832-0.279297
		c-0.113281-0.023438-0.236328-0.046875-0.349609-0.073242c-0.5-0.114258-0.972656-0.238281-1.400391-0.369141
		c-0.084961-0.024414-0.158203-0.049805-0.239258-0.074219c-0.374023-0.117188-0.71875-0.236328-1.035156-0.356445
		c-0.077148-0.027344-0.15332-0.055664-0.228516-0.083008c-0.350586-0.137695-0.662109-0.275391-0.948242-0.407227
		l-0.193359-0.09082c-0.234375-0.118164-0.451172-0.229492-0.646484-0.335938
		c-0.036133-0.021484-0.076172-0.041992-0.116211-0.058594c-0.207031-0.124023-0.385742-0.231445-0.537109-0.331055
		l-0.043945-0.030273l-0.00293-0.001953v-7.00293c0.072266,0.03125,0.154297,0.067383,0.224609,0.100586
		c0.200195,0.091797,0.399414,0.18457,0.62207,0.27832c0.12207,0.048828,0.25293,0.102539,0.380859,0.149414
		c0.207031,0.084961,0.427734,0.169922,0.65918,0.251953c0.147461,0.054688,0.302734,0.105469,0.458008,0.157227
		c0.234375,0.078125,0.472656,0.15332,0.723633,0.227539c0.171875,0.053711,0.349609,0.101563,0.53125,0.152344
		c0.257813,0.070313,0.522461,0.139648,0.794922,0.204102c0.194336,0.046875,0.394531,0.092773,0.597656,0.137695
		c0.286133,0.060547,0.583984,0.12207,0.889648,0.171875c0.213867,0.041016,0.425781,0.081055,0.650391,0.116211
		c0.325195,0.049805,0.667969,0.09375,1.012695,0.138672c0.227539,0.027344,0.444336,0.058594,0.680664,0.083008
		c0.392578,0.041016,0.806641,0.072266,1.220703,0.098633c0.211914,0.015625,0.40918,0.035156,0.624023,0.044922
		c0.641602,0.032227,1.304688,0.052734,2.003906,0.052734c0.695313,0,1.359375-0.020508,2.001953-0.052734
		c0.213867-0.009766,0.414063-0.029297,0.624023-0.044922c0.414063-0.029297,0.828125-0.057617,1.216797-0.098633
		c0.236328-0.024414,0.456055-0.055664,0.682617-0.083008c0.345703-0.044922,0.68457-0.088867,1.020508-0.138672
		c0.227539-0.035156,0.4375-0.075195,0.650391-0.116211c0.305664-0.052734,0.603516-0.111328,0.889648-0.171875
		c0.204102-0.044922,0.400391-0.09082,0.597656-0.137695c0.271484-0.066406,0.539063-0.133789,0.793945-0.204102
		c0.180664-0.050781,0.361328-0.098633,0.53418-0.152344c0.25-0.074219,0.489258-0.148438,0.722656-0.227539
		c0.155273-0.051758,0.311523-0.102539,0.458984-0.157227c0.223633-0.082031,0.451172-0.166992,0.661133-0.251953
		c0.125-0.049805,0.255859-0.100586,0.375977-0.149414c0.22168-0.09375,0.424805-0.186523,0.62207-0.27832
		C74.404297,50.726563,74.487305,50.692383,74.556641,50.660156z M74.5625,68.868164
		c-1.323242,0.878906-5.049805,2.828125-12.070313,2.828125c-7.023438,0-10.732422-1.941406-12.069336-2.828125l-0.015625-7.006836
		c0.069336,0.033203,0.154297,0.068359,0.224609,0.100586c0.200195,0.09375,0.399414,0.185547,0.62207,0.277344
		c0.119141,0.051758,0.25293,0.100586,0.380859,0.150391c0.207031,0.084961,0.427734,0.169922,0.65918,0.255859
		c0.147461,0.049805,0.302734,0.102539,0.458008,0.15332c0.234375,0.080078,0.472656,0.154297,0.723633,0.230469
		c0.171875,0.052734,0.349609,0.099609,0.53125,0.151367c0.257813,0.069336,0.522461,0.136719,0.794922,0.204102
		c0.194336,0.045898,0.394531,0.091797,0.597656,0.137695c0.286133,0.061523,0.583984,0.12207,0.889648,0.170898
		c0.213867,0.039063,0.425781,0.081055,0.650391,0.117188c0.325195,0.049805,0.670898,0.094727,1.017578,0.138672
		c0.228516,0.02832,0.446289,0.05957,0.682617,0.083984c0.390625,0.042969,0.805664,0.072266,1.219727,0.099609
		c0.208008,0.013672,0.408203,0.033203,0.624023,0.045898c0.640625,0.032227,1.306641,0.051758,2.000977,0.051758
		c0.697266,0,1.362305-0.019531,2.004883-0.051758c0.213867-0.012695,0.414063-0.029297,0.624023-0.045898
		c0.414063-0.030273,0.828125-0.056641,1.21875-0.099609c0.233398-0.025391,0.453125-0.055664,0.682617-0.083984
		c0.334961-0.042969,0.685547-0.088867,1.017578-0.138672c0.225586-0.035156,0.438477-0.078125,0.650391-0.117188
		c0.304688-0.052734,0.602539-0.109375,0.890625-0.170898c0.204102-0.045898,0.400391-0.091797,0.597656-0.137695
		c0.272461-0.067383,0.538086-0.134766,0.793945-0.204102c0.183594-0.051758,0.358398-0.098633,0.533203-0.151367
		c0.250977-0.076172,0.489258-0.150391,0.723633-0.230469c0.152344-0.050781,0.310547-0.103516,0.458008-0.15332
		c0.228516-0.085938,0.452148-0.167969,0.65918-0.255859c0.12793-0.049805,0.258789-0.098633,0.380859-0.150391
		c0.219727-0.088867,0.419922-0.181641,0.617188-0.277344c0.075195-0.032227,0.15918-0.070313,0.228516-0.100586v7.006836H74.5625z"
		/>
	<g>
		<path fill="#F7296E" d="M48.356445,19.1875L2,65.542969l0.03418,4.990234l7.24707-7.24707v8.064453
			c0,0.488281,0.206543,0.953125,0.567383,1.276367c0.175781,0.160156,4.421387,3.892578,14.945801,3.892578
			c10.521973,0,14.768555-3.732422,14.943359-3.892578c0.362305-0.325195,0.567871-0.789063,0.56543-1.276367V32.263184
			l8.085449-8.086426L48.356445,19.1875z M36.885254,70.470703c-1.348145,0.822266-5.103516,2.631836-12.09082,2.631836
			c-6.989746,0-10.745117-1.808594-12.093262-2.631836V59.868164l24.184082-24.184082V70.470703z"/>
		<path fill="#F7296E" d="M12.773438,49.168945l-0.046387-0.03125v-6.462891c0.070801,0.030273,0.153809,0.0625,0.227539,0.094727
			c0.199219,0.084961,0.400391,0.168945,0.620605,0.255859c0.123535,0.046875,0.246094,0.091797,0.378906,0.139648
			c0.211914,0.078125,0.429199,0.154297,0.661621,0.234375c0.147949,0.045898,0.305176,0.092773,0.459961,0.144531
			c0.230957,0.069336,0.47168,0.141602,0.720215,0.208008c0.172363,0.048828,0.352051,0.09375,0.53125,0.140625
			c0.259277,0.06543,0.522461,0.124023,0.797363,0.1875c0.195801,0.041992,0.392578,0.085938,0.597656,0.124023l0.09375,0.017578
			l3.022461-3.024414c-0.21875-0.024414-0.441406-0.047852-0.649414-0.075195
			c-0.070801-0.008789-0.134766-0.019531-0.206055-0.03125c-0.539551-0.074219-1.047852-0.161133-1.525879-0.256836
			c-0.124023-0.022461-0.237793-0.042969-0.350586-0.071289c-0.500977-0.102539-0.970703-0.216797-1.400391-0.333008
			c-0.083008-0.023438-0.158691-0.047852-0.245605-0.072266c-0.371094-0.105469-0.717285-0.213867-1.035645-0.328125
			c-0.074219-0.025391-0.151367-0.048828-0.223633-0.075195c-0.346191-0.125-0.662109-0.255859-0.945313-0.375l-0.191895-0.089844
			c-0.237793-0.104004-0.458984-0.209473-0.647949-0.308105l-0.111328-0.055176
			c-0.208008-0.109863-0.384277-0.211914-0.536621-0.304199l-0.047363-0.028809v-6.464355
			c0.073242,0.029785,0.152832,0.061035,0.228027,0.09082c0.199707,0.086914,0.401855,0.172363,0.62207,0.259277
			c0.122559,0.043945,0.246094,0.091309,0.377441,0.137695c0.212402,0.080078,0.429688,0.155273,0.662109,0.232422
			c0.147949,0.049805,0.30127,0.09668,0.458496,0.146484c0.23291,0.072266,0.470703,0.142578,0.72168,0.209473
			c0.173828,0.046875,0.350098,0.09375,0.532227,0.142578c0.259277,0.063477,0.521973,0.126465,0.795898,0.186035
			c0.197754,0.043945,0.394531,0.086914,0.599121,0.122559c0.284668,0.055176,0.58252,0.109863,0.887207,0.161133
			c0.216309,0.035156,0.428223,0.07373,0.650391,0.102051c0.326172,0.050293,0.668945,0.091309,1.013672,0.125
			c0.224609,0.025879,0.444336,0.054199,0.677734,0.076172c0.390137,0.039551,0.802734,0.066406,1.21875,0.09375
			c0.208984,0.013672,0.408691,0.029785,0.623535,0.041016c0.641602,0.029785,1.303711,0.047363,1.999512,0.047363
			c0.695313,0,1.358398-0.017578,2.001953-0.047363c0.213379-0.008301,0.413086-0.028809,0.621094-0.041016l0.206055-0.01416
			l4.024414-4.025879l-0.163574,0.035156c-0.111328,0.025879-0.228027,0.047363-0.346191,0.069824
			c-0.476563,0.09375-0.981934,0.181152-1.517578,0.256348c-0.075684,0.009766-0.14502,0.022949-0.21875,0.032715
			c-0.592285,0.075684-1.233398,0.136719-1.900391,0.186035l-0.48584,0.030273
			c-0.705078,0.041504-1.433594,0.069824-2.222168,0.069824c-0.785645,0-1.513672-0.02832-2.218262-0.069824l-0.482422-0.030273
			c-0.668945-0.049316-1.30957-0.107422-1.90332-0.186035l-0.206543-0.03125c-0.540527-0.07373-1.047363-0.162109-1.525879-0.256348
			c-0.124023-0.023926-0.236328-0.04541-0.351563-0.071289c-0.500977-0.102051-0.969727-0.21582-1.399414-0.335449
			c-0.083984-0.022949-0.159668-0.047363-0.245117-0.070313c-0.371094-0.109375-0.717285-0.217773-1.036621-0.330078
			c-0.075195-0.024414-0.150879-0.050293-0.223145-0.075195c-0.347656-0.122559-0.662109-0.253906-0.946777-0.375977
			c-0.067871-0.028809-0.12207-0.057129-0.190918-0.086914c-0.237793-0.105469-0.458008-0.210449-0.649902-0.308594
			l-0.109863-0.055664c-0.206543-0.111328-0.384277-0.211914-0.53418-0.303223L12.713867,28.4375v-6.464844
			c0.071777,0.030762,0.154785,0.064941,0.228027,0.094727c0.199707,0.085449,0.400879,0.170898,0.62207,0.255859
			c0.123535,0.046875,0.244629,0.094238,0.378906,0.138184c0.211914,0.080078,0.429688,0.15625,0.661621,0.231934
			c0.147949,0.049316,0.303223,0.098145,0.459473,0.148438c0.230957,0.070801,0.471191,0.14209,0.720703,0.210449
			c0.172852,0.048828,0.350586,0.092285,0.532715,0.138184c0.257324,0.06543,0.520508,0.12793,0.79541,0.189453
			c0.196289,0.041992,0.391602,0.085449,0.59668,0.120605c0.287109,0.057129,0.585938,0.108398,0.890137,0.15918
			c0.21582,0.037598,0.426758,0.074707,0.648438,0.105957c0.328125,0.04834,0.670898,0.087891,1.01416,0.123535
			c0.226074,0.025879,0.445313,0.052734,0.676758,0.077148c0.391113,0.036621,0.805176,0.06543,1.219238,0.089844
			c0.209473,0.013672,0.406738,0.032715,0.623535,0.043457c0.641602,0.030273,1.305664,0.048828,2,0.048828
			c0.696777,0,1.361328-0.018555,2-0.048828c0.215332-0.010742,0.414063-0.02832,0.624023-0.043457
			c0.413574-0.025879,0.828125-0.053223,1.227051-0.089844c0.231934-0.024414,0.448242-0.05127,0.67334-0.077148
			c0.344238-0.041016,0.688965-0.08252,1.015137-0.123535c0.223145-0.03125,0.437012-0.069824,0.650391-0.105957
			c0.303223-0.050781,0.602051-0.102051,0.887207-0.15918c0.206543-0.039551,0.402344-0.08252,0.599121-0.120605
			c0.271973-0.061523,0.538086-0.124023,0.795898-0.189453c0.179199-0.045898,0.357422-0.091797,0.532227-0.138184
			c0.246094-0.072754,0.489746-0.141113,0.720215-0.210449c0.155273-0.048828,0.311523-0.09668,0.459473-0.148438
			c0.229492-0.075684,0.449219-0.151855,0.661133-0.231934c0.122559-0.04541,0.257324-0.091309,0.375488-0.138184
			c0.221191-0.086914,0.424805-0.172363,0.62207-0.255859c0.074219-0.029785,0.157227-0.061523,0.229492-0.094727v3.19043
			l3.446289-3.446289V8.647949c0-0.486328-0.206543-0.949219-0.566406-1.276855
			c-0.176758-0.15918-4.41748-3.890625-14.945313-3.890625c-10.527344,0-14.776855,3.731445-14.953125,3.890625
			C9.475098,7.69873,9.27002,8.161621,9.27002,8.647949v44.093262l3.566406-3.539063L12.773438,49.168945z M15.198242,8.401855
			L15.198242,8.401855l0.09375-0.032715c0.360352-0.123535,0.761719-0.253418,1.188477-0.378906l0.35498-0.095215
			c0.358398-0.098633,0.744141-0.188965,1.152832-0.277832c0.124023-0.026367,0.236328-0.053711,0.367188-0.079102
			c0.523926-0.103027,1.083496-0.201172,1.678711-0.280762c0.12207-0.01709,0.256348-0.028809,0.382813-0.04541
			c0.501465-0.0625,1.029785-0.11377,1.578613-0.15625c0.191406-0.014648,0.381836-0.028809,0.577148-0.040527
			c0.705566-0.041016,1.438965-0.070801,2.226563-0.070801c0.786621,0,1.518555,0.029785,2.225098,0.070801
			c0.192871,0.011719,0.382813,0.025879,0.570313,0.040527c0.550781,0.04248,1.079102,0.092285,1.580078,0.154785
			c0.122559,0.015137,0.257813,0.027344,0.380371,0.04541c0.596191,0.081055,1.154785,0.174805,1.678711,0.280762
			c0.123535,0.026855,0.23291,0.05127,0.352539,0.076172c0.408691,0.088379,0.799805,0.181152,1.162109,0.279785
			c0.121094,0.03125,0.237793,0.0625,0.348145,0.095215c0.430176,0.123535,0.836426,0.246094,1.196289,0.378906l0.061035,0.023926
			c0.263672,0.09668,0.491211,0.189453,0.711914,0.283203c-3.278809,1.234375-6.766113,1.817871-10.269531,1.716797
			c-3.503906,0.101074-6.990234-0.480957-10.270508-1.716797C14.736816,8.581055,14.952148,8.491699,15.198242,8.401855z
			 M12.727051,11.647461c3.825195,1.564941,7.933594,2.312012,12.062988,2.189453
			c4.131836,0.122559,8.241211-0.623535,12.06543-2.189453v6.467285l-0.009766,0.007813
			c-0.164063,0.100586-0.369141,0.214844-0.604004,0.341309c-0.220703,0.116699-0.489746,0.244629-0.770508,0.367676
			l-0.12207,0.052246c-0.297852,0.12207-0.62793,0.261719-0.992188,0.39209l-0.172363,0.058105
			c-0.333008,0.116699-0.69873,0.231445-1.093262,0.344238l-0.206543,0.061035
			c-0.433594,0.122559-0.912598,0.233398-1.414551,0.339355c-0.108398,0.025879-0.223633,0.044922-0.334961,0.067871
			c-0.482422,0.095215-0.994629,0.182129-1.540527,0.260742l-0.19873,0.028809
			c-0.592285,0.077637-1.23584,0.138672-1.903809,0.186035c-0.157715,0.01123-0.319824,0.022949-0.482422,0.029785
			c-0.705078,0.041016-1.435059,0.072266-2.221191,0.072266c-0.785156,0-1.513184-0.028809-2.219238-0.072266
			c-0.162109-0.008301-0.324219-0.02002-0.480957-0.02832c-0.66748-0.048828-1.30957-0.111328-1.90332-0.1875
			c-0.072266-0.010742-0.137207-0.022949-0.208008-0.03125c-0.539551-0.077637-1.045898-0.161621-1.524414-0.256836
			c-0.124512-0.022949-0.237793-0.043457-0.348633-0.069336c-0.50293-0.104492-0.972656-0.218262-1.403809-0.336426
			c-0.08252-0.024414-0.156738-0.046875-0.245117-0.069824c-0.371094-0.106934-0.716309-0.214355-1.036621-0.327148
			l-0.223145-0.077148c-0.344727-0.125-0.662109-0.250488-0.945313-0.374023
			c-0.066895-0.029785-0.123535-0.057129-0.192383-0.086914c-0.237793-0.106934-0.456543-0.210449-0.647461-0.310547
			l-0.109375-0.055176c-0.208008-0.111328-0.38623-0.212402-0.537109-0.303711l-0.04541-0.029785L12.727051,11.647461z"/>
	</g>
</g>
</svg>
