<?xml version="1.0" encoding="utf-8"?>
<!-- Generator: Adobe Illustrator 16.0.3, SVG Export Plug-In . SVG Version: 6.00 Build 0)  -->
<!DOCTYPE svg PUBLIC "-//W3C//DTD SVG 1.1//EN" "http://www.w3.org/Graphics/SVG/1.1/DTD/svg11.dtd">
<svg version="1.1" id="Layer_1" xmlns="http://www.w3.org/2000/svg" xmlns:xlink="http://www.w3.org/1999/xlink" x="0px" y="0px"
	 width="80px" height="80px" viewBox="0 0 80 80" enable-background="new 0 0 80 80" xml:space="preserve">
<g>
	<path fill="#F7296E" d="M75.625,36.289063h-0.404297c-6.148438-21.384766-5.727539-19.946289-5.788086-20.080078
		c0.139648-0.451172,0.106445-0.47168,0.106445-3.373047c0-1.308594-1.066406-2.375-2.375-2.375
		c-2.886719,0-2.917969-0.03418-3.37207,0.106445c-0.136719-0.061523,1.286133,0.353516-20.081055-5.751953V4.375
		c0-1.30957-1.066406-2.375-2.375-2.375h-2.671875c-1.310547,0-2.375,1.06543-2.375,2.375v0.44043
		c-21.377441,6.107422-19.944336,5.69043-20.080078,5.751953c-0.453125-0.139648-0.472168-0.106445-3.373047-0.106445
		c-1.309082,0-2.375,1.066406-2.375,2.375c0,2.886719-0.035645,2.917969,0.106445,3.373047
		c-0.061523,0.134766,0.349121-1.275391-5.751953,20.080078H4.375c-1.30957,0-2.375,1.06543-2.375,2.375v2.671875
		c0,1.310547,1.06543,2.375,2.375,2.375h0.44043c6.112793,21.395508,5.6875,19.939453,5.751953,20.080078
		c-0.141113,0.453125-0.106445,0.478516-0.106445,3.373047c0,1.310547,1.065918,2.375,2.375,2.375
		c2.886719,0,2.91748,0.036133,3.373047-0.105469c0.135742,0.061523-1.287109-0.352539,20.080078,5.750977V75.625
		c0,1.310547,1.064453,2.375,2.375,2.375h2.671875c1.308594,0,2.375-1.064453,2.375-2.375v-0.44043
		c21.37793-6.106445,19.944336-5.689453,20.081055-5.750977c0.450195,0.138672,0.470703,0.105469,3.37207,0.105469
		c1.308594,0,2.375-1.064453,2.375-2.375c0-2.886719,0.036133-2.917969-0.106445-3.373047
		c0.0625-0.140625-0.362305,1.310547,5.788086-20.080078H75.625c1.308594,0,2.375-1.064453,2.375-2.375v-2.671875
		C78,37.354492,76.933594,36.289063,75.625,36.289063z M64.492188,12.835938h2.671875v2.671875h-2.671875V12.835938z
		 M70.661133,41.947266l-3.645508,3.647461V41.1875h3.5625C70.578125,41.425781,70.574219,41.62207,70.661133,41.947266z
		 M70.578125,38.8125h-3.5625v-4.405273l3.645508,3.645508C70.573242,38.382813,70.578125,38.597656,70.578125,38.8125z
		 M63.878906,17.799805c0.332031,0.088867,0.546875,0.083008,0.761719,0.083008v10.790039l-5.817383-5.817383L63.878906,17.799805z
		 M62.228516,41.1875h2.412109v6.782227l-7.496094,7.496094l-8.292969-8.294922l1.191406-0.685547
		c0.367188-0.212891,0.59375-0.604492,0.59375-1.029297V41.1875h2.371094c0.655273,0,1.185547-0.532227,1.185547-1.1875
		s-0.530273-1.1875-1.185547-1.1875h-2.371094v-4.267578c0-0.422852-0.226563-0.816406-0.59375-1.02832l-1.191406-0.6875
		l8.292969-8.293945l7.496094,7.496094v6.78125h-2.412109c-0.65625,0-1.1875,0.532227-1.1875,1.1875
		S61.572266,41.1875,62.228516,41.1875z M35.307617,38.737305l3.504883,2.022461v8.095703l-7.07373-4.084961v-9.539063L40,30.461914
		l7.137695,4.120117L40,38.704102l-3.503418-2.023438c-0.568359-0.328125-1.29541-0.133789-1.622559,0.43457
		C34.546387,37.682617,34.740723,38.408203,35.307617,38.737305z M31.148926,32.829102l-1.191406,0.6875
		c-0.367188,0.211914-0.59375,0.605469-0.59375,1.02832V38.8125H15.359375v-6.78125l7.496094-7.496094L31.148926,32.829102z
		 M24.53418,22.855469l7.496094-7.496094H38.8125v13.044922l-5.53418,3.195313L24.53418,22.855469z M29.36377,41.1875v4.268555
		c0,0.422852,0.226563,0.816406,0.59375,1.029297l1.191406,0.685547l-8.293457,8.294922l-7.496094-7.496094V41.1875H29.36377z
		 M33.279297,48.402344l5.533203,3.193359v13.044922h-6.782227l-7.496094-7.496094L33.279297,48.402344z M41.1875,28.404297
		V15.359375h6.782227l7.496094,7.496094l-8.745117,8.744141L41.1875,28.404297z M48.261719,36.675781v8.094727L41.1875,48.855469
		v-8.095703L48.261719,36.675781z M41.1875,51.595703l5.533203-3.193359l8.745117,8.742188l-7.496094,7.496094H41.1875V51.595703z
		 M57.144531,21.176758l-5.817383-5.817383h10.790039c0,0.232422-0.006836,0.428711,0.083008,0.761719L57.144531,21.176758z
		 M43.699219,7.282227l18.4375,5.267578c-0.011719,0.094727-0.019531,0.189453-0.019531,0.286133
		c0,0.214844,1.460938,0.148438-13.165039,0.148438L43.62793,7.660156C43.661133,7.537109,43.686523,7.412109,43.699219,7.282227z
		 M41.947266,9.338867l3.646484,3.645508H41.1875v-3.5625C41.418945,9.421875,41.616211,9.428711,41.947266,9.338867z
		 M38.664063,4.375h2.671875v2.671875h-2.671875C38.662598,4.337891,38.648926,4.375,38.664063,4.375L38.664063,4.375z
		 M38.052246,9.338867c0.330078,0.089844,0.54541,0.083008,0.760254,0.083008v3.5625h-4.405762L38.052246,9.338867z
		 M36.300781,7.282227c0.012695,0.129883,0.038086,0.254883,0.071289,0.37793l-5.325684,5.324219
		c-14.633789,0-13.163574,0.066406-13.163574-0.148438c0-0.09668-0.007813-0.191406-0.019043-0.286133L36.300781,7.282227z
		 M17.882813,15.359375h10.790039l-5.817383,5.817383l-5.055664-5.055664
		C17.887695,15.790039,17.882813,15.574219,17.882813,15.359375L17.882813,15.359375z M16.120605,17.799805l5.056152,5.055664
		l-5.817383,5.817383V17.882813C15.59082,17.882813,15.788086,17.889648,16.120605,17.799805L16.120605,17.799805z
		 M12.835938,12.835938h2.671875v2.671875h-2.671875C12.834473,12.827148,12.820801,12.835938,12.835938,12.835938z
		 M12.549316,17.864258c0.183105,0.022461,0.263672,0.018555,0.435059,0.018555v13.165039l-5.324707,5.325195
		c-0.122559-0.03418-0.248047-0.05957-0.37793-0.072266L12.549316,17.864258z M9.421875,38.8125
		c0-0.236328,0.003906-0.43457-0.083008-0.759766l3.645508-3.645508V38.8125H9.421875z M12.984375,41.1875v4.407227
		l-3.645508-3.647461c0.089355-0.330078,0.083008-0.544922,0.083008-0.759766H12.984375z M7.046875,41.335938
		c-0.879883,0-1.67627,0-2.671875,0l-0.001953-2.671875h2.673828V41.335938z M12.549316,62.137695l-5.267578-18.4375
		c0.129883-0.012695,0.255371-0.038086,0.37793-0.071289l5.324707,5.326172v13.162109
		C12.811523,62.117188,12.732422,62.114258,12.549316,62.137695L12.549316,62.137695z M15.507813,67.164063h-2.671875v-2.671875
		h2.671875C15.509277,67.102539,15.522949,67.164063,15.507813,67.164063z M16.120605,62.201172
		c-0.331055-0.088867-0.546387-0.083984-0.76123-0.083984V51.327148l5.817383,5.817383L16.120605,62.201172z M22.855469,58.823242
		l5.817383,5.817383H17.882813c0-0.235352,0.003906-0.435547-0.083008-0.759766L22.855469,58.823242z M36.300781,72.717773
		L17.86377,67.450195c0.01123-0.094727,0.019043-0.188477,0.019043-0.286133c0-0.214844-1.461426-0.148438,13.163574-0.148438
		l5.325684,5.326172C36.338867,72.463867,36.313477,72.589844,36.300781,72.717773L36.300781,72.717773z M38.052246,70.662109
		l-3.645508-3.646484H38.8125v3.5625C38.581055,70.578125,38.383789,70.573242,38.052246,70.662109z M41.335938,75.625h-2.671875
		v-2.671875h2.671875C41.336914,75.663086,41.351563,75.625,41.335938,75.625z M41.947266,70.662109
		c-0.330078-0.088867-0.544922-0.083984-0.759766-0.083984v-3.5625h4.40625L41.947266,70.662109z M43.699219,72.717773
		c-0.012695-0.12793-0.038086-0.253906-0.071289-0.375977l5.324219-5.326172c14.633789,0,13.165039-0.066406,13.165039,0.148438
		c0,0.097656,0.007813,0.191406,0.019531,0.286133L43.699219,72.717773z M62.117188,64.640625H51.327148l5.817383-5.817383
		l5.055664,5.057617C62.110352,64.210938,62.117188,64.425781,62.117188,64.640625z M63.878906,62.201172l-5.055664-5.056641
		l5.817383-5.817383v10.790039C64.40918,62.117188,64.211914,62.112305,63.878906,62.201172z M67.164063,67.164063h-2.671875
		v-2.671875h2.671875V67.164063z M67.452148,62.137695c-0.181641-0.023438-0.262695-0.020508-0.436523-0.020508V48.955078
		l5.324219-5.326172c0.133789,0.036133,0.270508,0.061523,0.412109,0.071289L67.452148,62.137695z M72.339844,36.373047
		l-5.324219-5.325195V17.882813c0.171875,0,0.251953,0.003906,0.436523-0.018555l5.299805,18.435547
		C72.610352,36.311523,72.473633,36.336914,72.339844,36.373047L72.339844,36.373047z M75.625,41.335938h-2.671875v-2.671875H75.625
		C75.625977,41.345703,75.640625,41.335938,75.625,41.335938z"/>
	<path fill="#F7296E" d="M57.650391,38.8125c-1.651367,0-1.649414,2.375,0,2.375c0.657227,0,1.1875-0.532227,1.1875-1.1875
		S58.307617,38.8125,57.650391,38.8125z"/>
</g>
</svg>
