<?xml version="1.0" encoding="utf-8"?>
<!-- Generator: Adobe Illustrator 16.0.3, SVG Export Plug-In . SVG Version: 6.00 Build 0)  -->
<!DOCTYPE svg PUBLIC "-//W3C//DTD SVG 1.1//EN" "http://www.w3.org/Graphics/SVG/1.1/DTD/svg11.dtd" [
	<!ENTITY ns_flows "http://ns.adobe.com/Flows/1.0/">
	<!ENTITY ns_extend "http://ns.adobe.com/Extensibility/1.0/">
	<!ENTITY ns_ai "http://ns.adobe.com/AdobeIllustrator/10.0/">
	<!ENTITY ns_graphs "http://ns.adobe.com/Graphs/1.0/">
]>
<svg version="1.1" id="Layer_1" xmlns:x="&ns_extend;" xmlns:i="&ns_ai;" xmlns:graph="&ns_graphs;"
	 xmlns="http://www.w3.org/2000/svg" xmlns:xlink="http://www.w3.org/1999/xlink" xmlns:a="http://ns.adobe.com/AdobeSVGViewerExtensions/3.0/"
	 x="0px" y="0px" width="80px" height="80px" viewBox="0 0 80 80" enable-background="new 0 0 80 80" xml:space="preserve">
<g>
	<path fill="#F7296E" d="M57.471,47.902l-2.62,1.451c-0.538,0.3-0.732,0.976-0.435,1.513c0.203,0.368,0.583,0.574,0.976,0.574
		c0.181,0,0.367-0.044,0.539-0.139l2.619-1.452c0.537-0.296,0.733-0.975,0.434-1.513C58.686,47.8,58.009,47.605,57.471,47.902z"/>
	<path fill="#F7296E" d="M57.471,44.742l-2.62,1.452c-0.538,0.3-0.732,0.976-0.435,1.516c0.203,0.364,0.583,0.571,0.976,0.571
		c0.181,0,0.367-0.044,0.537-0.139l2.621-1.452c0.537-0.296,0.733-0.975,0.434-1.513C58.686,44.641,58.009,44.446,57.471,44.742z"/>
	<g>
		<path fill="#F7296E" d="M75.945,58.083c0.106-0.176,0.166-0.38,0.166-0.584v-9.794c0-0.615-0.498-1.114-1.113-1.114
			s-1.114,0.499-1.114,1.114v8.079l-10.705-4.776V30.321l10.705-5.931v18.465c0,0.615,0.499,1.114,1.114,1.114
			s1.113-0.499,1.113-1.114V22.501c0-0.397-0.226-0.782-0.573-0.974L40.54,2.138c-0.333-0.184-0.748-0.184-1.08,0L4.463,21.527
			c-0.354,0.196-0.579,0.584-0.574,0.987v34.985c0,0.396,0.226,0.78,0.574,0.973l15.42,8.544c0.538,0.297,1.215,0.103,1.513-0.436
			c0.298-0.537,0.103-1.216-0.434-1.513L7.494,57.606l10.386-4.634l21.007,11.641v10.385l-13.51-7.483
			c-0.538-0.3-1.215-0.104-1.513,0.436c-0.298,0.537-0.103,1.213,0.435,1.513l15.162,8.4c0.331,0.182,0.749,0.182,1.08,0
			l15.901-8.812c0.538-0.3,0.731-0.976,0.434-1.513c-0.297-0.538-0.976-0.732-1.513-0.436l-14.25,7.895V64.613L62.12,52.973
			l10.386,4.634l-12.731,7.053c-0.538,0.299-0.732,0.976-0.435,1.515c0.203,0.365,0.584,0.574,0.976,0.574
			c0.183,0,0.367-0.046,0.539-0.141l14.684-8.136C75.702,58.382,75.847,58.241,75.945,58.083z M40,18.713l19.768,10.953L40,40.618
			L20.232,29.666L40,18.713z M62.065,28.393L41.112,16.784V5.001l31.589,17.5L62.065,28.393z M38.887,16.784L17.935,28.393
			L7.299,22.501l31.587-17.5V16.784z M6.115,24.391l10.706,5.931v20.687L6.115,55.784V24.391z M19.047,31.556l8.081,4.476
			l11.758,6.515v19.52l-19.839-10.99V31.556z M41.112,42.547l19.84-10.991v19.521l-19.84,10.99V42.547z"/>
		<path fill="#F7296E" d="M40,78.375c-0.254,0-0.503-0.063-0.72-0.183l-15.164-8.401c-0.718-0.4-0.978-1.308-0.581-2.022
			c0.382-0.694,1.327-0.971,2.023-0.581l12.952,7.174v-9.527l-20.65-11.442l-9.529,4.251l12.811,7.097
			c0.348,0.192,0.6,0.509,0.709,0.892c0.109,0.382,0.063,0.784-0.129,1.131c-0.382,0.692-1.324,0.97-2.022,0.582L4.281,58.8
			c-0.466-0.257-0.768-0.768-0.768-1.301V22.514c-0.006-0.536,0.295-1.054,0.768-1.315L39.279,1.81c0.436-0.241,1.004-0.241,1.442,0
			l34.999,19.39c0.466,0.258,0.767,0.769,0.767,1.302v20.354c0,0.821-0.668,1.489-1.488,1.489c-0.821,0-1.489-0.668-1.489-1.489
			V25.027l-9.955,5.515v20.223l9.955,4.441v-7.501c0-0.821,0.668-1.489,1.489-1.489c0.82,0,1.488,0.668,1.488,1.489v9.794
			c0,0.271-0.076,0.54-0.221,0.778c-0.137,0.22-0.33,0.404-0.548,0.523l-14.682,8.135c-0.706,0.391-1.64,0.111-2.024-0.579
			c-0.396-0.719-0.136-1.627,0.581-2.025l12.074-6.688l-9.528-4.251L41.487,64.834v9.527l13.693-7.586
			c0.696-0.389,1.64-0.11,2.022,0.583c0.396,0.715,0.137,1.622-0.579,2.021l-15.902,8.813C40.503,78.312,40.254,78.375,40,78.375z
			 M24.838,67.749c-0.269,0-0.516,0.146-0.646,0.383c-0.197,0.354-0.067,0.805,0.289,1.004l15.161,8.399
			c0.212,0.117,0.503,0.118,0.717-0.001l15.9-8.811c0.354-0.197,0.484-0.647,0.287-1.003c-0.189-0.344-0.659-0.48-1.003-0.289
			l-14.807,8.203V64.393l21.364-11.839l11.243,5.017l-13.389,7.417c-0.355,0.197-0.485,0.648-0.288,1.005
			c0.191,0.343,0.648,0.484,1.006,0.287l14.683-8.136c0.105-0.058,0.204-0.152,0.271-0.259c0.069-0.115,0.109-0.254,0.109-0.386
			v-9.794c0-0.407-0.331-0.739-0.738-0.739s-0.739,0.332-0.739,0.739v8.657l-11.455-5.111V30.1l11.455-6.346v19.101
			c0,0.407,0.332,0.739,0.739,0.739s0.738-0.332,0.738-0.739V22.501c0-0.261-0.152-0.521-0.38-0.646L40.358,2.466
			c-0.215-0.118-0.501-0.119-0.716,0L4.645,21.855c-0.231,0.128-0.384,0.391-0.381,0.655v34.989c0,0.26,0.153,0.519,0.38,0.645
			l15.42,8.544c0.347,0.192,0.813,0.054,1.003-0.289c0.096-0.172,0.119-0.371,0.064-0.562c-0.054-0.189-0.179-0.346-0.352-0.441
			L6.654,57.57l11.244-5.017l21.364,11.839v11.242l-14.066-7.792C25.085,67.781,24.962,67.749,24.838,67.749z M39.262,62.703
			L18.672,51.297V30.919l20.589,11.407V62.703z M19.422,50.855L38.512,61.43V42.768L19.422,32.192V50.855z M40.737,62.703V42.326
			l20.59-11.407v20.377L40.737,62.703z M41.487,42.768V61.43l19.09-10.574V32.192L41.487,42.768z M5.74,56.362V23.754L17.196,30.1
			v21.151L5.74,56.362z M6.49,25.027v30.179l9.956-4.441V30.542L6.49,25.027z M40,41.047L19.458,29.666L40,18.284l20.542,11.382
			L40,41.047z M21.006,29.666L40,40.189l18.995-10.523L40,19.142L21.006,29.666z M62.065,28.821L40.737,17.005V4.365l32.737,18.136
			L62.065,28.821z M41.487,16.563l20.578,11.401l9.862-5.463L41.487,5.637V16.563z M17.935,28.821l-11.409-6.32L39.262,4.365v12.64
			L17.935,28.821z M8.073,22.501l9.861,5.463l20.577-11.4V5.637L8.073,22.501z"/>
	</g>
</g>
</svg>
