<?xml version="1.0" encoding="utf-8"?>
<!-- Generator: Adobe Illustrator 16.0.3, SVG Export Plug-In . SVG Version: 6.00 Build 0)  -->
<!DOCTYPE svg PUBLIC "-//W3C//DTD SVG 1.1//EN" "http://www.w3.org/Graphics/SVG/1.1/DTD/svg11.dtd" [
	<!ENTITY ns_flows "http://ns.adobe.com/Flows/1.0/">
	<!ENTITY ns_extend "http://ns.adobe.com/Extensibility/1.0/">
	<!ENTITY ns_ai "http://ns.adobe.com/AdobeIllustrator/10.0/">
	<!ENTITY ns_graphs "http://ns.adobe.com/Graphs/1.0/">
]>
<svg version="1.1" id="Layer_1" xmlns:x="&ns_extend;" xmlns:i="&ns_ai;" xmlns:graph="&ns_graphs;"
	 xmlns="http://www.w3.org/2000/svg" xmlns:xlink="http://www.w3.org/1999/xlink" xmlns:a="http://ns.adobe.com/AdobeSVGViewerExtensions/3.0/"
	 x="0px" y="0px" width="80px" height="80px" viewBox="0 0 80 80" enable-background="new 0 0 80 80" xml:space="preserve">
<g>
	<g>
		<polygon fill="none" points="21.19043,37.368164 31.549316,31.15332 31.549316,20.051758 21.19043,26.266602 		"/>
		<polygon fill="none" points="6.391602,31.15332 16.750977,37.368164 16.750977,26.266602 6.391602,20.051758 		"/>
		<polygon fill="none" points="6.391602,14.723633 6.391602,14.875 18.970703,22.421875 31.549316,14.875 31.549316,14.723633 
			18.970703,7.176758 		"/>
		<path fill="#F7296E" d="M18.970703,2L1.952148,12.210938v21.455078l17.018555,10.210938l17.018555-10.210938V12.210938
			L18.970703,2z M16.750977,37.368164L6.391602,31.15332V20.051758l10.359375,6.214844V37.368164z M31.549316,31.15332
			L21.19043,37.368164V26.266602l10.358887-6.214844V31.15332z M31.549316,14.875l-12.578613,7.546875L6.391602,14.875v-0.151367
			l12.579102-7.546875l12.578613,7.546875V14.875z"/>
	</g>
	<g>
		<path fill="#F7296E" d="M47.144531,65.448242l12.318359,7.390625V59.453125L47.144531,52.0625V65.448242z M58.15625,60.192383
			v10.339844l-9.706055-5.823242V54.369141L58.15625,60.192383z"/>
		<path fill="#F7296E" d="M74.103516,49.265625l0.158203-0.095703v-1.259766L60.871094,39.875l-0.167969-0.099609
			l-13.400391,8.039063l-0.158203,0.095703v1.259766l13.558594,8.135742L74.103516,49.265625z M60.703125,55.78125
			l-12.070313-7.241211l12.070313-7.241211l12.069336,7.241211L60.703125,55.78125z"/>
		<path fill="#F7296E" d="M61.942383,59.453125v13.385742l12.161133-7.294922l0.158203-0.095703V52.0625l-12.161133,7.294922
			L61.942383,59.453125z M72.955078,54.369141v10.339844l-9.706055,5.823242V60.192383L72.955078,54.369141z"/>
		<path fill="#F7296E" d="M60.703125,35.360352l-17.1875,10.310547l-0.158203,0.095703v21.825195L60.703125,78l17.186523-10.3125
			l0.158203-0.095703V45.766602L60.703125,35.360352z M44.664063,46.506836l16.039063-9.624023l16.038086,9.624023v20.344727
			l-16.038086,9.623047l-16.039063-9.623047V46.506836z"/>
	</g>
	<g>
		<path fill="#F7296E" d="M18.970703,48.048828c-1.332031,0-2.415039,1.083008-2.415039,2.415039
			s1.083008,2.415039,2.415039,2.415039c1.331543,0,2.415039-1.083008,2.415039-2.415039S20.302246,48.048828,18.970703,48.048828z
			 M18.970703,52.030273c-0.86377,0-1.566895-0.703125-1.566895-1.566406s0.703125-1.566406,1.566895-1.566406
			s1.566406,0.703125,1.566406,1.566406S19.834473,52.030273,18.970703,52.030273z"/>
		<path fill="#F7296E" d="M18.970703,56.927734c-1.332031,0-2.415039,1.083008-2.415039,2.415039
			s1.083008,2.415039,2.415039,2.415039c1.331543,0,2.415039-1.083008,2.415039-2.415039S20.302246,56.927734,18.970703,56.927734z
			 M18.970703,60.90918c-0.86377,0-1.566895-0.702148-1.566895-1.566406c0-0.863281,0.703125-1.566406,1.566895-1.566406
			s1.566406,0.703125,1.566406,1.566406C20.537109,60.207031,19.834473,60.90918,18.970703,60.90918z"/>
		<path fill="#F7296E" d="M27.849609,56.927734c-1.331543,0-2.415039,1.083008-2.415039,2.415039
			s1.083496,2.415039,2.415039,2.415039c1.332031,0,2.415039-1.083008,2.415039-2.415039S29.181641,56.927734,27.849609,56.927734z
			 M27.849609,60.90918c-0.863281,0-1.566406-0.702148-1.566406-1.566406c0-0.863281,0.703125-1.566406,1.566406-1.566406
			c0.86377,0,1.566895,0.703125,1.566895,1.566406C29.416504,60.207031,28.713379,60.90918,27.849609,60.90918z"/>
		<path fill="#F7296E" d="M36.729004,56.927734c-1.332031,0-2.415039,1.083008-2.415039,2.415039
			s1.083008,2.415039,2.415039,2.415039s2.415039-1.083008,2.415039-2.415039S38.061035,56.927734,36.729004,56.927734z
			 M36.729004,60.90918c-0.86377,0-1.566406-0.702148-1.566406-1.566406c0-0.863281,0.702637-1.566406,1.566406-1.566406
			s1.566406,0.703125,1.566406,1.566406C38.29541,60.207031,37.592773,60.90918,36.729004,60.90918z"/>
	</g>
	<g>
		<path fill="#F7296E" d="M60.703125,31.385742c1.332031,0,2.415039-1.083984,2.415039-2.415039
			c0-1.332031-1.083008-2.415039-2.415039-2.415039s-2.415039,1.083008-2.415039,2.415039
			C58.288086,30.301758,59.371094,31.385742,60.703125,31.385742z"/>
		<path fill="#F7296E" d="M60.703125,22.505859c1.332031,0,2.415039-1.083008,2.415039-2.415039
			s-1.083008-2.415039-2.415039-2.415039s-2.415039,1.083008-2.415039,2.415039S59.371094,22.505859,60.703125,22.505859z"/>
		<path fill="#F7296E" d="M51.823242,22.505859c1.332031,0,2.415039-1.083008,2.415039-2.415039
			s-1.083008-2.415039-2.415039-2.415039c-1.331055,0-2.415039,1.083008-2.415039,2.415039S50.492188,22.505859,51.823242,22.505859
			z"/>
		<path fill="#F7296E" d="M42.944336,22.505859c1.332031,0,2.415039-1.083008,2.415039-2.415039
			s-1.083008-2.415039-2.415039-2.415039s-2.415039,1.083008-2.415039,2.415039S41.612305,22.505859,42.944336,22.505859z"/>
	</g>
</g>
</svg>
