<?xml version="1.0" encoding="utf-8"?>
<!-- Generator: Adobe Illustrator 16.0.3, SVG Export Plug-In . SVG Version: 6.00 Build 0)  -->
<!DOCTYPE svg PUBLIC "-//W3C//DTD SVG 1.1//EN" "http://www.w3.org/Graphics/SVG/1.1/DTD/svg11.dtd" [
	<!ENTITY ns_flows "http://ns.adobe.com/Flows/1.0/">
	<!ENTITY ns_extend "http://ns.adobe.com/Extensibility/1.0/">
	<!ENTITY ns_ai "http://ns.adobe.com/AdobeIllustrator/10.0/">
	<!ENTITY ns_graphs "http://ns.adobe.com/Graphs/1.0/">
]>
<svg version="1.1" id="Layer_1" xmlns:x="&ns_extend;" xmlns:i="&ns_ai;" xmlns:graph="&ns_graphs;"
	 xmlns="http://www.w3.org/2000/svg" xmlns:xlink="http://www.w3.org/1999/xlink" xmlns:a="http://ns.adobe.com/AdobeSVGViewerExtensions/3.0/"
	 x="0px" y="0px" width="80px" height="80px" viewBox="0 0 80 80" enable-background="new 0 0 80 80" xml:space="preserve">
<g>
	<polygon fill="none" stroke="#F7296E" stroke-miterlimit="10" points="46.505859,2.584473 24.702148,11.928711 
		24.702148,39.964355 46.505859,49.307617 68.310547,39.964355 68.310547,11.928711 	"/>
	<g>
		<path fill="#F7296E" d="M57.700195,33.097656c-1.503906,0.643066-2.251953,0.966797-3.759766,1.609863
			c0,1.423828,0,2.135254,0,3.560059c1.548828-0.666016,2.319336-0.99707,3.868164-1.660645
			c1.438477-0.615234,2.302734-1.540039,2.302734-2.742188c0-0.016602,0-0.025879,0-0.04541
			C60.111328,32.73291,59.371094,32.379883,57.700195,33.097656z"/>
		<path fill="#F7296E" d="M59.289063,27.750488c0-0.01709,0-0.027344,0-0.045898c0-1.062988-0.759766-1.337891-2.134766-0.750488
			c-1.287109,0.552246-1.926758,0.827637-3.213867,1.379395c0,1.366211,0,2.050293,0,3.415527
			c1.202148-0.512207,1.799805-0.768555,3.001953-1.28418C58.378906,29.84668,59.289063,28.950684,59.289063,27.750488z"/>
		<path fill="#F7296E" d="M46.505859,21.245605v28.866699l22.451172-9.620117V11.623535L46.505859,21.245605z M63.34668,33.075684
			c0,2.956543-2.199219,5.375-5.538086,6.806152c-2.164063,0.925781-3.246094,1.390625-5.411133,2.319336
			c-0.90625,0.389648-1.62793-0.087891-1.62793-1.083008c0-5.041992,0-7.563477,0-12.605957
			c0-0.993164,0.71875-2.086914,1.62793-2.476074c2.09668-0.898926,3.142578-1.348633,5.241211-2.248047
			c1.688477-0.722656,3.023438-0.784668,3.865234-0.223633c0.678711,0.448242,1.015625,1.203613,1.015625,2.312012
			c0,0.017578,0,0.029297,0,0.047852c0,1.822754-1.943359,4.318848-1.943359,4.318848
			c0.053711,0.121094,2.770508,0.614746,2.770508,2.785645C63.34668,33.04834,63.34668,33.055664,63.34668,33.075684z"/>
	</g>
	<path fill="#F7296E" d="M29.027344,34.300293c1.77002-4.210449,2.654297-6.316406,4.42627-10.526367
		c0.308594-0.723145,0.869141-1.003418,1.631836-0.675293c0.066406,0.027832,0.098633,0.041992,0.163574,0.069824
		c0.76123,0.327148,1.305176,1.077148,1.614258,2.067383c1.770996,5.727539,2.65625,8.592773,4.424805,14.318359
		c0.092773,0.287109,0.149414,0.537109,0.149414,0.76123c0,0.924805-0.582031,1.420898-1.324219,1.097656
		c-0.652344-0.27832-1.087402-0.9375-1.343262-1.768066c-0.34082-1.137695-0.512207-1.706543-0.852539-2.845703
		c-2.234863-0.95752-3.354492-1.437012-5.589355-2.393555c-0.354492,0.885254-0.532715,1.327148-0.885742,2.213379
		c-0.238281,0.574219-0.708984,0.778809-1.291016,0.526855c-0.727051-0.308594-1.289063-1.270996-1.289063-2.172363
		C28.862305,34.727051,28.935547,34.509277,29.027344,34.300293z M36.880859,33.292969
		c-0.70459-2.38623-1.055664-3.578613-1.758301-5.964844c-0.703613,1.782715-1.056641,2.673828-1.759766,4.45459
		C34.770508,32.385742,35.472656,32.6875,36.880859,33.292969z"/>
	<path fill="#F7296E" d="M46.505859,2l-22.452637,9.62207l14.214355,6.092773l0,0l8.238281,3.530762l22.451172-9.623535L46.505859,2
		z M53.364258,15.691895c-3.59082,2.180664-9.139648,2.020508-12.779297-0.229492l-0.035156-0.023926
		c-3.602051-2.225586-3.937988-5.635254-0.186035-7.90918c1.82959-1.111816,3.57666-1.548828,5.367676-1.682129
		c0.498047-0.034668,1.136719,0.063965,1.624023,0.365234c0.763672,0.470215,0.770508,1.19873,0.035156,1.644043
		c-0.365234,0.222168-0.755859,0.280762-1.075195,0.317871c-1.328125,0.096191-2.438477,0.371582-3.400391,0.95166
		c-2.057617,1.250488-1.763672,3.245117,0.40625,4.589355l0.038086,0.021973c2.171875,1.342285,5.430664,1.583008,7.523438,0.312988
		c1.136719-0.685547,1.525391-1.365234,1.657227-2.222656c0.026367-0.23877,0.177734-0.48584,0.495117-0.675781
		c0.680664-0.414063,1.833984-0.404785,2.541992,0.03125c0.431641,0.269531,0.567383,0.609375,0.541992,0.891602
		C56.015625,13.35498,55.320313,14.507324,53.364258,15.691895z"/>
	<path fill="#F7296E" d="M68.612305,54.908203l-11.175781,5.280273c-1.541992-2.870117-4.50293-4.696289-7.760742-4.788086
		l-10.316406-0.283203c-1.633301-0.046875-3.236328-0.459961-4.688965-1.210938l-1.049316-0.543945
		c-5.375488-2.802734-11.781738-2.794922-17.151855,0.017578l0.06543-2.37793c0.021973-0.788086-0.598633-1.444336-1.386719-1.46582
		l-11.3125-0.310547c-0.788086-0.021484-1.443359,0.598633-1.465332,1.385742L1.687012,75.436523
		c-0.021484,0.788086,0.598633,1.445313,1.386719,1.466797l11.313477,0.311523h0.038574
		c0.773438,0,1.40625-0.615234,1.426758-1.387695l0.032715-1.1875l2.938477-1.574219
		c1.154785-0.621094,2.502441-0.768555,3.763184-0.411133l17.550293,4.924805
		c0.030273,0.009766,0.061035,0.016602,0.092285,0.022461C41.49707,77.868164,42.790039,78.000977,44.085938,78
		c2.745117,0.000977,5.457031-0.589844,7.952148-1.734375c0.061523-0.027344,0.121094-0.060547,0.176758-0.09668
		l25.447266-16.459961c0.632813-0.411133,0.837891-1.244141,0.466797-1.900391
		C76.239258,54.456055,72.048828,53.178711,68.612305,54.908203z M4.578613,74.09082l0.604492-21.974609l8.459961,0.233398
		l-0.604492,21.973633L4.578613,74.09082z M50.753906,73.716797c-3.100586,1.399414-6.561523,1.78418-9.892578,1.104492
		l-17.502441-4.913086c-1.970703-0.557617-4.079102-0.326172-5.880859,0.642578l-1.502441,0.805664l0.401855-14.610352
		c4.759766-3.166016,10.862793-3.492188,15.931641-0.850586l1.049805,0.543945
		c1.834961,0.948242,3.85791,1.470703,5.922363,1.530273l10.317383,0.282227c2.898438,0.083984,5.360352,2.149414,5.947266,4.987305
		l-15.367676-0.422852c-0.788086-0.022461-1.443848,0.59668-1.466309,1.385742
		c-0.020996,0.788086,0.600098,1.442383,1.387207,1.46582l16.959473,0.466797h0.040039
		c0.772461,0,1.405273-0.616211,1.424805-1.387695c0.017578-0.620117-0.02832-1.240234-0.136719-1.851563l11.461914-5.415039
		c0.010742-0.006836,0.022461-0.011719,0.033203-0.017578c1.625977-0.822266,3.592773-0.546875,4.929688,0.69043
		L50.753906,73.716797z"/>
</g>
</svg>
