<?xml version="1.0" encoding="utf-8"?>
<!-- Generator: Adobe Illustrator 16.0.3, SVG Export Plug-In . SVG Version: 6.00 Build 0)  -->
<!DOCTYPE svg PUBLIC "-//W3C//DTD SVG 1.1//EN" "http://www.w3.org/Graphics/SVG/1.1/DTD/svg11.dtd">
<svg version="1.1" id="Layer_1" xmlns="http://www.w3.org/2000/svg" xmlns:xlink="http://www.w3.org/1999/xlink" x="0px" y="0px"
	 width="80px" height="80px" viewBox="0 0 80 80" enable-background="new 0 0 80 80" xml:space="preserve">
<g>
	<g>
		<path fill="#F7296E" d="M46.506,50.396l-22.804-9.771V11.27l22.804-9.773l22.805,9.773v29.354L46.506,50.396z M25.702,39.305
			l20.804,8.915l20.805-8.915V12.588L46.506,3.672l-20.804,8.916V39.305z"/>
	</g>
	<g>
		<path fill="#F7296E" d="M57.7,33.098c-1.504,0.643-2.252,0.967-3.76,1.61c0,1.424,0,2.135,0,3.56
			c1.549-0.666,2.319-0.997,3.868-1.661c1.438-0.615,2.303-1.54,2.303-2.742c0-0.017,0-0.026,0-0.045
			C60.111,32.733,59.371,32.38,57.7,33.098z"/>
		<path fill="#F7296E" d="M59.289,27.75c0-0.017,0-0.027,0-0.046c0-1.063-0.76-1.338-2.135-0.75
			c-1.287,0.552-1.927,0.828-3.214,1.379c0,1.366,0,2.05,0,3.416c1.202-0.512,1.8-0.769,3.002-1.284
			C58.379,29.847,59.289,28.951,59.289,27.75z"/>
		<path fill="#F7296E" d="M46.506,21.246v28.867l22.451-9.62V11.624L46.506,21.246z M63.347,33.076c0,2.957-2.199,5.375-5.538,6.806
			c-2.164,0.926-3.246,1.391-5.411,2.319c-0.906,0.39-1.628-0.088-1.628-1.083c0-5.042,0-7.563,0-12.606
			c0-0.993,0.719-2.087,1.628-2.476c2.097-0.899,3.143-1.349,5.241-2.248c1.688-0.723,3.023-0.785,3.865-0.224
			c0.679,0.448,1.016,1.204,1.016,2.312c0,0.018,0,0.029,0,0.048c0,1.823-1.943,4.319-1.943,4.319
			c0.054,0.121,2.771,0.615,2.771,2.786C63.347,33.048,63.347,33.056,63.347,33.076z"/>
	</g>
	<path fill="#F7296E" d="M29.027,34.3c1.77-4.21,2.654-6.316,4.426-10.526c0.309-0.723,0.869-1.003,1.632-0.675
		c0.066,0.028,0.099,0.042,0.164,0.07c0.761,0.327,1.305,1.077,1.614,2.067c1.771,5.728,2.656,8.593,4.425,14.318
		c0.093,0.287,0.149,0.537,0.149,0.761c0,0.925-0.582,1.421-1.324,1.098c-0.652-0.278-1.087-0.938-1.343-1.768
		c-0.341-1.138-0.512-1.707-0.853-2.846c-2.235-0.958-3.354-1.437-5.589-2.394c-0.354,0.885-0.533,1.327-0.886,2.213
		c-0.238,0.574-0.709,0.779-1.291,0.527c-0.727-0.309-1.289-1.271-1.289-2.172C28.862,34.727,28.936,34.509,29.027,34.3z
		 M36.881,33.293c-0.705-2.386-1.056-3.579-1.758-5.965c-0.704,1.783-1.057,2.674-1.76,4.455
		C34.771,32.386,35.473,32.688,36.881,33.293z"/>
	<path fill="#F7296E" d="M46.506,2l-22.453,9.622l14.214,6.093l0,0l8.238,3.531l22.451-9.624L46.506,2z M53.364,15.692
		c-3.591,2.181-9.14,2.021-12.779-0.229l-0.035-0.024c-3.602-2.226-3.938-5.635-0.186-7.909c1.83-1.112,3.577-1.549,5.368-1.682
		c0.498-0.035,1.137,0.064,1.624,0.365c0.764,0.47,0.771,1.199,0.035,1.644c-0.365,0.222-0.756,0.281-1.075,0.318
		c-1.328,0.096-2.438,0.372-3.4,0.952c-2.058,1.25-1.764,3.245,0.406,4.589l0.038,0.022c2.172,1.342,5.431,1.583,7.523,0.313
		c1.137-0.686,1.525-1.365,1.657-2.223c0.026-0.239,0.178-0.486,0.495-0.676c0.681-0.414,1.834-0.405,2.542,0.031
		c0.432,0.27,0.567,0.609,0.542,0.892C56.016,13.355,55.32,14.507,53.364,15.692z"/>
	<path fill="#F7296E" d="M68.612,54.908l-11.176,5.28c-1.542-2.87-4.503-4.696-7.761-4.788l-10.316-0.283
		c-1.633-0.047-3.236-0.46-4.689-1.211l-1.049-0.544c-5.375-2.803-11.782-2.795-17.152,0.018l0.065-2.378
		c0.022-0.788-0.599-1.444-1.387-1.466L3.835,49.226c-0.788-0.021-1.443,0.599-1.465,1.386L1.687,75.437
		c-0.021,0.788,0.599,1.445,1.387,1.467l11.313,0.312h0.039c0.773,0,1.406-0.615,1.427-1.388l0.033-1.188l2.938-1.574
		c1.155-0.621,2.502-0.769,3.763-0.411l17.55,4.925c0.03,0.01,0.061,0.017,0.092,0.022c1.268,0.267,2.561,0.399,3.856,0.398
		c2.745,0.001,5.457-0.59,7.952-1.734c0.062-0.027,0.121-0.061,0.177-0.097l25.447-16.46c0.633-0.411,0.838-1.244,0.467-1.9
		C76.239,54.456,72.049,53.179,68.612,54.908z M4.579,74.091l0.604-21.975l8.46,0.233l-0.604,21.974L4.579,74.091z M50.754,73.717
		c-3.101,1.399-6.562,1.784-9.893,1.104l-17.502-4.913c-1.971-0.558-4.079-0.326-5.881,0.643l-1.502,0.806l0.402-14.61
		c4.76-3.166,10.863-3.492,15.932-0.851l1.05,0.544c1.835,0.948,3.858,1.471,5.922,1.53l10.317,0.282
		c2.898,0.084,5.36,2.149,5.947,4.987l-15.368-0.423c-0.788-0.022-1.444,0.597-1.466,1.386c-0.021,0.788,0.6,1.442,1.387,1.466
		l16.959,0.467h0.04c0.772,0,1.405-0.616,1.425-1.388c0.018-0.62-0.028-1.24-0.137-1.852l11.462-5.415
		c0.011-0.007,0.022-0.012,0.033-0.018c1.626-0.822,3.593-0.547,4.93,0.69L50.754,73.717z"/>
</g>
</svg>
