<?xml version="1.0" encoding="utf-8"?>
<!-- Generator: Adobe Illustrator 16.0.3, SVG Export Plug-In . SVG Version: 6.00 Build 0)  -->
<!DOCTYPE svg PUBLIC "-//W3C//DTD SVG 1.1//EN" "http://www.w3.org/Graphics/SVG/1.1/DTD/svg11.dtd">
<svg version="1.1" id="Layer_1" xmlns="http://www.w3.org/2000/svg" xmlns:xlink="http://www.w3.org/1999/xlink" x="0px" y="0px"
	 width="80px" height="80px" viewBox="0 0 80 80" enable-background="new 0 0 80 80" xml:space="preserve">
<g>
	<g>
		<g>
			<path fill="#F7296E" d="M45.342,51.209L24.49,42.274V15.432l20.852-8.936l20.852,8.936v26.841L45.342,51.209z M26.319,41.066
				l19.023,8.152l19.023-8.152V16.637L45.342,8.484l-19.023,8.153V41.066z"/>
		</g>
		<g>
			<path fill="#F7296E" d="M55.577,35.392c-1.375,0.588-2.059,0.884-3.438,1.473c0,1.301,0,1.951,0,3.254
				c1.415-0.608,2.119-0.911,3.538-1.519c1.313-0.563,2.104-1.408,2.104-2.507c0-0.015,0-0.024,0-0.042
				C57.782,35.058,57.105,34.735,55.577,35.392z"/>
			<path fill="#F7296E" d="M57.03,30.501c0-0.016,0-0.024,0-0.042c0-0.972-0.695-1.224-1.952-0.686
				c-1.177,0.504-1.763,0.757-2.938,1.261c0,1.25,0,1.874,0,3.124c1.099-0.468,1.645-0.703,2.744-1.175
				C56.197,32.419,57.03,31.6,57.03,30.501z"/>
			<path fill="#F7296E" d="M45.342,24.555v26.394l20.529-8.795V15.756L45.342,24.555z M60.741,35.371
				c0,2.705-2.012,4.915-5.063,6.224c-1.979,0.848-2.97,1.272-4.948,2.121c-0.827,0.356-1.489-0.081-1.489-0.991
				c0-4.61,0-6.915,0-11.526c0-0.908,0.656-1.909,1.489-2.264c1.918-0.822,2.874-1.234,4.791-2.056
				c1.544-0.662,2.765-0.718,3.534-0.205c0.622,0.41,0.929,1.1,0.929,2.114c0,0.017,0,0.026,0,0.043c0,1.668-1.774,3.95-1.774,3.95
				c0.049,0.11,2.535,0.562,2.535,2.547C60.741,35.346,60.741,35.353,60.741,35.371z"/>
		</g>
		<path fill="#F7296E" d="M29.359,36.49c1.618-3.849,2.427-5.775,4.047-9.624c0.283-0.661,0.794-0.917,1.493-0.617
			c0.06,0.025,0.09,0.038,0.149,0.064c0.697,0.298,1.194,0.984,1.476,1.889c1.619,5.238,2.429,7.858,4.046,13.094
			c0.085,0.261,0.136,0.49,0.136,0.694c0,0.848-0.531,1.3-1.211,1.005c-0.597-0.255-0.994-0.856-1.229-1.618
			c-0.311-1.04-0.468-1.56-0.779-2.601c-2.044-0.876-3.067-1.314-5.11-2.189c-0.324,0.81-0.488,1.213-0.811,2.024
			c-0.218,0.524-0.648,0.712-1.18,0.481c-0.665-0.283-1.179-1.162-1.179-1.986C29.208,36.881,29.276,36.682,29.359,36.49z
			 M36.541,35.57c-0.645-2.182-0.966-3.273-1.608-5.455c-0.644,1.63-0.967,2.445-1.61,4.074
			C34.611,34.741,35.254,35.016,36.541,35.57z"/>
		<path fill="#F7296E" d="M45.342,6.956l-20.531,8.798l12.998,5.571l0,0l7.532,3.23l20.53-8.801L45.342,6.956z M51.611,19.476
			c-3.281,1.994-8.355,1.848-11.684-0.209l-0.032-0.021c-3.293-2.036-3.602-5.152-0.171-7.231c1.674-1.018,3.272-1.417,4.909-1.539
			c0.456-0.032,1.042,0.059,1.483,0.333c0.701,0.43,0.707,1.096,0.032,1.503c-0.334,0.204-0.689,0.258-0.98,0.292
			c-1.215,0.088-2.229,0.34-3.109,0.87c-1.882,1.143-1.614,2.967,0.37,4.196l0.034,0.021c1.987,1.227,4.967,1.447,6.881,0.285
			c1.038-0.626,1.394-1.247,1.514-2.031c0.024-0.219,0.163-0.445,0.453-0.619c0.623-0.379,1.677-0.37,2.325,0.029
			c0.395,0.247,0.519,0.556,0.494,0.815C54.036,17.339,53.401,18.393,51.611,19.476z"/>
	</g>
	<path fill="#F7296E" d="M63.772,57.162l-9.285,4.387c-1.28-2.383-3.742-3.901-6.446-3.978l-8.572-0.234
		c-1.356-0.039-2.688-0.385-3.896-1.008l-0.872-0.451c-4.466-2.329-9.789-2.323-14.25,0.016l0.055-1.976
		c0.018-0.655-0.498-1.2-1.152-1.22l-9.399-0.257c-0.655-0.019-1.199,0.497-1.217,1.151L8.169,74.219
		c-0.018,0.652,0.498,1.198,1.153,1.219l9.399,0.259h0.033c0.643,0,1.168-0.511,1.186-1.153l0.028-0.987l2.441-1.306
		c0.958-0.517,2.079-0.64,3.126-0.344l14.582,4.092c0.022,0.009,0.049,0.017,0.074,0.019c1.055,0.223,2.13,0.333,3.204,0.332
		c2.281,0.001,4.533-0.49,6.606-1.44c0.053-0.023,0.102-0.051,0.148-0.081l21.142-13.676c0.525-0.343,0.695-1.035,0.387-1.579
		C70.11,56.787,66.628,55.728,63.772,57.162z M10.573,73.1l0.501-18.257l7.029,0.194l-0.502,18.256L10.573,73.1z M48.937,72.787
		c-2.577,1.163-5.454,1.484-8.22,0.918l-14.542-4.081c-1.637-0.464-3.389-0.271-4.885,0.533l-1.249,0.672l0.334-12.141
		c3.955-2.63,9.025-2.9,13.236-0.706l0.873,0.452c1.525,0.787,3.206,1.224,4.921,1.271l8.57,0.234
		c2.408,0.069,4.453,1.784,4.94,4.144L40.15,63.732c-0.656-0.019-1.2,0.495-1.22,1.15c-0.019,0.655,0.499,1.198,1.153,1.219
		l14.088,0.388h0.034c0.641,0,1.167-0.513,1.186-1.153c0.014-0.516-0.023-1.03-0.116-1.539l9.523-4.498
		c0.009-0.007,0.019-0.011,0.027-0.016c1.352-0.682,2.986-0.454,4.097,0.573L48.937,72.787z"/>
</g>
</svg>
