<svg xmlns="http://www.w3.org/2000/svg" width="42.603" height="20.167" viewBox="0 0 42.603 20.167">
  <g id="Group_914" data-name="Group 914" transform="translate(-1419.157 -509.125)">
    <g id="Group_22" data-name="Group 22" transform="translate(1419.157 509.125)">
      <path id="Path" d="M9.353,0C5.247,0,2.432,2.574,0,5.763L1.441,7.875c2.229-3.058,4.6-5.464,7.912-5.464a7.648,7.648,0,0,1,7.559,6.382H7.459V11.2h11.9A10,10,0,0,0,9.353,0" transform="translate(23.17 0)" fill="#ee306f"/>
      <path id="Path-2" data-name="Path" d="M32.3,17.736c-4.121,0-6.84-3.543-10.292-8.741S15.3,0,10.246,0A10.178,10.178,0,0,0,0,10.084,10.178,10.178,0,0,0,10.246,20.167c4.167,0,7.025-2.587,9.495-5.8l-1.455-2.144c-2.265,3.083-4.671,5.508-8.04,5.508a7.727,7.727,0,0,1-7.783-7.652,7.727,7.727,0,0,1,7.783-7.652c4.121,0,6.694,3.362,10.285,8.732s6.718,9,11.772,9a10.261,10.261,0,0,0,9.552-6.436H39.144a7.811,7.811,0,0,1-6.841,4" transform="translate(0 0)" fill="#ee306f"/>
    </g>
  </g>
</svg>
