<svg xmlns="http://www.w3.org/2000/svg" width="107.256" height="104.582" viewBox="0 0 107.256 104.582">
  <g id="Group_1101" data-name="Group 1101" transform="translate(-3682.592 29.964)">
    <path id="Path_2377" data-name="Path 2377" d="M3682.592,21.556c.1-1.163.188-2.326.307-3.485A52.293,52.293,0,0,1,3690.5-4.37,53.177,53.177,0,0,1,3715.229-25.7a53.7,53.7,0,0,1,45.068,1.454c14.645,7.577,24.15,19.4,28.04,35.44a53.538,53.538,0,0,1-31.114,61.821,35.3,35.3,0,0,1-3.666,1.383,4.665,4.665,0,0,1-2,.1,2.387,2.387,0,0,1-1.918-2.527c0-2.478.035-4.958.033-7.436,0-2.984.061-5.972-.063-8.951a12.062,12.062,0,0,0-2.665-7.4c-.229-.278-.487-.536-.783-.856,1.016-.149,1.976-.273,2.93-.431a32.454,32.454,0,0,0,10.121-3.208,19.788,19.788,0,0,0,9.88-12.181,33.46,33.46,0,0,0,1.244-13.768,19.776,19.776,0,0,0-4.918-10.894.853.853,0,0,1-.183-.967,19.028,19.028,0,0,0,.062-11.384c-.179-.638-.427-1.255-.619-1.887a.661.661,0,0,0-.687-.506,12.961,12.961,0,0,0-5.131.818,36.4,36.4,0,0,0-8.568,4.431,1.226,1.226,0,0,1-1.107.2,48.832,48.832,0,0,0-14.136-1.65,47.112,47.112,0,0,0-11.417,1.629,1.38,1.38,0,0,1-1.255-.2,35.918,35.918,0,0,0-8.983-4.529,12.813,12.813,0,0,0-4.63-.7.737.737,0,0,0-.754.557,19.585,19.585,0,0,0-.685,12.718,1.725,1.725,0,0,1-.362,1.876,20.438,20.438,0,0,0-4.792,13.2,34.791,34.791,0,0,0,1.612,11.6,20.113,20.113,0,0,0,12.025,12.731,38.7,38.7,0,0,0,9.976,2.431c.208.026.415.062.638.1-.021.066-.022.122-.051.151a11.191,11.191,0,0,0-3.139,6.473.84.84,0,0,1-.581.753,13.184,13.184,0,0,1-8.388.82,10.812,10.812,0,0,1-6.442-5.024,14.888,14.888,0,0,0-4.14-4.521,7.431,7.431,0,0,0-5.763-1.278,2.3,2.3,0,0,0-.546.173c-.553.256-.747.7-.393,1.185a4.983,4.983,0,0,0,1.37,1.407c3.4,1.981,5.155,5.22,6.63,8.64a10.078,10.078,0,0,0,7.306,5.991,23.466,23.466,0,0,0,9.048.162c.48-.068.959-.149,1.511-.233.014.224.032.421.034.621.017,2.984-.032,5.972.066,8.954.079,2.471-1.857,3.5-3.946,2.815a50.314,50.314,0,0,1-13.786-7.031,53.1,53.1,0,0,1-21.286-31.859,49.737,49.737,0,0,1-1.24-9.007,6.627,6.627,0,0,0-.092-.662Z" transform="translate(0 0)" fill="#fff"/>
  </g>
</svg>
