<svg xmlns="http://www.w3.org/2000/svg" width="30.333" height="14.368" viewBox="0 0 30.333 14.368"><g transform="translate(0 -0.75)"><path d="M6.659,0C3.736,0,1.732,1.834,0,4.106l1.026,1.5C2.613,3.432,4.3,1.718,6.659,1.718a5.446,5.446,0,0,1,5.382,4.547H5.311V7.982h8.473A7.121,7.121,0,0,0,6.659,0" transform="translate(16.497 0.75)" fill="#ee306f"/><path d="M23,12.636c-2.934,0-4.87-2.524-7.328-6.227S10.894,0,7.3,0A7.249,7.249,0,0,0,0,7.184a7.249,7.249,0,0,0,7.3,7.184c2.967,0,5-1.843,6.76-4.129L13.02,8.712c-1.612,2.2-3.326,3.924-5.725,3.924A5.5,5.5,0,0,1,1.754,7.184,5.5,5.5,0,0,1,7.3,1.732c2.934,0,4.766,2.4,7.323,6.221S19.4,14.368,23,14.368a7.305,7.305,0,0,0,6.8-4.585H27.87A5.561,5.561,0,0,1,23,12.636" transform="translate(0 0.75)" fill="#ee306f"/></g></svg>