<svg id="aeternity-logo-vector-white-bg-stacked01" xmlns="http://www.w3.org/2000/svg" width="149.23" height="102.597" viewBox="0 0 149.23 102.597">
  <path id="Shape" d="M8.055,22.651H7.847a8.653,8.653,0,0,1-5.761-1.777A6.142,6.142,0,0,1,0,15.948a5.681,5.681,0,0,1,2.483-4.926C4.133,9.87,6.6,9.286,9.83,9.286h3.987V7.853a4.017,4.017,0,0,0-.992-2.877A3.739,3.739,0,0,0,10,3.937a5.058,5.058,0,0,0-3.1.9,2.7,2.7,0,0,0-1.2,2.23L.646,6.682A5.7,5.7,0,0,1,3.287,1.867,11.492,11.492,0,0,1,10.038,0c3.088,0,5.434.9,6.972,2.685A9.262,9.262,0,0,1,23.8,0h.119a9.113,9.113,0,0,1,6.908,2.614c1.648,1.737,2.483,4.212,2.483,7.358v2.765H18.8a6.66,6.66,0,0,0,1.775,4.4,5.926,5.926,0,0,0,4.383,1.595h.191a10.86,10.86,0,0,0,4.9-1.172l1.272-.687,1.524,3.352A10.942,10.942,0,0,1,29.209,22a15.893,15.893,0,0,1-4.491.646h-.049a10.509,10.509,0,0,1-8.2-3.251,8.821,8.821,0,0,1-3.59,2.4A14.016,14.016,0,0,1,8.055,22.651Zm1.67-9.994a5.714,5.714,0,0,0-3.422,1,2.891,2.891,0,0,0-1.252,2.372,2.577,2.577,0,0,0,.97,2.109,4.344,4.344,0,0,0,2.807.8,6.794,6.794,0,0,0,2.63-.6,7.964,7.964,0,0,0,2.359-1.463V12.657ZM23.783,3.935a4.475,4.475,0,0,0-3.256,1.394,6.884,6.884,0,0,0-1.66,3.957H28.3V8.681a5.011,5.011,0,0,0-1.138-3.512,4.213,4.213,0,0,0-3.245-1.232Z" transform="translate(0 62.623)" fill="#fff"/>
  <path id="Path" d="M8.169,0V5.391h3.706v3.69H8.169V21.462A2.836,2.836,0,0,0,8.645,23.3a2.129,2.129,0,0,0,1.7.564,6.914,6.914,0,0,0,1.65-.205v3.854a11.05,11.05,0,0,1-3.1.472q-5.433,0-5.434-6.334V9.081H0V5.391H3.453V0Z" transform="translate(34.643 58.626)" fill="#fff"/>
  <path id="Shape-2" data-name="Shape" d="M11.044,22.651h-.169a10.825,10.825,0,0,1-7.861-2.938A10.471,10.471,0,0,1,0,11.889v-.6A12.753,12.753,0,0,1,1.314,5.44,9.725,9.725,0,0,1,5,1.432,10.01,10.01,0,0,1,10.171,0h.117a9.127,9.127,0,0,1,7.169,2.846c1.678,1.888,2.529,4.6,2.53,8.054v1.979H5.145a6.464,6.464,0,0,0,1.878,4.28A5.72,5.72,0,0,0,11,18.735l.169,0h.13a7.024,7.024,0,0,0,5.58-2.726l2.75,2.523a9.1,9.1,0,0,1-3.642,3.037A11.863,11.863,0,0,1,11.044,22.651ZM10.114,3.934A4.373,4.373,0,0,0,6.876,5.349,7.224,7.224,0,0,0,5.228,9.286h9.719V8.922A5.849,5.849,0,0,0,13.584,5.2a4.375,4.375,0,0,0-3.317-1.262Z" transform="translate(47.967 62.624)" fill="#fff"/>
  <path id="Path-2" data-name="Path" d="M10.64,4.976a10.329,10.329,0,0,0-1.858-.165A4.144,4.144,0,0,0,4.56,7.442V22.651H0V.413H4.354L4.466,2.9A5.074,5.074,0,0,1,9.045,0,3.936,3.936,0,0,1,10.659.29Z" transform="translate(71.95 62.623)" fill="#fff"/>
  <path id="Path-3" data-name="Path" d="M4.773.411l.146,2.57A8.153,8.153,0,0,1,11.484,0q7.045,0,7.17,7.954v14.7H13.589V8.242a4.537,4.537,0,0,0-.928-3.135A3.934,3.934,0,0,0,9.629,4.09,4.888,4.888,0,0,0,5.065,6.824V22.651H0V.411Z" transform="translate(85.274 62.623)" fill="#fff"/>
  <path id="Shape-3" data-name="Shape" d="M5,30.646H.291V8.436H5V30.645ZM2.661,5.3H2.655A2.547,2.547,0,0,1,.688,4.546,2.68,2.68,0,0,1,0,2.669,2.755,2.755,0,0,1,.688.76,2.525,2.525,0,0,1,2.655,0,2.558,2.558,0,0,1,4.631.76a2.723,2.723,0,0,1,.7,1.909,2.654,2.654,0,0,1-.7,1.877A2.57,2.57,0,0,1,2.661,5.3Z" transform="translate(107.925 54.629)" fill="#fff"/>
  <path id="Path-4" data-name="Path" d="M8.169,0V5.391h3.706v3.69H8.169V21.462A2.836,2.836,0,0,0,8.645,23.3a2.129,2.129,0,0,0,1.7.564,6.913,6.913,0,0,0,1.65-.205v3.854a11.049,11.049,0,0,1-3.1.472q-5.433,0-5.433-6.334V9.081H0V5.391H3.454V0Z" transform="translate(115.92 58.626)" fill="#fff"/>
  <path id="Path-5" data-name="Path" d="M10.116,14.809,14.65,0h5.337l-8.86,25.138Q9.086,30.645,4.2,30.645a9.093,9.093,0,0,1-2.411-.365V26.469l.948.061a4.958,4.958,0,0,0,2.854-.675,4.475,4.475,0,0,0,1.514-2.268l.721-1.875L0,0H5.4Z" transform="translate(129.244 62.623)" fill="#fff"/>
  <path id="Shape-4" data-name="Shape" d="M2.186,6.663c-.044,0-.091,0-.145-.006H0V.006H1.919C1.976,0,2.028,0,2.076,0A2.082,2.082,0,0,1,3.364.458a1.743,1.743,0,0,1,.5,1.348,1.642,1.642,0,0,1-.207.823,1.4,1.4,0,0,1-.608.566,1.239,1.239,0,0,1,.7.55,1.83,1.83,0,0,1,.248.97,1.96,1.96,0,0,1-.506,1.439A1.964,1.964,0,0,1,2.186,6.663ZM.973,3.656V5.734h1.08l.061,0a.95.95,0,0,0,.653-.272,1.038,1.038,0,0,0,.258-.749c0-.688-.3-1.045-.892-1.059Zm0-2.719V2.806h.953l.066,0a.984.984,0,0,0,.644-.247.918.918,0,0,0,.255-.692.946.946,0,0,0-.236-.712A1.071,1.071,0,0,0,2.009.934q-.045,0-.09,0Z" transform="translate(25.316 95.934)" fill="#fff"/>
  <path id="Path-6" data-name="Path" d="M1.106,5.738H4v.924H0V0H1.106V5.738Z" transform="translate(34.643 95.934)" fill="#fff"/>
  <path id="Shape-5" data-name="Shape" d="M2.676,6.663a2.716,2.716,0,0,1-1.394-.386,2.511,2.511,0,0,1-.944-1.1A3.868,3.868,0,0,1,0,3.537V3.171A4,4,0,0,1,.333,1.5a2.509,2.509,0,0,1,.94-1.11A2.535,2.535,0,0,1,2.621,0h.088A2.576,2.576,0,0,1,4.055.381a2.489,2.489,0,0,1,.938,1.1A4.009,4.009,0,0,1,5.329,3.14V3.5A4.027,4.027,0,0,1,5,5.172a2.465,2.465,0,0,1-.932,1.1A2.716,2.716,0,0,1,2.676,6.663Zm0-.927h.059a1.308,1.308,0,0,0,1.08-.571,2.872,2.872,0,0,0,.4-1.666V3.163a2.837,2.837,0,0,0-.4-1.652,1.416,1.416,0,0,0-2.276,0,2.8,2.8,0,0,0-.416,1.619V3.5a2.818,2.818,0,0,0,.413,1.651,1.326,1.326,0,0,0,1.1.585Z" transform="translate(45.302 95.933)" fill="#fff"/>
  <path id="Path-7" data-name="Path" d="M5.33,4.461a2.305,2.305,0,0,1-.792,1.617A2.759,2.759,0,0,1,2.7,6.659a2.683,2.683,0,0,1-1.412-.368A2.433,2.433,0,0,1,.346,5.248,3.653,3.653,0,0,1,0,3.678v-.6A3.68,3.68,0,0,1,.337,1.458,2.475,2.475,0,0,1,1.3.381,2.763,2.763,0,0,1,2.755,0,2.648,2.648,0,0,1,4.542.584,2.391,2.391,0,0,1,5.33,2.227H4.169a1.569,1.569,0,0,0-.422-1.008A1.425,1.425,0,0,0,2.755.911a1.377,1.377,0,0,0-1.167.536,2.606,2.606,0,0,0-.417,1.575V3.6A2.765,2.765,0,0,0,1.56,5.2a1.306,1.306,0,0,0,1.14.552,1.542,1.542,0,0,0,1.032-.3,1.529,1.529,0,0,0,.437-.992Z" transform="translate(55.961 95.934)" fill="#fff"/>
  <path id="Path-8" data-name="Path" d="M1.927,3.784l-.761.8V6.662H0V0H1.166V3.125l.646-.792L3.776,0h1.41L2.693,2.951,5.33,6.662H3.947L1.927,3.784Z" transform="translate(67.953 95.934)" fill="#fff"/>
  <path id="Path-9" data-name="Path" d="M5.33,4.461a2.307,2.307,0,0,1-.792,1.617A2.758,2.758,0,0,1,2.7,6.659a2.683,2.683,0,0,1-1.412-.368A2.43,2.43,0,0,1,.346,5.248,3.653,3.653,0,0,1,0,3.678v-.6A3.676,3.676,0,0,1,.337,1.458,2.473,2.473,0,0,1,1.3.381,2.763,2.763,0,0,1,2.755,0,2.648,2.648,0,0,1,4.542.584,2.391,2.391,0,0,1,5.33,2.227H4.169a1.57,1.57,0,0,0-.422-1.008A1.425,1.425,0,0,0,2.755.911a1.378,1.378,0,0,0-1.167.536,2.606,2.606,0,0,0-.417,1.575V3.6A2.765,2.765,0,0,0,1.56,5.2a1.306,1.306,0,0,0,1.14.552,1.541,1.541,0,0,0,1.032-.3,1.527,1.527,0,0,0,.438-.992Z" transform="translate(77.28 95.934)" fill="#fff"/>
  <path id="Path-10" data-name="Path" d="M5.33,6.662H4.168V3.706h-3V6.662H0V0H1.166V2.773h3V0H5.33V6.662Z" transform="translate(89.271 95.934)" fill="#fff"/>
  <path id="Shape-6" data-name="Shape" d="M1.319,6.663H0L2.759,0H3.9L6.662,6.661l-1.324,0-.6-1.552H1.911L1.319,6.663Zm2.007-5.25L2.268,4.178H4.384Z" transform="translate(99.931 95.934)" fill="#fff"/>
  <rect id="Rectangle" width="1.332" height="6.662" transform="translate(111.922 95.934)" fill="#fff"/>
  <path id="Path-11" data-name="Path" d="M5.33,6.662H4.162L1.167,1.935V6.662H0V0H1.167l3,4.745V0H5.33V6.662Z" transform="translate(118.585 95.934)" fill="#fff"/>
  <path id="Path-12" data-name="Path" d="M22.445,0C12.592,0,5.837,6.122,0,13.707l3.459,5.024c5.348-7.274,11.031-13,18.986-13a18.305,18.305,0,0,1,18.14,15.179H17.9v5.735H46.458a23.54,23.54,0,0,0,.176-2.867A24.015,24.015,0,0,0,22.445,0" transform="translate(77.28)" fill="#fff"/>
  <path id="Path-13" data-name="Path" d="M76.1,42.183c-9.708,0-16.114-8.426-24.246-20.789S36.043,0,24.137,0a23.984,23.984,0,1,0,0,47.967c9.815,0,16.549-6.153,22.367-13.784l-3.426-5.1c-5.335,7.332-11,13.1-18.94,13.1a18.2,18.2,0,1,1,0-36.4c9.708,0,15.768,8,24.228,20.769S64.191,47.967,76.1,47.967A24.172,24.172,0,0,0,98.6,32.659H92.211A18.371,18.371,0,0,1,76.1,42.183" transform="translate(23.983)" fill="#fff"/>
</svg>
