<?xml version="1.0" encoding="utf-8"?>
<!-- Generator: Adobe Illustrator 16.0.3, SVG Export Plug-In . SVG Version: 6.00 Build 0)  -->
<!DOCTYPE svg PUBLIC "-//W3C//DTD SVG 1.1//EN" "http://www.w3.org/Graphics/SVG/1.1/DTD/svg11.dtd">
<svg version="1.1" id="Layer_1" xmlns="http://www.w3.org/2000/svg" xmlns:xlink="http://www.w3.org/1999/xlink" x="0px" y="0px"
	 width="119px" height="119px" viewBox="0 0 119 119" enable-background="new 0 0 119 119" xml:space="preserve">
<g id="Build_in_Oracles_icon" transform="translate(2176 -5996)">
	<g id="Group_1922" transform="translate(-2437 3076)">
		<g id="Ellipse_687" transform="translate(261 2920)">
			<circle fill="#F7296E" cx="59.5" cy="59.5" r="59.5"/>
			<circle fill="#F7296E" cx="59.5" cy="59.5" r="58"/>
		</g>
	</g>
	<g>
		<path fill="#FFFFFF" d="M-2080.875,6051.789h-0.404c-6.148-21.385-5.729-19.946-5.787-20.08c0.139-0.451,0.105-0.472,0.105-3.373
			c0-1.309-1.066-2.375-2.375-2.375c-2.887,0-2.918-0.034-3.373,0.106c-0.137-0.062,1.287,0.354-20.08-5.752v-0.44
			c0-1.31-1.066-2.375-2.375-2.375h-2.672c-1.311,0-2.375,1.065-2.375,2.375v0.44c-21.377,6.107-19.944,5.69-20.08,5.752
			c-0.453-0.14-0.472-0.106-3.373-0.106c-1.309,0-2.375,1.066-2.375,2.375c0,2.887-0.036,2.918,0.106,3.373
			c-0.062,0.135,0.349-1.275-5.752,20.08h-0.44c-1.31,0-2.375,1.065-2.375,2.375v2.672c0,1.311,1.065,2.375,2.375,2.375h0.44
			c6.113,21.396,5.688,19.939,5.752,20.08c-0.141,0.453-0.106,0.479-0.106,3.373c0,1.311,1.066,2.375,2.375,2.375
			c2.887,0,2.917,0.036,3.373-0.105c0.136,0.063-1.287-0.353,20.08,5.752v0.439c0,1.311,1.064,2.375,2.375,2.375h2.672
			c1.309,0,2.375-1.064,2.375-2.375v-0.439c21.377-6.106,19.943-5.689,20.08-5.752c0.451,0.14,0.472,0.105,3.373,0.105
			c1.309,0,2.375-1.064,2.375-2.375c0-2.887,0.035-2.918-0.105-3.373c0.063-0.141-0.363,1.311,5.787-20.08h0.404
			c1.309,0,2.375-1.064,2.375-2.375v-2.672C-2078.5,6052.854-2079.566,6051.789-2080.875,6051.789z M-2092.008,6028.336h2.672v2.672
			h-2.672V6028.336z M-2085.84,6057.447l-3.645,3.646v-4.407h3.563C-2085.922,6056.926-2085.926,6057.122-2085.84,6057.447z
			 M-2085.922,6054.313h-3.563v-4.405l3.645,3.646C-2085.928,6053.883-2085.922,6054.098-2085.922,6054.313z M-2092.621,6033.3
			c0.332,0.089,0.547,0.083,0.762,0.083v10.79l-5.816-5.817L-2092.621,6033.3z M-2094.271,6056.688h2.412v6.783l-7.496,7.496
			l-8.293-8.295l1.191-0.687c0.367-0.213,0.594-0.604,0.594-1.028v-4.27h2.371c0.655,0,1.186-0.532,1.186-1.188
			s-0.529-1.188-1.186-1.188h-2.371v-4.268c0-0.423-0.227-0.816-0.594-1.028l-1.191-0.688l8.293-8.294l7.496,7.496v6.781h-2.412
			c-0.656,0-1.188,0.532-1.188,1.188S-2094.928,6056.688-2094.271,6056.688z M-2121.192,6054.237l3.505,2.022v8.097l-7.074-4.086
			v-9.539l8.261-4.77l7.139,4.12l-7.139,4.122l-3.503-2.023c-0.568-0.328-1.295-0.134-1.623,0.435
			C-2121.954,6053.183-2121.759,6053.908-2121.192,6054.237z M-2125.351,6048.329l-1.191,0.688
			c-0.367,0.212-0.594,0.605-0.594,1.028v4.268h-14.004v-6.781l7.496-7.496L-2125.351,6048.329z M-2131.966,6038.355l7.496-7.496
			h6.782v13.045l-5.534,3.195L-2131.966,6038.355z M-2127.136,6056.688v4.27c0,0.423,0.228,0.816,0.594,1.029l1.191,0.686
			l-8.293,8.295l-7.496-7.496v-6.782L-2127.136,6056.688L-2127.136,6056.688z M-2123.221,6063.902l5.533,3.192v13.045h-6.782
			l-7.496-7.496L-2123.221,6063.902z M-2115.313,6043.904v-13.045h6.781l7.496,7.496l-8.744,8.744L-2115.313,6043.904z
			 M-2108.238,6052.176v8.096l-7.074,4.084v-8.096L-2108.238,6052.176z M-2115.313,6067.096l5.533-3.192l8.744,8.742l-7.496,7.496
			h-6.781V6067.096z M-2099.355,6036.677l-5.816-5.817h10.79c0,0.232-0.007,0.429,0.083,0.762L-2099.355,6036.677z
			 M-2112.801,6022.782l18.438,5.268c-0.012,0.095-0.02,0.189-0.02,0.286c0,0.215,1.461,0.148-13.166,0.148l-5.323-5.324
			C-2112.84,6023.037-2112.813,6022.912-2112.801,6022.782z M-2114.553,6024.839l3.646,3.646h-4.406v-3.563
			C-2115.081,6024.922-2114.885,6024.929-2114.553,6024.839z M-2117.836,6019.875h2.672v2.672h-2.672
			C-2117.837,6019.838-2117.851,6019.875-2117.836,6019.875L-2117.836,6019.875z M-2118.448,6024.839
			c0.33,0.09,0.545,0.083,0.76,0.083v3.563h-4.406L-2118.448,6024.839z M-2120.199,6022.782c0.013,0.13,0.038,0.255,0.071,0.378
			l-5.326,5.324c-14.634,0-13.164,0.066-13.164-0.148c0-0.097-0.008-0.191-0.02-0.286L-2120.199,6022.782z M-2138.617,6030.859
			h10.79l-5.817,5.817l-5.056-5.056C-2138.612,6031.29-2138.617,6031.074-2138.617,6030.859L-2138.617,6030.859z M-2140.379,6033.3
			l5.056,5.056l-5.817,5.817v-10.79C-2140.909,6033.383-2140.712,6033.39-2140.379,6033.3L-2140.379,6033.3z M-2143.664,6028.336
			h2.672v2.672h-2.672C-2143.666,6028.327-2143.679,6028.336-2143.664,6028.336z M-2143.951,6033.364
			c0.183,0.022,0.264,0.019,0.435,0.019v13.165l-5.325,5.325c-0.123-0.034-0.248-0.06-0.378-0.072L-2143.951,6033.364z
			 M-2147.078,6054.313c0-0.236,0.004-0.435-0.083-0.76l3.646-3.646v4.405L-2147.078,6054.313L-2147.078,6054.313z
			 M-2143.516,6056.688v4.408l-3.646-3.647c0.089-0.33,0.083-0.545,0.083-0.76L-2143.516,6056.688L-2143.516,6056.688z
			 M-2149.453,6056.836c-0.88,0-1.676,0-2.672,0l-0.002-2.672h2.674V6056.836z M-2143.951,6077.639l-5.269-18.438
			c0.13-0.013,0.255-0.038,0.378-0.071l5.325,5.326v13.162C-2143.688,6077.617-2143.768,6077.613-2143.951,6077.639
			L-2143.951,6077.639z M-2140.992,6082.664h-2.672v-2.672h2.672C-2140.991,6082.604-2140.977,6082.664-2140.992,6082.664z
			 M-2140.379,6077.701c-0.331-0.089-0.546-0.084-0.761-0.084v-10.79l5.817,5.817L-2140.379,6077.701z M-2133.645,6074.323
			l5.817,5.817h-10.79c0-0.235,0.004-0.437-0.083-0.76L-2133.645,6074.323z M-2120.199,6088.218l-18.438-5.269
			c0.011-0.095,0.02-0.188,0.02-0.285c0-0.215-1.461-0.148,13.164-0.148l5.326,5.326
			C-2120.161,6087.964-2120.187,6088.09-2120.199,6088.218L-2120.199,6088.218z M-2118.448,6086.162l-3.646-3.646h4.406v3.563
			C-2117.919,6086.078-2118.116,6086.073-2118.448,6086.162z M-2115.164,6091.125h-2.672v-2.672h2.672
			C-2115.163,6091.163-2115.148,6091.125-2115.164,6091.125z M-2114.553,6086.162c-0.33-0.089-0.545-0.084-0.76-0.084v-3.563h4.406
			L-2114.553,6086.162z M-2112.801,6088.218c-0.014-0.128-0.039-0.254-0.071-0.376l5.323-5.326c14.635,0,13.166-0.066,13.166,0.148
			c0,0.098,0.008,0.19,0.02,0.285L-2112.801,6088.218z M-2094.383,6080.141h-10.791l5.818-5.816l5.055,5.059
			C-2094.391,6079.711-2094.383,6079.926-2094.383,6080.141z M-2092.621,6077.701l-5.057-5.057l5.818-5.817v10.79
			C-2092.092,6077.617-2092.288,6077.611-2092.621,6077.701z M-2089.336,6082.664h-2.672v-2.672h2.672V6082.664z
			 M-2089.049,6077.639c-0.182-0.023-0.262-0.021-0.436-0.021v-13.162l5.323-5.326c0.134,0.036,0.271,0.063,0.412,0.07
			L-2089.049,6077.639z M-2084.16,6051.873l-5.324-5.325v-13.165c0.172,0,0.252,0.004,0.438-0.019l5.301,18.436
			C-2083.891,6051.812-2084.025,6051.837-2084.16,6051.873L-2084.16,6051.873z M-2080.875,6056.836h-2.672v-2.672h2.672
			C-2080.874,6056.846-2080.859,6056.836-2080.875,6056.836z"/>
		<path fill="#FFFFFF" d="M-2098.85,6054.313c-1.651,0-1.649,2.375,0,2.375c0.656,0,1.188-0.531,1.188-1.188
			C-2097.662,6054.844-2098.191,6054.313-2098.85,6054.313z"/>
	</g>
</g>
</svg>
