<svg xmlns="http://www.w3.org/2000/svg" width="119" height="119" viewBox="0 0 119 119"><g transform="translate(2176 -5996)"><g transform="translate(-2437 3076)"><g transform="translate(261 2920)"><circle cx="59.5" cy="59.5" r="59.5" fill="#fff"/><circle cx="58" cy="58" r="58" transform="translate(1.5 1.5)" fill="#fff"/></g></g><path d="M-2080.88,6051.79h-.4c-6.148-21.385-5.728-19.946-5.788-20.08.14-.451.106-.472.106-3.373a2.378,2.378,0,0,0-2.375-2.375c-2.887,0-2.918-.034-3.372.106-.137-.062,1.286.354-20.081-5.752v-.44a2.378,2.378,0,0,0-2.375-2.375h-2.672a2.376,2.376,0,0,0-2.375,2.375v.44c-21.377,6.107-19.944,5.69-20.08,5.752-.453-.14-.472-.106-3.373-.106a2.378,2.378,0,0,0-2.375,2.375c0,2.887-.036,2.918.106,3.373-.062.135.349-1.275-5.752,20.08h-.44a2.377,2.377,0,0,0-2.375,2.375v2.672a2.376,2.376,0,0,0,2.375,2.375h.44c6.113,21.4,5.688,19.939,5.752,20.08-.141.453-.106.479-.106,3.373a2.377,2.377,0,0,0,2.375,2.375c2.887,0,2.917.036,3.373-.1.136.062-1.287-.353,20.08,5.751v.44a2.376,2.376,0,0,0,2.375,2.375h2.672a2.377,2.377,0,0,0,2.375-2.375v-.44c21.378-6.106,19.944-5.689,20.081-5.751.45.139.471.1,3.372.1a2.377,2.377,0,0,0,2.375-2.375c0-2.887.036-2.918-.106-3.373.063-.141-.362,1.311,5.788-20.08h.4a2.377,2.377,0,0,0,2.375-2.375v-2.672A2.371,2.371,0,0,0-2080.88,6051.79Zm-11.13-23.45h2.672v2.672h-2.672Zm6.17,29.11-3.646,3.647v-4.407h3.563A2.542,2.542,0,0,0-2085.84,6057.45Zm-.08-3.14h-3.563v-4.4l3.646,3.646A2.418,2.418,0,0,0-2085.92,6054.31Zm-6.7-21.01a2.564,2.564,0,0,0,.762.083v10.79l-5.817-5.817Zm-1.65,23.39h2.412v6.782l-7.5,7.5-8.293-8.295,1.191-.686a1.19,1.19,0,0,0,.594-1.029v-4.269h2.371a1.187,1.187,0,0,0,1.186-1.188,1.187,1.187,0,0,0-1.186-1.188h-2.371v-4.268a1.189,1.189,0,0,0-.594-1.028l-1.191-.688,8.293-8.294,7.5,7.5v6.781h-2.412a1.188,1.188,0,0,0-1.188,1.188A1.187,1.187,0,0,0-2094.27,6056.69Zm-26.92-2.45,3.5,2.022v8.1l-7.074-4.085v-9.539l8.261-4.77,7.138,4.12-7.138,4.122-3.5-2.023a1.188,1.188,0,0,0-1.623.435A1.189,1.189,0,0,0-2121.19,6054.24Zm-4.16-5.91-1.191.688a1.189,1.189,0,0,0-.594,1.028v4.268h-14v-6.781l7.5-7.5Zm-6.62-9.98,7.5-7.5h6.782V6043.9l-5.534,3.195Zm4.83,18.34v4.269a1.192,1.192,0,0,0,.594,1.029l1.191.686-8.293,8.295-7.5-7.5v-6.782h14Zm3.92,7.21,5.533,3.193v13.045h-6.782l-7.5-7.5Zm7.91-20v-13.045h6.782l7.5,7.5-8.745,8.744Zm7.07,8.28v8.1l-7.074,4.085v-8.1Zm-7.07,14.92,5.533-3.193,8.745,8.742-7.5,7.5h-6.782Zm15.96-30.42-5.817-5.817h10.79a2.479,2.479,0,0,0,.083.762Zm-13.45-13.9,18.438,5.268a2.274,2.274,0,0,0-.02.286c0,.215,1.461.148-13.165.148l-5.324-5.324A2.149,2.149,0,0,0-2112.8,6022.78Zm-1.75,2.06,3.646,3.646h-4.406v-3.563A2.548,2.548,0,0,0-2114.55,6024.84Zm-3.29-4.96h2.672v2.672h-2.672c0-2.712-.01-2.672,0-2.672Zm-.61,4.96a2.513,2.513,0,0,0,.76.083v3.563h-4.406Zm-1.75-2.06a2.358,2.358,0,0,0,.071.378l-5.326,5.324c-14.634,0-13.164.066-13.164-.148a2.473,2.473,0,0,0-.019-.286Zm-18.42,8.08h10.79l-5.817,5.817-5.056-5.056a2.44,2.44,0,0,0,.083-.761Zm-1.76,2.44,5.056,5.056-5.817,5.817v-10.79a2.551,2.551,0,0,0,.761-.083Zm-3.28-4.96h2.672v2.672h-2.672C-2143.67,6028.33-2143.68,6028.34-2143.66,6028.34Zm-.29,5.02a2.953,2.953,0,0,0,.435.019v13.165l-5.325,5.325a2.118,2.118,0,0,0-.378-.072Zm-3.13,20.95a2.528,2.528,0,0,0-.083-.76l3.646-3.646v4.4h-3.563Zm3.56,2.38v4.407l-3.646-3.647a2.536,2.536,0,0,0,.083-.76h3.563Zm-5.93.15h-2.672l0-2.672h2.674Zm5.5,20.8-5.268-18.438a2.413,2.413,0,0,0,.378-.071l5.325,5.326v13.162a2.146,2.146,0,0,0-.435.021Zm2.96,5.02h-2.672v-2.672h2.672C-2140.99,6082.6-2140.98,6082.66-2140.99,6082.66Zm.61-4.96a2.56,2.56,0,0,0-.761-.084v-10.79l5.817,5.817Zm6.73-3.38,5.817,5.817h-10.79a2.528,2.528,0,0,0-.083-.76Zm13.45,13.9-18.437-5.268a2.459,2.459,0,0,0,.019-.286c0-.215-1.461-.148,13.164-.148l5.326,5.326a2.011,2.011,0,0,0-.072.376Zm1.75-2.06-3.646-3.646h4.406v3.563A2.548,2.548,0,0,0-2118.45,6086.16Zm3.29,4.97h-2.672v-2.672h2.672C-2115.16,6091.16-2115.15,6091.13-2115.16,6091.13Zm.61-4.97a2.551,2.551,0,0,0-.76-.084v-3.563h4.406Zm1.75,2.06a2.355,2.355,0,0,0-.071-.376l5.324-5.326c14.634,0,13.165-.066,13.165.148a2.262,2.262,0,0,0,.02.286Zm18.42-8.08h-10.79l5.817-5.817,5.056,5.058A2.424,2.424,0,0,0-2094.38,6080.14Zm1.76-2.44-5.056-5.057,5.817-5.817v10.79A2.589,2.589,0,0,0-2092.62,6077.7Zm3.28,4.96h-2.672v-2.672h2.672Zm.29-5.02a2.833,2.833,0,0,0-.437-.021v-13.162l5.324-5.326a2.076,2.076,0,0,0,.412.071Zm4.89-25.77-5.324-5.325V6033.38a2.854,2.854,0,0,0,.437-.019l5.3,18.436a3.07,3.07,0,0,0-.413.073Zm3.28,4.97h-2.672v-2.672h2.672C-2080.87,6056.85-2080.86,6056.84-2080.88,6056.84Z" fill="#f7296e"/><path d="M-2098.85,6054.31a1.189,1.189,0,1,0,0,2.375,1.188,1.188,0,0,0,1.188-1.188A1.185,1.185,0,0,0-2098.85,6054.31Z" fill="#f7296e"/></g></svg>