<svg xmlns="http://www.w3.org/2000/svg" width="64" height="64" viewBox="0 0 64 64">
  <g id="Changelly_icon" transform="translate(-0.5 -0.5)">
    <circle id="Ellipse_1089" data-name="Ellipse 1089" cx="32" cy="32" r="32" transform="translate(0.5 0.5)" fill="#fff"/>
    <g id="Group_1671" data-name="Group 1671" transform="translate(13 14)">
      <path id="Path_2984" data-name="Path 2984" d="M37.705.059a42.1,42.1,0,0,0-7.474,1.118C24.73,2.472,20.61,4.62,18.08,7.532c-.559.647-1.089,1.265-1.56,1.854-1,.265-3.766,1.03-5.031,1.265a2.87,2.87,0,0,0-1.795,1.177c-.912,1.324-2.5,4.031-2.56,4.149L5.31,19.1l3.325-1.442c1.442-.647,3.472-1.089,4.06-.736.029.029.059.029.088.206a6.281,6.281,0,0,0,.677,2.766,3.533,3.533,0,0,0-1.353,2.972v4.06h4.06a3.652,3.652,0,0,0,2.972-1.354,6.713,6.713,0,0,0,2.766.677c.147.029.177.059.177.088.353.588-.088,2.619-.736,4.06L19.9,33.69l3.119-1.824c.118-.059,2.825-1.648,4.149-2.56a2.8,2.8,0,0,0,1.177-1.795c.265-1.265,1-4.031,1.265-5.031.589-.471,1.206-1,1.854-1.56,6.826-6.032,7.444-19.1,7.474-19.655L39,0ZM13.254,14.623a5.494,5.494,0,0,0-2.5-.059c.324-.53.647-1.03.912-1.412a.424.424,0,0,1,.324-.206c.589-.118,1.5-.353,2.413-.559A10.782,10.782,0,0,0,13.254,14.623Zm4,9.445a1.189,1.189,0,0,1-1.03.471h-.382l2.442-3.825-3.825,2.472v-.412a1.157,1.157,0,0,1,.471-1.03l4.678-3.707a1.924,1.924,0,0,1,.853-.412L21.7,17.33,21.4,18.566a2.1,2.1,0,0,1-.412.853Zm8.768,2.972a.559.559,0,0,1-.206.324c-.382.265-.883.589-1.412.912a5.494,5.494,0,0,0-.059-2.5,12.172,12.172,0,0,0,2.236-1.118C26.377,25.54,26.142,26.422,26.024,27.04Zm3.884-7.885c-4.06,3.59-6.3,4.649-7.915,4.708h-.059a3.787,3.787,0,0,1-1.324-.235l2.177-2.766A4.984,4.984,0,0,0,23.67,19.1l1.177-4.943L19.9,15.33a4.293,4.293,0,0,0-1.765.853L15.373,18.36a3.787,3.787,0,0,1-.235-1.324v-.059c.029-1.589,1.118-3.854,4.708-7.915C24.171,4.149,33.115,2.825,36.47,2.5,36.146,5.885,34.822,14.83,29.908,19.155Z" fill="#10d078"/>
      <path id="Path_2985" data-name="Path 2985" d="M11.622,32.736a26.29,26.29,0,0,1-4.561.412c-.883,0-1.765-.029-2.678-.118.353-.589.677-1.177.971-1.795A23.437,23.437,0,0,0,6.65,27.41a32.372,32.372,0,0,1,1.089-3.649q.618-1.81,1.412-3.619a12.206,12.206,0,0,0-1.265,1.5c-.383.53-.765,1.089-1.118,1.648A26.709,26.709,0,0,0,5,26.851a30.121,30.121,0,0,1-1.559,3.413,16.953,16.953,0,0,1-2.089,2.972L0,34.825l2.089.294a28.374,28.374,0,0,0,5,.294,18.392,18.392,0,0,0,2.53-.235,17.671,17.671,0,0,0,2.472-.559,15.582,15.582,0,0,0,4.561-2.207,10.213,10.213,0,0,0,1.854-1.707,8.766,8.766,0,0,0,1.354-2.089,13.273,13.273,0,0,1-3.855,2.707A18.152,18.152,0,0,1,11.622,32.736Z" fill="#10d078"/>
      <path id="Path_2986" data-name="Path 2986" d="M29.055,14.065A4.242,4.242,0,0,0,32,12.858,4.138,4.138,0,0,0,32,7,4.091,4.091,0,0,0,29.055,5.8,4.214,4.214,0,0,0,26.113,7a4.134,4.134,0,0,0,2.942,7.062ZM27.76,8.651a1.759,1.759,0,0,1,1.265-.53,1.711,1.711,0,0,1,1.265.53,1.789,1.789,0,0,1-2.53,2.53A1.831,1.831,0,0,1,27.76,8.651Z" fill="#10d078"/>
    </g>
  </g>
</svg>
