<svg xmlns="http://www.w3.org/2000/svg" width="119" height="119" viewBox="0 0 119 119"><g transform="translate(3698 -6271)"><g transform="translate(-3959 3351)"><circle cx="59.5" cy="59.5" r="59.5" transform="translate(261 2920)" fill="#fff"/></g><g transform="translate(2035.027 -540.906)"><path d="M-5633.17,6890.43a20.976,20.976,0,0,0-20.953,20.952,20.976,20.976,0,0,0,20.953,20.953,20.976,20.976,0,0,0,20.953-20.953A20.976,20.976,0,0,0-5633.17,6890.43Zm0,39.2a18.271,18.271,0,0,1-18.25-18.25,18.272,18.272,0,0,1,18.25-18.251,18.271,18.271,0,0,1,18.251,18.251,18.271,18.271,0,0,1-18.251,18.25Z" transform="translate(-39.215 -34.754)" fill="#f7296e"/><path d="M-5597.35,6920.89l-6.689,6.689a4.188,4.188,0,0,0-1.854-.433,4.175,4.175,0,0,0-1.854.433l-2.994-2.993a1.351,1.351,0,0,0-1.911,0,1.35,1.35,0,0,0,0,1.91l2.995,2.994a4.169,4.169,0,0,0-.433,1.854,4.2,4.2,0,0,0,4.2,4.2,4.2,4.2,0,0,0,4.2-4.2,4.174,4.174,0,0,0-.433-1.854l6.493-6.494.2-.2a1.351,1.351,0,0,0,0-1.911,1.352,1.352,0,0,0-.961-.4,1.351,1.351,0,0,0-.958.4Zm-8.543,11.95a1.5,1.5,0,0,1-1.5-1.5,1.5,1.5,0,0,1,1.5-1.5,1.5,1.5,0,0,1,1.5,1.5,1.5,1.5,0,0,1-1.5,1.5Z" transform="translate(-66.49 -54.724)" fill="#f7296e"/><path d="M-5553.91,6948.82h-1.25a1.352,1.352,0,0,0-1.352,1.351,1.35,1.35,0,0,0,.4.956,1.351,1.351,0,0,0,.957.4h1.25a1.351,1.351,0,0,0,1.352-1.351,1.351,1.351,0,0,0-1.352-1.351Z" transform="translate(-104.031 -73.531)" fill="#f7296e"/><path d="M-5636.15,6948.72h-1.251a1.347,1.347,0,0,0-.956.4,1.351,1.351,0,0,0-.4.956,1.352,1.352,0,0,0,1.351,1.35h1.251a1.35,1.35,0,0,0,1.352-1.35,1.344,1.344,0,0,0-.4-.957,1.352,1.352,0,0,0-.957-.4Z" transform="translate(-49.416 -73.466)" fill="#f7296e"/><path d="M-5594.37,6909.74a1.35,1.35,0,0,0,1.351-1.35v-1.251a1.35,1.35,0,0,0-1.35-1.351,1.351,1.351,0,0,0-1.351,1.351v1.251a1.349,1.349,0,0,0,.4.956,1.349,1.349,0,0,0,.956.4Z" transform="translate(-77.993 -44.955)" fill="#f7296e"/><path d="M-5594.47,6988.03a1.35,1.35,0,0,0-1.35,1.351v1.251a1.35,1.35,0,0,0,1.35,1.351,1.351,1.351,0,0,0,1.351-1.351v-1.251A1.351,1.351,0,0,0-5594.47,6988.03Z" transform="translate(-77.928 -99.57)" fill="#f7296e"/><path d="M-5711.82,6973.58a1.362,1.362,0,0,0-.956.4,1.36,1.36,0,0,0-.4.956,1.354,1.354,0,0,0,.4.954,1.358,1.358,0,0,0,.956.4,1.359,1.359,0,0,0,.954-.4,1.359,1.359,0,0,0,.4-.954,1.359,1.359,0,0,0-.4-.956,1.358,1.358,0,0,0-.956-.4Z" transform="translate(0 -89.972)" fill="#f7296e"/><path d="M-5666.43,6850.22v-3.08a4.6,4.6,0,0,0,3.483-4.457,4.6,4.6,0,0,0-4.592-4.592h-9.724a4.6,4.6,0,0,0-4.592,4.592,4.6,4.6,0,0,0,3.482,4.457v3.08a27.172,27.172,0,0,0-15.384,9.712h-8.859a1.35,1.35,0,0,0-1.35,1.352,1.35,1.35,0,0,0,1.35,1.35h6.974a27.155,27.155,0,0,0-2.436,5.191h-13.745a1.351,1.351,0,0,0-1.351,1.351,1.347,1.347,0,0,0,.4.956,1.349,1.349,0,0,0,.956.4h12.963a27.166,27.166,0,0,0-.7,5.192h-4.975a1.351,1.351,0,0,0-1.352,1.35,1.349,1.349,0,0,0,.4.957,1.349,1.349,0,0,0,.957.4h5.005a27.135,27.135,0,0,0,.823,5.191h-7.72a1.35,1.35,0,0,0-1.351,1.35,1.349,1.349,0,0,0,.4.956,1.351,1.351,0,0,0,.956.4h8.583a27.183,27.183,0,0,0,25.436,17.6,27.176,27.176,0,0,0,27.176-27.176,27.182,27.182,0,0,0-21.2-26.515Zm-12.724-7.536a1.891,1.891,0,0,1,1.891-1.89h9.725a1.892,1.892,0,0,1,1.891,1.89,1.894,1.894,0,0,1-1.891,1.893h-9.724a1.892,1.892,0,0,1-1.887-1.9Zm3.483,4.593h6.539v2.48a27.514,27.514,0,0,0-3.27-.2,27.418,27.418,0,0,0-3.27.2Zm20.577,46.762a24.318,24.318,0,0,1-17.308,7.168,24.318,24.318,0,0,1-17.308-7.167,24.317,24.317,0,0,1-7.168-17.308,24.315,24.315,0,0,1,7.168-17.308,24.319,24.319,0,0,1,17.308-7.167,24.323,24.323,0,0,1,17.307,7.168,24.314,24.314,0,0,1,7.168,17.306,24.319,24.319,0,0,1-7.164,17.309Z" fill="#f7296e"/></g></g></svg>