<svg xmlns="http://www.w3.org/2000/svg" width="119" height="119" viewBox="0 0 119 119">
  <g id="Confirmation_Time_icon" transform="translate(3698 -6271)">
    <g id="Confirmation_Time_icon-2" data-name="Confirmation_Time_icon" transform="translate(-3959 3351)">
      <g id="Ellipse_687" data-name="Ellipse 687" transform="translate(261 2920)" fill="#f7296e" stroke="#f7296e" stroke-width="3">
        <circle cx="59.5" cy="59.5" r="59.5" stroke="none"/>
        <circle cx="59.5" cy="59.5" r="58" fill="none"/>
      </g>
    </g>
    <g id="Group_2032" data-name="Group 2032" transform="translate(2035.027 -540.906)">
      <path id="Path_2378" data-name="Path 2378" d="M-5633.166,6890.426a20.976,20.976,0,0,0-20.952,20.952,20.976,20.976,0,0,0,20.952,20.952,20.976,20.976,0,0,0,20.952-20.952A20.976,20.976,0,0,0-5633.166,6890.426Zm0,39.2a18.271,18.271,0,0,1-18.25-18.25,18.271,18.271,0,0,1,18.25-18.251,18.272,18.272,0,0,1,18.251,18.251A18.271,18.271,0,0,1-5633.166,6929.628Z" transform="translate(-39.215 -34.754)" fill="#fff"/>
      <path id="Path_2379" data-name="Path 2379" d="M-5597.348,6920.894l-6.689,6.689a4.187,4.187,0,0,0-1.854-.433,4.178,4.178,0,0,0-1.854.433l-2.994-2.993a1.351,1.351,0,0,0-1.911,0,1.351,1.351,0,0,0,0,1.91l2.995,2.994a4.16,4.16,0,0,0-.433,1.854,4.2,4.2,0,0,0,4.2,4.2,4.2,4.2,0,0,0,4.2-4.2,4.166,4.166,0,0,0-.433-1.854l6.493-6.494.2-.2a1.351,1.351,0,0,0,0-1.911A1.351,1.351,0,0,0-5597.348,6920.894Zm-8.543,11.95a1.5,1.5,0,0,1-1.5-1.5,1.5,1.5,0,0,1,1.5-1.5,1.5,1.5,0,0,1,1.5,1.5A1.5,1.5,0,0,1-5605.891,6932.844Z" transform="translate(-66.49 -54.724)" fill="#fff"/>
      <path id="Path_2380" data-name="Path 2380" d="M-5553.91,6948.82h-1.25a1.352,1.352,0,0,0-1.352,1.351,1.351,1.351,0,0,0,1.352,1.351h1.25a1.351,1.351,0,0,0,1.352-1.351A1.351,1.351,0,0,0-5553.91,6948.82Z" transform="translate(-104.031 -73.531)" fill="#fff"/>
      <path id="Path_2381" data-name="Path 2381" d="M-5636.154,6948.723h-1.251a1.35,1.35,0,0,0-1.351,1.351,1.35,1.35,0,0,0,1.351,1.35h1.251a1.35,1.35,0,0,0,1.351-1.35A1.35,1.35,0,0,0-5636.154,6948.723Z" transform="translate(-49.416 -73.466)" fill="#fff"/>
      <path id="Path_2382" data-name="Path 2382" d="M-5594.372,6909.739a1.35,1.35,0,0,0,1.35-1.35v-1.251a1.351,1.351,0,0,0-1.35-1.351,1.351,1.351,0,0,0-1.351,1.351v1.251A1.35,1.35,0,0,0-5594.372,6909.739Z" transform="translate(-77.993 -44.955)" fill="#fff"/>
      <path id="Path_2383" data-name="Path 2383" d="M-5594.47,6988.033a1.35,1.35,0,0,0-1.35,1.351v1.251a1.35,1.35,0,0,0,1.35,1.351,1.351,1.351,0,0,0,1.351-1.351v-1.251A1.351,1.351,0,0,0-5594.47,6988.033Z" transform="translate(-77.928 -99.57)" fill="#fff"/>
      <path id="Path_2384" data-name="Path 2384" d="M-5711.821,6973.579a1.361,1.361,0,0,0-.955.4,1.36,1.36,0,0,0-.4.956,1.356,1.356,0,0,0,.4.954,1.361,1.361,0,0,0,.955.4,1.358,1.358,0,0,0,.955-.4,1.359,1.359,0,0,0,.4-.954,1.36,1.36,0,0,0-.4-.956A1.358,1.358,0,0,0-5711.821,6973.579Z" transform="translate(0 -89.972)" fill="#fff"/>
      <path id="Path_2385" data-name="Path 2385" d="M-5666.431,6850.218v-3.08a4.6,4.6,0,0,0,3.483-4.457,4.6,4.6,0,0,0-4.592-4.592h-9.724a4.6,4.6,0,0,0-4.592,4.592,4.6,4.6,0,0,0,3.483,4.457v3.08a27.171,27.171,0,0,0-15.384,9.712h-8.859a1.351,1.351,0,0,0-1.35,1.351,1.35,1.35,0,0,0,1.35,1.35h6.974a27.11,27.11,0,0,0-2.437,5.191h-13.744a1.351,1.351,0,0,0-1.351,1.351,1.35,1.35,0,0,0,1.351,1.351h12.963a27.156,27.156,0,0,0-.695,5.192h-4.975a1.351,1.351,0,0,0-1.352,1.35,1.351,1.351,0,0,0,1.352,1.351h5.006a27.167,27.167,0,0,0,.823,5.191h-7.72a1.35,1.35,0,0,0-1.351,1.35,1.35,1.35,0,0,0,1.351,1.351h8.583a27.182,27.182,0,0,0,25.435,17.6,27.177,27.177,0,0,0,27.177-27.177A27.182,27.182,0,0,0-5666.431,6850.218Zm-12.724-7.536a1.892,1.892,0,0,1,1.891-1.89h9.724a1.892,1.892,0,0,1,1.891,1.89,1.893,1.893,0,0,1-1.891,1.892h-9.724A1.893,1.893,0,0,1-5679.154,6842.682Zm3.483,4.593h6.539v2.48a27.484,27.484,0,0,0-3.27-.2,27.472,27.472,0,0,0-3.27.2Zm20.577,46.762a24.318,24.318,0,0,1-17.307,7.168,24.318,24.318,0,0,1-17.308-7.168,24.317,24.317,0,0,1-7.168-17.307,24.316,24.316,0,0,1,7.168-17.307,24.318,24.318,0,0,1,17.308-7.168,24.318,24.318,0,0,1,17.307,7.168,24.314,24.314,0,0,1,7.168,17.307A24.315,24.315,0,0,1-5655.094,6894.036Z" fill="#fff"/>
    </g>
  </g>
</svg>
