<svg xmlns="http://www.w3.org/2000/svg" width="66.018" height="66.018" viewBox="0 0 66.018 66.018">
  <g id="Devchat_icon" transform="translate(3138.495 -188.426)">
    <g id="Group_1194" data-name="Group 1194" transform="translate(-3114 202.02)">
      <g id="Group_1193" data-name="Group 1193" transform="translate(0 0)">
        <g id="Group_1192" data-name="Group 1192">
          <path id="Path_2493" data-name="Path 2493" d="M-3090.661,210.5a8.054,8.054,0,0,0-8.054,8.054,8.054,8.054,0,0,0,8.054,8.054,8.062,8.062,0,0,0,8.054-8.054A8.054,8.054,0,0,0-3090.661,210.5Zm0,13.423a5.369,5.369,0,0,1-5.369-5.369,5.369,5.369,0,0,1,5.369-5.369,5.369,5.369,0,0,1,5.369,5.369A5.369,5.369,0,0,1-3090.661,223.926Z" transform="translate(3098.714 -210.503)" fill="#f7296e"/>
        </g>
      </g>
    </g>
    <g id="Group_1197" data-name="Group 1197" transform="translate(-3118.027 219.47)">
      <g id="Group_1196" data-name="Group 1196" transform="translate(0 0)">
        <g id="Group_1195" data-name="Group 1195">
          <path id="Path_2494" data-name="Path 2494" d="M-3087.8,238.842h-.316l-.283.14a10.7,10.7,0,0,1-9.538,0l-.283-.14h-.317a6.719,6.719,0,0,0-6.711,6.711v8.054a4.027,4.027,0,0,0,4.027,4.027h16.107a4.027,4.027,0,0,0,4.027-4.027v-8.054A6.72,6.72,0,0,0-3087.8,238.842Zm4.027,14.765a1.342,1.342,0,0,1-1.342,1.342h-16.107a1.342,1.342,0,0,1-1.342-1.342v-8.054a4.026,4.026,0,0,1,3.741-4.016,13.434,13.434,0,0,0,11.31,0,4.027,4.027,0,0,1,3.741,4.016Z" transform="translate(3105.254 -238.842)" fill="#f7296e"/>
        </g>
      </g>
    </g>
    <path id="Path_2495" data-name="Path 2495" d="M-3082.146,198.094a32.791,32.791,0,0,0-23.341-9.668,32.792,32.792,0,0,0-23.341,9.668,32.793,32.793,0,0,0-9.668,23.34,32.856,32.856,0,0,0,5.352,18.021l-3.449,11.1a1.584,1.584,0,0,0,.393,1.592,1.587,1.587,0,0,0,1.591.393l11.1-3.45a32.855,32.855,0,0,0,18.021,5.352,32.794,32.794,0,0,0,23.341-9.669,32.791,32.791,0,0,0,9.668-23.34A32.792,32.792,0,0,0-3082.146,198.094Zm-23.341,53.178a29.666,29.666,0,0,1-16.872-5.227,1.578,1.578,0,0,0-.9-.278,1.6,1.6,0,0,0-.47.071l-8.945,2.78,2.779-8.945a1.575,1.575,0,0,0-.207-1.368,29.665,29.665,0,0,1-5.227-16.871,29.872,29.872,0,0,1,29.838-29.838,29.872,29.872,0,0,1,29.838,29.838A29.872,29.872,0,0,1-3105.486,251.272Z" fill="#f7296e"/>
  </g>
</svg>
