<svg xmlns="http://www.w3.org/2000/svg" width="62.485" height="59.085" viewBox="0 0 62.485 59.085">
  <g id="Development_Grants_icon" transform="translate(-1491.999 -12249.548)">
    <g id="Group_1205" data-name="Group 1205" transform="translate(4260.102 12068.387)">
      <g id="Group_1204" data-name="Group 1204" transform="translate(-2768.103 185.806)">
        <g id="Group_1203" data-name="Group 1203">
          <path id="Path_2501" data-name="Path 2501" d="M-2759.628,222.6a7,7,0,0,1-2.853-4.654c0-.024-.007-.047-.011-.07l-3.658-18.78c-.065-.513-.226-2.75,1.842-3.168,1.787-.283,2.522,1.146,2.824,2.4l.013.052c.005.022.012.044.019.065l4.311,12.955a3.36,3.36,0,0,0,.728,4.323c1.781,1.567,6.01,5.318,6.052,5.356a.962.962,0,0,0,1.358-.081.963.963,0,0,0-.081-1.358c-.042-.038-4.274-3.791-6.058-5.361a1.482,1.482,0,0,1-.184-2.145l.008-.011.006-.008a2.02,2.02,0,0,1,2.826-.492c.063.038,3.051,1.995,3.112,2.035,4.231,2.765,4.993,3.263,5.85,4.451l0,0c4.326,6.25,3.994,5.775,5.12,12.368h-11.949c-.092-.145-.179-.284-.263-.42C-2752.569,226.93-2752.539,227.265-2759.628,222.6Zm21.5,23.883h-16.277a.234.234,0,0,1-.234-.234v-7.873h16.819v7.8h0A.309.309,0,0,1-2738.13,246.482Zm.308-13.971v3.94h-16.819v-3.96a.1.1,0,0,1,.1-.091h16.62a.082.082,0,0,1,.037.009l0,0a.113.113,0,0,1,.057.1v0Zm18.642-.111a.1.1,0,0,1,.1.089v3.962h-16.82v-3.943a.08.08,0,0,1,0-.016.1.1,0,0,1,.094-.092Zm-32.871-22.725a3.745,3.745,0,0,0-3.573.191l-3.991-12c-.668-2.766-2.591-4.238-5.02-3.84l-.03.006c-3.162.622-3.617,3.651-3.387,5.342,0,.019,0,.037.009.055l3.658,18.781a9.065,9.065,0,0,0,3.642,5.953l.038.026c6.678,4.4,6.752,4.206,8.081,6.283h-1.917a2.022,2.022,0,0,0-2.024,2.012v13.759a2.161,2.161,0,0,0,2.158,2.158h16.277a2.216,2.216,0,0,0,1.27-.4,2.217,2.217,0,0,0,1.27.4h6.5a.962.962,0,0,0,.962-.962.962.962,0,0,0-.962-.962h-6.5a.308.308,0,0,1-.308-.308v-7.8h16.819v7.873a.235.235,0,0,1-.235.234h-12.238a.962.962,0,0,0-.962.962.962.962,0,0,0,.962.962h12.238a2.16,2.16,0,0,0,2.158-2.158v-13.76a2.021,2.021,0,0,0-2.023-2.012h-1.917c1.338-2.091,1.474-1.935,8.08-6.283l.038-.026a9.063,9.063,0,0,0,3.642-5.952l.74-3.8a.962.962,0,0,0-.76-1.128.962.962,0,0,0-1.128.76l-.745,3.827c0,.022-.008.044-.011.066a7,7,0,0,1-2.853,4.658c-7.082,4.662-7.059,4.33-9.012,7.457-.085.135-.172.275-.264.42h-11.949c1.161-6.8.9-6.269,5.124-12.374,1.032-1.431,1.942-1.868,8.856-6.419a2.046,2.046,0,0,1,2.925.422l.006.007.012.016a1.483,1.483,0,0,1-.183,2.146c-1.784,1.57-6.015,5.324-6.057,5.361a.962.962,0,0,0-.081,1.358.962.962,0,0,0,1.358.081c.042-.038,4.271-3.789,6.052-5.357a3.358,3.358,0,0,0,.729-4.322l4.311-12.956c.007-.022.013-.043.019-.065l.013-.052c.3-1.251,1.037-2.68,2.824-2.4,2.068.418,1.907,2.654,1.841,3.167l-3.218,16.481a.962.962,0,0,0,.76,1.128.962.962,0,0,0,1.128-.76l3.223-16.51a.506.506,0,0,0,.009-.055c.229-1.691-.225-4.719-3.388-5.342l-.03-.006c-2.429-.4-4.352,1.074-5.02,3.84l-3.991,12a3.8,3.8,0,0,0-4.028.043l-1.775,1.154c-5.3,3.474-6.536,4.2-7.635,5.622l-.01.012c-4.443,5.755-4.945,9.2-5.315,11.361a21.535,21.535,0,0,0-1.151-4.678,45.621,45.621,0,0,0-4.365-6.933c-1.081-1.3-2.471-2.122-7.761-5.59l-.034-.023Z" transform="translate(2768.103 -193.966)" fill="#f7296e"/>
        </g>
      </g>
    </g>
    <g id="aeternity-logo-vector-white-bg-horizontal03" transform="translate(1504.823 12248.798)">
      <path id="Path" d="M7.8,0C4.373,0,2.027,2.147,0,4.807L1.2,6.568C3.059,4.018,5.033,2.011,7.8,2.011a6.376,6.376,0,0,1,6.3,5.323H6.217V9.345h9.919A8.337,8.337,0,0,0,7.8,0" transform="translate(19.312 0.75)" fill="#f7296e"/>
      <path id="Path-2" data-name="Path" d="M26.925,14.792c-3.435,0-5.7-2.955-8.579-7.29S12.753,0,8.54,0A8.486,8.486,0,0,0,0,8.41a8.486,8.486,0,0,0,8.54,8.41c3.473,0,5.855-2.158,7.914-4.833L15.242,10.2c-1.888,2.571-3.894,4.594-6.7,4.594A6.443,6.443,0,0,1,2.053,8.41,6.443,6.443,0,0,1,8.54,2.028c3.435,0,5.579,2.8,8.573,7.283s5.6,7.509,9.812,7.509a8.552,8.552,0,0,0,7.962-5.368h-2.26a6.509,6.509,0,0,1-5.7,3.34" transform="translate(0 0.75)" fill="#f7296e"/>
    </g>
  </g>
</svg>
