<svg id="Developers_Tools_Section_icons" xmlns="http://www.w3.org/2000/svg" width="84.707" height="81.439" viewBox="0 0 84.707 81.439">
  <g id="Group_402" data-name="Group 402" transform="translate(0 0)">
    <path id="Path_1050" data-name="Path 1050" d="M226.72,69.239a6.187,6.187,0,0,0,6.12-6.12,6.12,6.12,0,1,0-6.12,6.12Zm0-9.024a2.645,2.645,0,0,1,2.7,2.7,2.77,2.77,0,0,1-2.7,2.7,2.7,2.7,0,1,1,0-5.394Z" transform="translate(-184.366 -50.69)" fill="#f7296e"/>
    <path id="Path_1051" data-name="Path 1051" d="M82.82,325.9a6.12,6.12,0,1,0,0,12.239,6.176,6.176,0,0,0,6.12-6.12A6.065,6.065,0,0,0,82.82,325.9Zm0,8.644a2.77,2.77,0,0,1-2.7-2.7,2.656,2.656,0,0,1,2.7-2.7,2.77,2.77,0,0,1,2.7,2.7A2.645,2.645,0,0,1,82.82,334.544Z" transform="translate(-65.342 -273.105)" fill="#f7296e"/>
    <path id="Path_1052" data-name="Path 1052" d="M78.229,66.985a17.377,17.377,0,0,0-13.9,6.828l-9.352-8.523V55.385A17.622,17.622,0,0,0,70.831,37.977a17.477,17.477,0,1,0-19.1,17.391v9.8l-9.387,8.574a17.535,17.535,0,1,0,3.613,10.718,17.678,17.678,0,0,0-1.763-7.727l9.093-8.367,9.214,8.4a17.541,17.541,0,0,0,15.731,25.17,17.477,17.477,0,0,0,0-34.955ZM20.612,96.1a6.536,6.536,0,0,1,6.258-4.616h3.25A6.568,6.568,0,0,1,36.377,96.1a14.048,14.048,0,0,1-15.766,0ZM39.04,93.728a10.174,10.174,0,0,0-8.92-5.5H26.87a9.906,9.906,0,0,0-9.007,5.394A14.045,14.045,0,0,1,28.495,70.391,14.049,14.049,0,0,1,39.04,93.728ZM53.353,52.014a13.969,13.969,0,0,1-7.866-2.42,6.536,6.536,0,0,1,6.258-4.616H55a6.568,6.568,0,0,1,6.258,4.616A14.03,14.03,0,0,1,53.353,52.014ZM39.3,37.96a14.054,14.054,0,1,1,24.6,9.266,10.174,10.174,0,0,0-8.92-5.5h-3.25a9.906,9.906,0,0,0-9.007,5.394A13.911,13.911,0,0,1,39.3,37.96ZM70.347,96.1A6.536,6.536,0,0,1,76.6,91.481h3.25A6.568,6.568,0,0,1,86.112,96.1a14.048,14.048,0,0,1-15.766,0Zm18.428-2.368a10.174,10.174,0,0,0-8.92-5.5H76.6A9.906,9.906,0,0,0,67.6,93.624a14.052,14.052,0,1,1,21.177.1Z" transform="translate(-11 -20.5)" fill="#f7296e"/>
    <path id="Path_1053" data-name="Path 1053" d="M370.62,325.9a6.12,6.12,0,1,0,6.12,6.12A6.065,6.065,0,0,0,370.62,325.9Zm0,8.644a2.77,2.77,0,0,1-2.7-2.7,2.7,2.7,0,1,1,2.7,2.7Z" transform="translate(-303.39 -273.105)" fill="#f7296e"/>
  </g>
</svg>
