<svg xmlns="http://www.w3.org/2000/svg" width="37.812" height="59.52" viewBox="0 0 37.812 59.52">
  <g id="Efficient_low_to_no_fees_icon" transform="translate(4757.833 -6888.054)">
    <g id="Group_1121" data-name="Group 1121" transform="translate(-4757.833 6900.844)">
      <path id="Path_2392" data-name="Path 2392" d="M-4757.8,6966.626l-.028-4.068,37.783-37.783.029,4.068Z" transform="translate(4757.833 -6924.775)"/>
    </g>
    <path id="Path_2393" data-name="Path 2393" d="M-4737.884,6925.309l-.049-.028-.039-.024h0v-5.269c.058.026.126.051.186.077.162.07.327.139.506.209.1.038.2.075.308.113.173.064.35.128.539.19.12.04.247.079.375.118.189.058.384.116.587.172.141.039.286.076.434.114.209.053.425.1.648.153.16.035.321.07.488.1l.076.014,2.464-2.465c-.179-.019-.359-.038-.529-.061-.058-.007-.11-.017-.168-.025-.44-.062-.853-.132-1.244-.209-.1-.019-.193-.037-.286-.057-.407-.086-.79-.178-1.141-.274-.068-.019-.13-.039-.2-.058q-.453-.131-.844-.267c-.06-.021-.123-.042-.181-.063-.283-.1-.54-.206-.772-.305l-.156-.07c-.194-.087-.373-.173-.529-.253l-.09-.045c-.169-.09-.313-.173-.437-.248l-.039-.023h0v-5.269c.058.025.126.05.186.076.162.07.327.139.506.209.1.038.2.076.308.113.173.064.35.127.539.19.12.04.247.079.375.118.189.059.384.116.587.172.141.039.286.076.434.115q.315.079.648.152c.16.036.321.07.488.1.233.046.476.089.724.131.176.029.348.059.53.085.266.04.545.073.826.1.184.022.361.045.551.063.319.031.656.053.995.075.17.011.332.026.507.035.523.025,1.064.039,1.631.039s1.108-.014,1.631-.039c.175-.008.337-.023.507-.035l.168-.011,3.281-3.281-.134.03c-.091.02-.188.038-.283.056-.389.077-.8.147-1.238.208-.061.009-.117.019-.178.027-.484.063-1.006.113-1.55.153l-.395.024c-.575.034-1.169.058-1.81.058s-1.235-.024-1.809-.058l-.392-.024c-.545-.04-1.068-.089-1.552-.153l-.168-.025c-.44-.061-.853-.132-1.244-.209-.1-.019-.193-.037-.286-.057-.407-.085-.79-.177-1.141-.275-.068-.019-.13-.038-.2-.057q-.453-.132-.844-.268c-.06-.02-.123-.041-.181-.062-.283-.1-.54-.206-.772-.306-.055-.023-.1-.046-.156-.07-.194-.087-.373-.173-.529-.253l-.09-.045c-.169-.09-.313-.173-.437-.247l-.039-.025h0v-5.268c.058.025.126.051.186.077.162.069.327.139.506.208.1.038.2.076.308.113.173.064.35.127.539.189.12.041.247.08.375.119.189.059.384.116.587.172.141.04.286.077.434.114q.315.079.648.153c.16.036.321.07.488.1.233.046.476.089.724.13.176.03.348.06.53.086.266.039.545.072.826.1.184.021.361.044.551.063.319.031.656.053.995.074.17.011.332.026.507.035.523.024,1.064.04,1.631.04s1.108-.015,1.631-.04c.175-.009.337-.023.507-.035.338-.021.676-.043,1-.074.189-.019.367-.042.55-.063.281-.033.561-.066.826-.1.182-.027.355-.057.53-.086.248-.042.491-.084.724-.13.167-.033.328-.068.487-.1q.335-.074.649-.153c.147-.038.292-.075.434-.114.2-.057.4-.113.588-.172.126-.039.253-.078.374-.119.188-.062.365-.125.538-.189.1-.038.21-.075.307-.113.179-.07.344-.14.506-.208.06-.026.128-.051.186-.077v2.6l2.81-2.81v-10.651a1.4,1.4,0,0,0-.462-1.041c-.143-.13-3.6-3.172-12.181-3.172s-12.038,3.042-12.181,3.172a1.4,1.4,0,0,0-.462,1.041v35.938Zm1.927-33.254.076-.029c.293-.1.621-.207.969-.308l.289-.078c.293-.08.607-.155.939-.227.1-.021.193-.044.3-.065.426-.084.881-.163,1.367-.229.1-.014.208-.023.312-.037.408-.051.838-.093,1.287-.128.155-.011.31-.022.469-.032.576-.034,1.173-.058,1.816-.058s1.239.024,1.813.058c.159.009.313.021.467.032.449.035.88.076,1.288.127.1.013.21.022.309.037q.729.1,1.369.229c.1.021.19.042.287.063.334.072.651.148.947.228.1.025.194.051.285.078.35.1.681.2.975.308l.049.02c.214.078.4.153.581.23a21.966,21.966,0,0,1-8.371,1.4,21.957,21.957,0,0,1-8.371-1.4C-4736.333,6892.2-4736.159,6892.127-4735.957,6892.054Zm-2.014,2.645a24.077,24.077,0,0,0,9.833,1.784,24.077,24.077,0,0,0,9.833-1.784h0v5.272l-.009.006c-.134.082-.3.176-.491.278h0c-.181.095-.4.2-.628.3l-.1.043c-.242.1-.511.213-.808.32l-.141.048c-.272.095-.57.189-.89.281l-.168.05c-.355.1-.743.191-1.154.278-.089.019-.183.036-.273.054-.394.078-.811.149-1.256.211l-.161.024c-.484.063-1.008.113-1.553.152-.128.009-.26.018-.392.025-.574.034-1.169.058-1.809.058s-1.234-.024-1.809-.058c-.132-.007-.264-.016-.392-.024-.544-.039-1.067-.089-1.552-.152-.058-.008-.11-.018-.168-.026-.44-.062-.853-.132-1.243-.208-.1-.019-.194-.037-.286-.057-.407-.085-.79-.178-1.142-.274-.068-.019-.129-.039-.2-.057q-.453-.131-.844-.267l-.181-.062q-.424-.154-.772-.306c-.054-.023-.1-.046-.156-.069-.194-.088-.373-.173-.529-.254l-.089-.045c-.17-.09-.314-.173-.437-.247l-.039-.024Z" transform="translate(-11.113 -0.001)"/>
    <path id="Path_2394" data-name="Path 2394" d="M-4718.281,6950.388v28.493c-1.1.671-4.16,2.146-9.856,2.146s-8.758-1.475-9.856-2.146V6970.1l19.713-19.713m2.787-6.727-25.286,25.287V6979.6a1.405,1.405,0,0,0,.462,1.042c.143.13,3.605,3.172,12.181,3.172s12.038-3.042,12.181-3.172a1.4,1.4,0,0,0,.462-1.042v-35.938Z" transform="translate(-11.113 -36.239)"/>
  </g>
</svg>
