<svg xmlns="http://www.w3.org/2000/svg" width="29.979" height="29.979" viewBox="0 0 29.979 29.979">
  <path id="Shape" d="M29.979,29.979H0V0H29.979V29.978Zm-11.115-18.7h0v9.434c0,.254,0,.3-.155.465L17.137,22.8v.35H24.78V22.8l-1.518-1.589a.5.5,0,0,1-.174-.466V9.067a.5.5,0,0,1,.174-.465l1.554-1.589v-.35H19.43L15.592,16.869,11.224,6.663H5.575v.349L7.4,9.346a.83.83,0,0,1,.245.68v9.18a1.1,1.1,0,0,1-.264.911L5.329,22.763v.349h5.8v-.349L9.087,20.117a1.141,1.141,0,0,1-.283-.911V11.267l5.1,11.844h.591Z" fill="#fff"/>
</svg>
