<svg xmlns="http://www.w3.org/2000/svg" width="31.004" height="31.04" viewBox="0 0 31.004 31.04">
  <g id="Forum_icon" transform="translate(3341.985 -188.426)">
    <path id="Path_2891" data-name="Path 2891" d="M11446.748-11702.033a.463.463,0,0,1-.209-.049.664.664,0,0,1-.34-.6v-5.9h-1.588a1.766,1.766,0,0,1-1.6-1.89v-15.209a1.769,1.769,0,0,1,1.6-1.891h21.4a1.77,1.77,0,0,1,1.6,1.891v9.047h-.824c-1.345,0-4.313.006-6.6.006-1.827,0-2.575,0-2.585-.007a2.168,2.168,0,0,0-1.121,1.82v6.231h-3.969l-5.372,6.364A.508.508,0,0,1,11446.748-11702.033Zm1.754-13.763a.611.611,0,0,0-.551.65.607.607,0,0,0,.551.647h5.2a.606.606,0,0,0,.549-.647.61.61,0,0,0-.551-.65Zm.018-5.891a.61.61,0,0,0-.551.651.6.6,0,0,0,.551.646h13.7a.609.609,0,0,0,.553-.646.614.614,0,0,0-.551-.651Z" transform="translate(-14785 11916)" fill="#fff"/>
    <g id="Group_1622" data-name="Group 1622" transform="translate(-3329.196 198.415)">
      <path id="Path_2885" data-name="Path 2885" d="M-3264.143,232.285a2.347,2.347,0,0,0-.443-1.412,1.349,1.349,0,0,0-1.068-.586h-14.193a1.347,1.347,0,0,0-1.068.584,2.372,2.372,0,0,0-.443,1.417v10.975a2.374,2.374,0,0,0,.443,1.417,1.347,1.347,0,0,0,1.068.584h8.962l3.656,4.836a.436.436,0,0,0,.568.149.718.718,0,0,0,.322-.638v-4.348h.681a1.348,1.348,0,0,0,1.068-.584,2.372,2.372,0,0,0,.443-1.417Z" transform="translate(3281.357 -230.287)" fill="none" stroke="#fff" stroke-width="2"/>
      <path id="Path_2888" data-name="Path 2888" d="M-3257.934,246.572H-3268.8c-.281,0-.508.309-.508.691s.228.691.508.691h10.868c.28,0,.507-.31.507-.691s-.227-.69-.506-.691Z" transform="translate(3272.008 -242.11)" fill="#fff"/>
      <path id="Path_2889" data-name="Path 2889" d="M-3257.934,263.091H-3268.8c-.281,0-.508.309-.508.691s.228.691.508.691h10.868c.28,0,.507-.31.507-.691s-.227-.69-.507-.691Z" transform="translate(3272.008 -254.046)" fill="#fff"/>
    </g>
  </g>
</svg>
