<svg xmlns="http://www.w3.org/2000/svg" width="27.224" height="30" viewBox="0 0 27.224 30">
  <g id="Layer_2" transform="translate(-58.999 -30.521)">
    <g id="Group_1623" data-name="Group 1623" transform="translate(64.838 47.781)">
      <path id="Path_2892" data-name="Path 2892" d="M143.2,278.381s-.088.7-.176,1.515c-.044.405-.088.837-.121,1.223-.017.193-.03.374-.04.535s-.016.3-.016.42a2.823,2.823,0,0,0,.072.674,1.851,1.851,0,0,0,.187.476,1.817,1.817,0,0,0,.56.6,3.136,3.136,0,0,0,.9.408,6,6,0,0,0,1.631.258,3.121,3.121,0,0,0,.625-.058,1.972,1.972,0,0,0,.435-.14,1.331,1.331,0,0,0,.536-.435,1.241,1.241,0,0,0,.165-.328,1.482,1.482,0,0,0,.07-.383c.035-.637.065-1.465.086-2.136s.033-1.183.033-1.183l-.7-.017,0,.09c-.01.407-.055,2.112-.116,3.207a.668.668,0,0,1-.089.319.542.542,0,0,1-.141.152,1,1,0,0,1-.368.159,2.332,2.332,0,0,1-.537.056,5.331,5.331,0,0,1-1.434-.229,2.59,2.59,0,0,1-.646-.275,1.289,1.289,0,0,1-.285-.237,1.051,1.051,0,0,1-.224-.415,2.025,2.025,0,0,1-.067-.562c0-.093.005-.224.014-.377.033-.537.116-1.349.191-2.021.038-.336.073-.639.1-.857l.031-.258.012-.094Z" transform="translate(-142.846 -278.381)" fill="#fff"/>
    </g>
    <path id="Path_2893" data-name="Path 2893" d="M218.065,116.763c-.407,0-.736.491-.736,1.1s.33,1.1.736,1.1.736-.491.736-1.1S218.472,116.763,218.065,116.763Zm.21,1.372c-.174,0-.316-.211-.316-.47s.141-.47.316-.47.316.211.316.47S218.45,118.135,218.276,118.135Z" transform="translate(-147.304 -80.237)" fill="#fff"/>
    <path id="Path_2894" data-name="Path 2894" d="M274.637,118.01a.432.432,0,0,1,.106-.135.12.12,0,0,1,.165,0,.56.56,0,0,1,.157.248,1.393,1.393,0,0,1,.077.472h.568a2.069,2.069,0,0,0-.224-.975,1.072,1.072,0,0,0-.275-.337.6.6,0,0,0-.771,0,1.226,1.226,0,0,0-.371.551,2.222,2.222,0,0,0-.128.761h.568A1.258,1.258,0,0,1,274.637,118.01Z" transform="translate(-199.974 -80.59)" fill="#fff"/>
    <path id="Path_2895" data-name="Path 2895" d="M84.174,46.074a9.651,9.651,0,0,0-.718-.923c.019-.03.039-.06.057-.089a2.527,2.527,0,0,0,.315-.734,4.827,4.827,0,0,0,.125-1.071,3.917,3.917,0,0,0-.35-1.638,4.628,4.628,0,0,0-.96-1.353l-.384-.384c-.043-.421-.124-.952-.259-1.662a10.677,10.677,0,0,0-3.857-5.89,11.1,11.1,0,0,0-5.532-1.808,10.626,10.626,0,0,0-5.532,1.808,9.921,9.921,0,0,0-3.857,5.89,16.365,16.365,0,0,0-.144,2.184h0a1.37,1.37,0,0,0-.457.212,1.407,1.407,0,0,0-.343.341,1.457,1.457,0,0,0-.237.56l-.122.611a1.849,1.849,0,0,0-.327.611,1.654,1.654,0,0,0-.074.487,1.634,1.634,0,0,0,.032.321,4.77,4.77,0,0,0,.249.815c.063.157.138.326.229.5a9.969,9.969,0,0,0-.978,1.208c-1.052,1.543-2.2,4.35-2.034,5.96.21,2.034.491,2.1,1.192,1.683a7.359,7.359,0,0,0,1.683-1.893,11.583,11.583,0,0,0,2.524,4,11.747,11.747,0,0,0,5.54,3.015,11.84,11.84,0,0,0,5.313,0,11.748,11.748,0,0,0,5.54-3.015,11.585,11.585,0,0,0,2.524-4,7.356,7.356,0,0,0,1.683,1.893c.7.421.982.351,1.192-1.683C86.374,50.424,85.226,47.616,84.174,46.074Zm-8.855-11.22c1.026,0,1.858,1.24,1.858,2.77s-.832,2.77-1.858,2.77-1.858-1.24-1.858-2.77S74.293,34.854,75.319,34.854Zm-5.189,0c1.026,0,1.858,1.24,1.858,2.77s-.832,2.77-1.858,2.77-1.858-1.24-1.858-2.77S69.1,34.854,70.13,34.854Zm-1.367,6.521a14.745,14.745,0,0,1,4.2-.7l0,0,.07,0,.07,0,0,0a14.747,14.747,0,0,1,4.2.7c1.473.631,2.314.982,2.314,1.332s-.281.7-1.052,1.052a2.114,2.114,0,0,1-1.122.28,3.15,3.15,0,0,0,.561-.982,9.085,9.085,0,0,1-4.638,1.889l-.06,0H73.3l-.138,0-.124,0-.124,0-.138,0H72.76l-.06,0a9.085,9.085,0,0,1-4.638-1.889,3.15,3.15,0,0,0,.561.982,2.114,2.114,0,0,1-1.122-.28c-.771-.351-1.052-.7-1.052-1.052S67.29,42.006,68.763,41.375Zm-6.354,1.258a1.021,1.021,0,0,1,.063-.082l.016-.018,0,0,.073-.073.021-.1.14-.7a.759.759,0,0,1,.123-.295.673.673,0,0,1,.1-.111c.048.13.111.283.193.456a6.61,6.61,0,0,0,.882,1.373,7.965,7.965,0,0,0,2.938,2.175A13.494,13.494,0,0,0,72.5,46.284l.335,0a14.758,14.758,0,0,0,5.227-.931A9.015,9.015,0,0,0,80.5,43.939a7.06,7.06,0,0,0,1.827-2.248c.091-.18.163-.343.22-.488a3.607,3.607,0,0,1,.427.7,3.217,3.217,0,0,1,.288,1.35,4.125,4.125,0,0,1-.108.917,1.851,1.851,0,0,1-.232.528,5.819,5.819,0,0,1-1.025,1.192,12.342,12.342,0,0,1-2.65,1.825,11.768,11.768,0,0,1-3.385,1.168,13.726,13.726,0,0,1-2.291.184,19.061,19.061,0,0,1-4.412-.55,18.494,18.494,0,0,1-3.674-1.286,6.221,6.221,0,0,1-2.5-2.125,5.417,5.417,0,0,1-.532-1,4.088,4.088,0,0,1-.213-.693.934.934,0,0,1-.018-.184.956.956,0,0,1,.043-.282A1.153,1.153,0,0,1,62.409,42.633ZM79.686,55.4c-2,2.649-5.881,3.124-7.074,3.208-1.194-.084-5.073-.559-7.074-3.208a9.088,9.088,0,0,1-1.683-7.5,6.046,6.046,0,0,1,.241-.674,7.648,7.648,0,0,0,1.079.637A19.18,19.18,0,0,0,68.99,49.2a19.747,19.747,0,0,0,4.576.57,14.412,14.412,0,0,0,2.408-.194,13.182,13.182,0,0,0,5.191-2.206l.017-.012c.071.179.136.362.187.543A9.089,9.089,0,0,1,79.686,55.4Z" transform="translate(0 0)" fill="#fff"/>
    <path id="Path_2896" data-name="Path 2896" d="M102.351,388.743a6.246,6.246,0,0,1-.7-.743,6.683,6.683,0,0,0-.967.64c-.384.329-.561.841-.21.912,0,0-1.636,1.632,1.192,2.805,2.875,1.192,6.031.841,7.573-.21l.205-.142c-.423-.044-.938-.12-1.55-.246A11.747,11.747,0,0,1,102.351,388.743Z" transform="translate(-38.145 -332.586)" fill="#fff"/>
    <path id="Path_2897" data-name="Path 2897" d="M276.972,391.759c-.612.126-1.127.2-1.55.246l.205.142c1.543,1.052,4.7,1.4,7.573.21,2.828-1.173,1.192-2.8,1.192-2.8.351-.07.174-.582-.21-.912a6.676,6.676,0,0,0-.967-.64,6.261,6.261,0,0,1-.7.743A11.747,11.747,0,0,1,276.972,391.759Z" transform="translate(-201.352 -332.586)" fill="#fff"/>
  </g>
</svg>
