<svg xmlns="http://www.w3.org/2000/svg" width="30.163" height="24.52" viewBox="0 0 30.163 24.52">
  <path id="Path" d="M9.487,24.52c11.383,0,17.606-9.431,17.606-17.609q0-.4-.017-.8a12.591,12.591,0,0,0,3.087-3.206,12.351,12.351,0,0,1-3.554.975A6.209,6.209,0,0,0,29.33.457,12.4,12.4,0,0,1,25.4,1.96,6.19,6.19,0,0,0,14.855,7.6,17.569,17.569,0,0,1,2.1,1.137,6.191,6.191,0,0,0,4.015,9.4a6.142,6.142,0,0,1-2.8-.774V8.7a6.192,6.192,0,0,0,4.965,6.068,6.205,6.205,0,0,1-2.794.107,6.2,6.2,0,0,0,5.78,4.3,12.418,12.418,0,0,1-7.685,2.649A12.863,12.863,0,0,1,0,21.74,17.518,17.518,0,0,0,9.487,24.52" fill="#fff"/>
</svg>
