<svg xmlns="http://www.w3.org/2000/svg" width="83.628" height="66.903" viewBox="0 0 83.628 66.903"><g transform="translate(3341.978 -188.426)"><path d="M-3233.573,234.464a4.14,4.14,0,0,0-1.229-2.952,4.177,4.177,0,0,0-2.964-1.225h-39.4a4.191,4.191,0,0,0-4.194,4.178V257.41a4.191,4.191,0,0,0,4.194,4.178h24.887l10.15,10.109a1.467,1.467,0,0,0,1.578.312,1.439,1.439,0,0,0,.894-1.333v-9.089h1.892a4.19,4.19,0,0,0,4.194-4.177Z" transform="translate(-25.777 -17.823)" fill="#fff" stroke="#f7296e" stroke-width="2"/><path d="M-3277.487,212.641V192.608a4.187,4.187,0,0,0-4.182-4.182H-3337.8a4.186,4.186,0,0,0-4.182,4.182V226.28a4.187,4.187,0,0,0,4.182,4.183h4.169v13.065a1.442,1.442,0,0,0,.892,1.335,1.469,1.469,0,0,0,1.574-.313l14.086-14.086h10.128V216.63c0-2.829,3.422-3.989,3.422-3.989Z" transform="translate(0 0)" fill="#f7296e"/><path d="M-3282.348,211.052h-35.922a1.446,1.446,0,0,0-1.444,1.445,1.446,1.446,0,0,0,1.444,1.445h35.922a1.447,1.447,0,0,0,1.445-1.445A1.447,1.447,0,0,0-3282.348,211.052Z" transform="translate(-9.424 -9.577)" fill="#fff"/><path d="M-3236.954,246.572h-30.919a1.447,1.447,0,0,0-1.445,1.445,1.447,1.447,0,0,0,1.445,1.445h30.919a1.446,1.446,0,0,0,1.444-1.445A1.446,1.446,0,0,0-3236.954,246.572Z" transform="translate(-30.755 -24.612)" fill="#f7296e"/><path d="M-3236.954,263.091h-30.919a1.447,1.447,0,0,0-1.445,1.445,1.446,1.446,0,0,0,1.445,1.444h30.919a1.446,1.446,0,0,0,1.444-1.444A1.446,1.446,0,0,0-3236.954,263.091Z" transform="translate(-30.755 -31.604)" fill="#f7296e"/><path d="M-3318.271,236.568h13.633a1.446,1.446,0,0,0,1.445-1.445,1.446,1.446,0,0,0-1.445-1.444h-13.633a1.446,1.446,0,0,0-1.444,1.444A1.446,1.446,0,0,0-3318.271,236.568Z" transform="translate(-9.424 -19.155)" fill="#fff"/></g></svg>