<svg xmlns="http://www.w3.org/2000/svg" width="82.611" height="66.019" viewBox="0 0 82.611 66.019">
  <g id="Forum_icon" transform="translate(3341.978 -188.426)">
    <path id="Path_2487" data-name="Path 2487" d="M-3278.931,214.524a1.446,1.446,0,0,0,1.444-1.444V192.608a4.187,4.187,0,0,0-4.182-4.182H-3337.8a4.186,4.186,0,0,0-4.182,4.182V226.28a4.187,4.187,0,0,0,4.182,4.183h4.169v13.065a1.442,1.442,0,0,0,.892,1.335,1.469,1.469,0,0,0,1.574-.313l14.086-14.086h10.7a1.446,1.446,0,0,0,1.444-1.445,1.446,1.446,0,0,0-1.444-1.445c-1.434,0-11.29,0-11.41.006a1.429,1.429,0,0,0-.906.417l-12.042,12.043v-1.277c0-3.332,0-9.689-.01-9.9a1.43,1.43,0,0,0-1.436-1.286h-5.612a1.3,1.3,0,0,1-1.293-1.293V192.608a1.3,1.3,0,0,1,1.293-1.293h56.127a1.294,1.294,0,0,1,1.292,1.293V213.08A1.446,1.446,0,0,0-3278.931,214.524Z" transform="translate(0 0)" fill="#f7296e"/>
    <path id="Path_2488" data-name="Path 2488" d="M-3233.71,234.468a4.152,4.152,0,0,0-1.226-2.956,4.156,4.156,0,0,0-2.956-1.227h-39.288a4.188,4.188,0,0,0-4.182,4.182V257.44a4.187,4.187,0,0,0,4.182,4.182h24.816l10.121,10.12a1.459,1.459,0,0,0,1.574.313,1.441,1.441,0,0,0,.892-1.335v-9.1h1.886a4.186,4.186,0,0,0,4.182-4.182Zm-2.889,22.971a1.294,1.294,0,0,1-1.293,1.293h-3.33a1.45,1.45,0,0,0-1.438,1.333c0,.13-.005,3.6-.006,5.891v1.276l-8.139-8.133a1.452,1.452,0,0,0-.958-.366h-25.416a1.294,1.294,0,0,1-1.293-1.293V234.468a1.3,1.3,0,0,1,1.293-1.293h39.288a1.3,1.3,0,0,1,1.293,1.293Z" transform="translate(-25.657 -17.718)" fill="#f7296e"/>
    <path id="Path_2489" data-name="Path 2489" d="M-3282.348,211.052h-35.922a1.446,1.446,0,0,0-1.444,1.445,1.446,1.446,0,0,0,1.444,1.445h35.922a1.447,1.447,0,0,0,1.445-1.445A1.447,1.447,0,0,0-3282.348,211.052Z" transform="translate(-9.424 -9.577)" fill="#f7296e"/>
    <path id="Path_2490" data-name="Path 2490" d="M-3236.954,246.572h-30.919a1.447,1.447,0,0,0-1.445,1.445,1.447,1.447,0,0,0,1.445,1.445h30.919a1.446,1.446,0,0,0,1.444-1.445A1.446,1.446,0,0,0-3236.954,246.572Z" transform="translate(-30.755 -24.612)" fill="#f7296e"/>
    <path id="Path_2491" data-name="Path 2491" d="M-3236.954,263.091h-30.919a1.447,1.447,0,0,0-1.445,1.445,1.446,1.446,0,0,0,1.445,1.444h30.919a1.446,1.446,0,0,0,1.444-1.444A1.446,1.446,0,0,0-3236.954,263.091Z" transform="translate(-30.755 -31.604)" fill="#f7296e"/>
    <path id="Path_2492" data-name="Path 2492" d="M-3318.271,236.568h13.633a1.446,1.446,0,0,0,1.445-1.445,1.446,1.446,0,0,0-1.445-1.444h-13.633a1.446,1.446,0,0,0-1.444,1.444A1.446,1.446,0,0,0-3318.271,236.568Z" transform="translate(-9.424 -19.155)" fill="#f7296e"/>
  </g>
</svg>
