<svg xmlns="http://www.w3.org/2000/svg" width="82.954" height="73.346" viewBox="0 0 82.954 73.346"><g transform="translate(1557.962 -489.976)"><path d="M-1484.721,489.976h-63.528a9.725,9.725,0,0,0-9.714,9.713v53.92a9.725,9.725,0,0,0,9.714,9.713h63.528a9.725,9.725,0,0,0,9.713-9.713v-53.92A9.724,9.724,0,0,0-1484.721,489.976Zm-69.217,22.909h74.9v40.722a5.694,5.694,0,0,1-5.688,5.687h-63.528a5.694,5.694,0,0,1-5.688-5.687Zm74.9-4.026h-74.9v-9.169A5.694,5.694,0,0,1-1548.25,494h63.528a5.694,5.694,0,0,1,5.688,5.688Z" transform="translate(0)" fill="#f7296e"/><path d="M-1507.339,510.942a2.237,2.237,0,0,0-2.234,2.235,2.237,2.237,0,0,0,2.234,2.234,2.237,2.237,0,0,0,2.235-2.234,2.238,2.238,0,0,0-2.235-2.235Z" transform="translate(14.743 -12.538)" fill="#f7296e"/><path d="M-1536.889,510.85a2.237,2.237,0,0,0-2.234,2.234,2.237,2.237,0,0,0,2.234,2.235,2.237,2.237,0,0,0,2.235-2.235A2.236,2.236,0,0,0-1536.889,510.85Z" transform="translate(36.401 -12.487)" fill="#f7296e"/><path d="M-1477.789,511.034a2.237,2.237,0,0,0-2.234,2.235,2.237,2.237,0,0,0,2.234,2.234,2.237,2.237,0,0,0,2.235-2.234,2.237,2.237,0,0,0-2.235-2.235Z" transform="translate(-6.916 -12.59)" fill="#f7296e"/><g transform="translate(-1532.609 528.207)"><path d="M-2866.783,275.217a1.181,1.181,0,0,1-.768-.283l-7.677-6.537a1.187,1.187,0,0,1-.414-.9,1.19,1.19,0,0,1,.414-.9l7.677-6.537a1.187,1.187,0,0,1,1.671.138,1.186,1.186,0,0,1-.138,1.673l-6.616,5.634,6.616,5.634a1.187,1.187,0,0,1,.138,1.673A1.182,1.182,0,0,1-2866.783,275.217Z" transform="translate(2875.643 -259.772)" fill="#f7296e" stroke="#f7296e" stroke-width="1"/></g><g transform="translate(-1509.785 528.205)"><path d="M-2842.392,275.218a1.183,1.183,0,0,1-.906-.414,1.187,1.187,0,0,1,.139-1.673l6.616-5.634-6.616-5.634a1.187,1.187,0,0,1-.138-1.673,1.185,1.185,0,0,1,.807-.415,1.185,1.185,0,0,1,.864.277l7.679,6.537a1.184,1.184,0,0,1,.414.9,1.184,1.184,0,0,1-.414.9l-7.679,6.537A1.178,1.178,0,0,1-2842.392,275.218Z" transform="translate(2843.579 -259.77)" fill="#f7296e" stroke="#f7296e" stroke-width="1"/></g><g transform="translate(-1520.079 523.465)"><path d="M-2856.852,278.2a1.2,1.2,0,0,1-.246-.025,1.187,1.187,0,0,1-.75-.513,1.187,1.187,0,0,1-.167-.893l4.784-22.716a1.186,1.186,0,0,1,1.4-.916,1.187,1.187,0,0,1,.917,1.406l-4.784,22.716A1.188,1.188,0,0,1-2856.852,278.2Z" transform="translate(2858.041 -253.113)" fill="#f7296e" stroke="#f7296e" stroke-width="1"/></g></g></svg>