<?xml version="1.0" encoding="utf-8"?>
<!-- Generator: Adobe Illustrator 20.1.0, SVG Export Plug-In . SVG Version: 6.00 Build 0)  -->
<svg version="1.1" id="Layer_1" xmlns="http://www.w3.org/2000/svg" xmlns:xlink="http://www.w3.org/1999/xlink" x="0px" y="0px"
	 viewBox="0 0 64 64" style="enable-background:new 0 0 64 64;" xml:space="preserve">
<style type="text/css">
	.st0{fill:#FFFFFF;}
	.st1{fill:#DE5959;}
</style>
<circle class="st0" cx="32" cy="32" r="32"/>
<g>
	<path class="st1" d="M31.573,38.384c0.134,0.134,0.352,0.134,0.485,0l16.09-16.09c0.134-0.134,0.134-0.351,0-0.484l-9.467-9.467
		c-0.132-0.134-0.351-0.134-0.484,0l-9.452,9.448c-0.135,0.135-0.352,0.135-0.488,0l0,0l-0.284-0.287
		c-0.216-0.215-0.585-0.063-0.585,0.243v4.092c0,0.189,0.156,0.343,0.345,0.343h4.093c0.305,0,0.459-0.369,0.242-0.584
		c-0.134-0.134-0.134-0.351,0-0.484l4.353-4.367c0.134-0.134,0.134-0.349,0-0.484l-0.397-0.395
		c-0.216-0.215-0.062-0.585,0.243-0.585h4.091c0.189,0,0.344,0.153,0.344,0.343v4.092c0,0.305-0.37,0.457-0.586,0.243l-0.275-0.275
		c-0.135-0.137-0.352-0.137-0.483,0l-7.339,7.336c-0.134,0.134-0.349,0.134-0.484,0l-8.979-8.979c-0.135-0.135-0.135-0.352,0-0.487
		l12.43-12.43c0.134-0.134,0.134-0.352,0-0.485L32.06,5.717c-0.134-0.134-0.351-0.134-0.485,0L15.482,21.809
		c-0.134,0.134-0.134,0.352,0,0.485L31.573,38.384z"/>
	<path class="st1" d="M26.192,42.357h-0.673c-0.291,0-0.528,0.235-0.528,0.526v0.376c-0.716-0.745-1.528-1.119-2.435-1.119
		c-1.046,0-1.92,0.39-2.617,1.167c-0.699,0.777-1.046,1.749-1.046,2.914c0,1.186,0.348,2.178,1.045,2.971
		c0.705,0.778,1.592,1.166,2.668,1.166c0.851,0,1.646-0.347,2.387-1.04v0.743c0,0.361,0.294,0.655,0.654,0.655h1.151v-7.757
		C26.795,42.627,26.525,42.357,26.192,42.357z M24.488,48.067L24.488,48.067c-0.41,0.457-0.946,0.685-1.613,0.685
		c-0.624,0-1.14-0.236-1.549-0.711c-0.399-0.467-0.599-1.075-0.599-1.822c0-0.697,0.206-1.284,0.614-1.757
		c0.415-0.469,0.931-0.701,1.549-0.701c0.655,0,1.187,0.231,1.597,0.697c0.411,0.474,0.617,1.074,0.617,1.803
		C25.104,46.991,24.899,47.593,24.488,48.067z"/>
	<path class="st1" d="M33.825,42.363L33.825,42.363L33.825,42.363l0.001-0.006H30.1v-2.283c0-0.294-0.237-0.531-0.532-0.531h-0.727
		c-0.296,0-0.536,0.24-0.536,0.538v2.276h-0.767v1.675h0.766v6.683h1.025c0.427,0,0.771-0.344,0.771-0.771v-5.91h1.843
		c0.145-0.278,0.322-0.534,0.532-0.769C32.855,42.847,33.306,42.547,33.825,42.363z"/>
	<path class="st1" d="M18.348,42.357h-0.711c-0.3,0-0.542,0.24-0.542,0.542v0.334c-0.65-0.729-1.464-1.095-2.444-1.095
		c-1.118,0-2.019,0.423-2.7,1.262C11.317,44.193,11,45.157,11,46.292c0,1.166,0.341,2.139,1.023,2.914
		c0.676,0.769,1.543,1.15,2.603,1.15c0.931,0,1.753-0.363,2.467-1.093v1.086c0,1.614-0.657,2.421-1.972,2.421
		c-0.714,0-1.256-0.243-1.628-0.728c-0.095-0.123-0.174-0.275-0.237-0.459c-0.088-0.258-0.333-0.428-0.604-0.428h-0.68
		c-0.344,0-0.599,0.326-0.512,0.66c0.186,0.708,0.546,1.284,1.081,1.729c0.671,0.56,1.527,0.839,2.564,0.839
		c1.23,0,2.196-0.405,2.899-1.212c0.373-0.42,0.622-0.924,0.75-1.509c0.043-0.211,0.077-0.459,0.1-0.74
		c0.023-0.279,0.035-0.601,0.035-0.97v-1.131c-0.503-0.725-0.756-1.591-0.756-2.6c0-0.992,0.252-1.839,0.756-2.552l0,0l0,0v-0.769
		C18.891,42.6,18.648,42.357,18.348,42.357z M16.615,48.003L16.615,48.003c-0.399,0.5-0.942,0.749-1.629,0.749
		c-0.687,0-1.225-0.246-1.614-0.743c-0.356-0.452-0.534-1.032-0.534-1.741c0-0.72,0.179-1.305,0.534-1.757
		c0.395-0.505,0.932-0.758,1.614-0.758c0.639,0,1.163,0.231,1.572,0.694c0.405,0.452,0.608,1.057,0.608,1.814
		C17.167,46.969,16.982,47.55,16.615,48.003z"/>
	<path class="st1" d="M51.804,44.338L51.804,44.338c-0.809-0.792-1.794-1.189-2.955-1.189c-1.155,0-2.135,0.394-2.939,1.183
		c-0.803,0.786-1.206,1.742-1.206,2.866c0,1.191,0.394,2.184,1.182,2.971c0.788,0.799,1.766,1.197,2.931,1.197
		c1.176,0,2.169-0.391,2.978-1.174C52.596,49.403,53,48.428,53,47.262C53,46.107,52.602,45.132,51.804,44.338z M50.533,49.083
		c-0.419,0.453-0.981,0.677-1.685,0.677c-0.698,0-1.259-0.228-1.685-0.686c-0.415-0.452-0.624-1.068-0.624-1.844
		c0-0.723,0.215-1.314,0.64-1.772c0.426-0.459,0.982-0.687,1.67-0.687c0.697,0,1.259,0.229,1.684,0.687
		c0.42,0.452,0.632,1.055,0.632,1.811C51.165,48.027,50.952,48.63,50.533,49.083L50.533,49.083L50.533,49.083z"/>
	<path class="st1" d="M40.718,49.231v-0.002c-0.246,0-0.459,0.088-0.636,0.266c-0.176,0.178-0.266,0.388-0.266,0.63
		c0,0.37,0.188,0.658,0.561,0.864c0.409,0.111,0.738,0.039,0.986-0.215c0.18-0.179,0.267-0.394,0.267-0.643
		c0-0.252-0.087-0.463-0.267-0.637C41.184,49.318,40.972,49.231,40.718,49.231z"/>
	<path class="st1" d="M43.359,43.237L43.359,43.237l-0.651,0.001c-0.334,0-0.606,0.269-0.606,0.606v5.703
		c0.137,0.161,0.203,0.353,0.203,0.572c0,0.221-0.065,0.412-0.203,0.575v0.32h1.156c0.354,0,0.641-0.288,0.641-0.642v-6.6
		C43.899,43.478,43.658,43.237,43.359,43.237z"/>
	<path class="st1" d="M42.996,39.543L42.996,39.543c-0.317,0.001-0.591,0.116-0.821,0.346c-0.228,0.229-0.344,0.5-0.344,0.814
		c0,0.331,0.115,0.608,0.344,0.839c0.229,0.229,0.506,0.343,0.831,0.343s0.599-0.114,0.821-0.344
		c0.229-0.231,0.345-0.505,0.345-0.83c0-0.324-0.115-0.599-0.345-0.822C43.595,39.658,43.32,39.543,42.996,39.543z"/>
	<path class="st1" d="M40.719,49.229L40.719,49.229L40.719,49.229z"/>
	<path class="st1" d="M40.718,49.229L40.718,49.229L40.718,49.229z"/>
	<path class="st1" d="M34.498,48.77L34.498,48.77L34.498,48.77c-0.37-0.376-0.577-0.887-0.625-1.527h5.15
		c0.235,0,0.428-0.188,0.432-0.423c0-1.285-0.33-2.286-0.989-3.011c-0.666-0.729-1.573-1.094-2.716-1.094
		c-1.132,0-2.044,0.375-2.73,1.126c-0.682,0.762-1.022,1.757-1.022,2.988c0,1.24,0.352,2.235,1.053,2.986
		c0.491,0.523,1.091,0.859,1.806,1.017c0.3,0.071,0.61,0.108,0.923,0.103c1.28,0.027,2.392,0.052,3.671,0.079l0.002-0.188
		c-0.157-0.171-0.235-0.376-0.235-0.614c0-0.232,0.082-0.433,0.242-0.606l0.001-0.228c-1.009-0.026-3.454-0.049-3.552-0.049
		C35.332,49.33,34.862,49.144,34.498,48.77z M34.246,45.175L34.246,45.175c0.113-0.175,0.246-0.324,0.404-0.449
		c0.159-0.128,0.331-0.222,0.524-0.288c0.192-0.066,0.397-0.1,0.617-0.1c0.956,0,1.562,0.478,1.814,1.436h-3.612
		C34.051,45.552,34.136,45.352,34.246,45.175z"/>
</g>
</svg>
