<?xml version="1.0" encoding="utf-8"?>
<!-- Generator: Adobe Illustrator 16.0.3, SVG Export Plug-In . SVG Version: 6.00 Build 0)  -->
<!DOCTYPE svg PUBLIC "-//W3C//DTD SVG 1.1//EN" "http://www.w3.org/Graphics/SVG/1.1/DTD/svg11.dtd" [
	<!ENTITY ns_flows "http://ns.adobe.com/Flows/1.0/">
	<!ENTITY ns_extend "http://ns.adobe.com/Extensibility/1.0/">
	<!ENTITY ns_ai "http://ns.adobe.com/AdobeIllustrator/10.0/">
	<!ENTITY ns_graphs "http://ns.adobe.com/Graphs/1.0/">
]>
<svg version="1.1" id="Capa_1" xmlns:x="&ns_extend;" xmlns:i="&ns_ai;" xmlns:graph="&ns_graphs;"
	 xmlns="http://www.w3.org/2000/svg" xmlns:xlink="http://www.w3.org/1999/xlink" xmlns:a="http://ns.adobe.com/AdobeSVGViewerExtensions/3.0/"
	 x="0px" y="0px" width="70px" height="70px" viewBox="0 0 70 70" enable-background="new 0 0 70 70" xml:space="preserve">
<g>
	<path d="M64.291,18.848c-3.024-5.183-7.127-9.286-12.312-12.312C46.797,3.512,41.139,1.999,35,1.999
		c-6.137,0-11.797,1.513-16.979,4.537C12.838,9.56,8.735,13.665,5.709,18.848C2.686,24.03,1.172,29.689,1.172,35.827
		c0,7.371,2.152,13.998,6.453,19.887c4.303,5.888,9.859,9.961,16.672,12.223c0.791,0.146,1.379,0.044,1.761-0.309
		c0.382-0.354,0.573-0.793,0.573-1.321c0-0.089-0.008-0.88-0.022-2.379c-0.015-1.496-0.022-2.804-0.022-3.919l-1.012,0.176
		c-0.646,0.119-1.462,0.168-2.445,0.155c-0.982-0.015-2.004-0.118-3.062-0.312c-1.057-0.188-2.04-0.63-2.95-1.32
		c-0.91-0.688-1.557-1.592-1.938-2.707l-0.438-1.014c-0.295-0.675-0.757-1.424-1.389-2.246c-0.631-0.822-1.27-1.38-1.916-1.674
		l-0.309-0.221c-0.205-0.146-0.396-0.322-0.573-0.529c-0.175-0.205-0.308-0.41-0.396-0.615c-0.089-0.207-0.016-0.375,0.219-0.508
		c0.235-0.133,0.662-0.197,1.277-0.197l0.881,0.131c0.588,0.117,1.313,0.471,2.18,1.058c0.867,0.587,1.578,1.353,2.137,2.291
		c0.675,1.204,1.49,2.121,2.443,2.752c0.955,0.632,1.916,0.946,2.886,0.946c0.968,0,1.806-0.071,2.51-0.219
		c0.705-0.147,1.365-0.367,1.981-0.66c0.266-1.969,0.984-3.481,2.158-4.537c-1.672-0.176-3.177-0.441-4.514-0.793
		c-1.336-0.354-2.716-0.926-4.141-1.721c-1.424-0.791-2.605-1.774-3.545-2.949c-0.938-1.176-1.709-2.717-2.312-4.625
		s-0.903-4.111-0.903-6.606c0-3.554,1.16-6.578,3.48-9.073c-1.087-2.673-0.984-5.668,0.309-8.984
		c0.852-0.266,2.113-0.066,3.787,0.594c1.674,0.661,2.899,1.227,3.678,1.695c0.779,0.471,1.402,0.867,1.873,1.189
		c2.731-0.763,5.551-1.145,8.457-1.145c2.908,0,5.727,0.382,8.459,1.145l1.672-1.056c1.146-0.705,2.496-1.353,4.054-1.938
		c1.555-0.587,2.745-0.748,3.567-0.484c1.321,3.32,1.438,6.313,0.352,8.986c2.32,2.495,3.48,5.521,3.48,9.072
		c0,2.497-0.303,4.705-0.902,6.628c-0.602,1.925-1.381,3.466-2.335,4.626c-0.954,1.159-2.144,2.137-3.567,2.928
		c-1.425,0.793-2.805,1.365-4.141,1.719c-1.336,0.353-2.84,0.617-4.516,0.794c1.526,1.321,2.291,3.405,2.291,6.254v9.293
		c0,0.526,0.184,0.969,0.551,1.321c0.367,0.351,0.947,0.455,1.738,0.307c6.813-2.26,12.371-6.333,16.672-12.223
		c4.303-5.887,6.453-12.515,6.453-19.885C68.828,29.689,67.313,24.03,64.291,18.848z"/>
</g>
</svg>
