<?xml version="1.0" encoding="UTF-8" standalone="no"?>
<!-- Generator: Adobe Illustrator 16.0.3, SVG Export Plug-In . SVG Version: 6.00 Build 0)  -->

<svg
   xmlns:dc="http://purl.org/dc/elements/1.1/"
   xmlns:cc="http://creativecommons.org/ns#"
   xmlns:rdf="http://www.w3.org/1999/02/22-rdf-syntax-ns#"
   xmlns:svg="http://www.w3.org/2000/svg"
   xmlns="http://www.w3.org/2000/svg"
   xmlns:sodipodi="http://sodipodi.sourceforge.net/DTD/sodipodi-0.dtd"
   xmlns:inkscape="http://www.inkscape.org/namespaces/inkscape"
   version="1.1"
   id="Capa_1"
   x="0px"
   y="0px"
   width="60"
   height="60"
   viewBox="0 0 51.428571 51.428571"
   enable-background="new 0 0 70 70"
   xml:space="preserve"
   sodipodi:docname="github-logo.svg"
   inkscape:version="0.92.4 (5da689c313, 2019-01-14)"><metadata
   id="metadata11"><rdf:RDF><cc:Work
       rdf:about=""><dc:format>image/svg+xml</dc:format><dc:type
         rdf:resource="http://purl.org/dc/dcmitype/StillImage" /><dc:title></dc:title></cc:Work></rdf:RDF></metadata><defs
   id="defs9" /><sodipodi:namedview
   pagecolor="#ffffff"
   bordercolor="#666666"
   borderopacity="1"
   objecttolerance="10"
   gridtolerance="10"
   guidetolerance="10"
   inkscape:pageopacity="0"
   inkscape:pageshadow="2"
   inkscape:window-width="954"
   inkscape:window-height="480"
   id="namedview7"
   showgrid="false"
   inkscape:zoom="3.3714286"
   inkscape:cx="35"
   inkscape:cy="35"
   inkscape:window-x="447"
   inkscape:window-y="244"
   inkscape:window-maximized="0"
   inkscape:current-layer="g4" />
<g
   id="g4"
   transform="translate(0,-8.5714285)">
	<path
   d="M 47.97978,21.700045 C 45.681093,17.661489 42.562206,14.464462 38.620838,12.106625 34.681751,9.7503469 30.380834,8.5714287 25.714286,8.5714287 c -4.665029,0 -8.967466,1.1789182 -12.906553,3.5351963 -3.9398464,2.356279 -7.0587339,5.554864 -9.3589417,9.59342 C 1.150864,25.737821 0,30.147272 0,34.929955 c 0,5.743429 1.6358385,10.907138 4.9052349,15.495803 3.2709169,4.587887 7.4942991,7.761538 12.6731871,9.524071 0.601277,0.113762 1.048244,0.03429 1.338621,-0.24077 0.290376,-0.275834 0.435564,-0.6179 0.435564,-1.029313 0,-0.06935 -0.0061,-0.68569 -0.01672,-1.8537 -0.0114,-1.165672 -0.01672,-2.184856 -0.01672,-3.053655 l -0.769269,0.137137 c -0.491056,0.09272 -1.111336,0.130905 -1.858562,0.120775 -0.746466,-0.01169 -1.523337,-0.09195 -2.327573,-0.243108 -0.803477,-0.146488 -1.550702,-0.490891 -2.242437,-1.028534 -0.691734,-0.536085 -1.18355,-1.240475 -1.473167,-2.109274 L 10.315212,49.859286 C 10.090968,49.33333 9.7397794,48.749715 9.259366,48.109219 8.7797131,47.468723 8.2939783,47.033933 7.8029229,46.80485 L 7.5680368,46.632649 C 7.4122068,46.518887 7.2670177,46.381749 7.1324721,46.220456 6.9994462,46.060722 6.8983464,45.900987 6.8314533,45.741253 6.7638027,45.57996 6.8192941,45.449055 6.9979261,45.345423 7.1765607,45.24179 7.5011437,45.191922 7.9686353,45.191922 l 0.6696903,0.102074 c 0.4469665,0.09117 0.9980743,0.367 1.6571224,0.824386 0.659048,0.457386 1.199514,1.054247 1.624436,1.78513 0.5131,0.938148 1.132621,1.652668 1.857041,2.144338 0.725942,0.49245 1.456444,0.737116 2.193787,0.737116 0.735824,0 1.372828,-0.05532 1.907972,-0.170643 0.535904,-0.114541 1.037602,-0.285964 1.505853,-0.514267 0.2022,-1.53423 0.747985,-2.712369 1.6404,-3.535197 -1.270971,-0.137138 -2.414994,-0.343624 -3.431312,-0.6179 -1.015558,-0.275834 -2.064562,-0.721532 -3.147773,-1.34099 -1.082451,-0.616341 -1.980186,-1.382288 -2.694725,-2.297839 -0.713019,-0.916331 -1.299092,-2.117066 -1.7574616,-3.603766 -0.4583689,-1.486699 -0.6864135,-3.20326 -0.6864135,-5.147346 0,-2.76925 0.8817711,-5.125528 2.6453141,-7.069614 -0.82628,-2.082782 -0.747985,-4.416463 0.234886,-7.000266 0.647646,-0.207266 1.606193,-0.05143 2.878681,0.46284 1.272488,0.515047 2.203669,0.956069 2.795824,1.320732 0.592155,0.366999 1.065728,0.67556 1.423757,0.92646 2.075965,-0.594524 4.219582,-0.892176 6.428572,-0.892176 2.21051,0 4.353367,0.297652 6.430091,0.892176 l 1.270968,-0.822828 c 0.871129,-0.549331 1.897329,-1.054247 3.081639,-1.510075 1.182031,-0.457386 2.086607,-0.582836 2.711448,-0.377129 1.004156,2.586919 1.093093,4.919043 0.267573,7.001825 1.763543,1.944085 2.645315,4.301922 2.645315,7.068835 0,1.945643 -0.230326,3.666101 -0.685654,5.164488 -0.457609,1.499945 -1.049764,2.700681 -1.774945,3.604545 -0.725182,0.903084 -1.629757,1.665135 -2.711448,2.281476 -1.083211,0.617899 -2.132215,1.063598 -3.147773,1.339432 -1.015558,0.275055 -2.15882,0.480762 -3.432828,0.618678 1.159985,1.029314 1.741499,2.653151 1.741499,4.873071 v 7.241036 c 0,0.409856 0.139867,0.755039 0.418841,1.029314 0.278975,0.273497 0.719861,0.354533 1.321138,0.239212 5.178888,-1.760975 9.40379,-4.934627 12.673186,-9.52407 3.270917,-4.587107 4.905235,-9.751596 4.905235,-15.494245 0,-4.783463 -1.151623,-9.192914 -3.448791,-13.23069 z"
   id="path2"
   inkscape:connector-curvature="0"
   style="stroke-width:0.76961136" />
</g>
</svg>