<svg xmlns="http://www.w3.org/2000/svg" width="20.082" height="19.582" viewBox="0 0 20.082 19.582">
  <g id="Group_1108" data-name="Group 1108" transform="translate(-3682.592 29.964)">
    <path id="Path_2377" data-name="Path 2377" d="M3682.592-20.318c.019-.218.035-.435.058-.652a9.794,9.794,0,0,1,1.424-4.2,9.957,9.957,0,0,1,4.629-3.993,9.752,9.752,0,0,1,3.1-.764,9.722,9.722,0,0,1,5.334,1.036,9.794,9.794,0,0,1,5.25,6.635,10.024,10.024,0,0,1-5.825,11.575,6.608,6.608,0,0,1-.686.259.873.873,0,0,1-.375.019.447.447,0,0,1-.359-.473c0-.464.006-.928.006-1.392,0-.559.011-1.118-.012-1.676a2.258,2.258,0,0,0-.5-1.386c-.043-.052-.091-.1-.147-.16.19-.028.37-.051.549-.081a6.073,6.073,0,0,0,1.9-.6,3.705,3.705,0,0,0,1.85-2.281,6.265,6.265,0,0,0,.233-2.578,3.7,3.7,0,0,0-.921-2.04.16.16,0,0,1-.034-.181,3.562,3.562,0,0,0,.012-2.131c-.034-.119-.08-.235-.116-.353a.123.123,0,0,0-.128-.095,2.426,2.426,0,0,0-.961.153,6.82,6.82,0,0,0-1.6.83.229.229,0,0,1-.207.038,9.142,9.142,0,0,0-2.647-.309,8.823,8.823,0,0,0-2.138.305.258.258,0,0,1-.235-.038,6.732,6.732,0,0,0-1.682-.848,2.4,2.4,0,0,0-.867-.131.138.138,0,0,0-.141.1,3.665,3.665,0,0,0-.128,2.381.323.323,0,0,1-.068.351,3.825,3.825,0,0,0-.9,2.472,6.506,6.506,0,0,0,.3,2.173,3.766,3.766,0,0,0,2.251,2.384,7.245,7.245,0,0,0,1.868.455l.119.018c0,.012,0,.023-.01.028a2.1,2.1,0,0,0-.588,1.212.157.157,0,0,1-.109.141,2.468,2.468,0,0,1-1.57.154,2.023,2.023,0,0,1-1.206-.941,2.789,2.789,0,0,0-.775-.847,1.391,1.391,0,0,0-1.079-.239.431.431,0,0,0-.1.032c-.1.048-.14.132-.073.222a.932.932,0,0,0,.257.264,3.164,3.164,0,0,1,1.241,1.618,1.887,1.887,0,0,0,1.368,1.122,4.393,4.393,0,0,0,1.694.03c.09-.013.18-.028.283-.044,0,.042.006.079.007.116,0,.559-.006,1.118.012,1.677a.517.517,0,0,1-.739.527,9.417,9.417,0,0,1-2.581-1.317,9.944,9.944,0,0,1-3.986-5.965,9.348,9.348,0,0,1-.232-1.686,1.188,1.188,0,0,0-.017-.124Z" transform="translate(0 0)" fill="#1B1F23"/>
  </g>
</svg>
