<svg xmlns="http://www.w3.org/2000/svg" width="40" height="63.281" viewBox="0 0 40 63.281">
  <g id="_11.sustainability.6fada774" data-name="11.sustainability.6fada774" transform="translate(-22.662 -2)">
    <path id="Path_3" data-name="Path 3" d="M24.092,45.423h8.352v1.2a1.553,1.553,0,0,0,1.516,1.485h.482l-.03,5.248v.05A2.645,2.645,0,0,0,36.7,56.047c-.006.108-.026.215-.026.323,0,4.466,3.345,8.469,5.516,8.9a1.378,1.378,0,0,0,.272,0h.322a1.481,1.481,0,0,0,.282,0c2.2-.44,5.588-4.459,5.588-8.917V56.33c0-.095-.007-.189-.01-.285a2.643,2.643,0,0,0,2.319-2.665l-.1-5.273h.467a1.538,1.538,0,0,0,1.5-1.485V45.479h8.418a1.421,1.421,0,0,0,1.413-1.433,24.559,24.559,0,0,0-2.394-11.5,16.779,16.779,0,0,0-7.5-7.3A32.616,32.616,0,0,0,46.285,5.894L43.793,2.573a1.433,1.433,0,0,0-2.293,0L39.01,5.894A32.607,32.607,0,0,0,32.533,25.15c-6.728,3.363-9.871,9.4-9.871,18.9a1.367,1.367,0,0,0,.42.984A1.415,1.415,0,0,0,24.092,45.423ZM42.619,62.435a7.858,7.858,0,0,1-3.1-6.024,1.782,1.782,0,0,1,.008-.257h6.253a2.17,2.17,0,0,1,.012.271A7.845,7.845,0,0,1,42.619,62.435ZM48.1,53.292H37.209l.095-5.185H48ZM59.825,42.616H52.831V28.538C57.3,31.379,59.56,35.834,59.825,42.616Zm-18.569-35,1.368-1.795,1.393,1.795a29.782,29.782,0,0,1,5.954,17.728v19.9H35.3V26.22q.268-.175,0-.354v-.527A29.787,29.787,0,0,1,41.256,7.611ZM32.444,28.42V42.561H25.55C25.809,35.766,27.973,31.2,32.444,28.42Z" fill="#f7296e"/>
    <path id="Path_4" data-name="Path 4" d="M40.78,31.754h0a5.807,5.807,0,1,0-5.808-5.807A5.8,5.8,0,0,0,40.781,31.754Zm0-8.711a2.945,2.945,0,1,1-2.944,2.944A2.944,2.944,0,0,1,40.78,23.042Z" transform="translate(1.873 2.759)" fill="#f7296e"/>
  </g>
</svg>
