<svg xmlns="http://www.w3.org/2000/svg" width="119" height="119" viewBox="0 0 119 119"><g transform="translate(2358 -6283)"><g transform="translate(-2619 3363)"><circle cx="59.5" cy="59.5" r="59.5" transform="translate(261 2920)" fill="#fff"/></g><g transform="translate(2646.775 -583.08)"><path d="M-4892.4,6948.36a1.522,1.522,0,0,0-.5,1.129v27.392a1.519,1.519,0,0,0,.5,1.128c.154.14,3.905,3.437,13.2,3.437s13.041-3.3,13.195-3.437a1.518,1.518,0,0,0,.5-1.128v-27.392a1.519,1.519,0,0,0-.5-1.128c-.154-.141-3.9-3.437-13.195-3.437S-4892.24,6948.22-4892.4,6948.36Zm22.262,1.134a23.826,23.826,0,0,1-9.067,1.518,23.77,23.77,0,0,1-9.067-1.52c.19-.078.378-.157.6-.236l.082-.032c.318-.113.673-.224,1.05-.333.1-.029.209-.058.313-.085.318-.085.658-.167,1.017-.245.107-.024.209-.049.321-.071q.691-.139,1.48-.249c.108-.015.227-.026.338-.04.441-.056.907-.1,1.4-.139.167-.012.335-.024.508-.034.624-.037,1.271-.063,1.967-.063s1.341.026,1.965.063c.171.01.338.021.5.034q.732.056,1.4.138c.11.014.227.024.334.04q.791.111,1.483.249c.107.021.207.045.311.067.362.079.706.161,1.027.247.1.029.209.056.309.084.379.109.737.221,1.056.334l.054.02c.232.089.432.169.622.25Zm1.586,2.627v5.711l-.011.007c-.146.088-.321.19-.531.3h0c-.194.1-.427.214-.68.326l-.1.048c-.262.114-.554.231-.875.347l-.151.052c-.3.1-.618.206-.964.305-.062.017-.119.036-.182.053-.385.106-.8.207-1.25.3l-.3.058c-.427.083-.878.162-1.36.228-.06.009-.114.019-.174.027-.525.069-1.092.123-1.683.166l-.424.026c-.621.036-1.266.063-1.959.063s-1.338-.026-1.959-.062c-.143-.009-.286-.016-.424-.026-.59-.043-1.156-.1-1.681-.165l-.181-.028c-.478-.066-.925-.142-1.348-.226-.1-.021-.208-.04-.309-.062-.44-.092-.855-.192-1.236-.3l-.212-.062q-.491-.141-.914-.289l-.2-.067c-.307-.111-.585-.223-.837-.331l-.169-.076c-.21-.1-.4-.187-.573-.275-.031-.016-.067-.032-.1-.049-.184-.1-.34-.187-.473-.268l-.042-.025v-5.71a26.089,26.089,0,0,0,10.652,1.935,26.1,26.1,0,0,0,10.651-1.935Zm-21.3,18.263c.062.028.137.056.2.083.176.076.354.151.548.227.1.041.221.082.333.123.188.068.379.137.583.206.13.042.268.084.406.127.206.064.416.125.637.187.153.042.31.083.47.124q.34.086.7.165c.173.039.347.076.528.112.252.051.516.1.784.141.19.033.377.065.574.094.288.042.591.078.9.114.2.023.391.048.6.068.346.034.711.058,1.078.081.185.011.36.028.55.037.566.027,1.153.044,1.767.044s1.2-.017,1.767-.044c.189-.008.365-.025.549-.037.367-.023.731-.047,1.078-.081.206-.021.4-.045.6-.068.3-.036.607-.072.9-.114.2-.029.385-.062.574-.094.269-.044.531-.09.784-.141.181-.036.354-.073.528-.112q.363-.08.7-.165.24-.062.47-.124c.221-.061.432-.123.637-.187.137-.042.275-.085.406-.127.2-.068.4-.137.583-.206.111-.041.227-.082.333-.123.194-.075.373-.15.548-.227.064-.027.139-.056.2-.083v5.711c-1.168.718-4.455,2.306-10.652,2.306s-9.472-1.583-10.652-2.307Zm0-3.423v-5.707c.063.026.137.055.2.082.176.076.354.15.548.227.106.041.221.083.333.123.188.069.379.138.583.205.131.044.268.086.406.128.206.063.416.126.637.187.152.042.31.083.47.123q.341.087.7.166c.173.039.347.076.528.112.253.05.516.1.784.141.189.032.376.065.574.093.287.042.59.078.9.114.2.023.391.048.6.068.346.033.711.057,1.078.081.185.011.36.027.55.036.566.027,1.152.043,1.767.043s1.2-.016,1.767-.043c.189-.009.365-.025.549-.036.367-.024.732-.048,1.078-.081.206-.021.4-.045.6-.068.305-.036.607-.071.9-.114.2-.028.384-.061.574-.093.269-.044.532-.091.784-.141.181-.036.354-.074.528-.112.241-.053.476-.108.7-.166q.241-.06.471-.123c.221-.061.431-.123.637-.187.138-.042.275-.084.406-.128.2-.067.4-.136.583-.205.112-.041.227-.082.333-.123.194-.076.373-.151.548-.227l.2-.082v5.708l-.039.025c-.135.081-.292.172-.48.271l-.075.039c-.173.089-.373.185-.589.282-.054.024-.107.049-.164.073-.252.109-.532.222-.839.333l-.189.065q-.423.148-.916.29l-.216.063c-.381.106-.8.206-1.237.3-.1.021-.2.04-.306.061q-.631.125-1.341.225c-.066.009-.126.021-.193.03-.524.068-1.09.123-1.679.165l-.427.027c-.622.037-1.267.063-1.961.063s-1.338-.026-1.959-.062c-.143-.008-.286-.017-.424-.027-.59-.042-1.156-.1-1.681-.165-.063-.008-.12-.019-.182-.027-.477-.067-.924-.144-1.348-.227-.1-.02-.209-.04-.309-.061-.44-.093-.855-.193-1.236-.3l-.212-.062c-.327-.093-.633-.191-.914-.289-.065-.022-.134-.044-.2-.068-.307-.111-.585-.222-.837-.331l-.169-.075c-.21-.1-.4-.188-.573-.274-.031-.017-.067-.034-.1-.049-.185-.1-.34-.187-.473-.269l-.042-.026Z" transform="translate(-49.518 -28.295)" fill="#f7296e"/><path d="M-4973.87,6901.8a1.518,1.518,0,0,0-.5,1.128v45.652a1.519,1.519,0,0,0,.5,1.127c.155.142,3.9,3.438,13.195,3.438s13.041-3.3,13.195-3.437a1.518,1.518,0,0,0,.5-1.128v-45.652a1.517,1.517,0,0,0-.5-1.128c-.154-.141-3.9-3.437-13.195-3.437S-4973.72,6901.66-4973.87,6901.8Zm22.262,1.133a23.8,23.8,0,0,1-9.067,1.519,23.781,23.781,0,0,1-9.067-1.519c.19-.08.378-.158.6-.237l.082-.031c.317-.113.673-.225,1.05-.333.1-.029.209-.057.313-.085.318-.086.658-.167,1.017-.246.108-.023.21-.047.321-.07.461-.093.954-.177,1.48-.249.108-.015.227-.026.338-.04.441-.055.907-.1,1.394-.138l.508-.035c.624-.037,1.271-.063,1.967-.063s1.342.026,1.965.063c.172.01.338.022.5.034q.73.056,1.4.138c.11.014.228.024.334.04q.791.109,1.483.249c.108.021.207.045.311.068.362.079.706.161,1.026.247.1.028.21.055.309.083.379.109.737.22,1.056.334l.054.021c.22.088.419.168.62.258Zm1.585,2.627v5.711l-.01.007c-.146.089-.321.19-.531.3h0c-.195.1-.427.213-.68.326l-.106.047c-.261.114-.554.231-.875.347l-.152.052c-.3.1-.618.206-.964.3-.062.018-.119.037-.183.054-.384.106-.8.207-1.25.3l-.3.059c-.427.083-.878.161-1.361.228l-.174.026c-.525.069-1.092.123-1.683.166l-.424.027c-.622.036-1.266.063-1.959.063s-1.337-.026-1.958-.062c-.144-.008-.286-.016-.424-.026-.59-.042-1.157-.1-1.682-.166-.063-.008-.119-.02-.181-.027-.478-.066-.924-.143-1.347-.227-.1-.021-.209-.04-.31-.061-.44-.093-.855-.193-1.235-.3l-.212-.062q-.492-.141-.915-.289l-.2-.067c-.306-.111-.585-.223-.836-.331l-.169-.076c-.21-.1-.4-.188-.573-.275l-.1-.048c-.184-.1-.34-.187-.473-.268l-.042-.026v-5.71a26.077,26.077,0,0,0,10.652,1.933,26.085,26.085,0,0,0,10.652-1.934Zm-21.3,36.524c.062.028.137.056.2.083.176.076.354.151.548.226.106.041.221.082.333.123.188.069.379.138.583.206.131.043.268.085.406.128.205.063.416.125.637.186.153.042.31.083.47.124q.34.086.7.166c.173.039.347.076.528.112.252.051.516.1.784.142.19.032.377.064.574.093.288.042.59.078.9.114.2.023.391.048.6.068.346.033.711.057,1.078.08.185.012.359.028.55.038.565.027,1.152.043,1.767.043s1.2-.016,1.767-.043c.19-.009.365-.025.55-.038.366-.023.731-.047,1.078-.08.206-.02.4-.045.6-.068.3-.036.607-.071.9-.114.2-.029.385-.062.574-.093.269-.045.531-.091.784-.142.181-.036.355-.073.528-.112q.362-.08.7-.166c.161-.041.317-.082.471-.124.221-.061.431-.123.637-.186.138-.042.275-.084.406-.128.2-.068.4-.137.583-.206.112-.041.227-.082.333-.123.194-.075.373-.151.548-.226.064-.028.139-.056.2-.083v5.711c-1.168.717-4.455,2.306-10.652,2.306s-9.472-1.583-10.652-2.308Zm0-3.423v-5.707c.062.027.137.055.2.083.176.076.354.151.548.227.106.042.221.082.333.123.188.069.379.138.583.205.131.043.268.085.406.128.205.064.416.126.637.187.153.043.31.083.47.124.227.058.461.112.7.166.173.039.347.076.528.112.252.05.516.1.784.142.19.031.377.064.574.093.288.043.59.078.9.113.2.023.391.049.6.068.346.034.711.058,1.078.081.185.012.359.028.55.037.565.027,1.152.043,1.767.043s1.2-.016,1.767-.043c.19-.009.365-.025.55-.037.366-.023.731-.047,1.078-.081.206-.02.4-.045.6-.068.3-.035.607-.071.9-.113.2-.029.385-.062.574-.093.269-.046.531-.092.784-.142.181-.036.355-.073.528-.112.241-.054.476-.108.7-.166.161-.04.317-.081.471-.124.221-.061.431-.123.637-.187.138-.042.275-.084.406-.128.2-.068.4-.136.583-.205.112-.041.227-.081.333-.123.194-.076.373-.151.548-.227.064-.027.139-.055.2-.083v5.709l-.039.024c-.134.081-.292.172-.479.271l-.076.039c-.173.089-.373.185-.59.282l-.164.074c-.252.109-.532.221-.84.333l-.189.065c-.282.1-.588.194-.916.29l-.216.063c-.381.1-.8.2-1.237.3-.1.021-.2.04-.306.06-.421.083-.867.16-1.341.226-.066.009-.126.02-.193.029-.523.069-1.089.123-1.679.166l-.427.027c-.622.037-1.267.063-1.961.063s-1.337-.026-1.959-.062c-.143-.008-.285-.017-.424-.027-.589-.042-1.156-.1-1.681-.166-.063-.008-.119-.019-.181-.027-.478-.066-.925-.143-1.348-.227-.1-.02-.209-.04-.31-.061-.44-.092-.855-.192-1.235-.3l-.213-.063q-.491-.141-.914-.289l-.2-.068c-.307-.111-.585-.223-.837-.331l-.168-.076c-.21-.1-.4-.187-.573-.275l-.1-.049c-.184-.1-.34-.187-.473-.268l-.042-.026Zm0-9.13v-5.708c.062.028.136.056.2.083.176.075.354.15.548.226.106.042.221.082.333.123.188.069.379.138.583.206.131.043.269.085.406.128.206.063.416.125.637.187q.229.064.47.124c.227.057.461.112.7.166.173.039.347.076.528.111.252.051.516.1.784.142.19.032.377.065.574.093.288.043.59.079.9.114.2.024.391.049.6.069.345.033.711.057,1.078.08.185.012.36.028.55.037.565.027,1.153.043,1.767.043s1.2-.016,1.768-.043c.189-.009.364-.025.549-.037.367-.023.731-.047,1.078-.08.205-.02.4-.045.6-.069.3-.035.606-.071.9-.114.2-.028.384-.061.574-.093.268-.045.531-.091.784-.142.181-.036.355-.073.528-.111.241-.054.476-.108.7-.166q.24-.062.47-.124c.221-.061.432-.123.637-.187.137-.043.274-.084.406-.128.2-.068.4-.136.583-.206.112-.041.227-.082.333-.123.194-.075.373-.15.548-.226.064-.028.139-.056.2-.083v5.709l-.039.024c-.134.082-.292.172-.479.271l-.076.039c-.173.089-.373.185-.59.282l-.164.074c-.252.109-.532.221-.84.332-.06.022-.126.044-.189.065-.282.1-.588.195-.916.29-.072.021-.14.043-.216.064-.381.1-.8.2-1.237.3-.1.021-.2.041-.306.061-.421.083-.867.159-1.341.225-.066.009-.126.021-.193.029-.523.07-1.089.123-1.679.166-.14.01-.283.018-.427.026-.622.037-1.267.063-1.961.063s-1.337-.026-1.959-.062c-.143-.008-.285-.016-.424-.026-.589-.043-1.156-.1-1.681-.166-.063-.008-.119-.02-.181-.027-.478-.067-.925-.144-1.348-.227-.1-.02-.209-.04-.31-.061-.44-.093-.855-.192-1.235-.3-.074-.02-.141-.042-.213-.062q-.491-.141-.914-.289l-.2-.067c-.307-.111-.585-.223-.837-.331l-.168-.076c-.21-.1-.4-.187-.573-.274l-.1-.049c-.184-.1-.34-.187-.473-.268l-.042-.026Zm0-9.13v-5.7c.062.028.136.056.2.083.176.076.354.15.548.227.106.041.221.082.333.123.188.069.379.138.583.206.131.043.269.085.406.128.206.064.416.126.637.187q.229.063.47.124c.227.058.461.112.7.166.173.039.347.076.528.112.252.05.516.1.784.142.19.031.377.063.574.092.288.043.59.078.9.114.2.023.391.048.6.069.345.033.711.057,1.078.081.185.012.36.027.55.037.565.027,1.153.043,1.767.043s1.2-.016,1.768-.043c.189-.009.364-.025.549-.037.367-.024.731-.047,1.078-.081.205-.021.4-.046.6-.069.3-.036.606-.071.9-.114.2-.029.384-.061.574-.092.268-.045.531-.092.784-.142.181-.036.355-.074.528-.112.241-.053.476-.107.7-.166q.24-.062.47-.124c.221-.061.432-.123.637-.187.137-.042.274-.084.406-.128.2-.068.4-.136.583-.206.112-.041.227-.082.333-.123.194-.076.373-.151.548-.227.064-.027.139-.055.2-.083v5.709l-.039.024c-.134.081-.292.172-.479.271l-.076.038c-.173.09-.373.185-.59.283l-.164.073q-.379.165-.84.333l-.189.065c-.282.1-.588.195-.916.29-.072.021-.14.042-.216.063-.381.106-.8.205-1.237.3-.1.021-.2.04-.306.06q-.631.125-1.341.226c-.066.009-.126.021-.193.029-.523.069-1.089.123-1.679.166-.14.01-.283.019-.427.027-.622.036-1.267.063-1.961.063s-1.337-.026-1.959-.062c-.143-.008-.285-.017-.424-.027-.589-.042-1.156-.1-1.681-.166-.063-.008-.119-.019-.181-.027-.478-.066-.925-.143-1.348-.227-.1-.02-.209-.04-.31-.061-.44-.093-.855-.193-1.235-.3l-.213-.062q-.491-.141-.914-.29c-.065-.022-.134-.044-.2-.068-.307-.111-.585-.222-.837-.331-.059-.025-.113-.05-.168-.076-.21-.094-.4-.187-.573-.274l-.1-.049c-.184-.1-.34-.187-.473-.268l-.042-.026Z" fill="#f7296e"/></g></g></svg>