<svg xmlns="http://www.w3.org/2000/svg" width="119" height="119" viewBox="0 0 119 119"><g transform="translate(2150 -6283)"><g transform="translate(-2411 3363)"><circle cx="59.5" cy="59.5" r="59.5" transform="translate(261 2920)" fill="#fff"/></g><g transform="translate(-1705.541 6099.612)"><path d="M-412.013,264.062a1.218,1.218,0,0,0-1.218,1.218v5.045a4.872,4.872,0,0,0-3.5,5.935,4.872,4.872,0,0,0,5.935,3.5,4.872,4.872,0,0,0,3.5-5.935,4.873,4.873,0,0,0-3.5-3.5V266.5h6.09a1.218,1.218,0,0,0,1.218-1.218v-3.654h18.269v8.7a4.873,4.873,0,0,0-3.5,5.935,4.872,4.872,0,0,0,5.935,3.5,4.872,4.872,0,0,0,3.5-5.935,4.874,4.874,0,0,0-3.5-3.5v-8.7h17.052v3.654a1.218,1.218,0,0,0,1.218,1.218h6.09v3.826a4.872,4.872,0,0,0-3.5,5.935,4.871,4.871,0,0,0,5.935,3.5,4.871,4.871,0,0,0,3.5-5.935,4.872,4.872,0,0,0-3.5-3.5V265.28a1.218,1.218,0,0,0-1.218-1.218h-6.09v-2.435h4.872a1.218,1.218,0,0,0,1.218-1.218v-34.1a1.218,1.218,0,0,0-1.218-1.218H-363.3v-2.436h6.09a1.218,1.218,0,0,0,1.218-1.218v-5.045a4.871,4.871,0,0,0,3.5-5.935,4.872,4.872,0,0,0-5.935-3.5,4.872,4.872,0,0,0-3.5,5.935,4.871,4.871,0,0,0,3.5,3.5v3.827h-6.09a1.218,1.218,0,0,0-1.218,1.218v3.654h-17.052v-8.7a4.872,4.872,0,0,0,3.5-5.935,4.873,4.873,0,0,0-5.935-3.5,4.872,4.872,0,0,0-3.5,5.935,4.873,4.873,0,0,0,3.5,3.5v8.7h-18.27v-3.654a1.218,1.218,0,0,0-1.218-1.218h-6.09v-3.827a4.872,4.872,0,0,0,3.5-5.935,4.873,4.873,0,0,0-5.936-3.5,4.872,4.872,0,0,0-3.5,5.935,4.871,4.871,0,0,0,3.5,3.5v5.045a1.219,1.219,0,0,0,1.219,1.218h6.09v2.436h-3.654a1.218,1.218,0,0,0-1.218,1.218v34.1a1.218,1.218,0,0,0,1.218,1.218h3.654v2.436h-6.09Zm2.436,10.962a2.436,2.436,0,0,1-2.436,2.436,2.436,2.436,0,0,1-2.437-2.436,2.436,2.436,0,0,1,2.437-2.436,2.436,2.436,0,0,1,2.436,2.436Zm54.808,0a2.436,2.436,0,0,1-2.435,2.436,2.436,2.436,0,0,1-2.436-2.436,2.436,2.436,0,0,1,2.436-2.436,2.436,2.436,0,0,1,2.435,2.436Zm-4.872-63.335a2.436,2.436,0,0,1,2.436-2.436,2.436,2.436,0,0,1,2.435,2.436,2.436,2.436,0,0,1-2.435,2.436,2.436,2.436,0,0,1-2.435-2.436Zm-54.809,0a2.436,2.436,0,0,1,2.437-2.436,2.436,2.436,0,0,1,2.436,2.436,2.436,2.436,0,0,1-2.436,2.436,2.436,2.436,0,0,1-2.437-2.436Zm32.886,63.335A2.436,2.436,0,0,1-384,277.46a2.436,2.436,0,0,1-2.436-2.436A2.436,2.436,0,0,1-384,272.588a2.436,2.436,0,0,1,2.436,2.436Zm-4.872-63.335A2.436,2.436,0,0,1-384,209.254a2.436,2.436,0,0,1,2.436,2.436A2.436,2.436,0,0,1-384,214.125a2.436,2.436,0,0,1-2.436-2.436Zm-21.924,47.5V227.523h48.719V259.19Z" fill="#f7296e"/><path d="M-392.872,276.749h12.18a1.218,1.218,0,0,0,1.218-1.218v-6.089a7.3,7.3,0,0,0-3.517-6.235,6.09,6.09,0,0,0,.974-8.557,6.089,6.089,0,0,0-8.557-.974,6.09,6.09,0,0,0-.974,8.557,6.108,6.108,0,0,0,.974.974,7.3,7.3,0,0,0-3.516,6.235v6.089a1.218,1.218,0,0,0,1.218,1.218Zm6.09-21.924a3.654,3.654,0,0,1,3.654,3.654,3.654,3.654,0,0,1-3.654,3.654,3.654,3.654,0,0,1-3.654-3.654A3.654,3.654,0,0,1-386.782,254.825Zm-4.872,14.616a4.872,4.872,0,0,1,4.873-4.873,4.872,4.872,0,0,1,4.871,4.872v4.873h-9.744Z" transform="translate(-10.616 -21.212)" fill="#f7296e"/><path d="M-355.34,254.7h13.4v2.436h-13.4Z" transform="translate(-28.66 -22.308)" fill="#f7296e"/><path d="M-355.34,272.938h19.488v2.436H-355.34Z" transform="translate(-28.66 -30.799)" fill="#f7296e"/><path d="M-355.34,291.174h19.488v2.436H-355.34Z" transform="translate(-28.66 -39.291)" fill="#f7296e"/></g></g></svg>