<svg xmlns="http://www.w3.org/2000/svg" width="119" height="119" viewBox="0 0 119 119">
  <g id="No_fees_Icon" transform="translate(3170 -5826)">
    <g id="Group_1918" data-name="Group 1918" transform="translate(-3431 2906)">
      <g id="Ellipse_687" data-name="Ellipse 687" transform="translate(261 2920)" fill="#f7296e" stroke="#f7296e" stroke-width="3">
        <circle cx="59.5" cy="59.5" r="59.5" stroke="none"/>
        <circle cx="59.5" cy="59.5" r="58" fill="none"/>
      </g>
    </g>
    <g id="Group_1920" data-name="Group 1920" transform="translate(1627.691 -1030.919)">
      <g id="Group_1121" data-name="Group 1121" transform="translate(-4757.833 6901.324)">
        <path id="Path_2392" data-name="Path 2392" d="M-4757.8,6968.2l-.029-4.221,39.2-39.2.03,4.221Z" transform="translate(4757.833 -6924.775)" fill="#fff"/>
      </g>
      <path id="Path_2393" data-name="Path 2393" d="M-4737.775,6926.707l-.051-.029-.04-.025h0v-5.466c.06.027.131.053.193.08.168.072.339.144.525.217.1.04.211.078.319.117.18.066.363.132.559.2.125.041.256.082.388.123.2.061.4.12.61.179.146.04.3.079.45.118.217.055.441.107.673.159.166.037.333.072.506.107l.079.014,2.557-2.558c-.186-.02-.373-.039-.549-.062-.061-.007-.115-.018-.174-.026-.457-.064-.885-.137-1.291-.217-.1-.02-.2-.038-.3-.059-.422-.089-.819-.185-1.184-.285-.071-.02-.135-.04-.2-.06q-.47-.136-.876-.277c-.062-.022-.128-.043-.188-.065-.293-.106-.561-.213-.8-.317l-.162-.073c-.2-.091-.387-.179-.549-.263l-.093-.046c-.176-.094-.325-.179-.453-.257l-.04-.024h0v-5.467c.06.026.131.052.193.079.168.073.339.145.525.217.1.04.211.079.319.118.18.067.363.132.559.2.125.042.256.082.388.122.2.062.4.121.61.179.146.041.3.079.45.119q.327.082.673.158c.166.038.333.073.506.107.242.048.494.093.751.136.182.03.361.062.55.089.275.041.565.075.857.109.19.022.375.046.571.065.331.032.681.055,1.032.077.177.012.344.027.526.036.542.026,1.1.041,1.692.041s1.15-.015,1.693-.041c.181-.009.349-.024.526-.036l.174-.011,3.4-3.4-.139.031c-.095.02-.2.039-.293.058-.4.08-.83.152-1.285.216-.062.009-.121.02-.185.028-.5.066-1.044.118-1.608.159l-.41.025c-.6.035-1.213.06-1.878.06s-1.281-.025-1.876-.06c-.137-.008-.273-.016-.406-.025-.565-.041-1.108-.092-1.61-.159l-.174-.026c-.457-.063-.885-.137-1.291-.217-.1-.02-.2-.038-.3-.059-.422-.089-.819-.184-1.184-.285-.071-.02-.135-.04-.2-.059q-.47-.136-.876-.278c-.062-.021-.128-.042-.188-.064-.293-.106-.561-.213-.8-.317-.057-.024-.108-.048-.162-.073-.2-.09-.387-.179-.549-.262l-.093-.047c-.176-.093-.325-.179-.453-.256l-.04-.026h0V6903.7c.06.026.131.053.193.08.168.072.339.144.525.216.1.04.211.079.319.118.18.066.363.132.559.2.125.042.256.083.388.123.2.061.4.12.61.179.146.041.3.08.45.119q.327.082.673.158c.166.037.333.073.506.107.242.048.494.092.751.135.182.031.361.062.55.09.275.041.565.075.857.109.19.022.375.046.571.065.331.032.681.055,1.032.077.177.011.344.027.526.036.542.025,1.1.041,1.692.041s1.15-.016,1.693-.041c.181-.009.349-.024.526-.036.351-.022.7-.045,1.032-.077.2-.02.381-.043.571-.065.292-.034.582-.068.857-.109.189-.028.369-.059.55-.09.257-.043.509-.087.75-.135.173-.034.34-.07.506-.107q.347-.076.673-.158c.153-.039.3-.078.451-.119.211-.059.413-.118.61-.179.131-.041.263-.081.388-.123.2-.064.379-.13.558-.2.107-.039.218-.078.319-.118.186-.072.356-.145.525-.216.062-.027.133-.053.192-.08v2.7l2.915-2.915v-11.051a1.452,1.452,0,0,0-.48-1.08c-.148-.135-3.74-3.292-12.638-3.292s-12.49,3.156-12.638,3.292a1.453,1.453,0,0,0-.479,1.08v37.286Zm2-34.5.079-.03c.3-.108.645-.215,1.006-.319.1-.027.2-.054.3-.081.3-.083.63-.161.974-.235.1-.022.2-.045.307-.067.441-.088.914-.169,1.418-.238.1-.014.216-.024.323-.038.423-.053.869-.1,1.335-.132.161-.011.321-.023.487-.033.6-.035,1.217-.06,1.884-.06s1.285.025,1.882.06c.165.009.324.022.484.033.466.036.913.079,1.336.132.106.013.218.023.321.038q.757.1,1.42.238c.1.021.2.043.3.065.347.075.675.153.982.236.1.026.2.053.3.081.363.1.707.21,1.012.319l.051.02c.222.081.411.159.6.239a22.794,22.794,0,0,1-8.685,1.454,22.787,22.787,0,0,1-8.685-1.455C-4736.167,6892.355-4735.986,6892.28-4735.776,6892.2Zm-2.089,2.744a24.985,24.985,0,0,0,10.2,1.852,24.987,24.987,0,0,0,10.2-1.852h0v5.47l-.009.006c-.139.085-.308.183-.509.288l0,0c-.187.1-.41.2-.652.313l-.1.045c-.25.109-.53.221-.838.333l-.146.05c-.283.1-.592.2-.923.292-.059.017-.114.035-.174.052-.369.1-.771.2-1.2.288-.093.02-.189.038-.284.056-.409.081-.841.155-1.3.219-.057.008-.108.018-.167.025-.5.066-1.046.117-1.612.158-.133.01-.27.018-.406.026-.6.035-1.213.06-1.876.06s-1.281-.024-1.876-.06c-.137-.007-.273-.016-.406-.025-.565-.041-1.107-.092-1.61-.158-.061-.008-.115-.019-.174-.027-.457-.064-.885-.137-1.29-.216-.1-.02-.2-.038-.3-.059-.422-.089-.819-.185-1.184-.285-.071-.02-.134-.04-.2-.06q-.47-.135-.876-.277l-.188-.065c-.293-.106-.561-.213-.8-.317-.057-.024-.108-.048-.162-.072-.2-.091-.387-.179-.549-.263l-.093-.047c-.176-.093-.326-.179-.453-.256l-.041-.025Z" transform="translate(-10.89 -0.001)" fill="#fff"/>
      <path id="Path_2394" data-name="Path 2394" d="M-4717.437,6950.641V6980.2c-1.14.7-4.316,2.227-10.227,2.227s-9.087-1.53-10.226-2.227v-9.108l20.453-20.453m2.891-6.979-26.235,26.235v11.051a1.456,1.456,0,0,0,.479,1.081c.148.135,3.741,3.291,12.638,3.291s12.49-3.156,12.638-3.291a1.455,1.455,0,0,0,.48-1.081v-37.286Z" transform="translate(-10.89 -35.513)" fill="#fff"/>
    </g>
  </g>
</svg>
