<svg xmlns="http://www.w3.org/2000/svg" width="119" height="119" viewBox="0 0 119 119">
  <g id="No_Scaling_Icon" transform="translate(3868 -6261)">
    <g id="Group_2033" data-name="Group 2033" transform="translate(-4129 3341)">
      <g id="Ellipse_687" data-name="Ellipse 687" transform="translate(261 2920)" fill="#fff" stroke="#fff" stroke-width="3">
        <circle cx="59.5" cy="59.5" r="59.5" stroke="none"/>
        <circle cx="59.5" cy="59.5" r="58" fill="none"/>
      </g>
    </g>
    <path id="Path_4106" data-name="Path 4106" d="M-5411.249,6872.677l-8.287-17.749,3.577,1.026a1.479,1.479,0,0,0,1.83-1.015,1.478,1.478,0,0,0-1.014-1.83l-24.872-7.137c0-.106.007-.212.007-.32a6.483,6.483,0,0,0-4.851-6.278,6.485,6.485,0,0,0-7.3,3.114l-24.874-7.137a1.481,1.481,0,0,0-1.831,1.015,1.479,1.479,0,0,0,1.015,1.83l4.909,1.409-8.89,19.042a1.481,1.481,0,0,0-.991,1.4,11.861,11.861,0,0,0,7.333,10.969,11.862,11.862,0,0,0,12.938-2.594,11.729,11.729,0,0,0,3.541-8.375,1.477,1.477,0,0,0-1.079-1.423l-8.262-17.7,15.373,4.412c0,.105-.008.212-.008.32a6.5,6.5,0,0,0,5.007,6.314v29.313h-4.084a5.946,5.946,0,0,0-5.978,5.884v.858a5.964,5.964,0,0,0-4.736,5.8v2.072a1.564,1.564,0,0,0,1.539,1.516h29.479a1.564,1.564,0,0,0,1.539-1.516v-2.072a5.964,5.964,0,0,0-4.736-5.8v-.858a5.946,5.946,0,0,0-5.978-5.884h-4.084v-29.313a6.512,6.512,0,0,0,4.181-3.152l16.75,4.807-8.909,19.083a1.479,1.479,0,0,0-.992,1.4,11.864,11.864,0,0,0,7.334,10.969,11.862,11.862,0,0,0,12.937-2.593,11.728,11.728,0,0,0,3.541-8.376A1.479,1.479,0,0,0-5411.249,6872.677Zm-59.7-30.4,7.572,16.219h-15.143Zm0,26.606a8.847,8.847,0,0,1-8.786-7.428h17.639A8.975,8.975,0,0,1-5470.949,6868.878Zm37.773,24.944v.628h-26.637v-.628a2.984,2.984,0,0,1,3.019-2.923h20.6A2.984,2.984,0,0,1-5433.175,6893.823Zm-4.735-6.658v.775h-17.166v-.775a2.984,2.984,0,0,1,3.019-2.925h11.129A2.984,2.984,0,0,1-5437.911,6887.165Zm-8.583-37.984a3.532,3.532,0,0,1-3.338-2.373,3.531,3.531,0,0,1,1.151-3.93,3.53,3.53,0,0,1,4.091-.2,3.531,3.531,0,0,1,1.524,3.8,1.5,1.5,0,0,0-.083.289A3.533,3.533,0,0,1-5446.494,6849.18Zm31.952,23.369h-15.144l7.572-16.219Zm-7.572,10.388a8.848,8.848,0,0,1-8.787-7.429h17.64A8.978,8.978,0,0,1-5422.113,6882.938Z" transform="translate(1637.816 -547.25)" fill="#f7296e"/>
  </g>
</svg>
