<?xml version="1.0" encoding="utf-8"?>
<!-- Generator: Adobe Illustrator 16.0.3, SVG Export Plug-In . SVG Version: 6.00 Build 0)  -->
<!DOCTYPE svg PUBLIC "-//W3C//DTD SVG 1.1//EN" "http://www.w3.org/Graphics/SVG/1.1/DTD/svg11.dtd">
<svg version="1.1" id="Layer_1" xmlns="http://www.w3.org/2000/svg" xmlns:xlink="http://www.w3.org/1999/xlink" x="0px" y="0px"
	 width="119px" height="119px" viewBox="0 0 119 119" enable-background="new 0 0 119 119" xml:space="preserve">
<g id="No_Scaling_Icon" transform="translate(3868 -6261)">
	<g id="Group_2033" transform="translate(-4129 3341)">
		<g id="Ellipse_687" transform="translate(261 2920)">
			<circle fill="#F7296E" cx="59.5" cy="59.5" r="59.5"/>
			<circle fill="#F7296E" cx="59.5" cy="59.5" r="58"/>
		</g>
	</g>
	<path fill="#FFFFFF" d="M-3773.463,6329.143c0.748,0,1.355-0.607,1.355-1.354l0.021-7.025c0-0.481-0.261-0.931-0.679-1.174
		l-16.881-9.746l0.041-16.659l7.197-4.3l-1.018,4.03l2.52,0.634l2.072-8.209l0.029-0.122l-8.211-2.067l-0.121-0.031l-0.635,2.519
		l4.029,1.015l-7.342,4.384l-16.773-9.685c-0.403-0.233-0.955-0.232-1.36,0.002l-17.438,10.135
		c-0.408,0.203-0.695,0.689-0.696,1.182l-0.044,17.159l-16.775,9.75c-0.409,0.204-0.695,0.689-0.697,1.182l-0.045,17.942
		c-0.001,0.481,0.258,0.937,0.679,1.181l15.69,9.06l-8.687,5.188l1.017-4.029l-2.521-0.633l-2.068,8.208l-0.031,0.121l8.208,2.067
		l0.122,0.029l0.634-2.52l-4.029-1.015l11.21-6.69l7.468-4.342c0.314-0.181,0.538-0.474,0.631-0.824
		c0.094-0.353,0.044-0.717-0.139-1.03c-0.242-0.418-0.692-0.679-1.174-0.679c-0.24,0-0.476,0.064-0.682,0.187l-6.035,3.506
		l0.039-14.796l14.738-8.563l-0.039,14.795l-4.209,2.446c-0.314,0.183-0.539,0.476-0.631,0.827
		c-0.092,0.352-0.043,0.716,0.139,1.027c0.241,0.418,0.692,0.678,1.175,0.678c0.239,0,0.476-0.063,0.682-0.184l4.205-2.444
		l16.872,9.742c0.059,0.039,0.119,0.071,0.152,0.086l10.486,6.259l-4.027,1.016l0.632,2.519l8.33-2.099l-2.099-8.328l-2.52,0.633
		l1.016,4.029l-4.713-2.814l0.002-0.002l-3.993-2.385l15.575-9.049c0.416-0.242,0.675-0.691,0.675-1.172l0.017-6.053
		c0-0.746-0.609-1.356-1.358-1.358c-0.745,0-1.354,0.606-1.358,1.354l-0.014,5.271l-14.736,8.563l0.035-14.795l14.74-8.563
		l-0.014,4.653C-3774.82,6328.531-3774.212,6329.143-3773.463,6329.143z M-3811.187,6320.769l-14.751,8.571l-14.862-8.579
		l14.751-8.574L-3811.187,6320.769z M-3842.196,6337.924l0.038-14.811l14.862,8.578l-0.038,14.812L-3842.196,6337.924z
		 M-3809.78,6303.603l-0.039,14.81l-14.861-8.58l0.039-14.81L-3809.78,6303.603z M-3776.152,6320.769l-14.754,8.571l-14.857-8.577
		l14.752-8.574L-3776.152,6320.769z M-3792.264,6331.691l-0.037,14.812l-14.862-8.579l0.037-14.811L-3792.264,6331.691z
		 M-3798.607,6295.525l-2.873,1.692c-0.646,0.377-0.867,1.21-0.494,1.857c0.242,0.417,0.693,0.676,1.178,0.676
		c0.238,0,0.473-0.063,0.68-0.183l7.793-4.529l-0.037,14.792l-14.738,8.565l0.037-14.791l2.654-1.542
		c0.313-0.181,0.537-0.474,0.629-0.823c0.094-0.352,0.045-0.718-0.138-1.032c-0.243-0.417-0.692-0.677-1.177-0.677
		c-0.238,0-0.475,0.064-0.68,0.185l-2.647,1.537l-14.863-8.58l14.752-8.573l14.78,8.534L-3798.607,6295.525z"/>
</g>
</svg>
