<svg xmlns="http://www.w3.org/2000/svg" width="119" height="119" viewBox="0 0 119 119"><g transform="translate(3868 -6261)"><g transform="translate(-4129 3341)"><g transform="translate(261 2920)"><circle cx="59.5" cy="59.5" r="59.5" fill="#fff"/><circle cx="58" cy="58" r="58" transform="translate(1.5 1.5)" fill="none"/></g></g><path d="M-3773.46,6329.14a1.357,1.357,0,0,0,1.356-1.355l.02-7.025a1.362,1.362,0,0,0-.679-1.174l-16.88-9.746.041-16.659,7.2-4.3-1.017,4.03,2.52.634,2.071-8.209.03-.122-8.211-2.067-.121-.031-.635,2.519,4.03,1.015-7.342,4.384-16.773-9.685a1.41,1.41,0,0,0-1.361,0l-17.438,10.135a1.353,1.353,0,0,0-.7,1.182l-.044,17.159-16.776,9.75a1.355,1.355,0,0,0-.7,1.182l-.045,17.942a1.37,1.37,0,0,0,.679,1.181l15.69,9.059-8.686,5.189,1.016-4.03-2.52-.633-2.068,8.208-.031.121,8.208,2.067.122.03.634-2.519-4.029-1.015,11.21-6.69,7.468-4.342a1.343,1.343,0,0,0,.631-.825,1.34,1.34,0,0,0-.139-1.03,1.362,1.362,0,0,0-1.174-.678,1.337,1.337,0,0,0-.682.186l-6.035,3.506.039-14.8,14.738-8.563-.039,14.795-4.209,2.447a1.346,1.346,0,0,0-.631.827,1.345,1.345,0,0,0,.139,1.027,1.361,1.361,0,0,0,1.175.678,1.351,1.351,0,0,0,.682-.184l4.205-2.444,16.872,9.742a1.163,1.163,0,0,0,.152.086l10.486,6.259-4.027,1.015.632,2.519,8.33-2.1-2.1-8.329-2.52.633,1.016,4.03-4.713-2.815,0,0-3.994-2.385,15.575-9.049a1.361,1.361,0,0,0,.675-1.172l.016-6.052a1.362,1.362,0,0,0-1.358-1.359,1.362,1.362,0,0,0-1.358,1.354l-.014,5.271-14.736,8.564.035-14.8,14.74-8.563-.014,4.653A1.358,1.358,0,0,0-3773.46,6329.14Zm-37.73-8.37-14.751,8.571-14.862-8.579,14.751-8.574Zm-31.01,17.15.038-14.811,14.862,8.579-.038,14.811Zm32.42-34.32-.039,14.81-14.861-8.58.039-14.81Zm33.63,17.17-14.753,8.571-14.858-8.577,14.753-8.574Zm-16.11,10.92-.037,14.811-14.863-8.579.037-14.811Zm-6.35-36.17-2.872,1.692a1.364,1.364,0,0,0-.494,1.857,1.364,1.364,0,0,0,1.177.676,1.349,1.349,0,0,0,.679-.183l7.794-4.529-.037,14.792-14.738,8.565.037-14.791,2.653-1.542a1.345,1.345,0,0,0,.63-.823,1.346,1.346,0,0,0-.138-1.032,1.366,1.366,0,0,0-1.176-.677,1.339,1.339,0,0,0-.68.185l-2.648,1.537-14.863-8.58,14.752-8.573,14.78,8.534Z" fill="#f7296e"/></g></svg>