<svg xmlns="http://www.w3.org/2000/svg" width="119" height="119" viewBox="0 0 119 119"><g transform="translate(2854 -5996)"><g transform="translate(-3115 3076)"><circle cx="59.5" cy="59.5" r="59.5" transform="translate(261 2920)" fill="#fff"/></g><g transform="translate(3128.285 -846.268)"><path d="M-5943.71,6938.13a18.6,18.6,0,0,0,18.6-18.6,18.6,18.6,0,0,0-18.6-18.6,18.6,18.6,0,0,0-18.6,18.6,18.624,18.624,0,0,0,18.6,18.6Zm0-34.55a15.945,15.945,0,0,1,15.946,15.945,15.947,15.947,0,0,1-15.946,15.947,15.946,15.946,0,0,1-15.946-15.945A15.963,15.963,0,0,1-5943.71,6903.58Z" transform="translate(0 -20.167)" fill="#f7296e"/><path d="M-5860.58,6919.52a18.6,18.6,0,0,0,18.6,18.6,18.6,18.6,0,0,0,18.6-18.6,18.6,18.6,0,0,0-18.6-18.6,18.623,18.623,0,0,0-18.6,18.6Zm34.55,0a15.945,15.945,0,0,1-15.947,15.946,15.947,15.947,0,0,1-15.944-15.945,15.946,15.946,0,0,1,15.948-15.947,15.962,15.962,0,0,1,15.945,15.946Z" transform="translate(-59.202 -20.167)" fill="#f7296e"/><path d="M-5916.48,6876.9h5.315v-2.658h-1.727a27.85,27.85,0,0,1,33.385.491l1.624-2.1a30.561,30.561,0,0,0-37.269-.046v-2.327h-2.658v5.315a1.33,1.33,0,0,0,1.331,1.326Z" transform="translate(-25.901)" fill="#f7296e"/><path d="M-5906.79,7001.32l-1.625,2.1a30.562,30.562,0,0,0,37.27.045v2.327h2.658v-5.315a1.33,1.33,0,0,0-1.33-1.33h-5.315v2.658h1.728a27.85,27.85,0,0,1-33.385-.49Z" transform="translate(-31.365 -77.334)" fill="#f7296e"/><path d="M-5895.55,6942.25h2.658v2.658h-2.658Z" transform="translate(-38.852 -44.218)" fill="#f7296e"/><path d="M-5946.41,6942.25h2.657v2.658h-2.657Z" transform="translate(-9.251 -44.218)" fill="#f7296e"/><path d="M-5841.51,6942.25h2.658v2.658h-2.658Z" transform="translate(-70.303 -44.218)" fill="#f7296e"/><path d="M-5797,6942.25h2.658v2.658H-5797Z" transform="translate(-96.204 -44.218)" fill="#f7296e"/><path d="M-5927.31,6931.17a4.746,4.746,0,0,1,4.74,4.742,4.746,4.746,0,0,1-4.74,4.74,4.746,4.746,0,0,1-4.741-4.74,4.746,4.746,0,0,1,4.742-4.742m0-2.09a6.831,6.831,0,0,0-6.831,6.831,6.831,6.831,0,0,0,6.831,6.831,6.831,6.831,0,0,0,6.831-6.831A6.831,6.831,0,0,0-5927.31,6929.08Z" transform="translate(-16.391 -36.558)" fill="#f7296e"/><path d="M-5825.59,6931.17a4.747,4.747,0,0,1,4.741,4.741,4.746,4.746,0,0,1-4.741,4.741,4.746,4.746,0,0,1-4.74-4.74,4.746,4.746,0,0,1,4.74-4.742m0-2.09a6.831,6.831,0,0,0-6.83,6.83,6.832,6.832,0,0,0,6.831,6.832,6.831,6.831,0,0,0,6.831-6.83,6.831,6.831,0,0,0-6.832-6.832Z" transform="translate(-75.594 -36.558)" fill="#f7296e"/></g></g></svg>