<svg xmlns="http://www.w3.org/2000/svg" width="78.86" height="71.379" viewBox="0 0 78.86 71.379">
  <g id="Public_Developers_icon" transform="translate(3520.247 -175.04)">
    <g id="Group_1186" data-name="Group 1186" transform="translate(-3504.453 192.189)">
      <path id="Path_2480" data-name="Path 2480" d="M-3482.009,216.573a6.471,6.471,0,0,0,6.464-6.463,6.464,6.464,0,0,0-6.464-6.463,6.463,6.463,0,0,0-6.462,6.463A6.463,6.463,0,0,0-3482.009,216.573Zm0-10.772a4.309,4.309,0,0,1,4.31,4.309,4.309,4.309,0,0,1-4.31,4.309,4.309,4.309,0,0,1-4.308-4.309A4.309,4.309,0,0,1-3482.009,205.8Z" transform="translate(3491.704 -203.646)" stroke="#f7296e" stroke-width="1" fill="#f7296e"/>
      <path id="Path_2481" data-name="Path 2481" d="M-3479.924,227.286h-.254l-.228.113a8.582,8.582,0,0,1-7.654,0l-.228-.113h-.254a5.393,5.393,0,0,0-5.387,5.386v6.463a3.232,3.232,0,0,0,3.232,3.232h12.927a3.232,3.232,0,0,0,3.231-3.232v-6.463A5.393,5.393,0,0,0-3479.924,227.286Zm3.231,11.85a1.078,1.078,0,0,1-1.077,1.078H-3490.7a1.078,1.078,0,0,1-1.078-1.078v-6.463a3.232,3.232,0,0,1,3-3.223,10.78,10.78,0,0,0,9.077,0,3.232,3.232,0,0,1,3,3.223Z" transform="translate(3493.928 -213.282)" stroke="#f7296e" stroke-width="1" fill="#f7296e"/>
    </g>
    <g id="Group_1187" data-name="Group 1187" transform="translate(-3517.174 183.173)">
      <path id="Path_2482" data-name="Path 2482" d="M-3515.4,188.426h35.078v2.354H-3515.4Z" transform="translate(3515.404 -188.426)" stroke="#f7296e" stroke-width="1" fill="#f7296e"/>
    </g>
    <g id="Group_1188" data-name="Group 1188" transform="translate(-3483.108 175.54)">
      <path id="Path_2483" data-name="Path 2483" d="M-3457.9,199.029a3.622,3.622,0,0,0,3.617,3.618h1.632v7.871a1.246,1.246,0,0,0,.771,1.155,1.264,1.264,0,0,0,1.363-.271l8.754-8.754h21.466a3.622,3.622,0,0,0,3.618-3.618V179.158a3.622,3.622,0,0,0-3.618-3.618h-33.985a3.593,3.593,0,0,0-2.556,1.061,3.592,3.592,0,0,0-1.061,2.557Zm2.5-19.871a1.119,1.119,0,0,1,1.118-1.118h33.985a1.12,1.12,0,0,1,1.118,1.118v19.871a1.12,1.12,0,0,1-1.118,1.119h-21.985a1.253,1.253,0,0,0-.829.316l-7.04,7.036v-1.1c0-1.984,0-4.984-.006-5.1a1.253,1.253,0,0,0-1.245-1.152h-2.88a1.12,1.12,0,0,1-1.118-1.119Z" transform="translate(3457.895 -175.54)" stroke="#f7296e" stroke-width="1" fill="#f7296e"/>
      <path id="Path_2484" data-name="Path 2484" d="M-3446.573,189.255h26.746a1.252,1.252,0,0,1,1.25,1.25,1.252,1.252,0,0,1-1.25,1.249h-26.746a1.251,1.251,0,0,1-1.25-1.249A1.251,1.251,0,0,1-3446.573,189.255Z" transform="translate(3453.789 -181.131)" stroke="#f7296e" stroke-width="1" fill="#f7296e"/>
      <path id="Path_2485" data-name="Path 2485" d="M-3446.573,203.167h26.746a1.252,1.252,0,0,1,1.25,1.25,1.252,1.252,0,0,1-1.25,1.249h-26.746a1.251,1.251,0,0,1-1.25-1.249A1.251,1.251,0,0,1-3446.573,203.167Z" transform="translate(3453.789 -186.802)" stroke="#f7296e" stroke-width="1" fill="#f7296e"/>
    </g>
    <path id="Path_2486" data-name="Path 2486" d="M-3449.117,206.417h-2.354v23.566h-65.922v-39.2h2.354v-2.354h-4.708V239.4h27.847l-2.825,9.417h-2.656v2.355h25.9v-2.355h-2.656l-2.826-9.417h27.847Zm-27.479,42.4h-15.67l2.825-9.417h10.021Zm25.125-11.772h-65.922v-4.709h65.922Z" transform="translate(0 -5.253)" stroke="#f7296e" stroke-width="1" fill="#f7296e"/>
  </g>
</svg>
