<svg id="Group_753" data-name="Group 753" xmlns="http://www.w3.org/2000/svg" width="73.092" height="65.99" viewBox="0 0 73.092 65.99">
  <path id="Path_1045" data-name="Path 1045" d="M626.384,23.106H579.121a7.41,7.41,0,0,0-7.439,7.356l-.3,41.618h-9.224A1.2,1.2,0,0,0,561,73.313V79.04a10.036,10.036,0,0,0,9.469,9.987V89.1h39.8v-.077c.3.012.475.077.679.077h.028a10.005,10.005,0,0,0,9.946-10.057v-36.4h12.015a1.212,1.212,0,0,0,1.153-1.245V30.883A7.763,7.763,0,0,0,626.384,23.106Zm-55.4,63.623h-.008a7.671,7.671,0,0,1-7.612-7.69V74.448h37.582v4.571a10.018,10.018,0,0,0,2.925,7.109,4.255,4.255,0,0,1,.623.6Zm47.569-7.691a7.643,7.643,0,0,1-7.581,7.691h-.024a7.691,7.691,0,0,1-7.635-7.709V73.313a1.226,1.226,0,0,0-1.184-1.232H573.744l.3-41.61a5.042,5.042,0,0,1,5.072-5H620.8a8.078,8.078,0,0,0-2.24,5.441ZM631.725,30.9v9.366h-10.8V30.912a5.482,5.482,0,0,1,5.426-5.439h.033a5.4,5.4,0,0,1,5.342,5.421Z" transform="translate(-561 -23.106)" fill="#f7296e"/>
  <path id="Path_1046" data-name="Path 1046" d="M727.675,97.889l6.1,4.172a1.166,1.166,0,0,0,1.323,0l6.084-4.171a9.193,9.193,0,0,0,3.675-7.013V82.435a1.157,1.157,0,0,0-.631-1.063L734.936,76.8a1.163,1.163,0,0,0-1.035,0l-9.275,4.558a1.155,1.155,0,0,0-.63,1.063v8.455A9.194,9.194,0,0,0,727.675,97.889Zm-1.31-14.728,8.064-3.979,8.064,3.99v7.7a6.821,6.821,0,0,1-2.643,5.056l-5.435,3.717L729,95.934a6.817,6.817,0,0,1-2.637-5.057Z" transform="translate(-699.88 -68.754)" fill="#f7296e"/>
  <path id="Path_1047" data-name="Path 1047" d="M765.268,145.964a1.182,1.182,0,0,0,.838.355h0a1.185,1.185,0,0,0,.837-.35l4.709-4.71a1.184,1.184,0,1,0-1.674-1.676l-3.868,3.867-1.546-1.561a1.184,1.184,0,0,0-1.682,1.668Z" transform="translate(-732.721 -122.053)" fill="#f7296e"/>
  <path id="Path_1048" data-name="Path 1048" d="M723.592,271.106H695.184a1.184,1.184,0,0,0,0,2.367h28.408a1.184,1.184,0,1,0,0-2.367Z" transform="translate(-674.321 -234.412)" fill="#f7296e"/>
  <path id="Path_1049" data-name="Path 1049" d="M723.592,308.106H695.184a1.184,1.184,0,0,0,0,2.367h28.408a1.184,1.184,0,1,0,0-2.367Z" transform="translate(-674.321 -265.937)" fill="#f7296e"/>
</svg>
