<svg xmlns="http://www.w3.org/2000/svg" width="84" height="77" viewBox="0 0 84 77">
  <g id="Group_1655" data-name="Group 1655" transform="translate(-1315 -1573)">
    <g id="Group_1653" data-name="Group 1653" transform="translate(50)">
      <g id="Group_1656" data-name="Group 1656" transform="translate(0 -2)">
        <g id="Path_2950" data-name="Path 2950" transform="translate(1316 1619)" fill="none">
          <path d="M16.5,0A16.5,16.5,0,0,1,28.9,27.383,16.311,16.311,0,0,1,16.5,33a16.5,16.5,0,0,1,0-33Z" stroke="none"/>
          <path d="M 16.5 2.5 C 12.76045989990234 2.5 9.244749069213867 3.956249237060547 6.600500106811523 6.600500106811523 C 3.956249237060547 9.244749069213867 2.5 12.76045989990234 2.5 16.5 C 2.5 20.23954010009766 3.956249237060547 23.7552490234375 6.600500106811523 26.39949989318848 C 9.244749069213867 29.04375076293945 12.76045989990234 30.5 16.5 30.5 C 20.56328010559082 30.5 24.4862003326416 28.73110008239746 26.99578094482422 25.76585006713867 C 28.13533020019531 24.42275047302246 29.01174926757813 22.95840072631836 29.60070037841797 21.41345977783203 C 30.19742965698242 19.84811973571777 30.5 18.19499015808105 30.5 16.5 C 30.5 12.76045989990234 29.04375076293945 9.244749069213867 26.39949989318848 6.600500106811523 C 23.7552490234375 3.956249237060547 20.23954010009766 2.5 16.5 2.5 M 16.5 0 C 25.61269950866699 0 33 7.387300491333008 33 16.5 C 33 20.56423950195313 31.53055953979492 24.28528022766113 28.90209007263184 27.38325119018555 C 26.06735038757324 30.73270034790039 21.5484504699707 33 16.5 33 C 7.387300491333008 33 0 25.61269950866699 0 16.5 C 0 7.387300491333008 7.387300491333008 0 16.5 0 Z" stroke="none" fill="#f7296e"/>
        </g>
        <g id="Intersection_43" data-name="Intersection 43" transform="translate(-12979.531 3190.597)" fill="none">
          <path d="M14300.885-1542.932a11.5,11.5,0,0,1,11.148-8.665,11.506,11.506,0,0,1,11.152,8.686,16.435,16.435,0,0,1-11.152,4.314A16.447,16.447,0,0,1,14300.885-1542.932Z" stroke="none"/>
          <path d="M 14312.033203125 -1541.097534179688 C 14313.837890625 -1541.097534179688 14315.59765625 -1541.432983398438 14317.2626953125 -1542.094482421875 C 14318.3447265625 -1542.524169921875 14319.3486328125 -1543.075073242188 14320.263671875 -1543.739501953125 C 14319.671875 -1545.068481445313 14318.7578125 -1546.253051757813 14317.60546875 -1547.163818359375 C 14316.0048828125 -1548.428466796875 14314.078125 -1549.096923828125 14312.033203125 -1549.096923828125 C 14308.427734375 -1549.096923828125 14305.232421875 -1546.967163085938 14303.80859375 -1543.765502929688 C 14306.189453125 -1542.03564453125 14309.056640625 -1541.097534179688 14312.033203125 -1541.097534179688 M 14312.033203125 -1538.597534179688 C 14307.736328125 -1538.597534179688 14303.8212890625 -1540.240600585938 14300.884765625 -1542.932006835938 C 14302.1474609375 -1547.911865234375 14306.658203125 -1551.596923828125 14312.033203125 -1551.596923828125 C 14317.412109375 -1551.596923828125 14321.9296875 -1547.9013671875 14323.185546875 -1542.9111328125 C 14320.3603515625 -1540.2890625 14316.3955078125 -1538.597534179688 14312.033203125 -1538.597534179688 Z" stroke="none" fill="#f7296e"/>
        </g>
        <g id="Ellipse_1087" data-name="Ellipse 1087" transform="translate(1327 1625)" fill="none" stroke="#f7296e" stroke-width="2.5">
          <circle cx="5.5" cy="5.5" r="5.5" stroke="none"/>
          <circle cx="5.5" cy="5.5" r="4.25" fill="none"/>
        </g>
      </g>
    </g>
    <g id="Group_1657" data-name="Group 1657" transform="translate(-1 -2)">
      <g id="Path_2950-2" data-name="Path 2950" transform="translate(1316 1619)" fill="none">
        <path d="M16.5,0A16.5,16.5,0,0,1,28.9,27.383,16.311,16.311,0,0,1,16.5,33a16.5,16.5,0,0,1,0-33Z" stroke="none"/>
        <path d="M 16.5 2.5 C 12.76045989990234 2.5 9.244749069213867 3.956249237060547 6.600500106811523 6.600500106811523 C 3.956249237060547 9.244749069213867 2.5 12.76045989990234 2.5 16.5 C 2.5 20.23954010009766 3.956249237060547 23.7552490234375 6.600500106811523 26.39949989318848 C 9.244749069213867 29.04375076293945 12.76045989990234 30.5 16.5 30.5 C 20.56328010559082 30.5 24.4862003326416 28.73110008239746 26.99578094482422 25.76585006713867 C 28.13533020019531 24.42275047302246 29.01174926757813 22.95840072631836 29.60070037841797 21.41345977783203 C 30.19742965698242 19.84811973571777 30.5 18.19499015808105 30.5 16.5 C 30.5 12.76045989990234 29.04375076293945 9.244749069213867 26.39949989318848 6.600500106811523 C 23.7552490234375 3.956249237060547 20.23954010009766 2.5 16.5 2.5 M 16.5 0 C 25.61269950866699 0 33 7.387300491333008 33 16.5 C 33 20.56423950195313 31.53055953979492 24.28528022766113 28.90209007263184 27.38325119018555 C 26.06735038757324 30.73270034790039 21.5484504699707 33 16.5 33 C 7.387300491333008 33 0 25.61269950866699 0 16.5 C 0 7.387300491333008 7.387300491333008 0 16.5 0 Z" stroke="none" fill="#f7296e"/>
      </g>
      <g id="Intersection_43-2" data-name="Intersection 43" transform="translate(-12979.531 3190.597)" fill="none">
        <path d="M14300.885-1542.932a11.5,11.5,0,0,1,11.148-8.665,11.506,11.506,0,0,1,11.152,8.686,16.435,16.435,0,0,1-11.152,4.314A16.447,16.447,0,0,1,14300.885-1542.932Z" stroke="none"/>
        <path d="M 14312.033203125 -1541.097534179688 C 14313.837890625 -1541.097534179688 14315.59765625 -1541.432983398438 14317.2626953125 -1542.094482421875 C 14318.3447265625 -1542.524169921875 14319.3486328125 -1543.075073242188 14320.263671875 -1543.739501953125 C 14319.671875 -1545.068481445313 14318.7578125 -1546.253051757813 14317.60546875 -1547.163818359375 C 14316.0048828125 -1548.428466796875 14314.078125 -1549.096923828125 14312.033203125 -1549.096923828125 C 14308.427734375 -1549.096923828125 14305.232421875 -1546.967163085938 14303.80859375 -1543.765502929688 C 14306.189453125 -1542.03564453125 14309.056640625 -1541.097534179688 14312.033203125 -1541.097534179688 M 14312.033203125 -1538.597534179688 C 14307.736328125 -1538.597534179688 14303.8212890625 -1540.240600585938 14300.884765625 -1542.932006835938 C 14302.1474609375 -1547.911865234375 14306.658203125 -1551.596923828125 14312.033203125 -1551.596923828125 C 14317.412109375 -1551.596923828125 14321.9296875 -1547.9013671875 14323.185546875 -1542.9111328125 C 14320.3603515625 -1540.2890625 14316.3955078125 -1538.597534179688 14312.033203125 -1538.597534179688 Z" stroke="none" fill="#f7296e"/>
      </g>
      <g id="Ellipse_1087-2" data-name="Ellipse 1087" transform="translate(1327 1625)" fill="none" stroke="#f7296e" stroke-width="2.5">
        <circle cx="5.5" cy="5.5" r="5.5" stroke="none"/>
        <circle cx="5.5" cy="5.5" r="4.25" fill="none"/>
      </g>
    </g>
    <g id="Group_1658" data-name="Group 1658" transform="translate(25 -46)">
      <g id="Path_2950-3" data-name="Path 2950" transform="translate(1316 1619)" fill="none">
        <path d="M16.5,0A16.5,16.5,0,0,1,28.9,27.383,16.311,16.311,0,0,1,16.5,33a16.5,16.5,0,0,1,0-33Z" stroke="none"/>
        <path d="M 16.5 2.5 C 12.76045989990234 2.5 9.244749069213867 3.956249237060547 6.600500106811523 6.600500106811523 C 3.956249237060547 9.244749069213867 2.5 12.76045989990234 2.5 16.5 C 2.5 20.23954010009766 3.956249237060547 23.7552490234375 6.600500106811523 26.39949989318848 C 9.244749069213867 29.04375076293945 12.76045989990234 30.5 16.5 30.5 C 20.56328010559082 30.5 24.4862003326416 28.73110008239746 26.99578094482422 25.76585006713867 C 28.13533020019531 24.42275047302246 29.01174926757813 22.95840072631836 29.60070037841797 21.41345977783203 C 30.19742965698242 19.84811973571777 30.5 18.19499015808105 30.5 16.5 C 30.5 12.76045989990234 29.04375076293945 9.244749069213867 26.39949989318848 6.600500106811523 C 23.7552490234375 3.956249237060547 20.23954010009766 2.5 16.5 2.5 M 16.5 0 C 25.61269950866699 0 33 7.387300491333008 33 16.5 C 33 20.56423950195313 31.53055953979492 24.28528022766113 28.90209007263184 27.38325119018555 C 26.06735038757324 30.73270034790039 21.5484504699707 33 16.5 33 C 7.387300491333008 33 0 25.61269950866699 0 16.5 C 0 7.387300491333008 7.387300491333008 0 16.5 0 Z" stroke="none" fill="#f7296e"/>
      </g>
      <g id="Intersection_43-3" data-name="Intersection 43" transform="translate(-12979.531 3190.597)" fill="none">
        <path d="M14300.885-1542.932a11.5,11.5,0,0,1,11.148-8.665,11.506,11.506,0,0,1,11.152,8.686,16.435,16.435,0,0,1-11.152,4.314A16.447,16.447,0,0,1,14300.885-1542.932Z" stroke="none"/>
        <path d="M 14312.033203125 -1541.097534179688 C 14313.837890625 -1541.097534179688 14315.59765625 -1541.432983398438 14317.2626953125 -1542.094482421875 C 14318.3447265625 -1542.524169921875 14319.3486328125 -1543.075073242188 14320.263671875 -1543.739501953125 C 14319.671875 -1545.068481445313 14318.7578125 -1546.253051757813 14317.60546875 -1547.163818359375 C 14316.0048828125 -1548.428466796875 14314.078125 -1549.096923828125 14312.033203125 -1549.096923828125 C 14308.427734375 -1549.096923828125 14305.232421875 -1546.967163085938 14303.80859375 -1543.765502929688 C 14306.189453125 -1542.03564453125 14309.056640625 -1541.097534179688 14312.033203125 -1541.097534179688 M 14312.033203125 -1538.597534179688 C 14307.736328125 -1538.597534179688 14303.8212890625 -1540.240600585938 14300.884765625 -1542.932006835938 C 14302.1474609375 -1547.911865234375 14306.658203125 -1551.596923828125 14312.033203125 -1551.596923828125 C 14317.412109375 -1551.596923828125 14321.9296875 -1547.9013671875 14323.185546875 -1542.9111328125 C 14320.3603515625 -1540.2890625 14316.3955078125 -1538.597534179688 14312.033203125 -1538.597534179688 Z" stroke="none" fill="#f7296e"/>
      </g>
      <g id="Ellipse_1087-3" data-name="Ellipse 1087" transform="translate(1327 1625)" fill="none" stroke="#f7296e" stroke-width="2.5">
        <circle cx="5.5" cy="5.5" r="5.5" stroke="none"/>
        <circle cx="5.5" cy="5.5" r="4.25" fill="none"/>
      </g>
    </g>
    <g id="Path_2953" data-name="Path 2953" transform="translate(1344 1604)" fill="none">
      <path d="M27,21h0Z" stroke="none"/>
      <path d="M 0 21.00000190734863 L 27 21.00000190734863 L 0 21.00000190734863 Z" stroke="none" fill="#f7296e"/>
    </g>
    <g id="Group_1659" data-name="Group 1659" transform="translate(0.414)">
      <line id="Line_582" data-name="Line 582" y1="9.5" x2="13.414" transform="translate(1344.086 1617)" fill="none" stroke="#f7296e" stroke-width="2.5"/>
      <line id="Line_583" data-name="Line 583" x1="13" y1="9.5" transform="translate(1356.086 1617)" fill="none" stroke="#f7296e" stroke-width="2.5"/>
      <line id="Line_584" data-name="Line 584" y2="13" transform="translate(1356.793 1605.5)" fill="none" stroke="#f7296e" stroke-width="2.5"/>
    </g>
  </g>
</svg>
