<svg xmlns="http://www.w3.org/2000/svg" width="78.046" height="78.046" viewBox="0 0 78.046 78.046">
  <g id="forum" transform="translate(1.25 1.25)">
    <path id="Stroke_1" data-name="Stroke 1" d="M4.952,0,0,16.592Z" transform="translate(36.865 15.41)" fill="none" stroke="#f7296e" stroke-linecap="round" stroke-linejoin="round" stroke-miterlimit="10" stroke-width="2.5"/>
    <path id="Stroke_2" data-name="Stroke 2" d="M0,8.26,14.016,0Z" transform="translate(43.52 28.9)" fill="none" stroke="#f7296e" stroke-linecap="round" stroke-linejoin="round" stroke-miterlimit="10" stroke-width="2.5"/>
    <path id="Stroke_3" data-name="Stroke 3" d="M15.411,6.714,0,0" transform="translate(44.069 47.59)" fill="none" stroke="#f7296e" stroke-linecap="round" stroke-linejoin="round" stroke-miterlimit="10" stroke-width="2.5"/>
    <path id="Stroke_4" data-name="Stroke 4" d="M0,9.514,9.937,0Z" transform="translate(15.359 50.947)" fill="none" stroke="#f7296e" stroke-linecap="round" stroke-linejoin="round" stroke-miterlimit="10" stroke-width="2.5"/>
    <path id="Stroke_5" data-name="Stroke 5" d="M0,0,13.774,12.963Z" transform="translate(11.4 22.147)" fill="none" stroke="#f7296e" stroke-linecap="round" stroke-linejoin="round" stroke-miterlimit="10" stroke-width="2.5"/>
    <g id="Group_18" data-name="Group 18" transform="translate(0 0)">
      <path id="Stroke_6" data-name="Stroke 6" d="M15.739,7.856A7.869,7.869,0,1,1,7.856,0,7.869,7.869,0,0,1,15.739,7.856Z" transform="translate(36.199)" fill="none" stroke="#f7296e" stroke-linecap="round" stroke-linejoin="round" stroke-miterlimit="10" stroke-width="2.5"/>
      <path id="Stroke_8" data-name="Stroke 8" d="M12.591,6.285A6.3,6.3,0,1,1,6.285,0,6.295,6.295,0,0,1,12.591,6.285Z" transform="translate(56.66 19.411)" fill="none" stroke="#f7296e" stroke-linecap="round" stroke-linejoin="round" stroke-miterlimit="10" stroke-width="2.5"/>
      <path id="Stroke_10" data-name="Stroke 10" d="M16.788,8.38A8.394,8.394,0,1,1,8.38,0,8.393,8.393,0,0,1,16.788,8.38Z" transform="translate(58.758 49.314)" fill="none" stroke="#f7296e" stroke-linecap="round" stroke-linejoin="round" stroke-miterlimit="10" stroke-width="2.5"/>
      <path id="Stroke_12" data-name="Stroke 12" d="M17.838,8.9A8.919,8.919,0,1,1,8.9,0,8.918,8.918,0,0,1,17.838,8.9Z" transform="translate(0 57.709)" fill="none" stroke="#f7296e" stroke-linecap="round" stroke-linejoin="round" stroke-miterlimit="10" stroke-width="2.5"/>
      <path id="Stroke_14" data-name="Stroke 14" d="M12.591,6.285A6.3,6.3,0,1,1,6.284,0,6.295,6.295,0,0,1,12.591,6.285Z" transform="translate(0.525 11.542)" fill="none" stroke="#f7296e" stroke-linecap="round" stroke-linejoin="round" stroke-miterlimit="10" stroke-width="2.5"/>
      <path id="Stroke_16" data-name="Stroke 16" d="M23.084,11.522A11.542,11.542,0,1,1,11.522,0,11.542,11.542,0,0,1,23.084,11.522Z" transform="translate(22.034 31.477)" fill="none" stroke="#f7296e" stroke-linecap="round" stroke-linejoin="round" stroke-miterlimit="10" stroke-width="2.5"/>
    </g>
  </g>
</svg>
