<svg id="Group_756" data-name="Group 756" xmlns="http://www.w3.org/2000/svg" width="85.846" height="61.008" viewBox="0 0 85.846 61.008">
  <g id="Group_397" data-name="Group 397" transform="translate(0 0)">
    <g id="Group_396" data-name="Group 396">
      <path id="Path_1043" data-name="Path 1043" d="M84.588,109.89a1.257,1.257,0,0,0,1.258-1.258V83.985a4.791,4.791,0,0,0-9.516-.792C63.3,83.1,63.616,83.405,62.6,82.914,61.546,82.4,54.517,77.7,52.522,76.4A1.258,1.258,0,0,0,51.149,78.5c4.566,2.976,11.027,7.2,12.672,7.2H76.264V110.08H71.722a5.537,5.537,0,0,0-1.409-2.9C54.9,89.815,56.05,91.086,55.374,91.073a17.709,17.709,0,0,1-12.139-4.935,3,3,0,0,0-3.9-.139l-6.3,5.733a3.677,3.677,0,0,1-2.614.954c-2.743-.1-3.841-2.7-2.388-4.264,3.632-3.921,4.477-4.831,4.622-4.988-.039.042-.095.1.023-.027a23.378,23.378,0,0,1,6.742-5.343c3.827-1.924,8.356-2.184,11.942.564a1.258,1.258,0,1,0,1.53-2c-3.739-2.865-8.913-3.5-14.157-1.03-3.229-.894-5.511-1.006-6.961-.339-4.143,1.906-8.844,6.862-10.473,7.65-1.023.495-.974.187-11.779.279A4.791,4.791,0,0,0,0,83.985V99.423a1.258,1.258,0,0,0,2.515,0V83.985a2.276,2.276,0,0,1,4.552,0v27.729a2.276,2.276,0,0,1-4.552,0v-17.5a1.258,1.258,0,0,0-2.515,0v17.5a4.791,4.791,0,0,0,9.5.881h5.622a5.356,5.356,0,0,0,5.408,4.142,5.358,5.358,0,0,0,5.494,6.112,5.357,5.357,0,0,0,5.494,6.111,5.372,5.372,0,0,0,8.9,4.743l2.683-2.412a5.538,5.538,0,0,0,9.075-3.909,5.509,5.509,0,0,0,7.011-4.825,5.529,5.529,0,0,0,6.8-6.076,5.527,5.527,0,0,0,5.55-3.886h4.807a4.791,4.791,0,0,0,9.5-.881v-4.2a1.258,1.258,0,1,0-2.515,0v4.2a2.276,2.276,0,1,1-4.552,0V83.985a2.276,2.276,0,0,1,4.552,0v24.647A1.257,1.257,0,0,0,84.588,109.89Zm-66.964.651a2.86,2.86,0,0,1,.816-1.285c3.289-2.956,3.563-3.364,4.462-3.6a2.852,2.852,0,0,1,2.657,4.872L22.253,113.5A2.852,2.852,0,0,1,17.624,110.541Zm6.1,8.854a2.855,2.855,0,0,1,.214-4.027l3.308-2.974a2.858,2.858,0,0,1,4.027.214h0a2.859,2.859,0,0,1,0,3.817c-.183.2-.03.04-3.519,3.184A2.855,2.855,0,0,1,23.72,119.394Zm5.494,6.112a2.855,2.855,0,0,1,.214-4.027c3.478-3.116,3.67-3.492,4.761-3.667a2.856,2.856,0,0,1,2.574.907h0a2.856,2.856,0,0,1-.214,4.027l-3.308,2.974A2.855,2.855,0,0,1,29.214,125.506Zm13,3.179c-.192.2.016-.005-3.482,3.147a2.852,2.852,0,1,1-3.813-4.241c3.379-3.023,3.622-3.461,4.691-3.657a2.832,2.832,0,0,1,2.644.9h0A2.863,2.863,0,0,1,42.218,128.685Zm22.316-15.242a1.258,1.258,0,0,0-1.689,1.829,3.024,3.024,0,0,1-4.406,4.121,1.259,1.259,0,0,0-2,1.434,3.028,3.028,0,0,1-5.034,3.241l-.316-.339a1.258,1.258,0,0,0-1.951,1.578,3.026,3.026,0,0,1-4.346,4.115,5.383,5.383,0,0,0-4.823-8.055,5.375,5.375,0,0,0-5.5-6.105,5.365,5.365,0,0,0-5.493-6.111,5.346,5.346,0,0,0-1.323-4.336h0a5.365,5.365,0,0,0-7.579-.4c-3.436,3.1-3.342,2.985-3.622,3.283a5.333,5.333,0,0,0-1.3,2.386H9.582V85.708c10.2-.155,10.943.373,12.808-.53,2.125-1.028,6.587-5.862,10.429-7.629a5.1,5.1,0,0,1,2.733-.077c-3.986,2.823-6.362,6.274-9.371,9.242-2.957,3.193-.662,8.516,4.4,8.49a6.186,6.186,0,0,0,4.138-1.61l6.236-5.673a.488.488,0,0,1,.5,0A20.148,20.148,0,0,0,54.774,93.57c14.88,16.641,13.733,15.353,13.9,15.56a5.687,5.687,0,0,1,.59,2.1A3.027,3.027,0,0,1,64.534,113.443Z" transform="translate(0 -74.069)" fill="#f7296e"/>
    </g>
  </g>
  <g id="Group_399" data-name="Group 399" transform="translate(32.648 9.338)">
    <g id="Group_398" data-name="Group 398" transform="translate(0 0)">
      <path id="Path_1044" data-name="Path 1044" d="M194.72,129.791Z" transform="translate(-194.72 -129.763)" fill="#f7296e"/>
    </g>
  </g>
</svg>
