<svg xmlns="http://www.w3.org/2000/svg" width="119" height="119" viewBox="0 0 119 119"><g transform="translate(2564 -6282)"><g transform="translate(-2825 3362)"><circle cx="59.5" cy="59.5" r="59.5" transform="translate(261 2920)" fill="#fff"/></g><g transform="translate(2682.742 -552.691)"><path d="M-5189.36,6862.75c-5.154,5.024-11.187,7.568-18.979,8a6.658,6.658,0,0,0-6.271,6.524c-.012.749-.031,1.433-.062,2.09v.112c-.148,7.8-.333,17.508,2.9,26.287a33.236,33.236,0,0,0,7.974,12.422,41.818,41.818,0,0,0,15.648,9.251,4.261,4.261,0,0,0,.591.161,4.356,4.356,0,0,0,1.716,0,4.293,4.293,0,0,0,.594-.163,41.859,41.859,0,0,0,15.631-9.255,33.308,33.308,0,0,0,7.975-12.424c3.248-8.8,3.063-18.529,2.916-26.346v-.047c-.029-.634-.048-1.317-.061-2.088a6.662,6.662,0,0,0-6.272-6.524c-7.792-.436-13.825-2.979-18.981-8.005l-.041-.039a3.856,3.856,0,0,0-2.612-1.022,3.876,3.876,0,0,0-2.625,1.028Zm3.174,2.212a30.211,30.211,0,0,0,9.41,6.328,34.015,34.015,0,0,0,11.541,2.537,3.57,3.57,0,0,1,3.366,3.5c.012.786.032,1.491.063,2.158.15,7.95.321,16.949-2.726,25.211-3.488,9.457-10.6,15.946-21.733,19.842a1.433,1.433,0,0,1-.181.048,1.271,1.271,0,0,1-.254.024,1.325,1.325,0,0,1-.256-.025,1.372,1.372,0,0,1-.176-.047c-11.151-3.889-18.266-10.376-21.75-19.833-3.035-8.235-2.863-17.23-2.712-25.166v-.046c.031-.686.051-1.392.062-2.167a3.572,3.572,0,0,1,3.368-3.5,34.016,34.016,0,0,0,11.539-2.537,30.143,30.143,0,0,0,9.39-6.309.793.793,0,0,1,1.045-.009Z" fill="#f7296e"/><path d="M-5166.11,6907.71a16.255,16.255,0,0,0-16.236,16.236,16.255,16.255,0,0,0,16.236,16.237,16.255,16.255,0,0,0,16.236-16.237,16.254,16.254,0,0,0-16.235-16.237Zm0,29.4a13.172,13.172,0,0,1-13.159-13.16,13.174,13.174,0,0,1,13.159-13.159,13.173,13.173,0,0,1,13.158,13.159,13.173,13.173,0,0,1-13.158,13.16Z" transform="translate(-20.598 -29.259)" fill="#f7296e"/><path d="M-5146.6,6938.15l-8.036,8.036-2.4-2.4a1.53,1.53,0,0,0-1.088-.451,1.525,1.525,0,0,0-1.087.451,1.54,1.54,0,0,0,0,2.176l3.486,3.487a1.576,1.576,0,0,0,2.176,0l9.125-9.125a1.526,1.526,0,0,0,.45-1.087,1.527,1.527,0,0,0-.449-1.088,1.573,1.573,0,0,0-2.177,0Z" transform="translate(-35.017 -48.329)" fill="#f7296e"/></g></g></svg>