<svg xmlns="http://www.w3.org/2000/svg" width="38.217" height="30.967" viewBox="0 0 38.217 30.967">
  <path id="icons8-weibo-64" d="M32.564,6.286a10.056,10.056,0,0,0-2.588.2,1.474,1.474,0,0,0,.6,2.886,7.173,7.173,0,0,1,8.36,9.256,1.464,1.464,0,0,0,2.787.9A10.1,10.1,0,0,0,32.564,6.286ZM19.377,10.665c-2.669.286-6.395,2.364-9.7,5.673C6.071,19.946,4,23.784,4,27.087c0,6.32,8.093,10.152,16.024,10.152,7.411,0,13.058-3.077,15.869-6.829a6.936,6.936,0,0,0,1.449-4.019c0-2.9-2.432-4.547-4.628-5.225-.541-.162-.927-.236-.647-.945.61-1.537.709-2.886.05-3.832-1.238-1.773-4.672-1.68-8.559-.05,0,0-1.207.572-.9-.4.6-1.922.485-3.546-.448-4.479A3.33,3.33,0,0,0,19.377,10.665Zm12.939.8a4.922,4.922,0,0,0-1.244.1,1.317,1.317,0,0,0-1,1.543,1.244,1.244,0,0,0,1.493.946,2.5,2.5,0,0,1,2.339.746,2.376,2.376,0,0,1,.5,2.339,1.259,1.259,0,0,0,2.389.8,4.977,4.977,0,0,0-4.479-6.469ZM20.87,19.872c5.287.187,9.542,2.837,9.9,6.469C31.183,30.5,26.4,34.378,20.074,35S8.242,32.736,7.832,28.58s4.423-8.037,10.749-8.659A16.676,16.676,0,0,1,20.87,19.872Zm-2.488,3.085a6.765,6.765,0,0,0-5.424,3.533,4.716,4.716,0,0,0,2.986,6.718A6.847,6.847,0,0,0,24.1,29.725c1.275-2.855-.317-5.766-3.434-6.569A6.627,6.627,0,0,0,18.382,22.957Zm1.443,3.483a.574.574,0,0,1,.249.05.647.647,0,0,1,.348.945.915.915,0,0,1-1.095.4.639.639,0,0,1-.3-.945A.976.976,0,0,1,19.825,26.44Zm-2.936.9a2.153,2.153,0,0,1,.8.149,1.686,1.686,0,0,1,.7,2.538,2.388,2.388,0,0,1-2.886,1,1.69,1.69,0,0,1-.647-2.538A2.439,2.439,0,0,1,16.889,27.336Z" transform="translate(-4 -6.272)" fill="#1e1e1e"/>
</svg>
