<svg xmlns="http://www.w3.org/2000/svg" width="31.68" height="31.679" viewBox="0 0 31.68 31.679">
  <g id="Group_1621" data-name="Group 1621" transform="translate(18553 -4769)">
    <g id="Twitter_icon" transform="translate(-18553 4769)">
      <g id="Group_1619" data-name="Group 1619">
        <path id="Path_2877" data-name="Path 2877" d="M15.839,0A15.839,15.839,0,1,1,0,15.839,15.839,15.839,0,0,1,15.839,0Z" transform="translate(0 0)" fill="#1e1e1e"/>
      </g>
      <g id="Group_1620" data-name="Group 1620" transform="translate(7.078 9.027)">
        <path id="Path_2878" data-name="Path 2878" d="M95.491,129.508a10.709,10.709,0,0,0,10.781-10.781c0-.165,0-.33-.008-.487a7.763,7.763,0,0,0,1.894-1.965,7.69,7.69,0,0,1-2.177.6,3.787,3.787,0,0,0,1.666-2.1,7.673,7.673,0,0,1-2.4.919,3.792,3.792,0,0,0-6.554,2.592,3.472,3.472,0,0,0,.1.864,10.752,10.752,0,0,1-7.811-3.96,3.787,3.787,0,0,0,1.179,5.053,3.722,3.722,0,0,1-1.713-.471v.048a3.792,3.792,0,0,0,3.041,3.717,3.777,3.777,0,0,1-1,.133,3.619,3.619,0,0,1-.715-.071,3.783,3.783,0,0,0,3.536,2.632,7.617,7.617,0,0,1-4.707,1.618,6.893,6.893,0,0,1-.9-.054,10.56,10.56,0,0,0,5.791,1.713" transform="translate(-89.7 -114.5)" fill="#fff"/>
      </g>
    </g>
  </g>
</svg>
