<svg xmlns="http://www.w3.org/2000/svg" width="31.678" height="31.679" viewBox="0 0 31.678 31.679">
  <path id="Shape" d="M31.679,31.679H0V0H31.679V31.678ZM19.934,11.918h0v9.969c0,.268,0,.317-.164.491l-1.661,1.714v.37h8.076v-.37l-1.6-1.679a.528.528,0,0,1-.184-.492V9.581a.528.528,0,0,1,.184-.491l1.642-1.679v-.37H20.532L16.476,17.825,11.86,7.041H5.891V7.41L7.82,9.876a.877.877,0,0,1,.259.719v9.7a1.162,1.162,0,0,1-.279.963l-2.168,2.8v.369H11.76v-.369L9.6,21.258a1.206,1.206,0,0,1-.3-.963V11.906l5.389,12.516h.625Z" fill="#1e1e1e"/>
</svg>
