<svg xmlns="http://www.w3.org/2000/svg" width="32.465" height="31.679" viewBox="0 0 32.465 31.679">
  <path id="Path" d="M30.281,8.083a16.165,16.165,0,0,0-5.908-5.905A15.847,15.847,0,0,0,16.233,0a15.871,15.871,0,0,0-8.15,2.177A16.162,16.162,0,0,0,2.177,8.083,15.872,15.872,0,0,0,0,16.231a15.781,15.781,0,0,0,3.095,9.541,15.91,15.91,0,0,0,8,5.864.943.943,0,0,0,.844-.147.827.827,0,0,0,.273-.634L12.2,29.712q-.012-1.077-.012-1.881l-.486.085a6.029,6.029,0,0,1-1.172.074,8.867,8.867,0,0,1-1.469-.149,3.271,3.271,0,0,1-1.417-.633,2.675,2.675,0,0,1-.93-1.3l-.21-.486a5.275,5.275,0,0,0-.665-1.078,2.574,2.574,0,0,0-.924-.8l-.149-.1a1.579,1.579,0,0,1-.273-.255,1.122,1.122,0,0,1-.187-.295c-.041-.1-.007-.181.1-.243a1.363,1.363,0,0,1,.616-.1l.424.065a3.1,3.1,0,0,1,1.046.506,3.437,3.437,0,0,1,1.026,1.1A3.734,3.734,0,0,0,8.7,25.543,2.5,2.5,0,0,0,10.084,26a6.132,6.132,0,0,0,1.2-.1,4.3,4.3,0,0,0,.952-.317A3.427,3.427,0,0,1,13.273,23.4a14.409,14.409,0,0,1-2.165-.382A8.542,8.542,0,0,1,9.122,22.2a5.694,5.694,0,0,1-1.7-1.414,6.807,6.807,0,0,1-1.108-2.218,10.521,10.521,0,0,1-.433-3.171,6.17,6.17,0,0,1,1.666-4.361,5.675,5.675,0,0,1,.149-4.311A2.956,2.956,0,0,1,9.511,7a12.874,12.874,0,0,1,1.765.812q.56.339.9.572a15.25,15.25,0,0,1,8.116,0l.8-.507a11.305,11.305,0,0,1,1.943-.93,2.777,2.777,0,0,1,1.712-.233,5.628,5.628,0,0,1,.168,4.311,6.159,6.159,0,0,1,1.669,4.356,10.664,10.664,0,0,1-.432,3.182,6.487,6.487,0,0,1-1.119,2.218,5.908,5.908,0,0,1-1.712,1.406,8.6,8.6,0,0,1-1.987.821,14.392,14.392,0,0,1-2.165.383,3.763,3.763,0,0,1,1.1,3v4.459a.847.847,0,0,0,.264.634.918.918,0,0,0,.835.148,15.9,15.9,0,0,0,8-5.866,15.763,15.763,0,0,0,3.1-9.54,15.91,15.91,0,0,0-2.182-8.146Z" transform="translate(0 0)" fill="#1e1e1e"/>
</svg>
