<svg xmlns="http://www.w3.org/2000/svg" xmlns:xlink="http://www.w3.org/1999/xlink" width="958.176" height="517.156" viewBox="0 0 958.176 517.156">
  <defs>
    <linearGradient id="linear-gradient" y1="0.5" x2="1" y2="0.5" gradientUnits="objectBoundingBox">
      <stop offset="0.21" stop-color="#f22f6b" stop-opacity="0"/>
      <stop offset="0.377" stop-color="#f22f6b" stop-opacity="0.012"/>
      <stop offset="0.485" stop-color="#f22f6b" stop-opacity="0.047"/>
      <stop offset="0.577" stop-color="#f22f6b" stop-opacity="0.11"/>
      <stop offset="0.66" stop-color="#f22f6b" stop-opacity="0.196"/>
      <stop offset="0.737" stop-color="#f22f6b" stop-opacity="0.31"/>
      <stop offset="0.809" stop-color="#f22f6b" stop-opacity="0.447"/>
      <stop offset="0.877" stop-color="#f22f6b" stop-opacity="0.612"/>
      <stop offset="0.941" stop-color="#f22f6b" stop-opacity="0.8"/>
      <stop offset="1" stop-color="#f22f6b"/>
    </linearGradient>
    <linearGradient id="linear-gradient-2" y1="0.5" x2="1" y2="0.5" gradientUnits="objectBoundingBox">
      <stop offset="0.279" stop-color="#f22f6b"/>
      <stop offset="0.898" stop-color="#f22f6b"/>
      <stop offset="1" stop-color="#f22f6b"/>
    </linearGradient>
    <linearGradient id="linear-gradient-3" x1="0" y1="0.5" x2="1" y2="0.5" xlink:href="#linear-gradient"/>
    <clipPath id="clip-path">
      <circle id="Ellipse_192" data-name="Ellipse 192" cx="13.32" cy="13.32" r="13.32" fill="none"/>
    </clipPath>
    <clipPath id="clip-path-2">
      <circle id="Ellipse_191" data-name="Ellipse 191" cx="14.734" cy="14.734" r="14.734" fill="none"/>
    </clipPath>
  </defs>
  <g id="Group_1641" data-name="Group 1641" transform="translate(-480 -2079)">
    <path id="There_s_plenty_of_ro" data-name="There’s plenty of ro" d="M-67.582-5.32A7.037,7.037,0,0,1-68.145-2.4,4.261,4.261,0,0,1-69.738-.5a4.385,4.385,0,0,1-2.406.656A4.347,4.347,0,0,1-74.527-.5a4.363,4.363,0,0,1-1.613-1.883,6.752,6.752,0,0,1-.59-2.832v-.82a6.953,6.953,0,0,1,.57-2.9,4.347,4.347,0,0,1,1.613-1.926,4.329,4.329,0,0,1,2.387-.668,4.41,4.41,0,0,1,2.41.66,4.253,4.253,0,0,1,1.605,1.914,7.071,7.071,0,0,1,.563,2.918Zm-1.492-.734a5.1,5.1,0,0,0-.812-3.105,2.68,2.68,0,0,0-2.273-1.082A2.651,2.651,0,0,0-74.4-9.16a5,5,0,0,0-.84,3v.836a5.107,5.107,0,0,0,.824,3.082,2.662,2.662,0,0,0,2.27,1.121,2.652,2.652,0,0,0,2.25-1.059,5.079,5.079,0,0,0,.82-3.035Zm4.883-2.4.047,1.063a3.08,3.08,0,0,1,2.531-1.219q2.68,0,2.7,3.023V0h-1.445V-5.594a1.946,1.946,0,0,0-.418-1.352,1.675,1.675,0,0,0-1.277-.437,2.086,2.086,0,0,0-1.234.375,2.546,2.546,0,0,0-.828.984V0h-1.445V-8.453Zm10.469,4.211h-3.812v-1.18h3.813Zm4.8,3.219a2.082,2.082,0,0,0,1.352-.469,1.649,1.649,0,0,0,.641-1.172h1.367a2.621,2.621,0,0,1-.5,1.383A3.293,3.293,0,0,1-47.3-.234a3.55,3.55,0,0,1-1.629.391A3.482,3.482,0,0,1-51.672-1a4.59,4.59,0,0,1-1.02-3.152v-.242a5.089,5.089,0,0,1,.453-2.2,3.451,3.451,0,0,1,1.3-1.492,3.7,3.7,0,0,1,2-.531,3.39,3.39,0,0,1,2.363.852,3.043,3.043,0,0,1,1,2.211h-1.367a1.992,1.992,0,0,0-.621-1.348,1.932,1.932,0,0,0-1.379-.527,2.023,2.023,0,0,0-1.707.793,3.724,3.724,0,0,0-.605,2.293v.273a3.65,3.65,0,0,0,.6,2.25A2.033,2.033,0,0,0-48.926-1.023ZM-42.5-7.43A3.073,3.073,0,0,1-40-8.609q2.68,0,2.7,3.023V0h-1.445V-5.594a1.946,1.946,0,0,0-.418-1.352,1.675,1.675,0,0,0-1.277-.437,2.086,2.086,0,0,0-1.234.375,2.546,2.546,0,0,0-.828.984V0h-1.445V-12H-42.5ZM-29.91,0a3.036,3.036,0,0,1-.2-.891A3.225,3.225,0,0,1-32.52.156,2.984,2.984,0,0,1-34.57-.551a2.287,2.287,0,0,1-.8-1.793,2.39,2.39,0,0,1,1-2.051,4.733,4.733,0,0,1,2.824-.73h1.406v-.664A1.623,1.623,0,0,0-30.59-7a1.821,1.821,0,0,0-1.336-.449,2.107,2.107,0,0,0-1.3.391,1.151,1.151,0,0,0-.523.945H-35.2a2,2,0,0,1,.449-1.223,3.066,3.066,0,0,1,1.219-.934,4.1,4.1,0,0,1,1.691-.344,3.342,3.342,0,0,1,2.289.73,2.635,2.635,0,0,1,.859,2.012v3.891a4.757,4.757,0,0,0,.3,1.852V0Zm-2.4-1.1a2.54,2.54,0,0,0,1.289-.352,2.127,2.127,0,0,0,.883-.914V-4.1H-31.27q-2.656,0-2.656,1.555a1.316,1.316,0,0,0,.453,1.063A1.742,1.742,0,0,0-32.309-1.1ZM-24.855,0H-26.3V-8.453h1.445Zm-1.562-10.7a.863.863,0,0,1,.215-.594.807.807,0,0,1,.637-.242.819.819,0,0,1,.641.242.854.854,0,0,1,.219.594.826.826,0,0,1-.219.586.834.834,0,0,1-.641.234.821.821,0,0,1-.637-.234A.834.834,0,0,1-26.418-10.7Zm5.242,2.242.047,1.063A3.08,3.08,0,0,1-18.6-8.609q2.68,0,2.7,3.023V0H-17.34V-5.594a1.946,1.946,0,0,0-.418-1.352,1.675,1.675,0,0,0-1.277-.437,2.086,2.086,0,0,0-1.234.375,2.546,2.546,0,0,0-.828.984V0h-1.445V-8.453ZM-7.793-10.5v2.047h1.578v1.117H-7.793v5.249a1.173,1.173,0,0,0,.211.763.888.888,0,0,0,.719.254,3.5,3.5,0,0,0,.688-.094V0A4.215,4.215,0,0,1-7.285.156,1.8,1.8,0,0,1-8.746-.43a2.517,2.517,0,0,1-.492-1.664V-7.336h-1.539V-8.453h1.539V-10.5ZM-.441-7.156a4.331,4.331,0,0,0-.711-.055A1.9,1.9,0,0,0-3.082-6V0H-4.527V-8.453h1.406l.023.977A2.251,2.251,0,0,1-1.082-8.609,1.477,1.477,0,0,1-.441-8.5ZM5.793,0a3.036,3.036,0,0,1-.2-.891A3.225,3.225,0,0,1,3.184.156,2.984,2.984,0,0,1,1.133-.551a2.287,2.287,0,0,1-.8-1.793,2.39,2.39,0,0,1,1-2.051,4.733,4.733,0,0,1,2.824-.73H5.566v-.664A1.623,1.623,0,0,0,5.113-7a1.821,1.821,0,0,0-1.336-.449,2.107,2.107,0,0,0-1.3.391,1.151,1.151,0,0,0-.523.945H.5A2,2,0,0,1,.953-7.332a3.066,3.066,0,0,1,1.219-.934,4.1,4.1,0,0,1,1.691-.344,3.342,3.342,0,0,1,2.289.73,2.635,2.635,0,0,1,.859,2.012v3.891a4.757,4.757,0,0,0,.3,1.852V0Zm-2.4-1.1a2.54,2.54,0,0,0,1.289-.352,2.127,2.127,0,0,0,.883-.914V-4.1H4.434q-2.656,0-2.656,1.555A1.316,1.316,0,0,0,2.23-1.484,1.742,1.742,0,0,0,3.395-1.1Zm7.25-7.352.047,1.063a3.08,3.08,0,0,1,2.531-1.219q2.68,0,2.7,3.023V0H14.48V-5.594a1.946,1.946,0,0,0-.418-1.352,1.675,1.675,0,0,0-1.277-.437,2.086,2.086,0,0,0-1.234.375,2.546,2.546,0,0,0-.828.984V0H9.277V-8.453ZM23.027-2.242a1.064,1.064,0,0,0-.441-.91,4.249,4.249,0,0,0-1.539-.559A7.277,7.277,0,0,1,19.3-4.273a2.479,2.479,0,0,1-.953-.781,1.869,1.869,0,0,1-.309-1.078,2.193,2.193,0,0,1,.879-1.758,3.432,3.432,0,0,1,2.246-.719,3.532,3.532,0,0,1,2.332.742,2.357,2.357,0,0,1,.895,1.9H22.941a1.3,1.3,0,0,0-.5-1.023,1.888,1.888,0,0,0-1.27-.43,1.976,1.976,0,0,0-1.234.344,1.082,1.082,0,0,0-.445.9.877.877,0,0,0,.414.789,5.1,5.1,0,0,0,1.5.508,7.8,7.8,0,0,1,1.754.578,2.558,2.558,0,0,1,1,.809,1.988,1.988,0,0,1,.324,1.152,2.163,2.163,0,0,1-.906,1.816,3.8,3.8,0,0,1-2.352.684,4.257,4.257,0,0,1-1.8-.359,2.922,2.922,0,0,1-1.223-1A2.42,2.42,0,0,1,17.754-2.6H19.2a1.5,1.5,0,0,0,.582,1.152,2.258,2.258,0,0,0,1.434.426,2.331,2.331,0,0,0,1.316-.332A1.02,1.02,0,0,0,23.027-2.242ZM31.574,0a3.036,3.036,0,0,1-.2-.891A3.225,3.225,0,0,1,28.965.156a2.984,2.984,0,0,1-2.051-.707,2.287,2.287,0,0,1-.8-1.793,2.39,2.39,0,0,1,1-2.051,4.733,4.733,0,0,1,2.824-.73h1.406v-.664A1.623,1.623,0,0,0,30.895-7a1.821,1.821,0,0,0-1.336-.449,2.108,2.108,0,0,0-1.3.391,1.151,1.151,0,0,0-.523.945H26.285a2,2,0,0,1,.449-1.223,3.066,3.066,0,0,1,1.219-.934,4.1,4.1,0,0,1,1.691-.344,3.342,3.342,0,0,1,2.289.73,2.635,2.635,0,0,1,.859,2.012v3.891a4.757,4.757,0,0,0,.3,1.852V0Zm-2.4-1.1a2.54,2.54,0,0,0,1.289-.352,2.127,2.127,0,0,0,.883-.914V-4.1H30.215q-2.656,0-2.656,1.555a1.316,1.316,0,0,0,.453,1.063A1.742,1.742,0,0,0,29.176-1.1Zm9.273.078A2.082,2.082,0,0,0,39.8-1.492a1.649,1.649,0,0,0,.641-1.172h1.367a2.621,2.621,0,0,1-.5,1.383,3.293,3.293,0,0,1-1.23,1.047,3.55,3.55,0,0,1-1.629.391A3.482,3.482,0,0,1,35.7-1a4.59,4.59,0,0,1-1.02-3.152v-.242a5.089,5.089,0,0,1,.453-2.2,3.451,3.451,0,0,1,1.3-1.492,3.7,3.7,0,0,1,2-.531,3.39,3.39,0,0,1,2.363.852,3.043,3.043,0,0,1,1,2.211H40.441a1.992,1.992,0,0,0-.621-1.348,1.932,1.932,0,0,0-1.379-.527,2.023,2.023,0,0,0-1.707.793,3.724,3.724,0,0,0-.605,2.293v.273a3.65,3.65,0,0,0,.6,2.25A2.033,2.033,0,0,0,38.449-1.023ZM45.395-10.5v2.047h1.578v1.117H45.395v5.249a1.173,1.173,0,0,0,.211.763.888.888,0,0,0,.719.254,3.5,3.5,0,0,0,.688-.094V0A4.215,4.215,0,0,1,45.9.156,1.8,1.8,0,0,1,44.441-.43a2.517,2.517,0,0,1-.492-1.664V-7.336H42.41V-8.453h1.539V-10.5ZM50.23,0H48.785V-8.453H50.23ZM48.668-10.7a.863.863,0,0,1,.215-.594.807.807,0,0,1,.637-.242.819.819,0,0,1,.641.242.854.854,0,0,1,.219.594.826.826,0,0,1-.219.586.834.834,0,0,1-.641.234.821.821,0,0,1-.637-.234A.834.834,0,0,1,48.668-10.7ZM52.16-4.3a4.993,4.993,0,0,1,.488-2.234A3.643,3.643,0,0,1,54.008-8.07,3.7,3.7,0,0,1,56-8.609a3.565,3.565,0,0,1,2.793,1.2,4.6,4.6,0,0,1,1.066,3.18v.1a5.036,5.036,0,0,1-.473,2.215A3.589,3.589,0,0,1,58.031-.391a3.743,3.743,0,0,1-2.02.547,3.556,3.556,0,0,1-2.785-1.2A4.575,4.575,0,0,1,52.16-4.2Zm1.453.172a3.616,3.616,0,0,0,.652,2.258,2.088,2.088,0,0,0,1.746.852,2.075,2.075,0,0,0,1.75-.863A3.955,3.955,0,0,0,58.41-4.3a3.61,3.61,0,0,0-.66-2.254A2.1,2.1,0,0,0,56-7.422a2.075,2.075,0,0,0-1.727.852A3.925,3.925,0,0,0,53.613-4.133Zm9.422-4.32.047,1.063a3.08,3.08,0,0,1,2.531-1.219q2.68,0,2.7,3.023V0H66.871V-5.594a1.946,1.946,0,0,0-.418-1.352,1.675,1.675,0,0,0-1.277-.437,2.086,2.086,0,0,0-1.234.375,2.546,2.546,0,0,0-.828.984V0H61.668V-8.453ZM75.418-2.242a1.064,1.064,0,0,0-.441-.91,4.249,4.249,0,0,0-1.539-.559A7.277,7.277,0,0,1,71.7-4.273a2.479,2.479,0,0,1-.953-.781,1.869,1.869,0,0,1-.309-1.078,2.193,2.193,0,0,1,.879-1.758,3.432,3.432,0,0,1,2.246-.719,3.532,3.532,0,0,1,2.332.742,2.357,2.357,0,0,1,.895,1.9H75.332a1.3,1.3,0,0,0-.5-1.023,1.888,1.888,0,0,0-1.27-.43,1.976,1.976,0,0,0-1.234.344,1.082,1.082,0,0,0-.445.9.877.877,0,0,0,.414.789,5.1,5.1,0,0,0,1.5.508,7.8,7.8,0,0,1,1.754.578,2.558,2.558,0,0,1,1,.809,1.988,1.988,0,0,1,.324,1.152,2.163,2.163,0,0,1-.906,1.816,3.8,3.8,0,0,1-2.352.684,4.257,4.257,0,0,1-1.8-.359,2.922,2.922,0,0,1-1.223-1A2.42,2.42,0,0,1,70.145-2.6H71.59a1.5,1.5,0,0,0,.582,1.152,2.258,2.258,0,0,0,1.434.426,2.331,2.331,0,0,0,1.316-.332A1.02,1.02,0,0,0,75.418-2.242Z" transform="translate(900.5 2596)"/>
    <path id="Path_537" data-name="Path 537" d="M1181.088,661.518s-9.615-15.281-9.615-48.627c0-144.649,23.089-247.3-26.673-247.3H979.945V957.452H1144.8c50.124,0,26.6-104.328,26.6-250.458C1171.4,673.822,1181.088,661.518,1181.088,661.518Z" transform="translate(1559.106 1395.895) rotate(90)" fill="url(#linear-gradient)"/>
    <circle id="Ellipse_188" data-name="Ellipse 188" cx="21.713" cy="21.713" r="21.713" transform="translate(1284.769 2079)" fill="url(#linear-gradient-2)"/>
    <g id="Group_236" data-name="Group 236" transform="translate(1291.486 2092.815)">
      <path id="Path_524" data-name="Path 524" d="M1127.339,306.536c-3.066,0-5.167,1.915-6.984,4.288l1.077,1.573c1.664-2.276,3.432-4.067,5.906-4.067a5.7,5.7,0,0,1,5.644,4.75h-7.058v1.794h8.885a7.355,7.355,0,0,0,.055-.9,7.492,7.492,0,0,0-7.526-7.441" transform="translate(-1103.612 -306.536)" fill="#fff" fill-rule="evenodd"/>
      <path id="Path_525" data-name="Path 525" d="M1127.9,319.624c-3.027,0-5.024-2.614-7.56-6.451s-4.929-6.637-8.641-6.637a7.441,7.441,0,1,0,0,14.882c3.06,0,5.16-1.909,6.974-4.276l-1.069-1.583c-1.663,2.275-3.431,4.065-5.905,4.065a5.647,5.647,0,1,1,0-11.294c3.027,0,4.916,2.481,7.555,6.443s4.934,6.644,8.646,6.644a7.537,7.537,0,0,0,7.017-4.749h-1.992a5.736,5.736,0,0,1-5.025,2.955" transform="translate(-1104.172 -306.536)" fill="#fff" fill-rule="evenodd"/>
    </g>
    <path id="Path_526" data-name="Path 526" d="M1259.049,461.316s-9.355-4.943-9.355-15.73c0-46.791,22.465-80-25.952-80H867.463V557.045h356.28c48.768,0,25.877-33.748,25.877-81.019C1249.62,465.3,1259.049,461.316,1259.049,461.316Z" transform="translate(179.127 1821.322)" fill="url(#linear-gradient-3)"/>
    <path id="Path_2961" data-name="Path 2961" d="M-70.222,0h-1.729l-4.437-7.062V0h-1.729V-9.953h1.729l4.45,7.089V-9.953h1.716Zm1.572-3.767a4.361,4.361,0,0,1,.431-1.958,3.145,3.145,0,0,1,1.21-1.34,3.409,3.409,0,0,1,1.791-.468,3.231,3.231,0,0,1,2.43.964A3.791,3.791,0,0,1-61.78-4.013l.007.39a4.4,4.4,0,0,1-.42,1.955A3.108,3.108,0,0,1-63.4-.335,3.434,3.434,0,0,1-65.2.137,3.209,3.209,0,0,1-67.71-.906a3.993,3.993,0,0,1-.94-2.779Zm1.661.144a2.98,2.98,0,0,0,.472,1.788,1.533,1.533,0,0,0,1.313.646A1.517,1.517,0,0,0-63.9-1.846a3.292,3.292,0,0,0,.468-1.921,2.942,2.942,0,0,0-.482-1.777A1.539,1.539,0,0,0-65.218-6.2a1.525,1.525,0,0,0-1.292.646A3.23,3.23,0,0,0-66.989-3.623ZM-55.115,0h-1.661V-10.5h1.661Zm3.575,0H-53.2V-7.4h1.661ZM-53.3-9.317a.882.882,0,0,1,.243-.636.917.917,0,0,1,.694-.253.928.928,0,0,1,.7.253.875.875,0,0,1,.246.636.855.855,0,0,1-.246.625.935.935,0,0,1-.7.25.924.924,0,0,1-.694-.25A.861.861,0,0,1-53.3-9.317ZM-48.169-7.4l.048.772a2.662,2.662,0,0,1,2.133-.909A2.045,2.045,0,0,1-43.958-6.4a2.623,2.623,0,0,1,2.27-1.135,2.306,2.306,0,0,1,1.822.677,2.98,2.98,0,0,1,.612,2V0h-1.661V-4.812a1.471,1.471,0,0,0-.308-1.032,1.347,1.347,0,0,0-1.019-.328,1.383,1.383,0,0,0-.926.3,1.6,1.6,0,0,0-.5.8L-43.665,0h-1.661V-4.867a1.185,1.185,0,0,0-1.333-1.306,1.462,1.462,0,0,0-1.415.813V0h-1.661V-7.4ZM-35.783,0h-1.661V-7.4h1.661Zm-1.764-9.317a.882.882,0,0,1,.243-.636.917.917,0,0,1,.694-.253.928.928,0,0,1,.7.253.875.875,0,0,1,.246.636.855.855,0,0,1-.246.625.935.935,0,0,1-.7.25.924.924,0,0,1-.694-.25A.861.861,0,0,1-37.546-9.317Zm5.653.123v1.8h1.306v1.23h-1.306v4.129a.909.909,0,0,0,.167.612.777.777,0,0,0,.6.188,2.559,2.559,0,0,0,.581-.068V-.021A4.091,4.091,0,0,1-31.64.137q-1.914,0-1.914-2.112v-4.19h-1.217V-7.4h1.217v-1.8ZM-25.249,0V-6.166h-1.128V-7.4h1.128v-.677a2.54,2.54,0,0,1,.684-1.9,2.619,2.619,0,0,1,1.914-.67,3.839,3.839,0,0,1,.93.123l-.041,1.3a3.272,3.272,0,0,0-.636-.055,1.067,1.067,0,0,0-1.189,1.224V-7.4h1.5v1.23h-1.5V0Zm4.067-3.767a4.361,4.361,0,0,1,.431-1.958,3.145,3.145,0,0,1,1.21-1.34,3.409,3.409,0,0,1,1.791-.468,3.231,3.231,0,0,1,2.43.964,3.791,3.791,0,0,1,1.008,2.557l.007.39a4.4,4.4,0,0,1-.42,1.955,3.108,3.108,0,0,1-1.2,1.333,3.434,3.434,0,0,1-1.808.472A3.209,3.209,0,0,1-20.241-.906a3.993,3.993,0,0,1-.94-2.779Zm1.661.144a2.98,2.98,0,0,0,.472,1.788,1.533,1.533,0,0,0,1.313.646,1.517,1.517,0,0,0,1.309-.656,3.292,3.292,0,0,0,.468-1.921,2.942,2.942,0,0,0-.482-1.777A1.539,1.539,0,0,0-17.75-6.2a1.525,1.525,0,0,0-1.292.646A3.23,3.23,0,0,0-19.52-3.623ZM-9.027-5.879A4.111,4.111,0,0,0-9.7-5.934a1.524,1.524,0,0,0-1.538.875V0H-12.9V-7.4h1.586l.041.827a1.872,1.872,0,0,1,1.668-.964,1.555,1.555,0,0,1,.588.1ZM-4.8-3.767a4.361,4.361,0,0,1,.431-1.958,3.145,3.145,0,0,1,1.21-1.34,3.409,3.409,0,0,1,1.791-.468,3.231,3.231,0,0,1,2.43.964A3.791,3.791,0,0,1,2.068-4.013l.007.39a4.4,4.4,0,0,1-.42,1.955A3.108,3.108,0,0,1,.451-.335,3.434,3.434,0,0,1-1.357.137,3.209,3.209,0,0,1-3.862-.906,3.993,3.993,0,0,1-4.8-3.685Zm1.661.144a2.98,2.98,0,0,0,.472,1.788,1.533,1.533,0,0,0,1.313.646A1.517,1.517,0,0,0-.048-1.846,3.292,3.292,0,0,0,.42-3.767,2.942,2.942,0,0,0-.062-5.544,1.539,1.539,0,0,0-1.371-6.2a1.525,1.525,0,0,0-1.292.646A3.23,3.23,0,0,0-3.141-3.623ZM4.064,0V-6.166H2.936V-7.4H4.064v-.677a2.54,2.54,0,0,1,.684-1.9,2.619,2.619,0,0,1,1.914-.67,3.839,3.839,0,0,1,.93.123l-.041,1.3a3.272,3.272,0,0,0-.636-.055A1.067,1.067,0,0,0,5.725-8.053V-7.4h1.5v1.23h-1.5V0ZM9.027,0V-6.166H7.9V-7.4H9.027v-.677a2.54,2.54,0,0,1,.684-1.9,2.619,2.619,0,0,1,1.914-.67,3.839,3.839,0,0,1,.93.123l-.041,1.3a3.272,3.272,0,0,0-.636-.055,1.067,1.067,0,0,0-1.189,1.224V-7.4h1.5v1.23h-1.5V0Zm7.6-3.562H13.04V-4.9h3.589Zm4.409,2.372a1.5,1.5,0,0,0,1.032-.362,1.238,1.238,0,0,0,.438-.9h1.565a2.44,2.44,0,0,1-.431,1.289,2.825,2.825,0,0,1-1.094.947,3.259,3.259,0,0,1-1.49.349,3.154,3.154,0,0,1-2.461-1,3.986,3.986,0,0,1-.909-2.775v-.171a3.919,3.919,0,0,1,.9-2.7,3.125,3.125,0,0,1,2.461-1.015,3.039,3.039,0,0,1,2.15.769,2.755,2.755,0,0,1,.872,2.02H22.507a1.521,1.521,0,0,0-.434-1.046,1.4,1.4,0,0,0-1.036-.41,1.462,1.462,0,0,0-1.244.584,2.982,2.982,0,0,0-.444,1.774v.267a3.032,3.032,0,0,0,.434,1.794A1.461,1.461,0,0,0,21.038-1.189Zm5.927-5.4a2.6,2.6,0,0,1,2.058-.943q2.365,0,2.4,2.7V0H29.76V-4.771a1.461,1.461,0,0,0-.332-1.083,1.355,1.355,0,0,0-.974-.318,1.6,1.6,0,0,0-1.49.889V0H25.3V-10.5h1.661ZM37.519,0a2.564,2.564,0,0,1-.191-.69,2.586,2.586,0,0,1-1.941.827A2.61,2.61,0,0,1,33.568-.5a2.034,2.034,0,0,1-.7-1.572,2.1,2.1,0,0,1,.878-1.815,4.257,4.257,0,0,1,2.512-.632h1.019V-5a1.3,1.3,0,0,0-.321-.919,1.274,1.274,0,0,0-.978-.345,1.463,1.463,0,0,0-.93.284.878.878,0,0,0-.362.721H33.021a1.844,1.844,0,0,1,.4-1.138,2.687,2.687,0,0,1,1.1-.831,3.854,3.854,0,0,1,1.548-.3,3.1,3.1,0,0,1,2.071.653,2.328,2.328,0,0,1,.793,1.835v3.336a3.781,3.781,0,0,0,.28,1.593V0ZM35.694-1.2a1.89,1.89,0,0,0,.926-.239,1.6,1.6,0,0,0,.653-.643V-3.473h-.9a2.449,2.449,0,0,0-1.388.321,1.041,1.041,0,0,0-.465.909.971.971,0,0,0,.318.762A1.231,1.231,0,0,0,35.694-1.2ZM42.441,0H40.78V-7.4h1.661ZM40.677-9.317a.882.882,0,0,1,.243-.636.917.917,0,0,1,.694-.253.928.928,0,0,1,.7.253.875.875,0,0,1,.246.636.855.855,0,0,1-.246.625.935.935,0,0,1-.7.25.924.924,0,0,1-.694-.25A.861.861,0,0,1,40.677-9.317ZM45.791-7.4l.048.854a2.659,2.659,0,0,1,2.153-.991q2.311,0,2.352,2.646V0H48.682V-4.792a1.523,1.523,0,0,0-.3-1.042,1.28,1.28,0,0,0-.995-.338,1.6,1.6,0,0,0-1.5.909V0H44.225V-7.4ZM57.6-9.194v1.8h1.306v1.23H57.6v4.129a.909.909,0,0,0,.167.612.777.777,0,0,0,.6.188,2.559,2.559,0,0,0,.581-.068V-.021a4.091,4.091,0,0,1-1.094.157q-1.914,0-1.914-2.112v-4.19H54.725V-7.4h1.217v-1.8Zm5.229,4.231L64.241-7.4h1.846L63.824-3.753,66.162,0H64.33L62.853-2.529,61.383,0H59.538l2.338-3.753L59.62-7.4h1.832ZM67.686.854H66.38L70.3-9.953H71.6ZM76.9-2.01a.753.753,0,0,0-.366-.677,3.89,3.89,0,0,0-1.213-.41,6.238,6.238,0,0,1-1.415-.451,1.889,1.889,0,0,1-1.244-1.743,1.969,1.969,0,0,1,.807-1.6,3.189,3.189,0,0,1,2.051-.643,3.318,3.318,0,0,1,2.143.656,2.082,2.082,0,0,1,.817,1.7H76.819a1.024,1.024,0,0,0-.355-.8,1.362,1.362,0,0,0-.943-.318,1.472,1.472,0,0,0-.892.253.8.8,0,0,0-.345.677.673.673,0,0,0,.321.595,4.418,4.418,0,0,0,1.3.427,6.148,6.148,0,0,1,1.535.513,2.173,2.173,0,0,1,.827.714,1.822,1.822,0,0,1,.27,1.012,1.927,1.927,0,0,1-.827,1.617,3.527,3.527,0,0,1-2.167.619,3.825,3.825,0,0,1-1.62-.328,2.666,2.666,0,0,1-1.107-.9,2.136,2.136,0,0,1-.4-1.237H74.03a1.171,1.171,0,0,0,.444.906,1.727,1.727,0,0,0,1.087.318,1.68,1.68,0,0,0,1-.25A.772.772,0,0,0,76.9-2.01Z" transform="translate(1306.858 2140.511)" fill="#1e1e1e"/>
    <g id="Group_1644" data-name="Group 1644">
      <line id="Line_227" data-name="Line 227" y2="261.928" transform="translate(623.585 2251.335)" fill="none" stroke="#dcdcdc" stroke-miterlimit="10" stroke-width="1"/>
      <line id="Line_228" data-name="Line 228" y2="261.928" transform="translate(778.284 2251.335)" fill="none" stroke="#dcdcdc" stroke-miterlimit="10" stroke-width="1"/>
      <line id="Line_229" data-name="Line 229" y2="261.928" transform="translate(932.984 2251.335)" fill="none" stroke="#dcdcdc" stroke-miterlimit="10" stroke-width="1"/>
      <line id="Line_230" data-name="Line 230" y2="261.928" transform="translate(1033.683 2251.335)" fill="none" stroke="#dcdcdc" stroke-miterlimit="10" stroke-width="1"/>
      <path id="Path_2947" data-name="Path 2947" d="M0,261.928" transform="translate(1242.383 2251.335)" fill="none" stroke="#dcdcdc" stroke-width="1"/>
      <line id="Line_577" data-name="Line 577" y2="261.928" transform="translate(1048.62 2251.335)" fill="none" stroke="#dcdcdc" stroke-miterlimit="10" stroke-width="1"/>
      <line id="Line_578" data-name="Line 578" y2="261.928" transform="translate(1173.794 2251.335)" fill="none" stroke="#dcdcdc" stroke-miterlimit="10" stroke-width="1"/>
      <line id="Line_579" data-name="Line 579" y2="261.928" transform="translate(932.984 2251.335)" fill="none" stroke="#dcdcdc" stroke-miterlimit="10" stroke-width="1"/>
      <line id="Line_580" data-name="Line 580" y2="261.928" transform="translate(990.449 2251.335)" fill="none" stroke="#dcdcdc" stroke-miterlimit="10" stroke-width="1"/>
      <line id="Line_581" data-name="Line 581" y2="261.928" transform="translate(1019.706 2251.335)" fill="none" stroke="#dcdcdc" stroke-miterlimit="10" stroke-width="1"/>
    </g>
    <path id="Path_2945" data-name="Path 2945" d="M115.391,0H0" transform="translate(571.32 2472.128)" fill="none" stroke="#ff9500" stroke-width="2"/>
    <path id="Path_2944" data-name="Path 2944" d="M188.984,0H0" transform="translate(571.32 2424.036)" fill="none" stroke="#b5b5b5" stroke-width="2"/>
    <path id="Path_2946" data-name="Path 2946" d="M602.454,0H64.525" transform="translate(506.795 2375.943)" fill="none" stroke="#f22f6b" stroke-width="2"/>
    <rect id="Rectangle_380" data-name="Rectangle 380" width="96.184" height="20.362" transform="translate(480 2366.478)" fill="#f22f6b"/>
    <rect id="Rectangle_381" data-name="Rectangle 381" width="96.184" height="20.362" transform="translate(480 2415.156)" fill="#b5b5b5"/>
    <rect id="Rectangle_382" data-name="Rectangle 382" width="96.184" height="20.362" transform="translate(480 2463.248)" fill="#ff9500"/>
    <path id="Path_2955" data-name="Path 2955" d="M27.531,12.128A2.981,2.981,0,0,1,25,10.978a2.673,2.673,0,0,1-1.137.849,4.187,4.187,0,0,1-1.622.3,2.368,2.368,0,0,1-1.666-.552,1.959,1.959,0,0,1-.6-1.516A1.85,1.85,0,0,1,20.7,8.5a3.471,3.471,0,0,1,2.136-.555h1.424V7.4A1.556,1.556,0,0,0,23.9,6.327a1.291,1.291,0,0,0-1.015-.393,1.753,1.753,0,0,0-1.117.351,1.066,1.066,0,0,0-.447.868L20.15,7.033a1.783,1.783,0,0,1,.773-1.491,3.194,3.194,0,0,1,1.967-.578,3.006,3.006,0,0,1,1.3.265,2,2,0,0,1,.881.795,2.839,2.839,0,0,1,.958-.782,2.7,2.7,0,0,1,1.226-.278,2.66,2.66,0,0,1,2.081.82,3.324,3.324,0,0,1,.741,2.308v.734H25.424a2.648,2.648,0,0,0,.6,1.734,1.937,1.937,0,0,0,1.507.61,3.164,3.164,0,0,0,1.718-.485l.3-.2.409.868A3.873,3.873,0,0,1,27.531,12.128Zm-5.063-.958a2.273,2.273,0,0,0,.964-.236,2.619,2.619,0,0,0,.824-.581V8.839H22.8a1.936,1.936,0,0,0-1.194.364,1.077,1.077,0,0,0-.447.881,1,1,0,0,0,.338.789A1.427,1.427,0,0,0,22.467,11.17ZM27.25,5.934a1.534,1.534,0,0,0-1.21.546,2.605,2.605,0,0,0-.584,1.433h3.435v-.2A1.877,1.877,0,0,0,28.463,6.4,1.558,1.558,0,0,0,27.25,5.934Zm5.759-2.516V5.091H34.3V6h-1.29v4.29a.959.959,0,0,0,.172.623.726.726,0,0,0,.587.208,2.86,2.86,0,0,0,.562-.077V12a3.445,3.445,0,0,1-.907.127,1.471,1.471,0,0,1-1.194-.479,2.057,2.057,0,0,1-.4-1.36V6H30.57V5.091h1.258V3.419Zm5.536,8.709a3.019,3.019,0,0,1-2.286-.923,3.424,3.424,0,0,1-.881-2.468V8.52a4.146,4.146,0,0,1,.393-1.836,3.063,3.063,0,0,1,1.1-1.264A2.761,2.761,0,0,1,38.4,4.964a2.587,2.587,0,0,1,2.094.888,3.843,3.843,0,0,1,.747,2.541v.492h-4.68a2.456,2.456,0,0,0,.6,1.651,1.877,1.877,0,0,0,1.453.629,2.057,2.057,0,0,0,1.06-.255,2.663,2.663,0,0,0,.76-.677l.722.562A2.9,2.9,0,0,1,38.545,12.128ZM38.4,5.934a1.576,1.576,0,0,0-1.2.52,2.529,2.529,0,0,0-.6,1.459h3.461V7.824a2.25,2.25,0,0,0-.485-1.4A1.483,1.483,0,0,0,38.4,5.934Zm7.547.217a3.54,3.54,0,0,0-.581-.045,1.557,1.557,0,0,0-1.577.99V12H42.605V5.091h1.149l.019.8a1.839,1.839,0,0,1,1.647-.926,1.207,1.207,0,0,1,.524.089Zm2.2-1.06.038.868a2.518,2.518,0,0,1,2.069-1q2.19,0,2.209,2.471V12H51.283V7.428a1.59,1.59,0,0,0-.342-1.1A1.369,1.369,0,0,0,49.9,5.966a1.7,1.7,0,0,0-1.009.306,2.081,2.081,0,0,0-.677.8V12H47.03V5.091ZM55.529,12H54.347V5.091h1.181ZM54.252,3.259a.705.705,0,0,1,.176-.485.659.659,0,0,1,.52-.2.669.669,0,0,1,.524.2.7.7,0,0,1,.179.485.675.675,0,0,1-.179.479.682.682,0,0,1-.524.192.671.671,0,0,1-.52-.192A.682.682,0,0,1,54.252,3.259Zm4.77.16V5.091h1.29V6h-1.29v4.29a.959.959,0,0,0,.172.623.726.726,0,0,0,.587.208,2.86,2.86,0,0,0,.562-.077V12a3.445,3.445,0,0,1-.907.127,1.471,1.471,0,0,1-1.194-.479,2.057,2.057,0,0,1-.4-1.36V6H56.582V5.091H57.84V3.419ZM63.95,10.27l1.609-5.178h1.264l-2.777,7.975Q63.4,14.79,62,14.79l-.223-.019-.441-.083V13.73l.319.026a1.572,1.572,0,0,0,.935-.243,1.756,1.756,0,0,0,.552-.888l.262-.7L60.937,5.091h1.29Z" transform="translate(484.864 2368.544)" fill="#fff"/>
    <path id="Path_2956" data-name="Path 2956" d="M21.695,7.7H17.666V11h4.68v1H16.44V2.7h5.842v1H17.666V6.7h4.029Zm3.595-4.284V5.091h1.29V6h-1.29v4.29a.959.959,0,0,0,.172.623.726.726,0,0,0,.587.208,2.86,2.86,0,0,0,.562-.077V12a3.445,3.445,0,0,1-.907.127,1.471,1.471,0,0,1-1.194-.479,2.057,2.057,0,0,1-.4-1.36V6H22.85V5.091h1.258V3.419Zm3.85,2.509a2.511,2.511,0,0,1,2.043-.964q2.19,0,2.209,2.471V12H32.211V7.428a1.59,1.59,0,0,0-.342-1.1,1.369,1.369,0,0,0-1.044-.358,1.7,1.7,0,0,0-1.009.306,2.081,2.081,0,0,0-.677.8V12H27.958V2.193H29.14Zm8.888,6.2a3.019,3.019,0,0,1-2.286-.923,3.424,3.424,0,0,1-.881-2.468V8.52a4.146,4.146,0,0,1,.393-1.836,3.063,3.063,0,0,1,1.1-1.264,2.761,2.761,0,0,1,1.529-.457,2.587,2.587,0,0,1,2.094.888,3.843,3.843,0,0,1,.747,2.541v.492h-4.68a2.456,2.456,0,0,0,.6,1.651,1.877,1.877,0,0,0,1.453.629,2.057,2.057,0,0,0,1.06-.255,2.663,2.663,0,0,0,.76-.677l.721.562A2.9,2.9,0,0,1,38.027,12.128Zm-.147-6.193a1.576,1.576,0,0,0-1.2.52,2.529,2.529,0,0,0-.6,1.459h3.461V7.824a2.25,2.25,0,0,0-.485-1.4A1.483,1.483,0,0,0,37.881,5.934Zm7.547.217a3.54,3.54,0,0,0-.581-.045,1.557,1.557,0,0,0-1.577.99V12H42.088V5.091h1.149l.019.8A1.839,1.839,0,0,1,44.9,4.964a1.207,1.207,0,0,1,.524.089Zm3.831,5.976a3.019,3.019,0,0,1-2.286-.923,3.424,3.424,0,0,1-.881-2.468V8.52a4.146,4.146,0,0,1,.393-1.836,3.063,3.063,0,0,1,1.1-1.264,2.761,2.761,0,0,1,1.529-.457,2.587,2.587,0,0,1,2.094.888,3.843,3.843,0,0,1,.747,2.541v.492h-4.68a2.456,2.456,0,0,0,.6,1.651,1.877,1.877,0,0,0,1.453.629,2.057,2.057,0,0,0,1.06-.255,2.663,2.663,0,0,0,.76-.677l.722.562A2.9,2.9,0,0,1,49.258,12.128Zm-.147-6.193a1.576,1.576,0,0,0-1.2.52,2.529,2.529,0,0,0-.6,1.459h3.461V7.824a2.25,2.25,0,0,0-.485-1.4A1.483,1.483,0,0,0,49.112,5.934Zm8.473,5.383a2.509,2.509,0,0,1-2.024.811,2.148,2.148,0,0,1-1.682-.642,2.778,2.778,0,0,1-.584-1.9V5.091h1.181V9.555q0,1.571,1.277,1.571a1.768,1.768,0,0,0,1.8-1.009V5.091h1.181V12H57.61Zm4.054-6.225.032.766a2.551,2.551,0,0,1,2.05-.894,1.975,1.975,0,0,1,1.973,1.111,2.617,2.617,0,0,1,.9-.8A2.65,2.65,0,0,1,67.9,4.964q2.273,0,2.311,2.407V12H69.026V7.441a1.586,1.586,0,0,0-.338-1.108,1.49,1.49,0,0,0-1.137-.367,1.566,1.566,0,0,0-1.092.393,1.593,1.593,0,0,0-.5,1.057V12H64.768V7.473a1.318,1.318,0,0,0-1.475-1.507,1.58,1.58,0,0,0-1.59.99V12H60.522V5.091Z" transform="translate(484.864 2417.222)" fill="#fff"/>
    <path id="Path_2957" data-name="Path 2957" d="M24.169,12V2.7h3.039a3.528,3.528,0,0,1,2.276.626,2.255,2.255,0,0,1,.763,1.852,1.888,1.888,0,0,1-.37,1.152,2.4,2.4,0,0,1-1.009.776,2.156,2.156,0,0,1,1.191.8A2.3,2.3,0,0,1,30.5,9.318a2.486,2.486,0,0,1-.811,1.967A3.353,3.353,0,0,1,27.393,12Zm1.226-4.348V11h2.024a1.949,1.949,0,0,0,1.35-.444,1.559,1.559,0,0,0,.495-1.223q0-1.679-1.826-1.679Zm0-.983h1.852a1.941,1.941,0,0,0,1.287-.4,1.351,1.351,0,0,0,.482-1.094,1.329,1.329,0,0,0-.447-1.117,2.195,2.195,0,0,0-1.36-.349H25.395ZM33.408,12H32.227V5.091h1.181ZM32.131,3.259a.705.705,0,0,1,.176-.485.659.659,0,0,1,.52-.2.669.669,0,0,1,.524.2.7.7,0,0,1,.179.485.675.675,0,0,1-.179.479.682.682,0,0,1-.524.192.671.671,0,0,1-.52-.192A.682.682,0,0,1,32.131,3.259Zm4.77.16V5.091h1.29V6H36.9v4.29a.959.959,0,0,0,.172.623.726.726,0,0,0,.587.208,2.86,2.86,0,0,0,.562-.077V12a3.445,3.445,0,0,1-.907.127,1.471,1.471,0,0,1-1.194-.479,2.057,2.057,0,0,1-.4-1.36V6H34.461V5.091h1.258V3.419Zm5.44,7.745a1.7,1.7,0,0,0,1.1-.383,1.348,1.348,0,0,0,.524-.958h1.117a2.142,2.142,0,0,1-.409,1.13,2.691,2.691,0,0,1-1.006.856,2.9,2.9,0,0,1-1.331.319,2.846,2.846,0,0,1-2.244-.942,3.751,3.751,0,0,1-.833-2.576v-.2a4.159,4.159,0,0,1,.37-1.794A2.821,2.821,0,0,1,40.7,5.4a3.02,3.02,0,0,1,1.638-.434,2.771,2.771,0,0,1,1.931.7,2.487,2.487,0,0,1,.82,1.807H43.969a1.628,1.628,0,0,0-.508-1.1,1.579,1.579,0,0,0-1.127-.431,1.653,1.653,0,0,0-1.4.648,3.044,3.044,0,0,0-.495,1.874V8.68a2.983,2.983,0,0,0,.492,1.839A1.661,1.661,0,0,0,42.34,11.164ZM46.1,8.482a4.081,4.081,0,0,1,.4-1.826A2.977,2.977,0,0,1,47.611,5.4a3.024,3.024,0,0,1,1.625-.441,2.913,2.913,0,0,1,2.283.977,3.758,3.758,0,0,1,.872,2.6v.083A4.116,4.116,0,0,1,52,10.432a2.933,2.933,0,0,1-1.1,1.248,3.059,3.059,0,0,1-1.651.447,2.906,2.906,0,0,1-2.276-.977A3.739,3.739,0,0,1,46.1,8.565Zm1.188.14a2.956,2.956,0,0,0,.533,1.845,1.807,1.807,0,0,0,2.857-.01,3.232,3.232,0,0,0,.53-1.976,2.95,2.95,0,0,0-.54-1.842,1.715,1.715,0,0,0-1.433-.706,1.7,1.7,0,0,0-1.411.7A3.208,3.208,0,0,0,47.289,8.622ZM55.155,12H53.974V5.091h1.181ZM53.878,3.259a.705.705,0,0,1,.176-.485.659.659,0,0,1,.52-.2.669.669,0,0,1,.524.2.7.7,0,0,1,.179.485.675.675,0,0,1-.179.479.682.682,0,0,1-.524.192.671.671,0,0,1-.52-.192A.682.682,0,0,1,53.878,3.259Zm4.284,1.832.038.868a2.518,2.518,0,0,1,2.069-1q2.19,0,2.209,2.471V12H61.3V7.428a1.59,1.59,0,0,0-.342-1.1,1.369,1.369,0,0,0-1.044-.358,1.7,1.7,0,0,0-1.009.306,2.081,2.081,0,0,0-.677.8V12H57.045V5.091Z" transform="translate(484.864 2465.314)" fill="#fff"/>
    <g id="Group_1646" data-name="Group 1646" transform="translate(16)">
      <path id="Path_2959" data-name="Path 2959" d="M-16.687,0h-1.654V-8l-2.44.832V-8.559L-16.9-9.987h.212Zm3.9-4.936.54-5.018H-6.9v1.436h-3.965l-.273,2.379a3.073,3.073,0,0,1,1.559-.4,2.773,2.773,0,0,1,2.211.909,3.6,3.6,0,0,1,.79,2.447A3.316,3.316,0,0,1-7.451-.762a3.193,3.193,0,0,1-2.4.9,3.345,3.345,0,0,1-2.266-.776,2.805,2.805,0,0,1-.974-2.047h1.606a1.754,1.754,0,0,0,.52,1.111,1.58,1.58,0,0,0,1.107.386,1.428,1.428,0,0,0,1.193-.547,2.36,2.36,0,0,0,.427-1.49,2.086,2.086,0,0,0-.472-1.439,1.65,1.65,0,0,0-1.3-.53,2.161,2.161,0,0,0-.766.12,2.168,2.168,0,0,0-.684.468ZM.4-9.194v1.8H1.709v1.23H.4v4.129a.909.909,0,0,0,.167.612.777.777,0,0,0,.6.188,2.559,2.559,0,0,0,.581-.068V-.021A4.091,4.091,0,0,1,.656.137q-1.914,0-1.914-2.112v-4.19H-2.475V-7.4h1.217v-1.8ZM5.633-4.963,7.041-7.4H8.887L6.624-3.753,8.962,0H7.13L5.653-2.529,4.184,0H2.338L4.676-3.753,2.42-7.4H4.252ZM10.486.854H9.181L13.1-9.953H14.4ZM19.7-2.01a.753.753,0,0,0-.366-.677,3.89,3.89,0,0,0-1.213-.41,6.238,6.238,0,0,1-1.415-.451,1.889,1.889,0,0,1-1.244-1.743,1.969,1.969,0,0,1,.807-1.6,3.189,3.189,0,0,1,2.051-.643,3.318,3.318,0,0,1,2.143.656,2.082,2.082,0,0,1,.817,1.7H19.619a1.024,1.024,0,0,0-.355-.8,1.362,1.362,0,0,0-.943-.318,1.472,1.472,0,0,0-.892.253.8.8,0,0,0-.345.677.673.673,0,0,0,.321.595,4.418,4.418,0,0,0,1.3.427,6.148,6.148,0,0,1,1.535.513,2.173,2.173,0,0,1,.827.714,1.822,1.822,0,0,1,.27,1.012,1.927,1.927,0,0,1-.827,1.617,3.527,3.527,0,0,1-2.167.619,3.825,3.825,0,0,1-1.62-.328,2.666,2.666,0,0,1-1.107-.9,2.136,2.136,0,0,1-.4-1.237H16.83a1.171,1.171,0,0,0,.444.906,1.727,1.727,0,0,0,1.087.318,1.68,1.68,0,0,0,1-.25A.772.772,0,0,0,19.7-2.01Z" transform="translate(763.162 2465.233)" fill="#1e1e1e"/>
      <g id="Group_1642" data-name="Group 1642" transform="translate(741.403 2401.884)">
        <ellipse id="Ellipse_189" data-name="Ellipse 189" cx="21.713" cy="21.713" rx="21.713" ry="21.713" fill="#b5b5b5"/>
        <path id="Path_528" data-name="Path 528" d="M820.493,596.449l-6.39,12.145-6.39-12.145L814.1,584.3Z" transform="translate(-792.39 -574.996)" fill="#fff"/>
      </g>
    </g>
    <circle id="Ellipse_193" data-name="Ellipse 193" cx="8.17" cy="8.17" r="8.17" transform="translate(1109.249 2368.401)" fill="#f22f6b"/>
    <path id="Path_529" data-name="Path 529" d="M1048.375,456.116c0,96-80.4,96-180.912,96" transform="translate(258.127 1824.453)" fill="none" stroke="#f22f6b" stroke-miterlimit="10" stroke-width="2"/>
    <g id="Group_336" data-name="Group 336" transform="translate(3490.498 3658.096)">
      <g id="Group_328" data-name="Group 328" transform="translate(-2186.162 -1418.152)">
        <g id="Group_327" data-name="Group 327" transform="translate(0 2.446)">
          <path id="Path_616" data-name="Path 616" d="M-2075.911-313.416h-5.018l1.244-2.648h2.531Z" transform="translate(2080.929 317.39)" fill="#939598"/>
          <path id="Path_617" data-name="Path 617" d="M-2063.058-331.227h-2.554l.369-.786a1,1,0,0,1,.908-.563h0a1,1,0,0,1,.908.563Z" transform="translate(2066.843 332.576)" fill="#939598"/>
        </g>
        <rect id="Rectangle_460" data-name="Rectangle 460" width="2.554" height="3.795" transform="translate(1.231 0)" fill="#6d6e71"/>
      </g>
      <rect id="Rectangle_461" data-name="Rectangle 461" width="7.885" height="65.714" transform="translate(-2187.469 -1482.987)" fill="#d1d3d4"/>
      <rect id="Rectangle_462" data-name="Rectangle 462" width="7.814" height="4.194" transform="translate(-2187.4 -1421.467)" fill="#808285"/>
      <rect id="Rectangle_463" data-name="Rectangle 463" width="10.134" height="11.948" transform="translate(-2188.594 -1498.879)" fill="#d1d3d4"/>
      <path id="Path_618" data-name="Path 618" d="M-2101.058-1219.133h-10.134l1.125,3.944h7.885Z" transform="translate(-77.402 -267.798)" fill="#939598"/>
      <path id="Path_619" data-name="Path 619" d="M-2111.192-1498.879h10.134l-2.189-9.174a2.958,2.958,0,0,0-2.878-2.272h0a2.958,2.958,0,0,0-2.877,2.272Z" transform="translate(-77.402)" fill="#d1d3d4"/>
      <g id="Group_329" data-name="Group 329" transform="translate(-2195.355 -1469.944)">
        <path id="Rectangle_464" data-name="Rectangle 464" d="M0,0H7.885a0,0,0,0,1,0,0V29.482a3.942,3.942,0,0,1-3.942,3.942h0A3.942,3.942,0,0,1,0,29.482V0A0,0,0,0,1,0,0Z" transform="translate(0 9.961)" fill="#c6c6c6"/>
        <path id="Path_620" data-name="Path 620" d="M-2195.355-997.726h7.885l-1.7-7.984a2.371,2.371,0,0,0-2.239-1.977h0a2.371,2.371,0,0,0-2.239,1.977Z" transform="translate(2195.355 1007.687)" fill="#939598"/>
      </g>
      <g id="Group_330" data-name="Group 330" transform="translate(-2179.584 -1469.944)">
        <path id="Rectangle_465" data-name="Rectangle 465" d="M0,0H7.885a0,0,0,0,1,0,0V29.482a3.942,3.942,0,0,1-3.942,3.942h0A3.942,3.942,0,0,1,0,29.482V0A0,0,0,0,1,0,0Z" transform="translate(0 9.961)" fill="#c6c6c6"/>
        <path id="Path_621" data-name="Path 621" d="M-1999.05-997.726h7.885l-1.7-7.984a2.37,2.37,0,0,0-2.239-1.977h0a2.37,2.37,0,0,0-2.239,1.977Z" transform="translate(1999.05 1007.687)" fill="#939598"/>
      </g>
      <g id="Group_331" data-name="Group 331" transform="translate(-2190.71 -1423)">
        <path id="Path_622" data-name="Path 622" d="M-2131.05-379.654h-6.482l1.607-6.04h3.268Z" transform="translate(2137.532 388.72)" fill="#414042"/>
        <path id="Path_623" data-name="Path 623" d="M-2114.449-420.281h-3.3l.476-1.793c.208-.782.667-1.285,1.174-1.285h0c.506,0,.965.5,1.173,1.285Z" transform="translate(2119.337 423.359)" fill="#939598"/>
      </g>
      <g id="Group_332" data-name="Group 332" transform="translate(-2194.654 -1430.003)">
        <path id="Path_624" data-name="Path 624" d="M-2180.143-466.825h-6.482l1.607-6.04h3.268Z" transform="translate(2186.625 475.891)" fill="#414042"/>
        <path id="Path_625" data-name="Path 625" d="M-2163.542-507.452h-3.3l.477-1.793c.208-.782.667-1.285,1.173-1.285h0c.506,0,.966.5,1.173,1.285Z" transform="translate(2168.43 510.53)" fill="#939598"/>
      </g>
      <g id="Group_333" data-name="Group 333" transform="translate(-2182.825 -1423)">
        <path id="Path_626" data-name="Path 626" d="M-2032.909-379.654h-6.482l1.607-6.04h3.268Z" transform="translate(2039.39 388.72)" fill="#414042"/>
        <path id="Path_627" data-name="Path 627" d="M-2016.307-420.281h-3.3l.476-1.793c.208-.782.667-1.285,1.173-1.285h0c.506,0,.966.5,1.173,1.285Z" transform="translate(2021.196 423.359)" fill="#939598"/>
      </g>
      <path id="Path_628" data-name="Path 628" d="M-2081.973-1510.325a2.958,2.958,0,0,0-2.878,2.272l-.08.333h5.914l-.08-.333a2.958,2.958,0,0,0-2.877-2.272Z" transform="translate(-101.554)" fill="#f22f6b"/>
      <rect id="Rectangle_466" data-name="Rectangle 466" width="7.885" height="0.738" transform="translate(-2187.469 -1480.48)" fill="#f22f6b"/>
      <rect id="Rectangle_467" data-name="Rectangle 467" width="7.885" height="0.738" transform="translate(-2195.355 -1459.982)" fill="#f22f6b"/>
      <rect id="Rectangle_468" data-name="Rectangle 468" width="7.885" height="0.738" transform="translate(-2179.583 -1459.982)" fill="#f22f6b"/>
      <g id="Group_334" data-name="Group 334" transform="translate(-2178.883 -1430.003)">
        <path id="Path_629" data-name="Path 629" d="M-1983.838-466.825h-6.482l1.607-6.04h3.268Z" transform="translate(1990.32 475.891)" fill="#414042"/>
        <path id="Path_630" data-name="Path 630" d="M-1967.237-507.452h-3.3l.476-1.793c.208-.782.667-1.285,1.173-1.285h0c.506,0,.965.5,1.173,1.285Z" transform="translate(1972.125 510.53)" fill="#939598"/>
      </g>
    </g>
    <g id="Group_247" data-name="Group 247" transform="translate(1288.648 2190.858)">
      <path id="Path_530" data-name="Path 530" d="M1118.94,478.814c0-28.539-10.284-43.021-7.728-55.109,1.443-6.823,13.756-7.446,15.42,0C1129.346,435.854,1118.94,450.4,1118.94,478.814Z" transform="translate(-1101.104 -367.711)" fill="#f22f6b"/>
    </g>
    <circle id="Ellipse_1073" data-name="Ellipse 1073" cx="21.713" cy="21.713" r="21.713" transform="translate(1103.769 2354)" fill="url(#linear-gradient-2)"/>
    <g id="Group_1615" data-name="Group 1615" transform="translate(1109.486 2367.815)">
      <path id="Path_524-2" data-name="Path 524" d="M1127.339,306.536c-3.066,0-5.167,1.915-6.984,4.288l1.077,1.573c1.664-2.276,3.432-4.067,5.906-4.067a5.7,5.7,0,0,1,5.644,4.75h-7.058v1.794h8.885a7.355,7.355,0,0,0,.055-.9,7.492,7.492,0,0,0-7.526-7.441" transform="translate(-1103.612 -306.536)" fill="#fff" fill-rule="evenodd"/>
      <path id="Path_525-2" data-name="Path 525" d="M1127.9,319.624c-3.027,0-5.024-2.614-7.56-6.451s-4.929-6.637-8.641-6.637a7.441,7.441,0,1,0,0,14.882c3.06,0,5.16-1.909,6.974-4.276l-1.069-1.583c-1.663,2.275-3.431,4.065-5.905,4.065a5.647,5.647,0,1,1,0-11.294c3.027,0,4.916,2.481,7.555,6.443s4.934,6.644,8.646,6.644a7.537,7.537,0,0,0,7.017-4.749h-1.992a5.736,5.736,0,0,1-5.025,2.955" transform="translate(-1104.172 -306.536)" fill="#fff" fill-rule="evenodd"/>
    </g>
    <path id="Path_2960" data-name="Path 2960" d="M-20.665,0h-1.654V-8l-2.44.832V-8.559l3.883-1.429h.212Zm7.957,0h-1.654V-8l-2.44.832V-8.559l3.883-1.429h.212Zm8.627-10v1.374h-.205a3.3,3.3,0,0,0-2.229.766,3.2,3.2,0,0,0-.991,2.112A2.7,2.7,0,0,1-5.462-6.59a2.548,2.548,0,0,1,2.082.93,3.662,3.662,0,0,1,.762,2.4A3.423,3.423,0,0,1-3.51-.8a3.079,3.079,0,0,1-2.341.94,3.008,3.008,0,0,1-2.417-1.1,4.329,4.329,0,0,1-.926-2.885v-.567a6.092,6.092,0,0,1,1.275-4.1A4.571,4.571,0,0,1-4.252-10ZM-5.865-5.25a1.749,1.749,0,0,0-1,.308,1.8,1.8,0,0,0-.667.82v.506a2.98,2.98,0,0,0,.465,1.76,1.418,1.418,0,0,0,1.2.653A1.4,1.4,0,0,0-4.7-1.757a2.306,2.306,0,0,0,.431-1.456A2.339,2.339,0,0,0-4.7-4.683,1.4,1.4,0,0,0-5.865-5.25ZM4.382-9.194v1.8H5.688v1.23H4.382v4.129a.909.909,0,0,0,.167.612.777.777,0,0,0,.6.188,2.559,2.559,0,0,0,.581-.068V-.021A4.091,4.091,0,0,1,4.635.137q-1.914,0-1.914-2.112v-4.19H1.5V-7.4H2.721v-1.8ZM9.611-4.963,11.02-7.4h1.846L10.6-3.753,12.94,0H11.108L9.632-2.529,8.162,0H6.316L8.654-3.753,6.4-7.4H8.23ZM14.465.854H13.159L17.076-9.953h1.306ZM23.68-2.01a.753.753,0,0,0-.366-.677A3.89,3.89,0,0,0,22.1-3.1a6.238,6.238,0,0,1-1.415-.451,1.889,1.889,0,0,1-1.244-1.743,1.969,1.969,0,0,1,.807-1.6A3.189,3.189,0,0,1,22.3-7.533a3.318,3.318,0,0,1,2.143.656,2.082,2.082,0,0,1,.817,1.7H23.6a1.024,1.024,0,0,0-.355-.8,1.362,1.362,0,0,0-.943-.318,1.472,1.472,0,0,0-.892.253.8.8,0,0,0-.345.677.673.673,0,0,0,.321.595,4.418,4.418,0,0,0,1.3.427,6.148,6.148,0,0,1,1.535.513,2.173,2.173,0,0,1,.827.714,1.822,1.822,0,0,1,.27,1.012,1.927,1.927,0,0,1-.827,1.617,3.527,3.527,0,0,1-2.167.619A3.825,3.825,0,0,1,20.7-.191a2.666,2.666,0,0,1-1.107-.9,2.136,2.136,0,0,1-.4-1.237h1.613a1.171,1.171,0,0,0,.444.906,1.727,1.727,0,0,0,1.087.318,1.68,1.68,0,0,0,1-.25A.772.772,0,0,0,23.68-2.01Z" transform="translate(1125.162 2418.233)" fill="#1e1e1e"/>
    <g id="Group_1645" data-name="Group 1645" transform="translate(677.89 2445.616)">
      <path id="Path_2958" data-name="Path 2958" d="M-10.582-9.03-14.561,0H-16.3l3.972-8.62h-5.147V-9.953h6.9Zm7.007-.164v1.8H-2.27v1.23H-3.575v4.129a.909.909,0,0,0,.167.612.777.777,0,0,0,.6.188,2.559,2.559,0,0,0,.581-.068V-.021A4.091,4.091,0,0,1-3.322.137q-1.914,0-1.914-2.112v-4.19H-6.453V-7.4h1.217v-1.8ZM1.654-4.963,3.063-7.4H4.908L2.646-3.753,4.983,0H3.151L1.675-2.529.205,0H-1.641L.7-3.753-1.559-7.4H.273ZM6.508.854H5.2L9.119-9.953h1.306ZM15.723-2.01a.753.753,0,0,0-.366-.677,3.89,3.89,0,0,0-1.213-.41,6.238,6.238,0,0,1-1.415-.451,1.889,1.889,0,0,1-1.244-1.743,1.969,1.969,0,0,1,.807-1.6,3.189,3.189,0,0,1,2.051-.643,3.318,3.318,0,0,1,2.143.656,2.082,2.082,0,0,1,.817,1.7H15.641a1.024,1.024,0,0,0-.355-.8,1.362,1.362,0,0,0-.943-.318,1.472,1.472,0,0,0-.892.253.8.8,0,0,0-.345.677.673.673,0,0,0,.321.595,4.418,4.418,0,0,0,1.3.427,6.148,6.148,0,0,1,1.535.513,2.173,2.173,0,0,1,.827.714,1.822,1.822,0,0,1,.27,1.012,1.927,1.927,0,0,1-.827,1.617,3.527,3.527,0,0,1-2.167.619,3.825,3.825,0,0,1-1.62-.328,2.666,2.666,0,0,1-1.107-.9,2.136,2.136,0,0,1-.4-1.237h1.613a1.17,1.17,0,0,0,.444.906,1.727,1.727,0,0,0,1.087.318,1.68,1.68,0,0,0,1-.25A.772.772,0,0,0,15.723-2.01Z" transform="translate(28.187 70.396)" fill="#1e1e1e"/>
      <g id="Group_1643" data-name="Group 1643" transform="matrix(0.966, 0.259, -0.259, 0.966, 11.239, 0)">
        <circle id="Ellipse_190" data-name="Ellipse 190" cx="21.713" cy="21.713" r="21.713" fill="#ff9500"/>
        <text id="_" data-name="₿" transform="translate(14.186 29.504)" fill="#fff" font-size="22" font-family="MicrosoftSansSerif, Microsoft Sans Serif"><tspan x="0" y="0">₿</tspan></text>
      </g>
    </g>
  </g>
</svg>
