<svg xmlns="http://www.w3.org/2000/svg" xmlns:xlink="http://www.w3.org/1999/xlink" width="958.176" height="521" viewBox="0 0 958.176 521">
  <defs>
    <linearGradient id="linear-gradient" y1="0.5" x2="1" y2="0.5" gradientUnits="objectBoundingBox">
      <stop offset="0.21" stop-color="#f22f6b" stop-opacity="0"/>
      <stop offset="0.377" stop-color="#f22f6b" stop-opacity="0.012"/>
      <stop offset="0.485" stop-color="#f22f6b" stop-opacity="0.047"/>
      <stop offset="0.577" stop-color="#f22f6b" stop-opacity="0.11"/>
      <stop offset="0.66" stop-color="#f22f6b" stop-opacity="0.196"/>
      <stop offset="0.737" stop-color="#f22f6b" stop-opacity="0.31"/>
      <stop offset="0.809" stop-color="#f22f6b" stop-opacity="0.447"/>
      <stop offset="0.877" stop-color="#f22f6b" stop-opacity="0.612"/>
      <stop offset="0.941" stop-color="#f22f6b" stop-opacity="0.8"/>
      <stop offset="1" stop-color="#f22f6b"/>
    </linearGradient>
    <linearGradient id="linear-gradient-2" y1="0.5" x2="1" y2="0.5" gradientUnits="objectBoundingBox">
      <stop offset="0.279" stop-color="#f22f6b"/>
      <stop offset="0.898" stop-color="#f22f6b"/>
      <stop offset="1" stop-color="#f22f6b"/>
    </linearGradient>
    <linearGradient id="linear-gradient-3" x1="0" y1="0.5" x2="1" y2="0.5" xlink:href="#linear-gradient"/>
    <clipPath id="clip-path">
      <circle id="Ellipse_192" data-name="Ellipse 192" cx="13.32" cy="13.32" r="13.32" fill="none"/>
    </clipPath>
    <clipPath id="clip-path-2">
      <circle id="Ellipse_191" data-name="Ellipse 191" cx="14.734" cy="14.734" r="14.734" fill="none"/>
    </clipPath>
  </defs>
  <g id="Group_1641" data-name="Group 1641" transform="translate(-480 -2079)">
    <text id="There_s_plenty_of_ro" data-name="There’s plenty of ro" transform="translate(900.5 2596)" font-size="16" font-family="Roboto-Regular, Roboto"><tspan x="-77.652" y="0">On-chain transactions</tspan></text>
    <path id="Path_537" data-name="Path 537" d="M1181.088,661.139s-9.615-15.262-9.615-48.565c0-144.464,23.089-246.987-26.673-246.987H979.945V956.693H1144.8c50.124,0,26.6-104.194,26.6-250.136C1171.4,673.427,1181.088,661.139,1181.088,661.139Z" transform="translate(1558.348 1395.895) rotate(90)" fill="url(#linear-gradient)"/>
    <circle id="Ellipse_188" data-name="Ellipse 188" cx="21.713" cy="21.713" r="21.713" transform="translate(1284.769 2079)" fill="url(#linear-gradient-2)"/>
    <g id="Group_236" data-name="Group 236" transform="translate(1291.486 2092.815)">
      <path id="Path_524" data-name="Path 524" d="M1127.339,306.536c-3.066,0-5.167,1.915-6.984,4.288l1.077,1.573c1.664-2.276,3.432-4.067,5.906-4.067a5.7,5.7,0,0,1,5.644,4.75h-7.058v1.794h8.885a7.355,7.355,0,0,0,.055-.9,7.492,7.492,0,0,0-7.526-7.441" transform="translate(-1103.612 -306.536)" fill="#fff" fill-rule="evenodd"/>
      <path id="Path_525" data-name="Path 525" d="M1127.9,319.624c-3.027,0-5.024-2.614-7.56-6.451s-4.929-6.637-8.641-6.637a7.441,7.441,0,1,0,0,14.882c3.06,0,5.16-1.909,6.974-4.276l-1.069-1.583c-1.663,2.275-3.431,4.065-5.905,4.065a5.647,5.647,0,1,1,0-11.294c3.027,0,4.916,2.481,7.555,6.443s4.934,6.644,8.646,6.644a7.537,7.537,0,0,0,7.017-4.749h-1.992a5.736,5.736,0,0,1-5.025,2.955" transform="translate(-1104.172 -306.536)" fill="#fff" fill-rule="evenodd"/>
    </g>
    <path id="Path_526" data-name="Path 526" d="M1259.049,461.316s-9.355-4.943-9.355-15.73c0-46.791,22.465-80-25.952-80H867.463V557.045h356.28c48.768,0,25.877-33.748,25.877-81.019C1249.62,465.3,1259.049,461.316,1259.049,461.316Z" transform="translate(179.127 1821.322)" fill="url(#linear-gradient-3)"/>
    <text id="No_limit_for_off-chain_tx_s" data-name="No limit for off-chain tx/s" transform="translate(1306.858 2140.511)" fill="#1e1e1e" font-size="14" font-family="Roboto-Medium, Roboto" font-weight="500"><tspan x="-79.129" y="0">No limit for off-chain tx/s</tspan></text>
    <g id="Group_1644" data-name="Group 1644">
      <line id="Line_227" data-name="Line 227" y2="261.928" transform="translate(623.585 2251.335)" fill="none" stroke="#dcdcdc" stroke-miterlimit="10" stroke-width="1"/>
      <line id="Line_228" data-name="Line 228" y2="261.928" transform="translate(778.284 2251.335)" fill="none" stroke="#dcdcdc" stroke-miterlimit="10" stroke-width="1"/>
      <line id="Line_229" data-name="Line 229" y2="261.928" transform="translate(932.984 2251.335)" fill="none" stroke="#dcdcdc" stroke-miterlimit="10" stroke-width="1"/>
      <line id="Line_230" data-name="Line 230" y2="261.928" transform="translate(1033.683 2251.335)" fill="none" stroke="#dcdcdc" stroke-miterlimit="10" stroke-width="1"/>
      <path id="Path_2947" data-name="Path 2947" d="M0,261.928" transform="translate(1242.383 2251.335)" fill="none" stroke="#dcdcdc" stroke-width="1"/>
      <line id="Line_577" data-name="Line 577" y2="261.928" transform="translate(1048.62 2251.335)" fill="none" stroke="#dcdcdc" stroke-miterlimit="10" stroke-width="1"/>
      <line id="Line_578" data-name="Line 578" y2="261.928" transform="translate(1173.794 2251.335)" fill="none" stroke="#dcdcdc" stroke-miterlimit="10" stroke-width="1"/>
      <line id="Line_579" data-name="Line 579" y2="261.928" transform="translate(932.984 2251.335)" fill="none" stroke="#dcdcdc" stroke-miterlimit="10" stroke-width="1"/>
      <line id="Line_580" data-name="Line 580" y2="261.928" transform="translate(990.449 2251.335)" fill="none" stroke="#dcdcdc" stroke-miterlimit="10" stroke-width="1"/>
      <line id="Line_581" data-name="Line 581" y2="261.928" transform="translate(1019.706 2251.335)" fill="none" stroke="#dcdcdc" stroke-miterlimit="10" stroke-width="1"/>
    </g>
    <path id="Path_2945" data-name="Path 2945" d="M115.391,0H0" transform="translate(571.32 2472.128)" fill="none" stroke="#ff9500" stroke-width="2"/>
    <path id="Path_2944" data-name="Path 2944" d="M188.984,0H0" transform="translate(571.32 2424.036)" fill="none" stroke="#b5b5b5" stroke-width="2"/>
    <path id="Path_2946" data-name="Path 2946" d="M602.454,0H64.525" transform="translate(506.795 2375.943)" fill="none" stroke="#f22f6b" stroke-width="2"/>
    <rect id="Rectangle_380" data-name="Rectangle 380" width="96.184" height="20.362" transform="translate(480 2366.478)" fill="#f22f6b"/>
    <rect id="Rectangle_381" data-name="Rectangle 381" width="96.184" height="20.362" transform="translate(480 2415.156)" fill="#b5b5b5"/>
    <rect id="Rectangle_382" data-name="Rectangle 382" width="96.184" height="20.362" transform="translate(480 2463.248)" fill="#ff9500"/>
    <text id="æternity" transform="translate(484.864 2368.544)" fill="#fff" font-size="13.076" font-family="Roboto-Regular, Roboto"><tspan x="19.473" y="12">æternity</tspan></text>
    <text id="Ethereum" transform="translate(484.864 2417.222)" fill="#fff" font-size="13.076" font-family="Roboto-Regular, Roboto"><tspan x="15.361" y="12">Ethereum</tspan></text>
    <text id="Bitcoin" transform="translate(484.864 2465.314)" fill="#fff" font-size="13.076" font-family="Roboto-Regular, Roboto"><tspan x="23.09" y="12">Bitcoin</tspan></text>
    <g id="Group_1646" data-name="Group 1646" transform="translate(16)">
      <text id="_15_tx_s" data-name="15 tx/s" transform="translate(763.162 2465.233)" fill="#1e1e1e" font-size="14" font-family="Roboto-Medium, Roboto" font-weight="500"><tspan x="-21.93" y="0">15 tx/s</tspan></text>
      <g id="Group_1642" data-name="Group 1642" transform="translate(741.403 2401.884)">
        <ellipse id="Ellipse_189" data-name="Ellipse 189" cx="21.713" cy="21.713" rx="21.713" ry="21.713" fill="#b5b5b5"/>
        <path id="Path_528" data-name="Path 528" d="M820.493,596.449l-6.39,12.145-6.39-12.145L814.1,584.3Z" transform="translate(-792.39 -574.996)" fill="#fff"/>
      </g>
    </g>
    <circle id="Ellipse_193" data-name="Ellipse 193" cx="8.17" cy="8.17" r="8.17" transform="translate(1109.249 2368.401)" fill="#f22f6b"/>
    <path id="Path_529" data-name="Path 529" d="M1048.375,456.116c0,96-80.4,96-180.912,96" transform="translate(258.127 1824.453)" fill="none" stroke="#f22f6b" stroke-miterlimit="10" stroke-width="2"/>
    <g id="Group_336" data-name="Group 336" transform="translate(3490.498 3658.096)">
      <g id="Group_328" data-name="Group 328" transform="translate(-2186.162 -1418.152)">
        <g id="Group_327" data-name="Group 327" transform="translate(0 2.446)">
          <path id="Path_616" data-name="Path 616" d="M-2075.911-313.416h-5.018l1.244-2.648h2.531Z" transform="translate(2080.929 317.39)" fill="#939598"/>
          <path id="Path_617" data-name="Path 617" d="M-2063.058-331.227h-2.554l.369-.786a1,1,0,0,1,.908-.563h0a1,1,0,0,1,.908.563Z" transform="translate(2066.843 332.576)" fill="#939598"/>
        </g>
        <rect id="Rectangle_460" data-name="Rectangle 460" width="2.554" height="3.795" transform="translate(1.231 0)" fill="#6d6e71"/>
      </g>
      <rect id="Rectangle_461" data-name="Rectangle 461" width="7.885" height="65.714" transform="translate(-2187.469 -1482.987)" fill="#d1d3d4"/>
      <rect id="Rectangle_462" data-name="Rectangle 462" width="7.814" height="4.194" transform="translate(-2187.4 -1421.467)" fill="#808285"/>
      <rect id="Rectangle_463" data-name="Rectangle 463" width="10.134" height="11.948" transform="translate(-2188.594 -1498.879)" fill="#d1d3d4"/>
      <path id="Path_618" data-name="Path 618" d="M-2101.058-1219.133h-10.134l1.125,3.944h7.885Z" transform="translate(-77.402 -267.798)" fill="#939598"/>
      <path id="Path_619" data-name="Path 619" d="M-2111.192-1498.879h10.134l-2.189-9.174a2.958,2.958,0,0,0-2.878-2.272h0a2.958,2.958,0,0,0-2.877,2.272Z" transform="translate(-77.402)" fill="#d1d3d4"/>
      <g id="Group_329" data-name="Group 329" transform="translate(-2195.355 -1469.944)">
        <path id="Rectangle_464" data-name="Rectangle 464" d="M0,0H7.885a0,0,0,0,1,0,0V29.482a3.942,3.942,0,0,1-3.942,3.942h0A3.942,3.942,0,0,1,0,29.482V0A0,0,0,0,1,0,0Z" transform="translate(0 9.961)" fill="#c6c6c6"/>
        <path id="Path_620" data-name="Path 620" d="M-2195.355-997.726h7.885l-1.7-7.984a2.371,2.371,0,0,0-2.239-1.977h0a2.371,2.371,0,0,0-2.239,1.977Z" transform="translate(2195.355 1007.687)" fill="#939598"/>
      </g>
      <g id="Group_330" data-name="Group 330" transform="translate(-2179.584 -1469.944)">
        <path id="Rectangle_465" data-name="Rectangle 465" d="M0,0H7.885a0,0,0,0,1,0,0V29.482a3.942,3.942,0,0,1-3.942,3.942h0A3.942,3.942,0,0,1,0,29.482V0A0,0,0,0,1,0,0Z" transform="translate(0 9.961)" fill="#c6c6c6"/>
        <path id="Path_621" data-name="Path 621" d="M-1999.05-997.726h7.885l-1.7-7.984a2.37,2.37,0,0,0-2.239-1.977h0a2.37,2.37,0,0,0-2.239,1.977Z" transform="translate(1999.05 1007.687)" fill="#939598"/>
      </g>
      <g id="Group_331" data-name="Group 331" transform="translate(-2190.71 -1423)">
        <path id="Path_622" data-name="Path 622" d="M-2131.05-379.654h-6.482l1.607-6.04h3.268Z" transform="translate(2137.532 388.72)" fill="#414042"/>
        <path id="Path_623" data-name="Path 623" d="M-2114.449-420.281h-3.3l.476-1.793c.208-.782.667-1.285,1.174-1.285h0c.506,0,.965.5,1.173,1.285Z" transform="translate(2119.337 423.359)" fill="#939598"/>
      </g>
      <g id="Group_332" data-name="Group 332" transform="translate(-2194.654 -1430.003)">
        <path id="Path_624" data-name="Path 624" d="M-2180.143-466.825h-6.482l1.607-6.04h3.268Z" transform="translate(2186.625 475.891)" fill="#414042"/>
        <path id="Path_625" data-name="Path 625" d="M-2163.542-507.452h-3.3l.477-1.793c.208-.782.667-1.285,1.173-1.285h0c.506,0,.966.5,1.173,1.285Z" transform="translate(2168.43 510.53)" fill="#939598"/>
      </g>
      <g id="Group_333" data-name="Group 333" transform="translate(-2182.825 -1423)">
        <path id="Path_626" data-name="Path 626" d="M-2032.909-379.654h-6.482l1.607-6.04h3.268Z" transform="translate(2039.39 388.72)" fill="#414042"/>
        <path id="Path_627" data-name="Path 627" d="M-2016.307-420.281h-3.3l.476-1.793c.208-.782.667-1.285,1.173-1.285h0c.506,0,.966.5,1.173,1.285Z" transform="translate(2021.196 423.359)" fill="#939598"/>
      </g>
      <path id="Path_628" data-name="Path 628" d="M-2081.973-1510.325a2.958,2.958,0,0,0-2.878,2.272l-.08.333h5.914l-.08-.333a2.958,2.958,0,0,0-2.877-2.272Z" transform="translate(-101.554)" fill="#f22f6b"/>
      <rect id="Rectangle_466" data-name="Rectangle 466" width="7.885" height="0.738" transform="translate(-2187.469 -1480.48)" fill="#f22f6b"/>
      <rect id="Rectangle_467" data-name="Rectangle 467" width="7.885" height="0.738" transform="translate(-2195.355 -1459.982)" fill="#f22f6b"/>
      <rect id="Rectangle_468" data-name="Rectangle 468" width="7.885" height="0.738" transform="translate(-2179.583 -1459.982)" fill="#f22f6b"/>
      <g id="Group_334" data-name="Group 334" transform="translate(-2178.883 -1430.003)">
        <path id="Path_629" data-name="Path 629" d="M-1983.838-466.825h-6.482l1.607-6.04h3.268Z" transform="translate(1990.32 475.891)" fill="#414042"/>
        <path id="Path_630" data-name="Path 630" d="M-1967.237-507.452h-3.3l.476-1.793c.208-.782.667-1.285,1.173-1.285h0c.506,0,.965.5,1.173,1.285Z" transform="translate(1972.125 510.53)" fill="#939598"/>
      </g>
    </g>
    <g id="Group_247" data-name="Group 247" transform="translate(1288.648 2190.858)">
      <path id="Path_530" data-name="Path 530" d="M1118.94,478.814c0-28.539-10.284-43.021-7.728-55.109,1.443-6.823,13.756-7.446,15.42,0C1129.346,435.854,1118.94,450.4,1118.94,478.814Z" transform="translate(-1101.104 -367.711)" fill="#f22f6b"/>
    </g>
    <g id="Group_1648" data-name="Group 1648" transform="translate(-16)">
      <g id="Group_1647" data-name="Group 1647">
        <circle id="Ellipse_1073" data-name="Ellipse 1073" cx="21.713" cy="21.713" r="21.713" transform="translate(1103.769 2354)" fill="url(#linear-gradient-2)"/>
        <g id="Group_1615" data-name="Group 1615" transform="translate(1109.486 2367.815)">
          <path id="Path_524-2" data-name="Path 524" d="M1127.339,306.536c-3.066,0-5.167,1.915-6.984,4.288l1.077,1.573c1.664-2.276,3.432-4.067,5.906-4.067a5.7,5.7,0,0,1,5.644,4.75h-7.058v1.794h8.885a7.355,7.355,0,0,0,.055-.9,7.492,7.492,0,0,0-7.526-7.441" transform="translate(-1103.612 -306.536)" fill="#fff" fill-rule="evenodd"/>
          <path id="Path_525-2" data-name="Path 525" d="M1127.9,319.624c-3.027,0-5.024-2.614-7.56-6.451s-4.929-6.637-8.641-6.637a7.441,7.441,0,1,0,0,14.882c3.06,0,5.16-1.909,6.974-4.276l-1.069-1.583c-1.663,2.275-3.431,4.065-5.905,4.065a5.647,5.647,0,1,1,0-11.294c3.027,0,4.916,2.481,7.555,6.443s4.934,6.644,8.646,6.644a7.537,7.537,0,0,0,7.017-4.749h-1.992a5.736,5.736,0,0,1-5.025,2.955" transform="translate(-1104.172 -306.536)" fill="#fff" fill-rule="evenodd"/>
        </g>
      </g>
      <text id="_116_tx_s" data-name="116 tx/s" transform="translate(1125.162 2418.233)" fill="#1e1e1e" font-size="14" font-family="Roboto-Medium, Roboto" font-weight="500"><tspan x="-25.908" y="0">116 tx/s</tspan></text>
    </g>
    <g id="Group_1645" data-name="Group 1645" transform="translate(677.89 2445.616)">
      <text id="_7_tx_s" data-name="7 tx/s" transform="translate(28.187 70.396)" fill="#1e1e1e" font-size="14" font-family="Roboto-Medium, Roboto" font-weight="500"><tspan x="-17.951" y="0">7 tx/s</tspan></text>
      <g id="Group_1643" data-name="Group 1643" transform="matrix(0.966, 0.259, -0.259, 0.966, 11.239, 0)">
        <circle id="Ellipse_190" data-name="Ellipse 190" cx="21.713" cy="21.713" r="21.713" fill="#ff9500"/>
        <text id="_" data-name="₿" transform="translate(14.186 29.504)" fill="#fff" font-size="22" font-family="MicrosoftSansSerif, Microsoft Sans Serif"><tspan x="0" y="0">₿</tspan></text>
      </g>
    </g>
  </g>
</svg>
