<svg xmlns="http://www.w3.org/2000/svg" width="19.922" height="19.922" viewBox="0 0 19.922 19.922"><path d="M-2177.68,3470.29a9.961,9.961,0,0,0-9.961,9.961,9.961,9.961,0,0,0,9.961,9.961,9.961,9.961,0,0,0,9.961-9.961A9.961,9.961,0,0,0-2177.68,3470.29Zm3.437,5.35v.108h-.113c-.457,0-.914,0-1.371.019a2.19,2.19,0,0,0-.469.073.75.75,0,0,0-.556.606,2.491,2.491,0,0,0-.065.522c-.008.517,0,1.034,0,1.551v.062h2.486c-.109.848-.217,1.682-.326,2.524h-2.165v6.385h-2.608v-6.38h-2.168v-2.52h2.168v-1.845a3.979,3.979,0,0,1,.256-1.509,2.8,2.8,0,0,1,1.99-1.714,5.271,5.271,0,0,1,1.574-.112c.422.016.844.052,1.266.076.08,0,.1.033.1.113,0,.681,0,1.361,0,2.041Z" transform="translate(2187.641 -3470.29)" fill="#828282"/></svg>