<svg xmlns="http://www.w3.org/2000/svg" width="19.922" height="19.922" viewBox="0 0 19.922 19.922"><path d="M-3638.8,3459.43a9.961,9.961,0,0,0-9.961,9.961,9.961,9.961,0,0,0,9.961,9.961,9.961,9.961,0,0,0,9.961-9.961A9.961,9.961,0,0,0-3638.8,3459.43Zm-2.946,14.9c-.061.016-2.191.02-2.294,0V3467.4h2.288c.022.065.022,6.785.012,6.925Zm-.785-7.914c-.12.025-.243.033-.365.049a1.466,1.466,0,0,1-.636-.147,1.128,1.128,0,0,1-.648-1.024,1.165,1.165,0,0,1,1.037-1.215,1.612,1.612,0,0,1,.708.038,1.163,1.163,0,0,1,.85,1.157,1.157,1.157,0,0,1-.945,1.146Zm9.112,7.818v.1h-2.307v-3.714a2.593,2.593,0,0,0-.1-.748,1.367,1.367,0,0,0-.166-.366.968.968,0,0,0-.706-.437,1.334,1.334,0,0,0-.468.014,1.109,1.109,0,0,0-.528.263,1.276,1.276,0,0,0-.458.913c0,.075-.008.151-.008.227v3.846h-2.307c.006-2.31.029-4.615,0-6.919.063-.018,2.184-.023,2.3,0v.945c.042-.016.052-.046.068-.069a2.652,2.652,0,0,1,.5-.554,2.119,2.119,0,0,1,1.016-.454,2.931,2.931,0,0,1,1.467.114,2.308,2.308,0,0,1,1.385,1.313,3.373,3.373,0,0,1,.269,1.054q.033.36.033.722c.019,1.251.009,2.5.009,3.751Z" transform="translate(3648.761 -3459.43)" fill="#828282"/></svg>