<svg xmlns="http://www.w3.org/2000/svg" width="12.902" height="17.223" viewBox="0 0 12.902 17.223">
  <path id="Path_693" data-name="Path 693" d="M1438.312-851.227a6.452,6.452,0,0,0-6.7-6.447,6.478,6.478,0,0,0-6.2,6.251,6.424,6.424,0,0,0,.921,3.523l0,0,4.877,7.1a.792.792,0,0,0,1.306,0l4.967-7.232-.012-.008A6.418,6.418,0,0,0,1438.312-851.227Zm-6.451,2.688a2.676,2.676,0,0,1-2.676-2.676,2.676,2.676,0,0,1,2.676-2.676,2.676,2.676,0,0,1,2.676,2.676A2.676,2.676,0,0,1,1431.861-848.54Z" transform="translate(-1425.41 857.679)" fill="#f7296e"/>
</svg>
