<svg xmlns="http://www.w3.org/2000/svg" width="20" height="20" viewBox="0 0 20 20"><path d="M18.659,5.1a10.088,10.088,0,0,0-3.64-3.73A9.581,9.581,0,0,0,10,0,9.6,9.6,0,0,0,4.98,1.375,10.086,10.086,0,0,0,1.341,5.1,10.218,10.218,0,0,0,0,10.25a10.135,10.135,0,0,0,1.907,6.026,9.82,9.82,0,0,0,4.929,3.7.57.57,0,0,0,.52-.092.529.529,0,0,0,.169-.4l-.005-.721q-.008-.68-.008-1.188l-.3.054a3.626,3.626,0,0,1-.722.047,5.334,5.334,0,0,1-.9-.094,1.992,1.992,0,0,1-.873-.4,1.689,1.689,0,0,1-.573-.821l-.13-.307a3.347,3.347,0,0,0-.41-.681,1.6,1.6,0,0,0-.566-.508L2.942,14.8a.982.982,0,0,1-.169-.161.71.71,0,0,1-.118-.187.115.115,0,0,1,.065-.154.822.822,0,0,1,.378-.06l.261.041A1.889,1.889,0,0,1,4,14.6a2.15,2.15,0,0,1,.631.694,2.34,2.34,0,0,0,.722.834,1.512,1.512,0,0,0,.854.286,3.688,3.688,0,0,0,.742-.066,2.605,2.605,0,0,0,.586-.2,2.187,2.187,0,0,1,.637-1.375,8.681,8.681,0,0,1-1.334-.241,5.193,5.193,0,0,1-1.224-.521A3.529,3.529,0,0,1,4.57,13.12a4.341,4.341,0,0,1-.683-1.4,6.8,6.8,0,0,1-.267-2,3.952,3.952,0,0,1,1.028-2.75A3.667,3.667,0,0,1,4.74,4.245a1.781,1.781,0,0,1,1.12.18,7.843,7.843,0,0,1,1.087.513c.23.143.415.263.553.361a9.174,9.174,0,0,1,5,0l.5-.32a6.893,6.893,0,0,1,1.2-.587,1.673,1.673,0,0,1,1.055-.147,3.637,3.637,0,0,1,.1,2.723,3.945,3.945,0,0,1,1.028,2.749,6.893,6.893,0,0,1-.266,2.008,4.136,4.136,0,0,1-.689,1.4,3.661,3.661,0,0,1-1.055.888,5.229,5.229,0,0,1-1.224.52,8.671,8.671,0,0,1-1.334.242,2.409,2.409,0,0,1,.677,1.894v2.816a.542.542,0,0,0,.163.4.555.555,0,0,0,.514.093,9.816,9.816,0,0,0,4.929-3.7A10.124,10.124,0,0,0,20,10.25,10.242,10.242,0,0,0,18.659,5.1Z" fill="#828282"/></svg>