<svg xmlns="http://www.w3.org/2000/svg" width="20.099" height="20.099" viewBox="0 0 20.099 20.099"><path d="M-623.108,12178.312a10.06,10.06,0,0,1-10.049-10.049,10.061,10.061,0,0,1,10.049-10.05,10.061,10.061,0,0,1,10.049,10.05A10.06,10.06,0,0,1-623.108,12178.312Zm-6.98-4.013h0a9.087,9.087,0,0,0,4.911,1.438h.006a9.043,9.043,0,0,0,9.132-9.13c0-.146,0-.286-.009-.415a6.519,6.519,0,0,0,1.6-1.663,6.561,6.561,0,0,1-1.843.5,3.224,3.224,0,0,0,1.412-1.776,6.379,6.379,0,0,1-2.039.779,3.229,3.229,0,0,0-2.344-1.015,3.237,3.237,0,0,0-1.516.379,3.221,3.221,0,0,0-1.611,3.564,9.12,9.12,0,0,1-6.614-3.354,3.2,3.2,0,0,0-.437,1.611,3.21,3.21,0,0,0,1.43,2.674,3.233,3.233,0,0,1-1.455-.4v.04a3.221,3.221,0,0,0,2.576,3.147,3.141,3.141,0,0,1-.844.113,3.167,3.167,0,0,1-.605-.058,3.211,3.211,0,0,0,3,2.23,6.46,6.46,0,0,1-3.976,1.373h-.009A7.358,7.358,0,0,1-630.088,12174.3Z" transform="translate(633.157 -12158.213)" fill="#828282"/></svg>