<svg xmlns="http://www.w3.org/2000/svg" width="77.028" height="67.671" viewBox="0 0 77.028 67.671"><path d="M59.431,64.671a1.989,1.989,0,0,1-1.175-.386L41.112,51.79a2.83,2.83,0,0,0-3.457.094l-9.505,7.783a1.972,1.972,0,0,1-1.261.453A2.007,2.007,0,0,1,24.962,58.7l-6.6-21.306L1.306,31a2.02,2.02,0,0,1-.019-3.772L71.275.131a2.029,2.029,0,0,1,2.031.352,1.988,1.988,0,0,1,.659,1.939L61.409,63.062A2.007,2.007,0,0,1,59.431,64.671Zm-1.894-51.38a.59.59,0,0,0-.311.093L23.9,33.992A3.4,3.4,0,0,0,22.43,37.78l3.6,12.715a.861.861,0,0,0,1.682-.123L28.65,43.4a5.733,5.733,0,0,1,1.768-3.423L57.93,14.308a.561.561,0,0,0,.147-.635A.6.6,0,0,0,57.538,13.291Z" transform="translate(1.5 1.5)" fill="none" stroke="#f7296e" stroke-width="3"/></svg>