<svg xmlns="http://www.w3.org/2000/svg" width="82.954" height="73.346" viewBox="0 0 82.954 73.346"><g transform="translate(1557.962 -489.976)"><path d="M-1444.382,587.847l7.761-7.6-7.6-7.761-2.969,2.908.892.911,3.8,3.88-4.791,4.689Z" transform="translate(-95.466 -45.927)" fill="#f7296e"/><rect width="13.945" height="4.158" transform="translate(-1530.278 537.339)" fill="#f7296e"/><path d="M-1484.721,489.976h-63.528a9.725,9.725,0,0,0-9.714,9.713v53.92a9.725,9.725,0,0,0,9.714,9.713h63.528a9.725,9.725,0,0,0,9.713-9.713v-53.92A9.724,9.724,0,0,0-1484.721,489.976Zm-69.217,22.909h74.9v40.722a5.694,5.694,0,0,1-5.688,5.687h-63.528a5.694,5.694,0,0,1-5.688-5.687Zm74.9-4.026h-74.9v-9.169A5.694,5.694,0,0,1-1548.25,494h63.528a5.694,5.694,0,0,1,5.688,5.688Z" transform="translate(0)" fill="#f7296e"/><path d="M-1507.339,510.942a2.237,2.237,0,0,0-2.234,2.235,2.237,2.237,0,0,0,2.234,2.234,2.237,2.237,0,0,0,2.235-2.234,2.238,2.238,0,0,0-2.235-2.235Z" transform="translate(14.743 -12.538)" fill="#f7296e"/><path d="M-1536.889,510.85a2.237,2.237,0,0,0-2.234,2.234,2.237,2.237,0,0,0,2.234,2.235,2.237,2.237,0,0,0,2.235-2.235A2.236,2.236,0,0,0-1536.889,510.85Z" transform="translate(36.401 -12.487)" fill="#f7296e"/><path d="M-1477.789,511.034a2.237,2.237,0,0,0-2.234,2.235,2.237,2.237,0,0,0,2.234,2.234,2.237,2.237,0,0,0,2.235-2.234,2.237,2.237,0,0,0-2.235-2.235Z" transform="translate(-6.916 -12.59)" fill="#f7296e"/></g></svg>