<svg xmlns="http://www.w3.org/2000/svg" width="90" height="78" viewBox="0 0 90 78">
  <g id="Try_it_locally_icon" transform="translate(-143.34 -23.5)">
    <path id="Path_2368" data-name="Path 2368" d="M227.34,23.5h-78a6.018,6.018,0,0,0-6,6v56a6.018,6.018,0,0,0,6,6h31.6l-1.2,6h-5.4a2,2,0,0,0,0,4h28a2,2,0,1,0,0-4h-5.4l-1.2-6h31.6a6.018,6.018,0,0,0,6-6v-56A6.018,6.018,0,0,0,227.34,23.5Zm-43.5,74,1.2-6h6.7l1.2,6Zm45.5-12a2.006,2.006,0,0,1-2,2h-78a2.006,2.006,0,0,1-2-2v-4h82Zm0-8h-82v-48a2.006,2.006,0,0,1,2-2h78a2.006,2.006,0,0,1,2,2Z" fill="#f7296e"/>
    <path id="Path_2369" data-name="Path 2369" d="M205.34,60.5h-34a2,2,0,0,0,0,4h34a2,2,0,1,0,0-4Z" fill="#f7296e"/>
    <path id="Path_2370" data-name="Path 2370" d="M205.34,50.5h-34a2,2,0,0,0,0,4h34a2,2,0,1,0,0-4Z" fill="#f7296e"/>
    <path id="Path_2371" data-name="Path 2371" d="M205.34,40.5h-34a2,2,0,0,0,0,4h34a2,2,0,0,0,0-4Z" fill="#f7296e"/>
  </g>
</svg>
