<svg xmlns="http://www.w3.org/2000/svg" width="84.493" height="69.615" viewBox="0 0 84.493 69.615"><path d="M25.032,66C55.068,66,71.49,40.616,71.49,18.6q0-1.081-.046-2.152A33.6,33.6,0,0,0,79.59,7.822a32.092,32.092,0,0,1-9.377,2.625A16.659,16.659,0,0,0,77.393,1.23,32.334,32.334,0,0,1,67.025,5.276a16.1,16.1,0,0,0-19.632-3.3,16.783,16.783,0,0,0-8.2,18.5A46.059,46.059,0,0,1,5.541,3.059,16.886,16.886,0,0,0,10.593,25.3,15.965,15.965,0,0,1,3.2,23.215l0,.212A16.587,16.587,0,0,0,16.3,39.759a16.06,16.06,0,0,1-7.373.287,16.392,16.392,0,0,0,15.251,11.57A32.358,32.358,0,0,1,3.9,58.745a33.281,33.281,0,0,1-3.9-.23A45.565,45.565,0,0,0,25.032,66" transform="translate(0.822 2.115)" fill="none" stroke="#f7296e" stroke-width="3"/></svg>