<?xml version="1.0" encoding="UTF-8" standalone="no"?>
<!-- Generator: Adobe Illustrator 16.0.3, SVG Export Plug-In . SVG Version: 6.00 Build 0)  -->

<svg
   xmlns:a="http://ns.adobe.com/AdobeSVGViewerExtensions/3.0/"
   xmlns:dc="http://purl.org/dc/elements/1.1/"
   xmlns:cc="http://creativecommons.org/ns#"
   xmlns:rdf="http://www.w3.org/1999/02/22-rdf-syntax-ns#"
   xmlns:svg="http://www.w3.org/2000/svg"
   xmlns="http://www.w3.org/2000/svg"
   xmlns:sodipodi="http://sodipodi.sourceforge.net/DTD/sodipodi-0.dtd"
   xmlns:inkscape="http://www.inkscape.org/namespaces/inkscape"
   version="1.1"
   id="Capa_1"
   x="0px"
   y="0px"
   width="170"
   height="63"
   viewBox="0 0 170 63"
   enable-background="new 0 0 214 134"
   xml:space="preserve"
   sodipodi:docname="view-at-github.svg"
   inkscape:version="0.92.4 (5da689c313, 2019-01-14)"><metadata
   id="metadata65"><rdf:RDF><cc:Work
       rdf:about=""><dc:format>image/svg+xml</dc:format><dc:type
         rdf:resource="http://purl.org/dc/dcmitype/StillImage" /><dc:title></dc:title></cc:Work></rdf:RDF></metadata><defs
   id="defs63" /><sodipodi:namedview
   pagecolor="#ffffff"
   bordercolor="#666666"
   borderopacity="1"
   objecttolerance="10"
   gridtolerance="10"
   guidetolerance="10"
   inkscape:pageopacity="0"
   inkscape:pageshadow="2"
   inkscape:window-width="1455"
   inkscape:window-height="931"
   id="namedview61"
   showgrid="false"
   inkscape:pagecheckerboard="true"
   showborder="true"
   borderlayer="false"
   inkscape:showpageshadow="false"
   inkscape:zoom="1.3271028"
   inkscape:cx="151.0485"
   inkscape:cy="67"
   inkscape:window-x="0"
   inkscape:window-y="0"
   inkscape:window-maximized="0"
   inkscape:current-layer="g58" />
<linearGradient
   id="SVGID_1_"
   gradientUnits="userSpaceOnUse"
   x1="42.971699"
   y1="7.5634999"
   x2="171.29221"
   y2="135.884"
   gradientTransform="matrix(1,0,0,-1,0.04,133.0947)">
	<stop
   offset="0"
   style="stop-color:#000000;stop-opacity:0.05"
   id="stop2" />
	<stop
   offset="0.3081"
   style="stop-color:#020202;stop-opacity:0.0514"
   id="stop4" />
	<stop
   offset="0.419"
   style="stop-color:#090909;stop-opacity:0.0519"
   id="stop6" />
	<stop
   offset="0.468"
   style="stop-color:#0F0F0F;stop-opacity:0.0522"
   id="stop8" />
	<stop
   offset="0.4994"
   style="stop-color:#252525;stop-opacity:0.0579"
   id="stop10" />
	<stop
   offset="0.565"
   style="stop-color:#5D5D5D;stop-opacity:0.0699"
   id="stop12" />
	<stop
   offset="0.658"
   style="stop-color:#B6B6B6;stop-opacity:0.087"
   id="stop14" />
	<stop
   offset="0.7291"
   style="stop-color:#FFFFFF;stop-opacity:0.1"
   id="stop16" />
	<stop
   offset="0.8743"
   style="stop-color:#747474;stop-opacity:0.1536"
   id="stop18" />
	<stop
   offset="1"
   style="stop-color:#000000;stop-opacity:0.2"
   id="stop20" />
	<a:midPointStop
   offset="0"
   style="stop-color:#000000;stop-opacity:0.05" />
	<a:midPointStop
   offset="0.87"
   style="stop-color:#000000;stop-opacity:0.05" />
	<a:midPointStop
   offset="0.468"
   style="stop-color:#0F0F0F;stop-opacity:0.0522" />
	<a:midPointStop
   offset="0.5427"
   style="stop-color:#0F0F0F;stop-opacity:0.0522" />
	<a:midPointStop
   offset="0.7291"
   style="stop-color:#FFFFFF;stop-opacity:0.1" />
	<a:midPointStop
   offset="0.4918"
   style="stop-color:#FFFFFF;stop-opacity:0.1" />
	<a:midPointStop
   offset="1"
   style="stop-color:#000000;stop-opacity:0.2" />
</linearGradient>
<rect
   x="10.07741"
   y="-18.642529"
   width="155.991"
   height="100.649"
   id="rect23"
   style="fill:none" />
<g
   id="g58"
   transform="translate(0,-71)">
	
	<g
   id="Group"
   transform="matrix(1.7150126,0,0,1.7150126,70.538739,80.781262)"
   style="fill:#000000;fill-opacity:0.94117647">
		<g
   id="Group-12"
   style="fill:#000000;fill-opacity:0.94117647">
			<path
   id="Fill-11"
   d="M 14.006,11.688 H 9.548 c -0.114,0 -0.206,0.1 -0.206,0.215 v 2.23 c 0,0.121 0.092,0.217 0.206,0.217 h 1.739 v 2.773 c 0,0 -0.393,0.139 -1.469,0.139 -1.275,0 -3.053,-0.479 -3.053,-4.486 0,-4.012 1.853,-4.539 3.59,-4.539 1.505,0 2.152,0.271 2.566,0.402 0.129,0.037 0.248,-0.092 0.248,-0.211 l 0.499,-2.156 c 0,-0.057 -0.019,-0.125 -0.08,-0.168 -0.167,-0.121 -1.19,-0.711 -3.771,-0.711 -2.979,0 -6.026,1.297 -6.026,7.537 0,6.24 3.491,7.168 6.437,7.168 2.439,0 3.916,-1.064 3.916,-1.064 0.063,-0.035 0.068,-0.121 0.068,-0.162 v -6.969 c 10e-4,-0.118 -0.094,-0.215 -0.206,-0.215"
   inkscape:connector-curvature="0"
   style="fill:#000000;fill-opacity:0.94117647" />
		</g>
		<path
   id="Fill-13"
   d="m 37.186,6.303 c 0,-0.119 -0.09,-0.211 -0.209,-0.211 h -2.533 c -0.115,0 -0.211,0.092 -0.211,0.211 v 4.943 H 30.28 V 6.303 c 0,-0.119 -0.093,-0.211 -0.209,-0.211 h -2.537 c -0.114,0 -0.209,0.092 -0.209,0.211 v 13.379 c 0,0.119 0.095,0.217 0.209,0.217 h 2.537 c 0.116,0 0.209,-0.098 0.209,-0.217 v -5.721 h 3.952 l -0.006,5.721 c 0,0.119 0.092,0.217 0.211,0.217 h 2.539 c 0.119,0 0.209,-0.098 0.209,-0.217 L 37.186,6.303"
   inkscape:connector-curvature="0"
   style="fill:#000000;fill-opacity:0.94117647" />
		<path
   id="Fill-14"
   d="m 18.943,7.814 c 0,-0.953 -0.721,-1.727 -1.604,-1.727 -0.886,0 -1.603,0.771 -1.603,1.727 0,0.953 0.717,1.729 1.603,1.729 0.886,0 1.604,-0.775 1.604,-1.729"
   inkscape:connector-curvature="0"
   style="fill:#000000;fill-opacity:0.94117647" />
		<path
   id="Fill-15"
   d="m 18.695,16.635 c 0,-0.34 0,-6.143 0,-6.143 0,-0.115 -0.094,-0.209 -0.208,-0.209 h -2.529 c -0.119,0 -0.221,0.119 -0.221,0.234 0,0 0,7.391 0,8.799 0,0.258 0.159,0.334 0.368,0.334 0,0 1.08,0 2.279,0 0.25,0 0.311,-0.123 0.311,-0.34 0,-0.468 0,-2.318 0,-2.675"
   inkscape:connector-curvature="0"
   style="fill:#000000;fill-opacity:0.94117647" />
		<path
   id="Fill-16"
   d="m 46.838,10.283 h -2.523 c -0.114,0 -0.209,0.096 -0.209,0.217 v 6.686 c 0,0 -0.641,0.48 -1.551,0.48 -0.91,0 -1.152,-0.424 -1.152,-1.334 0,-0.918 0,-5.83 0,-5.83 0,-0.121 -0.094,-0.219 -0.209,-0.219 h -2.563 c -0.115,0 -0.21,0.098 -0.21,0.219 0,0 0,3.561 0,6.27 0,2.711 1.476,3.375 3.505,3.375 1.663,0 3.006,-0.941 3.006,-0.941 0,0 0.063,0.496 0.094,0.557 0.029,0.063 0.104,0.119 0.187,0.119 l 1.63,-0.01 c 0.113,0 0.209,-0.1 0.209,-0.223 L 47.05,10.503 c -10e-4,-0.124 -0.096,-0.22 -0.212,-0.22"
   inkscape:connector-curvature="0"
   style="fill:#000000;fill-opacity:0.94117647" />
		<path
   id="Fill-17"
   d="M 52.637,17.717 C 51.768,17.69 51.178,17.291 51.178,17.291 v -4.23 c 0,0 0.58,-0.359 1.295,-0.428 0.902,-0.082 1.771,0.193 1.771,2.371 0,2.299 -0.39,2.75 -1.607,2.713 z m 0.987,-7.533 c -1.422,0 -2.392,0.646 -2.392,0.646 V 6.301 c 0,-0.117 -0.094,-0.209 -0.207,-0.209 h -2.533 c -0.115,0 -0.207,0.092 -0.207,0.209 v 13.367 c 0,0.117 0.092,0.213 0.207,0.213 h 1.756 c 0.079,0 0.141,-0.041 0.188,-0.111 0.043,-0.07 0.104,-0.617 0.104,-0.617 0,0 1.036,0.994 2.999,0.994 2.301,0 3.621,-1.184 3.621,-5.301 -0.002,-4.123 -2.107,-4.662 -3.536,-4.662 z"
   inkscape:connector-curvature="0"
   style="fill:#000000;fill-opacity:0.94117647" />
		<path
   id="Fill-18"
   d="m 26.092,10.242 h -1.92 L 24.168,7.713 c 0,-0.098 -0.048,-0.145 -0.158,-0.145 h -2.615 c -0.104,0 -0.157,0.045 -0.157,0.145 v 2.613 c 0,0 -1.312,0.313 -1.402,0.342 -0.088,0.023 -0.151,0.104 -0.151,0.201 v 1.641 c 0,0.117 0.097,0.215 0.211,0.215 h 1.344 c 0,0 0,1.717 0,3.949 0,2.938 2.064,3.225 3.457,3.225 0.636,0 1.396,-0.207 1.521,-0.25 0.077,-0.027 0.122,-0.104 0.122,-0.191 l 0.003,-1.805 c 0,-0.117 -0.102,-0.217 -0.213,-0.217 -0.113,0 -0.398,0.047 -0.693,0.047 -0.943,0 -1.262,-0.438 -1.262,-1.002 0,-0.564 0,-3.756 0,-3.756 h 1.92 c 0.116,0 0.209,-0.098 0.209,-0.215 v -2.055 c -10e-4,-0.119 -0.095,-0.213 -0.212,-0.213"
   inkscape:connector-curvature="0"
   style="fill:#000000;fill-opacity:0.94117647" />
	</g>
	<g
   id="g40"
   transform="translate(-40.334655,53.334046)">
		<path
   d="M 100.309,33.999 C 97.434,29.073 93.537,25.174 88.611,22.302 83.684,19.427 78.307,17.989 72.475,17.989 c -5.83,0 -11.213,1.438 -16.137,4.313 -4.925,2.872 -8.826,6.771 -11.699,11.697 -2.873,4.926 -4.312,10.303 -4.312,16.135 0,7.006 2.044,13.303 6.132,18.896 4.087,5.598 9.369,9.469 15.844,11.614 0.754,0.142 1.312,0.043 1.676,-0.293 0.359,-0.334 0.541,-0.754 0.541,-1.257 0,-0.081 -0.008,-0.836 -0.021,-2.26 -0.013,-1.422 -0.021,-2.664 -0.021,-3.724 l -0.963,0.166 c -0.613,0.111 -1.389,0.16 -2.322,0.146 -0.936,-0.014 -1.903,-0.111 -2.908,-0.295 -1.007,-0.18 -1.939,-0.598 -2.805,-1.254 -0.867,-0.658 -1.482,-1.512 -1.842,-2.57 l -0.42,-0.967 C 52.939,67.695 52.499,66.984 51.9,66.203 51.301,65.422 50.694,64.891 50.081,64.613 l -0.294,-0.21 c -0.195,-0.141 -0.375,-0.307 -0.544,-0.503 -0.167,-0.196 -0.291,-0.39 -0.377,-0.584 -0.084,-0.197 -0.013,-0.357 0.21,-0.481 0.223,-0.126 0.628,-0.188 1.215,-0.188 l 0.836,0.123 c 0.561,0.115 1.249,0.447 2.072,1.005 0.822,0.56 1.499,1.286 2.029,2.177 0.642,1.145 1.416,2.017 2.324,2.616 0.907,0.601 1.818,0.896 2.74,0.896 0.92,0 1.717,-0.064 2.385,-0.207 0.67,-0.141 1.301,-0.35 1.883,-0.627 0.254,-1.871 0.938,-3.308 2.052,-4.312 -1.591,-0.166 -3.019,-0.418 -4.289,-0.754 -1.269,-0.334 -2.581,-0.879 -3.935,-1.633 -1.354,-0.752 -2.479,-1.688 -3.369,-2.803 -0.894,-1.117 -1.625,-2.582 -2.197,-4.395 -0.573,-1.813 -0.858,-3.907 -0.858,-6.278 0,-3.378 1.103,-6.251 3.308,-8.623 -1.033,-2.54 -0.935,-5.385 0.291,-8.538 0.812,-0.252 2.013,-0.063 3.602,0.565 1.592,0.627 2.756,1.166 3.497,1.61 0.737,0.446 1.332,0.824 1.776,1.129 2.599,-0.726 5.274,-1.086 8.037,-1.086 2.763,0 5.44,0.361 8.035,1.086 l 1.594,-1.004 c 1.086,-0.668 2.371,-1.283 3.849,-1.842 1.479,-0.559 2.61,-0.711 3.392,-0.46 1.256,3.153 1.368,5.999 0.336,8.538 2.202,2.372 3.308,5.246 3.308,8.623 0,2.371 -0.288,4.471 -0.858,6.299 -0.572,1.828 -1.313,3.293 -2.218,4.395 -0.907,1.104 -2.038,2.031 -3.392,2.783 -1.354,0.754 -2.664,1.299 -3.936,1.633 -1.27,0.336 -2.699,0.588 -4.288,0.754 1.446,1.257 2.177,3.235 2.177,5.944 v 8.83 c 0,0.502 0.172,0.92 0.522,1.254 0.349,0.336 0.899,0.436 1.651,0.293 6.476,-2.146 11.756,-6.02 15.845,-11.611 4.086,-5.595 6.131,-11.892 6.131,-18.898 -0.004,-5.828 -1.439,-11.205 -4.314,-16.13 z"
   id="path38"
   style="fill:#000000;fill-opacity:0.94117647"
   inkscape:connector-curvature="0" />
	</g>
	
	
</g>
</svg>